M48
; DRILL file {KiCad 9.0.0} date 2025-05-12T22:41:29+0200
; FORMAT={-:-/ absolute / metric / decimal}
; #@! TF.CreationDate,2025-05-12T22:41:29+02:00
; #@! TF.GenerationSoftware,Kicad,Pcbnew,9.0.0
; #@! TF.FileFunction,Plated,1,4,PTH
FMAT,2
METRIC
; #@! TA.AperFunction,Plated,PTH,ViaDrill
T1C0.300
; #@! TA.AperFunction,Plated,PTH,ComponentDrill
T2C0.300
; #@! TA.AperFunction,Plated,PTH,ViaDrill
T3C0.400
; #@! TA.AperFunction,Plated,PTH,ComponentDrill
T4C0.450
; #@! TA.AperFunction,Plated,PTH,ComponentDrill
T5C0.650
; #@! TA.AperFunction,Plated,PTH,ComponentDrill
T6C0.700
; #@! TA.AperFunction,Plated,PTH,ComponentDrill
T7C1.000
%
G90
G05
T1
X116.775Y-85.55
X117.85Y-80.725
X117.975Y-85.375
X119.075Y-60.75
X119.15Y-84.75
X119.2Y-81.55
X121.575Y-68.325
X121.85Y-90.2
X122.0Y-85.2
X122.8Y-95.2
X123.45Y-98.3
X123.9Y-90.55
X124.438Y-92.312
X124.725Y-93.25
X124.85Y-85.5
X124.9Y-86.65
X124.95Y-88.65
X125.85Y-93.35
X126.3Y-87.85
X127.0Y-90.55
X127.65Y-90.55
X128.25Y-93.85
X128.3Y-90.55
X128.85Y-67.7
X128.85Y-69.85
X129.15Y-87.75
X129.7Y-82.0
X130.025Y-96.4
X130.675Y-88.85
X131.3Y-99.35
X131.95Y-70.9
X132.15Y-82.1
X133.3Y-68.75
X134.3Y-88.55
X134.75Y-59.485
X135.35Y-87.75
X136.4Y-80.5
X136.85Y-67.05
X137.0Y-65.6
X137.15Y-63.65
X137.6Y-78.0
X137.65Y-74.8
X137.85Y-65.9
X137.95Y-50.9
X137.95Y-80.0
X138.15Y-85.7
X140.05Y-87.55
X140.301Y-58.249
X140.4Y-65.8
X140.75Y-90.85
X140.75Y-94.65
X140.75Y-102.65
X140.8Y-93.7
X141.85Y-79.65
X142.0Y-87.6
X142.425Y-91.75
X142.525Y-90.525
X142.9Y-50.3
X142.95Y-92.775
X144.0Y-69.2
X144.05Y-98.3
X144.05Y-102.8
X144.1Y-89.05
X144.1Y-93.425
X144.95Y-84.15
X145.2Y-71.2
X145.5Y-82.3
X145.9Y-72.2
X146.05Y-95.3
X146.5Y-54.2
X146.5Y-58.25
X146.55Y-51.05
X146.55Y-55.15
X147.1Y-90.325
X147.275Y-94.1
X148.15Y-91.15
X148.2Y-92.075
X148.3Y-76.1
X148.45Y-78.7
X148.625Y-93.65
X148.717Y-54.85
X148.85Y-55.725
X148.95Y-82.75
X149.05Y-53.65
X149.4Y-80.55
X149.4Y-101.6
X149.45Y-56.95
X149.5Y-76.1
X150.133Y-93.614
X150.375Y-92.35
X150.45Y-73.55
X151.3Y-77.3
X151.3Y-78.025
X151.5Y-92.3
X151.575Y-53.55
X151.6Y-79.95
X151.9Y-85.9
X152.0Y-84.0
X152.83Y-94.88
X152.85Y-70.15
X152.9Y-68.75
X152.9Y-89.15
X153.075Y-54.725
X154.0Y-92.6
X154.75Y-97.6
X154.8Y-102.35
X155.15Y-61.35
X155.95Y-76.65
X156.05Y-81.0
X156.3Y-73.8
X156.55Y-58.8
X156.95Y-53.137
X157.85Y-102.4
X158.35Y-89.7
X159.75Y-96.85
X160.0Y-74.2
X160.35Y-50.837
X160.7Y-82.5
X160.7Y-105.6
X162.2Y-60.6
X162.85Y-51.3
X163.7Y-50.9
X163.7Y-54.25
X164.3Y-67.7
X165.1Y-61.3
X165.85Y-56.2
X165.85Y-79.85
X166.2Y-50.8
X166.4Y-53.15
X167.0Y-67.7
X168.0Y-62.65
X168.325Y-61.777
X168.475Y-50.725
X168.825Y-63.2
X168.85Y-64.55
X169.275Y-70.925
X169.775Y-63.525
X170.4Y-79.85
X171.525Y-51.0
X174.3Y-75.2
X174.925Y-59.675
X176.2Y-64.025
X178.7Y-75.1
X181.1Y-64.5
X184.1Y-75.8
X184.8Y-59.0
X184.8Y-60.6
X185.4Y-79.5
X185.6Y-51.5
X185.675Y-54.5
X189.05Y-70.45
X190.625Y-72.025
X191.1Y-106.3
X191.4Y-65.1
X192.25Y-77.25
X193.1Y-64.75
X194.4Y-72.7
X194.475Y-70.0
X195.025Y-58.725
X196.5Y-86.0
T2
X178.36Y-55.65
X178.36Y-56.75
X178.91Y-55.1
X178.91Y-56.2
X178.91Y-57.3
X179.46Y-55.65
X179.46Y-56.75
X180.01Y-55.1
X180.01Y-56.2
X180.01Y-57.3
X180.56Y-55.65
X180.56Y-56.75
T3
X117.987Y-51.337
X119.225Y-55.7
X128.75Y-52.675
X128.775Y-55.65
T4
X146.6Y-96.709
X147.0Y-97.419
X147.4Y-96.709
X147.8Y-97.419
X148.2Y-96.709
X148.6Y-97.419
X149.0Y-96.709
X149.8Y-96.709
X150.2Y-97.419
X150.6Y-96.709
X151.0Y-97.419
X151.4Y-96.709
X151.8Y-97.419
X152.2Y-96.709
T6
X121.8Y-67.0
X123.7Y-67.0
T7
X196.6Y-61.064
X196.6Y-63.604
X196.6Y-66.144
X196.6Y-68.684
X196.6Y-73.5
X196.6Y-76.04
X196.6Y-78.58
X196.6Y-81.12
X196.6Y-83.66
T5
G00X145.13Y-97.559
M15
G01X145.13Y-98.159
M16
G05
G00X145.13Y-102.289
M15
G01X145.13Y-102.889
M16
G05
G00X153.67Y-97.559
M15
G01X153.67Y-98.159
M16
G05
G00X153.67Y-102.289
M15
G01X153.67Y-102.889
M16
G05
M30
