%TF.GenerationSoftware,KiCad,Pcbnew,9.0.0*%
%TF.CreationDate,2025-05-12T22:40:26+02:00*%
%TF.ProjectId,ESP32_PeterDalmaris_Board,45535033-325f-4506-9574-657244616c6d,rev?*%
%TF.SameCoordinates,Original*%
%TF.FileFunction,Soldermask,Top*%
%TF.FilePolarity,Negative*%
%FSLAX46Y46*%
G04 Gerber Fmt 4.6, Leading zero omitted, Abs format (unit mm)*
G04 Created by KiCad (PCBNEW 9.0.0) date 2025-05-12 22:40:26*
%MOMM*%
%LPD*%
G01*
G04 APERTURE LIST*
G04 Aperture macros list*
%AMRoundRect*
0 Rectangle with rounded corners*
0 $1 Rounding radius*
0 $2 $3 $4 $5 $6 $7 $8 $9 X,Y pos of 4 corners*
0 Add a 4 corners polygon primitive as box body*
4,1,4,$2,$3,$4,$5,$6,$7,$8,$9,$2,$3,0*
0 Add four circle primitives for the rounded corners*
1,1,$1+$1,$2,$3*
1,1,$1+$1,$4,$5*
1,1,$1+$1,$6,$7*
1,1,$1+$1,$8,$9*
0 Add four rect primitives between the rounded corners*
20,1,$1+$1,$2,$3,$4,$5,0*
20,1,$1+$1,$4,$5,$6,$7,0*
20,1,$1+$1,$6,$7,$8,$9,0*
20,1,$1+$1,$8,$9,$2,$3,0*%
G04 Aperture macros list end*
%ADD10RoundRect,0.102000X-0.800000X0.700000X-0.800000X-0.700000X0.800000X-0.700000X0.800000X0.700000X0*%
%ADD11RoundRect,0.175500X0.526500X0.836500X-0.526500X0.836500X-0.526500X-0.836500X0.526500X-0.836500X0*%
%ADD12RoundRect,0.250000X-0.475000X0.250000X-0.475000X-0.250000X0.475000X-0.250000X0.475000X0.250000X0*%
%ADD13RoundRect,0.102000X0.475000X-1.075000X0.475000X1.075000X-0.475000X1.075000X-0.475000X-1.075000X0*%
%ADD14RoundRect,0.102000X1.625000X-1.075000X1.625000X1.075000X-1.625000X1.075000X-1.625000X-1.075000X0*%
%ADD15RoundRect,0.250000X-0.250000X-0.475000X0.250000X-0.475000X0.250000X0.475000X-0.250000X0.475000X0*%
%ADD16RoundRect,0.250000X0.450000X-0.262500X0.450000X0.262500X-0.450000X0.262500X-0.450000X-0.262500X0*%
%ADD17RoundRect,0.102000X-0.400000X0.550000X-0.400000X-0.550000X0.400000X-0.550000X0.400000X0.550000X0*%
%ADD18RoundRect,0.102000X-0.500000X0.550000X-0.500000X-0.550000X0.500000X-0.550000X0.500000X0.550000X0*%
%ADD19C,1.412000*%
%ADD20C,1.150000*%
%ADD21C,1.650000*%
%ADD22RoundRect,0.102000X-0.500000X-0.750000X0.500000X-0.750000X0.500000X0.750000X-0.500000X0.750000X0*%
%ADD23RoundRect,0.102000X-0.350000X-0.750000X0.350000X-0.750000X0.350000X0.750000X-0.350000X0.750000X0*%
%ADD24RoundRect,0.102000X-0.750000X-1.400000X0.750000X-1.400000X0.750000X1.400000X-0.750000X1.400000X0*%
%ADD25RoundRect,0.102000X-0.600000X-0.600000X0.600000X-0.600000X0.600000X0.600000X-0.600000X0.600000X0*%
%ADD26R,1.700000X1.700000*%
%ADD27O,1.700000X1.700000*%
%ADD28RoundRect,0.102000X-0.150000X-0.600000X0.150000X-0.600000X0.150000X0.600000X-0.150000X0.600000X0*%
%ADD29C,0.854000*%
%ADD30RoundRect,0.102000X-0.100000X-0.500000X0.100000X-0.500000X0.100000X0.500000X-0.100000X0.500000X0*%
%ADD31O,1.254000X2.304000*%
%ADD32RoundRect,0.250000X-0.450000X0.262500X-0.450000X-0.262500X0.450000X-0.262500X0.450000X0.262500X0*%
%ADD33RoundRect,0.250000X-0.262500X-0.450000X0.262500X-0.450000X0.262500X0.450000X-0.262500X0.450000X0*%
%ADD34RoundRect,0.150000X0.150000X-0.587500X0.150000X0.587500X-0.150000X0.587500X-0.150000X-0.587500X0*%
%ADD35RoundRect,0.250000X0.262500X0.450000X-0.262500X0.450000X-0.262500X-0.450000X0.262500X-0.450000X0*%
%ADD36C,2.500000*%
%ADD37RoundRect,0.179250X-0.537750X0.777750X-0.537750X-0.777750X0.537750X-0.777750X0.537750X0.777750X0*%
%ADD38C,1.000000*%
%ADD39RoundRect,0.250000X0.475000X-0.250000X0.475000X0.250000X-0.475000X0.250000X-0.475000X-0.250000X0*%
%ADD40RoundRect,0.102000X-0.750000X-0.450000X0.750000X-0.450000X0.750000X0.450000X-0.750000X0.450000X0*%
%ADD41RoundRect,0.102000X-0.350000X-0.350000X0.350000X-0.350000X0.350000X0.350000X-0.350000X0.350000X0*%
%ADD42RoundRect,0.102000X0.600000X0.600000X-0.600000X0.600000X-0.600000X-0.600000X0.600000X-0.600000X0*%
%ADD43RoundRect,0.102000X2.750000X-0.500000X2.750000X0.500000X-2.750000X0.500000X-2.750000X-0.500000X0*%
%ADD44RoundRect,0.102000X1.500000X-0.800000X1.500000X0.800000X-1.500000X0.800000X-1.500000X-0.800000X0*%
%ADD45RoundRect,0.151000X-0.546000X-0.151000X0.546000X-0.151000X0.546000X0.151000X-0.546000X0.151000X0*%
%ADD46RoundRect,0.062500X0.062500X-0.350000X0.062500X0.350000X-0.062500X0.350000X-0.062500X-0.350000X0*%
%ADD47RoundRect,0.062500X0.350000X-0.062500X0.350000X0.062500X-0.350000X0.062500X-0.350000X-0.062500X0*%
%ADD48R,2.500000X2.500000*%
%ADD49RoundRect,0.250000X0.250000X0.475000X-0.250000X0.475000X-0.250000X-0.475000X0.250000X-0.475000X0*%
%ADD50O,1.804000X0.804000*%
%ADD51RoundRect,0.179250X0.537750X-0.777750X0.537750X0.777750X-0.537750X0.777750X-0.537750X-0.777750X0*%
%ADD52RoundRect,0.102000X0.600000X-0.600000X0.600000X0.600000X-0.600000X0.600000X-0.600000X-0.600000X0*%
%ADD53RoundRect,0.179250X-0.777750X-0.537750X0.777750X-0.537750X0.777750X0.537750X-0.777750X0.537750X0*%
%ADD54RoundRect,0.150000X0.150000X-0.512500X0.150000X0.512500X-0.150000X0.512500X-0.150000X-0.512500X0*%
%ADD55R,0.500000X0.350000*%
%ADD56R,0.300000X0.300000*%
%ADD57R,0.300000X0.900000*%
%ADD58R,0.900000X0.300000*%
%ADD59R,1.800000X1.800000*%
G04 APERTURE END LIST*
D10*
%TO.C,S2*%
X119350000Y-54337500D03*
X126550000Y-54337500D03*
X119350000Y-51337500D03*
X126550000Y-51337500D03*
%TD*%
%TO.C,S1*%
X128775000Y-54325000D03*
X135975000Y-54325000D03*
X128775000Y-51325000D03*
X135975000Y-51325000D03*
%TD*%
D11*
%TO.C,R35*%
X146955000Y-91850000D03*
X143945000Y-91850000D03*
%TD*%
D12*
%TO.C,C3*%
X123175000Y-92312500D03*
X123175000Y-94212500D03*
%TD*%
D13*
%TO.C,VR1*%
X136300000Y-87400000D03*
X138600000Y-87400000D03*
X140900000Y-87400000D03*
D14*
X138600000Y-81600000D03*
%TD*%
D15*
%TO.C,C21*%
X138150000Y-67100000D03*
X140050000Y-67100000D03*
%TD*%
D16*
%TO.C,R22*%
X155400000Y-54962500D03*
X155400000Y-53137500D03*
%TD*%
D17*
%TO.C,Q1*%
X140400000Y-53755000D03*
X139300000Y-53755000D03*
D18*
X139850000Y-57265000D03*
%TD*%
D19*
%TO.C,MK1*%
X121800000Y-67000000D03*
X123700000Y-67000000D03*
%TD*%
D20*
%TO.C,J3*%
X164250000Y-83887500D03*
D21*
X185250000Y-83887500D03*
D22*
X182625000Y-81087500D03*
X180125000Y-81087500D03*
X177625000Y-81087500D03*
X175125000Y-81087500D03*
X172625000Y-81087500D03*
X170125000Y-81087500D03*
X167700000Y-81087500D03*
X166000000Y-81087500D03*
X185125000Y-81087500D03*
D23*
X164700000Y-81087500D03*
D24*
X162100000Y-82887500D03*
X187200000Y-82887500D03*
X189400000Y-104387500D03*
X162100000Y-104387500D03*
D23*
X163500000Y-81087500D03*
%TD*%
D25*
%TO.C,D6*%
X134275000Y-94812500D03*
X132175000Y-94812500D03*
%TD*%
D26*
%TO.C,J5*%
X196600000Y-73500000D03*
D27*
X196600000Y-76040000D03*
X196600000Y-78580000D03*
X196600000Y-81120000D03*
X196600000Y-83660000D03*
%TD*%
D15*
%TO.C,C18*%
X129887500Y-62700000D03*
X131787500Y-62700000D03*
%TD*%
D28*
%TO.C,J1*%
X146650000Y-95459500D03*
X147150000Y-95459500D03*
X147650000Y-95459500D03*
X148150000Y-95459500D03*
X148650000Y-95459500D03*
X149150000Y-95459500D03*
X149650000Y-95459500D03*
X150150000Y-95459500D03*
X150650000Y-95459500D03*
X151150000Y-95459500D03*
X151650000Y-95459500D03*
X152150000Y-95459500D03*
D29*
X152200000Y-96709500D03*
X151800000Y-97419500D03*
X151000000Y-97419500D03*
X150600000Y-96709500D03*
X150200000Y-97419500D03*
X149800000Y-96709500D03*
X149000000Y-96709500D03*
X148600000Y-97419500D03*
X148200000Y-96709500D03*
X147800000Y-97419500D03*
X147000000Y-97419500D03*
X146600000Y-96709500D03*
X151400000Y-96709500D03*
X147400000Y-96709500D03*
D30*
X149400000Y-100039500D03*
X149400000Y-103139500D03*
D31*
X145130000Y-97859500D03*
X153670000Y-97859500D03*
X145130000Y-102589500D03*
X153670000Y-102589500D03*
%TD*%
D32*
%TO.C,R2*%
X140500000Y-99837500D03*
X140500000Y-101662500D03*
%TD*%
D12*
%TO.C,C10*%
X167250000Y-50300000D03*
X167250000Y-52200000D03*
%TD*%
D33*
%TO.C,R20*%
X162450000Y-58950000D03*
X164275000Y-58950000D03*
%TD*%
D34*
%TO.C,Q3*%
X130700000Y-58547500D03*
X132600000Y-58547500D03*
X131650000Y-56672500D03*
%TD*%
D35*
%TO.C,R25*%
X140812500Y-51150000D03*
X138987500Y-51150000D03*
%TD*%
%TO.C,R10*%
X139837500Y-90125000D03*
X138012500Y-90125000D03*
%TD*%
D36*
%TO.C,REF\u002A\u002A*%
X194207107Y-54000000D03*
%TD*%
D35*
%TO.C,R9*%
X139837500Y-92875000D03*
X138012500Y-92875000D03*
%TD*%
%TO.C,R26*%
X131750000Y-64900000D03*
X129925000Y-64900000D03*
%TD*%
D32*
%TO.C,R30*%
X135550000Y-71387500D03*
X135550000Y-73212500D03*
%TD*%
D37*
%TO.C,C11*%
X165000000Y-50900000D03*
X165000000Y-53600000D03*
%TD*%
D16*
%TO.C,R34*%
X161500000Y-52662500D03*
X161500000Y-50837500D03*
%TD*%
D38*
%TO.C,TP4*%
X187500000Y-73700000D03*
%TD*%
D32*
%TO.C,R6*%
X131175000Y-82962500D03*
X131175000Y-84787500D03*
%TD*%
D33*
%TO.C,R14*%
X153000000Y-84000000D03*
X154825000Y-84000000D03*
%TD*%
D35*
%TO.C,R28*%
X135950000Y-64700000D03*
X134125000Y-64700000D03*
%TD*%
D16*
%TO.C,R21*%
X167796000Y-77859000D03*
X167796000Y-76034000D03*
%TD*%
D39*
%TO.C,C19*%
X133150000Y-73250000D03*
X133150000Y-71350000D03*
%TD*%
D40*
%TO.C,U2*%
X169750000Y-50000000D03*
X169750000Y-51500000D03*
X169750000Y-53000000D03*
X169750000Y-54500000D03*
X169750000Y-56000000D03*
X169750000Y-57500000D03*
X169750000Y-59000000D03*
X169750000Y-60500000D03*
X169750000Y-62000000D03*
X187250000Y-62000000D03*
X187250000Y-60500000D03*
X187250000Y-59000000D03*
X187250000Y-57500000D03*
X187250000Y-56000000D03*
X187250000Y-54500000D03*
X187250000Y-53000000D03*
X187250000Y-51500000D03*
X187250000Y-50000000D03*
D41*
X178360000Y-55100000D03*
X179460000Y-55100000D03*
X180560000Y-55100000D03*
X178360000Y-56200000D03*
X179460000Y-56200000D03*
X180560000Y-56200000D03*
X178360000Y-57300000D03*
X179460000Y-57300000D03*
X180560000Y-57300000D03*
%TD*%
D15*
%TO.C,C14*%
X163984500Y-65978000D03*
X165884500Y-65978000D03*
%TD*%
D36*
%TO.C,REF\u002A\u002A*%
X115000000Y-103000000D03*
%TD*%
%TO.C,REF\u002A\u002A*%
X115000000Y-54000000D03*
%TD*%
D42*
%TO.C,D9*%
X142200000Y-75637500D03*
X144300000Y-75637500D03*
%TD*%
D16*
%TO.C,R19*%
X182750000Y-77712500D03*
X182750000Y-75887500D03*
%TD*%
D38*
%TO.C,TP3*%
X172625000Y-73575000D03*
%TD*%
D32*
%TO.C,R24*%
X155400000Y-57337500D03*
X155400000Y-59162500D03*
%TD*%
D16*
%TO.C,R33*%
X141600000Y-62037500D03*
X141600000Y-63862500D03*
%TD*%
D43*
%TO.C,J2*%
X115707500Y-84100000D03*
X115707500Y-82100000D03*
D44*
X113457500Y-86500000D03*
X113457500Y-79700000D03*
%TD*%
D39*
%TO.C,C15*%
X147800000Y-53600000D03*
X147800000Y-51700000D03*
%TD*%
%TO.C,C20*%
X138750000Y-71250000D03*
X138750000Y-69350000D03*
%TD*%
D12*
%TO.C,C16*%
X147800000Y-55850000D03*
X147800000Y-57750000D03*
%TD*%
%TO.C,C7*%
X152450000Y-77087500D03*
X152450000Y-78987500D03*
%TD*%
%TO.C,C22*%
X134600000Y-56597500D03*
X134600000Y-58497500D03*
%TD*%
D45*
%TO.C,U7*%
X134430000Y-67800000D03*
X134430000Y-68450000D03*
X134430000Y-69100000D03*
X136350000Y-69100000D03*
X136350000Y-67800000D03*
%TD*%
D46*
%TO.C,U1*%
X126725000Y-92462500D03*
X127225000Y-92462500D03*
X127725000Y-92462500D03*
X128225000Y-92462500D03*
X128725000Y-92462500D03*
D47*
X129662500Y-91525000D03*
X129662500Y-91025000D03*
X129662500Y-90525000D03*
X129662500Y-90025000D03*
X129662500Y-89525000D03*
D46*
X128725000Y-88587500D03*
X128225000Y-88587500D03*
X127725000Y-88587500D03*
X127225000Y-88587500D03*
X126725000Y-88587500D03*
D47*
X125787500Y-89525000D03*
X125787500Y-90025000D03*
X125787500Y-90525000D03*
X125787500Y-91025000D03*
X125787500Y-91525000D03*
D48*
X127725000Y-90525000D03*
%TD*%
D49*
%TO.C,C17*%
X131787500Y-69100000D03*
X129887500Y-69100000D03*
%TD*%
D50*
%TO.C,U5*%
X154400000Y-66095000D03*
X154400000Y-67365000D03*
X154400000Y-68635000D03*
X154400000Y-69905000D03*
X161600000Y-69905000D03*
X161600000Y-68635000D03*
X161600000Y-67365000D03*
X161600000Y-66095000D03*
%TD*%
D25*
%TO.C,D4*%
X134275000Y-92462500D03*
X132175000Y-92462500D03*
%TD*%
D15*
%TO.C,C1*%
X151206000Y-93609500D03*
X153106000Y-93609500D03*
%TD*%
D34*
%TO.C,Q2*%
X121427500Y-58547500D03*
X123327500Y-58547500D03*
X122377500Y-56672500D03*
%TD*%
D35*
%TO.C,R11*%
X139837500Y-95625000D03*
X138012500Y-95625000D03*
%TD*%
D25*
%TO.C,D5*%
X134275000Y-90112500D03*
X132175000Y-90112500D03*
%TD*%
D15*
%TO.C,C12*%
X175230000Y-78731500D03*
X177130000Y-78731500D03*
%TD*%
D38*
%TO.C,TP1*%
X179000000Y-71700000D03*
%TD*%
D39*
%TO.C,C4*%
X126125000Y-86825000D03*
X126125000Y-84925000D03*
%TD*%
D32*
%TO.C,R5*%
X128675000Y-82962500D03*
X128675000Y-84787500D03*
%TD*%
D51*
%TO.C,C5*%
X143650000Y-87600000D03*
X143650000Y-84900000D03*
%TD*%
D16*
%TO.C,R7*%
X132375000Y-98325000D03*
X132375000Y-96500000D03*
%TD*%
D35*
%TO.C,R3*%
X130025000Y-97562500D03*
X128200000Y-97562500D03*
%TD*%
D33*
%TO.C,R29*%
X134125000Y-62700000D03*
X135950000Y-62700000D03*
%TD*%
%TO.C,R17*%
X138737500Y-75637500D03*
X140562500Y-75637500D03*
%TD*%
D35*
%TO.C,R4*%
X126325000Y-97562500D03*
X124500000Y-97562500D03*
%TD*%
D49*
%TO.C,C9*%
X154862500Y-88000000D03*
X152962500Y-88000000D03*
%TD*%
D16*
%TO.C,R32*%
X143625000Y-63862500D03*
X143625000Y-62037500D03*
%TD*%
%TO.C,R31*%
X141550000Y-71212500D03*
X141550000Y-69387500D03*
%TD*%
D32*
%TO.C,R23*%
X151725000Y-65212500D03*
X151725000Y-67037500D03*
%TD*%
D35*
%TO.C,R15*%
X154825000Y-86000000D03*
X153000000Y-86000000D03*
%TD*%
D52*
%TO.C,D7*%
X159500000Y-89869000D03*
X159500000Y-91969000D03*
%TD*%
D53*
%TO.C,C13*%
X175330000Y-76481500D03*
X178030000Y-76481500D03*
%TD*%
D33*
%TO.C,R16*%
X138737500Y-77637500D03*
X140562500Y-77637500D03*
%TD*%
D12*
%TO.C,C23*%
X119300000Y-57725000D03*
X119300000Y-59625000D03*
%TD*%
D38*
%TO.C,TP2*%
X167775000Y-73075000D03*
%TD*%
D35*
%TO.C,R8*%
X133587500Y-87412500D03*
X131762500Y-87412500D03*
%TD*%
D54*
%TO.C,U4*%
X148450000Y-83837500D03*
X149400000Y-83837500D03*
X150350000Y-83837500D03*
X150350000Y-81562500D03*
X149400000Y-81562500D03*
X148450000Y-81562500D03*
%TD*%
D37*
%TO.C,C25*%
X154650000Y-77487500D03*
X154650000Y-80187500D03*
%TD*%
D36*
%TO.C,REF\u002A\u002A*%
X194250000Y-103500000D03*
%TD*%
D32*
%TO.C,R1*%
X158000000Y-99587500D03*
X158000000Y-101412500D03*
%TD*%
D55*
%TO.C,U6*%
X151600000Y-54300000D03*
X151600000Y-54950000D03*
X151600000Y-55600000D03*
X151600000Y-56250000D03*
X149550000Y-56250000D03*
X149550000Y-55600000D03*
X149550000Y-54950000D03*
X149550000Y-54300000D03*
%TD*%
D53*
%TO.C,C6*%
X142650000Y-81050000D03*
X145350000Y-81050000D03*
%TD*%
D35*
%TO.C,R13*%
X155162500Y-74637500D03*
X153337500Y-74637500D03*
%TD*%
D16*
%TO.C,R12*%
X159500000Y-95792000D03*
X159500000Y-93967000D03*
%TD*%
D33*
%TO.C,R18*%
X161237500Y-62500000D03*
X163062500Y-62500000D03*
%TD*%
D26*
%TO.C,J4*%
X196600000Y-61064000D03*
D27*
X196600000Y-63604000D03*
X196600000Y-66144000D03*
X196600000Y-68684000D03*
%TD*%
D33*
%TO.C,R27*%
X129925000Y-66900000D03*
X131750000Y-66900000D03*
%TD*%
D38*
%TO.C,TP5*%
X183425000Y-64475000D03*
%TD*%
D56*
%TO.C,U3*%
X147650000Y-77350000D03*
D57*
X148150000Y-77650000D03*
X148650000Y-77650000D03*
X149150000Y-77650000D03*
X149650000Y-77650000D03*
D56*
X150150000Y-77350000D03*
D58*
X150450000Y-76850000D03*
X150450000Y-76350000D03*
X150450000Y-75850000D03*
X150450000Y-75350000D03*
D56*
X150150000Y-74850000D03*
D57*
X149650000Y-74550000D03*
X149150000Y-74550000D03*
X148650000Y-74550000D03*
X148150000Y-74550000D03*
D56*
X147650000Y-74850000D03*
D58*
X147350000Y-75350000D03*
X147350000Y-75850000D03*
X147350000Y-76350000D03*
X147350000Y-76850000D03*
D59*
X148900000Y-76100000D03*
%TD*%
D51*
%TO.C,C24*%
X123175000Y-89212500D03*
X123175000Y-86512500D03*
%TD*%
D42*
%TO.C,D8*%
X142200000Y-77437500D03*
X144300000Y-77437500D03*
%TD*%
M02*
