%TF.GenerationSoftware,KiCad,Pcbnew,9.0.0*%
%TF.CreationDate,2025-05-12T22:40:26+02:00*%
%TF.ProjectId,ESP32_PeterDalmaris_Board,45535033-325f-4506-9574-657244616c6d,rev?*%
%TF.SameCoordinates,Original*%
%TF.FileFunction,Copper,L2,Inr*%
%TF.FilePolarity,Positive*%
%FSLAX46Y46*%
G04 Gerber Fmt 4.6, Leading zero omitted, Abs format (unit mm)*
G04 Created by KiCad (PCBNEW 9.0.0) date 2025-05-12 22:40:26*
%MOMM*%
%LPD*%
G01*
G04 APERTURE LIST*
%TA.AperFunction,ComponentPad*%
%ADD10C,1.208000*%
%TD*%
%TA.AperFunction,ComponentPad*%
%ADD11R,1.700000X1.700000*%
%TD*%
%TA.AperFunction,ComponentPad*%
%ADD12O,1.700000X1.700000*%
%TD*%
%TA.AperFunction,ComponentPad*%
%ADD13C,0.650000*%
%TD*%
%TA.AperFunction,ComponentPad*%
%ADD14O,1.050000X2.100000*%
%TD*%
%TA.AperFunction,ComponentPad*%
%ADD15C,0.400000*%
%TD*%
%TA.AperFunction,ViaPad*%
%ADD16C,0.600000*%
%TD*%
G04 APERTURE END LIST*
D10*
%TO.N,GND*%
%TO.C,MK1*%
X121800000Y-67000000D03*
%TO.N,Net-(C18-Pad1)*%
X123700000Y-67000000D03*
%TD*%
D11*
%TO.N,+3.3V*%
%TO.C,J5*%
X196600000Y-73500000D03*
D12*
%TO.N,/ESP32/GPIO8*%
X196600000Y-76040000D03*
%TO.N,/ESP32/GPIO18*%
X196600000Y-78580000D03*
%TO.N,/ESP32/GPIO19*%
X196600000Y-81120000D03*
%TO.N,GND*%
X196600000Y-83660000D03*
%TD*%
D13*
%TO.N,GND*%
%TO.C,J1*%
X152200000Y-96709500D03*
%TO.N,unconnected-(J1-SSTXP2-PadB2)*%
X151800000Y-97419500D03*
%TO.N,unconnected-(J1-SSTXN2-PadB3)*%
X151000000Y-97419500D03*
%TO.N,/VBUS*%
X150600000Y-96709500D03*
%TO.N,Net-(J1-CC2)*%
X150200000Y-97419500D03*
%TO.N,/USB_DP*%
X149800000Y-96709500D03*
%TO.N,/USB_DN*%
X149000000Y-96709500D03*
%TO.N,unconnected-(J1-SBU2-PadB8)*%
X148600000Y-97419500D03*
%TO.N,/VBUS*%
X148200000Y-96709500D03*
%TO.N,unconnected-(J1-SSRXN1-PadB10)*%
X147800000Y-97419500D03*
%TO.N,unconnected-(J1-SSRXP1-PadB11)*%
X147000000Y-97419500D03*
%TO.N,GND*%
X146600000Y-96709500D03*
X151400000Y-96709500D03*
X147400000Y-96709500D03*
D14*
X145130000Y-97859500D03*
X153670000Y-97859500D03*
X145130000Y-102589500D03*
X153670000Y-102589500D03*
%TD*%
D15*
%TO.N,GND*%
%TO.C,U2*%
X178910000Y-55100000D03*
X180010000Y-55100000D03*
X178360000Y-55650000D03*
X179460000Y-55650000D03*
X180560000Y-55650000D03*
X178910000Y-56200000D03*
X180010000Y-56200000D03*
X178360000Y-56750000D03*
X179460000Y-56750000D03*
X180560000Y-56750000D03*
X178910000Y-57300000D03*
X180010000Y-57300000D03*
%TD*%
D11*
%TO.N,+3.3V*%
%TO.C,J4*%
X196600000Y-61064000D03*
D12*
%TO.N,/ESP32/SDA*%
X196600000Y-63604000D03*
%TO.N,/ESP32/SCL*%
X196600000Y-66144000D03*
%TO.N,GND*%
X196600000Y-68684000D03*
%TD*%
D16*
%TO.N,GND*%
X128775000Y-55650000D03*
X128750000Y-52675000D03*
X119225000Y-55700000D03*
X117987500Y-51337500D03*
%TO.N,/VBUS*%
X147275000Y-94100000D03*
X148200000Y-92075000D03*
X150375000Y-92350000D03*
X149400000Y-80550000D03*
X152000000Y-84000000D03*
X151500000Y-92300000D03*
X147100000Y-90325000D03*
X148150000Y-91150000D03*
%TO.N,GND*%
X154000000Y-92600000D03*
X122000000Y-85200000D03*
X145500000Y-82300000D03*
X178700000Y-75100000D03*
X185400000Y-79500000D03*
X194475000Y-70000000D03*
X127000000Y-90550000D03*
X160700000Y-82500000D03*
X196500000Y-86000000D03*
X144950000Y-84150000D03*
X121575000Y-68325000D03*
X124850000Y-85500000D03*
X137150000Y-63650000D03*
X146500000Y-58250000D03*
X170400000Y-79850000D03*
X135350000Y-87750000D03*
X140400000Y-65800000D03*
X140750000Y-102650000D03*
X154750000Y-97600000D03*
X132150000Y-82100000D03*
X117850000Y-80725000D03*
X133300000Y-68750000D03*
X144050000Y-98300000D03*
X146550000Y-51050000D03*
X122800000Y-95200000D03*
X130675000Y-88850000D03*
X168000000Y-62650000D03*
X131950000Y-70900000D03*
X159750000Y-96850000D03*
X148450000Y-78700000D03*
X152850000Y-70150000D03*
X128850000Y-69850000D03*
X137950000Y-50900000D03*
X152830250Y-94880250D03*
X148300000Y-76100000D03*
X160700000Y-105600000D03*
X151600000Y-79950000D03*
X169775000Y-63525000D03*
X191100000Y-106300000D03*
X168825000Y-63200000D03*
X149500000Y-76100000D03*
X149450000Y-56950000D03*
X144050000Y-102800000D03*
X134750000Y-59485000D03*
X167000000Y-67700000D03*
X119075000Y-60750000D03*
X152900000Y-89150000D03*
X129700000Y-82000000D03*
X151575000Y-53550000D03*
X154800000Y-102350000D03*
X129150000Y-87750000D03*
X168325000Y-61777000D03*
X146050000Y-95300000D03*
X150450000Y-73550000D03*
X165850000Y-79850000D03*
X166400000Y-53150000D03*
X157850000Y-102400000D03*
X128300000Y-90550000D03*
X149400000Y-101600000D03*
X156050000Y-81000000D03*
X151900000Y-85900000D03*
X148950000Y-82750000D03*
X131300000Y-99350000D03*
X134300000Y-88550000D03*
X163700000Y-54250000D03*
X119200000Y-81550000D03*
X148716656Y-54850000D03*
X127650000Y-90550000D03*
X123450000Y-98300000D03*
%TO.N,+5V*%
X124725000Y-93250000D03*
X125850000Y-93350000D03*
X124437500Y-92312500D03*
X140050000Y-87550000D03*
X142000000Y-87600000D03*
X144100000Y-89050000D03*
%TO.N,/VBAT*%
X119150000Y-84750000D03*
X124950000Y-88650000D03*
X124900000Y-86650000D03*
X126300000Y-87850000D03*
X117975000Y-85375000D03*
X116775000Y-85550000D03*
%TO.N,+3.3V*%
X151300000Y-78025000D03*
X148850000Y-55725000D03*
X195025000Y-58725000D03*
X146500000Y-54200000D03*
X168475000Y-50725000D03*
X140300673Y-58249327D03*
X171525000Y-51000000D03*
X156300000Y-73800000D03*
X156550000Y-58800000D03*
X137950000Y-80000000D03*
X137600000Y-78000000D03*
X162850000Y-51300000D03*
X164300000Y-67700000D03*
X158350000Y-89700000D03*
X151300000Y-77300000D03*
X128850000Y-67700000D03*
X137650000Y-74800000D03*
X136400000Y-80500000D03*
X141850000Y-79650000D03*
X149050000Y-53650000D03*
X156950000Y-53137500D03*
X136850000Y-67050000D03*
X166200000Y-50800000D03*
X184100000Y-75800000D03*
X174300000Y-75200000D03*
X163700000Y-50900000D03*
X146550000Y-55150000D03*
X153075000Y-54725000D03*
X137000000Y-65600000D03*
X138150000Y-85700000D03*
X155950000Y-76650000D03*
X160350000Y-50837500D03*
X152900000Y-68750000D03*
X194400000Y-72700000D03*
X137850000Y-65900000D03*
%TO.N,/ESP32/MIC_OUT*%
X144000000Y-69200000D03*
X162200000Y-60600000D03*
X174925000Y-59675000D03*
X168850000Y-64550000D03*
%TO.N,/ESP32/BOOT*%
X155150000Y-61350000D03*
X165100000Y-61300000D03*
%TO.N,/+5V_USB*%
X140750000Y-90850000D03*
X144100000Y-93425000D03*
X142525000Y-90525000D03*
X142950000Y-92775000D03*
X142425000Y-91750000D03*
X123900000Y-90550000D03*
X128250000Y-93850000D03*
X140800000Y-93700000D03*
X130025000Y-96400000D03*
X140750000Y-94650000D03*
X121850000Y-90200000D03*
%TO.N,/USB_DP*%
X148625000Y-93650000D03*
%TO.N,/USB_DN*%
X150132546Y-93613943D03*
%TO.N,/ESP32/SCL*%
X185675000Y-54500000D03*
X165850000Y-56200000D03*
%TO.N,/ESP32/GPIO8*%
X190625000Y-72025000D03*
X189050000Y-70450000D03*
%TO.N,/ESP32/GPIO18*%
X191400000Y-65100000D03*
X192250000Y-77250000D03*
%TO.N,/ESP32/GPIO19*%
X193100000Y-64750000D03*
%TO.N,/ESP32/PHOTO_C*%
X185600000Y-51500000D03*
X142900000Y-50300000D03*
%TO.N,/ESP32/MISO*%
X176200000Y-64025000D03*
X169275000Y-70925000D03*
%TO.N,/ESP32/CS*%
X160000000Y-74200000D03*
X181100000Y-64500000D03*
%TO.N,/ESP32/TXD*%
X184800000Y-59000000D03*
X145200000Y-71200000D03*
%TO.N,/ESP32/RXD*%
X184800000Y-60600000D03*
X145900000Y-72200000D03*
%TD*%
%TA.AperFunction,Conductor*%
%TO.N,GND*%
G36*
X188443662Y-48019685D02*
G01*
X188489417Y-48072489D01*
X188499361Y-48106353D01*
X188530044Y-48319763D01*
X188530047Y-48319774D01*
X188590517Y-48525715D01*
X188679672Y-48720938D01*
X188679679Y-48720951D01*
X188795720Y-48901514D01*
X188936275Y-49063724D01*
X189060277Y-49171172D01*
X189098487Y-49204281D01*
X189214831Y-49279050D01*
X189279048Y-49320320D01*
X189279061Y-49320327D01*
X189474284Y-49409482D01*
X189474288Y-49409483D01*
X189474290Y-49409484D01*
X189680231Y-49469954D01*
X189680232Y-49469954D01*
X189680235Y-49469955D01*
X189743584Y-49479062D01*
X189892682Y-49500500D01*
X189934108Y-49500500D01*
X197934108Y-49500500D01*
X197993038Y-49500500D01*
X198006922Y-49501280D01*
X198097266Y-49511459D01*
X198124331Y-49517636D01*
X198203540Y-49545352D01*
X198228553Y-49557398D01*
X198299606Y-49602043D01*
X198321313Y-49619355D01*
X198380644Y-49678686D01*
X198397957Y-49700395D01*
X198442600Y-49771444D01*
X198454648Y-49796462D01*
X198482362Y-49875666D01*
X198488540Y-49902735D01*
X198498720Y-49993076D01*
X198499500Y-50006961D01*
X198499500Y-107193038D01*
X198498720Y-107206922D01*
X198498720Y-107206923D01*
X198488540Y-107297264D01*
X198482362Y-107324333D01*
X198454648Y-107403537D01*
X198442600Y-107428555D01*
X198397957Y-107499604D01*
X198380644Y-107521313D01*
X198321313Y-107580644D01*
X198299604Y-107597957D01*
X198228555Y-107642600D01*
X198203537Y-107654648D01*
X198124333Y-107682362D01*
X198097264Y-107688540D01*
X198017075Y-107697576D01*
X198006921Y-107698720D01*
X197993038Y-107699500D01*
X111056962Y-107699500D01*
X111043078Y-107698720D01*
X111030553Y-107697308D01*
X110952735Y-107688540D01*
X110925666Y-107682362D01*
X110846462Y-107654648D01*
X110821444Y-107642600D01*
X110750395Y-107597957D01*
X110728686Y-107580644D01*
X110669355Y-107521313D01*
X110652042Y-107499604D01*
X110607399Y-107428555D01*
X110595351Y-107403537D01*
X110567637Y-107324333D01*
X110561459Y-107297263D01*
X110551280Y-107206922D01*
X110550500Y-107193038D01*
X110550500Y-102881902D01*
X113499500Y-102881902D01*
X113499500Y-103118097D01*
X113536446Y-103351368D01*
X113609433Y-103575996D01*
X113707213Y-103767899D01*
X113716657Y-103786433D01*
X113855483Y-103977510D01*
X114022490Y-104144517D01*
X114213567Y-104283343D01*
X114312991Y-104334002D01*
X114424003Y-104390566D01*
X114424005Y-104390566D01*
X114424008Y-104390568D01*
X114544412Y-104429689D01*
X114648631Y-104463553D01*
X114881903Y-104500500D01*
X114881908Y-104500500D01*
X115118097Y-104500500D01*
X115351368Y-104463553D01*
X115575992Y-104390568D01*
X115786433Y-104283343D01*
X115977510Y-104144517D01*
X116144517Y-103977510D01*
X116283343Y-103786433D01*
X116390568Y-103575992D01*
X116463553Y-103351368D01*
X116485079Y-103215458D01*
X116500500Y-103118097D01*
X116500500Y-102881903D01*
X116488721Y-102807537D01*
X116488721Y-102807536D01*
X116482512Y-102768341D01*
X116463553Y-102648632D01*
X116390568Y-102424008D01*
X116390566Y-102424005D01*
X116390566Y-102424003D01*
X116334002Y-102312991D01*
X116283343Y-102213567D01*
X116144517Y-102022490D01*
X116085568Y-101963541D01*
X144105000Y-101963541D01*
X144105000Y-102339500D01*
X144805000Y-102339500D01*
X144805000Y-102839500D01*
X144105000Y-102839500D01*
X144105000Y-103215458D01*
X144144387Y-103413474D01*
X144144390Y-103413483D01*
X144221652Y-103600013D01*
X144221659Y-103600026D01*
X144333829Y-103767899D01*
X144333832Y-103767903D01*
X144476596Y-103910667D01*
X144476600Y-103910670D01*
X144644473Y-104022840D01*
X144644486Y-104022847D01*
X144831016Y-104100109D01*
X144831025Y-104100112D01*
X144880000Y-104109853D01*
X144880000Y-103099118D01*
X144930446Y-103149564D01*
X145004555Y-103192351D01*
X145087213Y-103214500D01*
X145172787Y-103214500D01*
X145255445Y-103192351D01*
X145329554Y-103149564D01*
X145380000Y-103099118D01*
X145380000Y-104109852D01*
X145428974Y-104100112D01*
X145428983Y-104100109D01*
X145615513Y-104022847D01*
X145615526Y-104022840D01*
X145783399Y-103910670D01*
X145783403Y-103910667D01*
X145926167Y-103767903D01*
X145926170Y-103767899D01*
X146038340Y-103600026D01*
X146038347Y-103600013D01*
X146115609Y-103413483D01*
X146115612Y-103413474D01*
X146154999Y-103215458D01*
X146155000Y-103215455D01*
X146155000Y-102839500D01*
X145455000Y-102839500D01*
X145455000Y-102339500D01*
X146155000Y-102339500D01*
X146155000Y-101963545D01*
X146154999Y-101963541D01*
X152645000Y-101963541D01*
X152645000Y-102339500D01*
X153345000Y-102339500D01*
X153345000Y-102839500D01*
X152645000Y-102839500D01*
X152645000Y-103215458D01*
X152684387Y-103413474D01*
X152684390Y-103413483D01*
X152761652Y-103600013D01*
X152761659Y-103600026D01*
X152873829Y-103767899D01*
X152873832Y-103767903D01*
X153016596Y-103910667D01*
X153016600Y-103910670D01*
X153184473Y-104022840D01*
X153184486Y-104022847D01*
X153371016Y-104100109D01*
X153371025Y-104100112D01*
X153420000Y-104109853D01*
X153420000Y-103099118D01*
X153470446Y-103149564D01*
X153544555Y-103192351D01*
X153627213Y-103214500D01*
X153712787Y-103214500D01*
X153795445Y-103192351D01*
X153869554Y-103149564D01*
X153920000Y-103099118D01*
X153920000Y-104109852D01*
X153968974Y-104100112D01*
X153968983Y-104100109D01*
X154155513Y-104022847D01*
X154155526Y-104022840D01*
X154323399Y-103910670D01*
X154323403Y-103910667D01*
X154466167Y-103767903D01*
X154466170Y-103767899D01*
X154578340Y-103600026D01*
X154578347Y-103600013D01*
X154655609Y-103413483D01*
X154655612Y-103413474D01*
X154661892Y-103381902D01*
X192749500Y-103381902D01*
X192749500Y-103618097D01*
X192786446Y-103851368D01*
X192859433Y-104075996D01*
X192894347Y-104144517D01*
X192966657Y-104286433D01*
X193105483Y-104477510D01*
X193272490Y-104644517D01*
X193463567Y-104783343D01*
X193562991Y-104834002D01*
X193674003Y-104890566D01*
X193674005Y-104890566D01*
X193674008Y-104890568D01*
X193794412Y-104929689D01*
X193898631Y-104963553D01*
X194131903Y-105000500D01*
X194131908Y-105000500D01*
X194368097Y-105000500D01*
X194601368Y-104963553D01*
X194825992Y-104890568D01*
X195036433Y-104783343D01*
X195227510Y-104644517D01*
X195394517Y-104477510D01*
X195533343Y-104286433D01*
X195640568Y-104075992D01*
X195713553Y-103851368D01*
X195723838Y-103786433D01*
X195750500Y-103618097D01*
X195750500Y-103381902D01*
X195713553Y-103148631D01*
X195640566Y-102924003D01*
X195533342Y-102713566D01*
X195394517Y-102522490D01*
X195227510Y-102355483D01*
X195036433Y-102216657D01*
X195030367Y-102213566D01*
X194825996Y-102109433D01*
X194601368Y-102036446D01*
X194368097Y-101999500D01*
X194368092Y-101999500D01*
X194131908Y-101999500D01*
X194131903Y-101999500D01*
X193898631Y-102036446D01*
X193674003Y-102109433D01*
X193463566Y-102216657D01*
X193354550Y-102295862D01*
X193272490Y-102355483D01*
X193272488Y-102355485D01*
X193272487Y-102355485D01*
X193105485Y-102522487D01*
X193105485Y-102522488D01*
X193105483Y-102522490D01*
X193045862Y-102604550D01*
X192966657Y-102713566D01*
X192859433Y-102924003D01*
X192786446Y-103148631D01*
X192749500Y-103381902D01*
X154661892Y-103381902D01*
X154667672Y-103352845D01*
X154694999Y-103215458D01*
X154695000Y-103215455D01*
X154695000Y-102839500D01*
X153995000Y-102839500D01*
X153995000Y-102339500D01*
X154695000Y-102339500D01*
X154695000Y-101963545D01*
X154694999Y-101963541D01*
X154655612Y-101765525D01*
X154655609Y-101765516D01*
X154578347Y-101578986D01*
X154578340Y-101578973D01*
X154466170Y-101411100D01*
X154466167Y-101411096D01*
X154323403Y-101268332D01*
X154323399Y-101268329D01*
X154155526Y-101156159D01*
X154155513Y-101156152D01*
X153968984Y-101078890D01*
X153968977Y-101078888D01*
X153920000Y-101069145D01*
X153920000Y-102079882D01*
X153869554Y-102029436D01*
X153795445Y-101986649D01*
X153712787Y-101964500D01*
X153627213Y-101964500D01*
X153544555Y-101986649D01*
X153470446Y-102029436D01*
X153420000Y-102079882D01*
X153420000Y-101069146D01*
X153419999Y-101069145D01*
X153371022Y-101078888D01*
X153371015Y-101078890D01*
X153184486Y-101156152D01*
X153184473Y-101156159D01*
X153016600Y-101268329D01*
X153016596Y-101268332D01*
X152873832Y-101411096D01*
X152873829Y-101411100D01*
X152761659Y-101578973D01*
X152761652Y-101578986D01*
X152684390Y-101765516D01*
X152684387Y-101765525D01*
X152645000Y-101963541D01*
X146154999Y-101963541D01*
X146115612Y-101765525D01*
X146115609Y-101765516D01*
X146038347Y-101578986D01*
X146038340Y-101578973D01*
X145926170Y-101411100D01*
X145926167Y-101411096D01*
X145783403Y-101268332D01*
X145783399Y-101268329D01*
X145615526Y-101156159D01*
X145615513Y-101156152D01*
X145428984Y-101078890D01*
X145428977Y-101078888D01*
X145380000Y-101069145D01*
X145380000Y-102079882D01*
X145329554Y-102029436D01*
X145255445Y-101986649D01*
X145172787Y-101964500D01*
X145087213Y-101964500D01*
X145004555Y-101986649D01*
X144930446Y-102029436D01*
X144880000Y-102079882D01*
X144880000Y-101069146D01*
X144879999Y-101069145D01*
X144831022Y-101078888D01*
X144831015Y-101078890D01*
X144644486Y-101156152D01*
X144644473Y-101156159D01*
X144476600Y-101268329D01*
X144476596Y-101268332D01*
X144333832Y-101411096D01*
X144333829Y-101411100D01*
X144221659Y-101578973D01*
X144221652Y-101578986D01*
X144144390Y-101765516D01*
X144144387Y-101765525D01*
X144105000Y-101963541D01*
X116085568Y-101963541D01*
X115977510Y-101855483D01*
X115786433Y-101716657D01*
X115575996Y-101609433D01*
X115351368Y-101536446D01*
X115118097Y-101499500D01*
X115118092Y-101499500D01*
X114881908Y-101499500D01*
X114881903Y-101499500D01*
X114648631Y-101536446D01*
X114424003Y-101609433D01*
X114213566Y-101716657D01*
X114146306Y-101765525D01*
X114022490Y-101855483D01*
X114022488Y-101855485D01*
X114022487Y-101855485D01*
X113855485Y-102022487D01*
X113855485Y-102022488D01*
X113855483Y-102022490D01*
X113845343Y-102036447D01*
X113716657Y-102213566D01*
X113609433Y-102424003D01*
X113536446Y-102648631D01*
X113499500Y-102881902D01*
X110550500Y-102881902D01*
X110550500Y-97233541D01*
X144105000Y-97233541D01*
X144105000Y-97609500D01*
X144805000Y-97609500D01*
X144805000Y-98109500D01*
X144105000Y-98109500D01*
X144105000Y-98485458D01*
X144144387Y-98683474D01*
X144144390Y-98683483D01*
X144221652Y-98870013D01*
X144221659Y-98870026D01*
X144333829Y-99037899D01*
X144333832Y-99037903D01*
X144476596Y-99180667D01*
X144476600Y-99180670D01*
X144644473Y-99292840D01*
X144644486Y-99292847D01*
X144831016Y-99370109D01*
X144831025Y-99370112D01*
X144880000Y-99379853D01*
X144880000Y-98369118D01*
X144930446Y-98419564D01*
X145004555Y-98462351D01*
X145087213Y-98484500D01*
X145172787Y-98484500D01*
X145255445Y-98462351D01*
X145329554Y-98419564D01*
X145380000Y-98369118D01*
X145380000Y-99379852D01*
X145428974Y-99370112D01*
X145428983Y-99370109D01*
X145615513Y-99292847D01*
X145615526Y-99292840D01*
X145783399Y-99180670D01*
X145783403Y-99180667D01*
X145926167Y-99037903D01*
X145926170Y-99037899D01*
X146038340Y-98870026D01*
X146038347Y-98870013D01*
X146115609Y-98683483D01*
X146115612Y-98683474D01*
X146154999Y-98485458D01*
X146155000Y-98485455D01*
X146155000Y-98109500D01*
X145455000Y-98109500D01*
X145455000Y-97609500D01*
X146155000Y-97609500D01*
X146155000Y-97603728D01*
X146162366Y-97578641D01*
X146165965Y-97552748D01*
X146172052Y-97545655D01*
X146174685Y-97536689D01*
X146194439Y-97519571D01*
X146211470Y-97499729D01*
X146220427Y-97497053D01*
X146227489Y-97490934D01*
X146253363Y-97487213D01*
X146278417Y-97479729D01*
X146289826Y-97481970D01*
X146296647Y-97480990D01*
X146313375Y-97484588D01*
X146419533Y-97515217D01*
X146444765Y-97531265D01*
X146471259Y-97545124D01*
X146474079Y-97549910D01*
X146478488Y-97552714D01*
X146488521Y-97574414D01*
X146504932Y-97602259D01*
X146510312Y-97622335D01*
X146510313Y-97622338D01*
X146579492Y-97742161D01*
X146579494Y-97742164D01*
X146579495Y-97742165D01*
X146677335Y-97840005D01*
X146797164Y-97909188D01*
X146930817Y-97945000D01*
X146930819Y-97945000D01*
X147069181Y-97945000D01*
X147069183Y-97945000D01*
X147202836Y-97909188D01*
X147322665Y-97840005D01*
X147322670Y-97839999D01*
X147324510Y-97838589D01*
X147326351Y-97837877D01*
X147329703Y-97835942D01*
X147330004Y-97836464D01*
X147389678Y-97813392D01*
X147458124Y-97827428D01*
X147475490Y-97838589D01*
X147477332Y-97840002D01*
X147477335Y-97840005D01*
X147597164Y-97909188D01*
X147730817Y-97945000D01*
X147730819Y-97945000D01*
X147869181Y-97945000D01*
X147869183Y-97945000D01*
X148002836Y-97909188D01*
X148122665Y-97840005D01*
X148122670Y-97839999D01*
X148124510Y-97838589D01*
X148126351Y-97837877D01*
X148129703Y-97835942D01*
X148130004Y-97836464D01*
X148189678Y-97813392D01*
X148258124Y-97827428D01*
X148275490Y-97838589D01*
X148277332Y-97840002D01*
X148277335Y-97840005D01*
X148397164Y-97909188D01*
X148530817Y-97945000D01*
X148530819Y-97945000D01*
X148669181Y-97945000D01*
X148669183Y-97945000D01*
X148802836Y-97909188D01*
X148922665Y-97840005D01*
X149020505Y-97742165D01*
X149089688Y-97622336D01*
X149125500Y-97488683D01*
X149125500Y-97350317D01*
X149124921Y-97348156D01*
X149124966Y-97346264D01*
X149124439Y-97342261D01*
X149125063Y-97342178D01*
X149125587Y-97320155D01*
X149123001Y-97292267D01*
X149126408Y-97285702D01*
X149126584Y-97278310D01*
X149142282Y-97255115D01*
X149155186Y-97230252D01*
X149162487Y-97225261D01*
X149165746Y-97220447D01*
X149182988Y-97208510D01*
X149196081Y-97200997D01*
X149202836Y-97199188D01*
X149322665Y-97130005D01*
X149326494Y-97126175D01*
X149338292Y-97119407D01*
X149364518Y-97113119D01*
X149389678Y-97103392D01*
X149397988Y-97105096D01*
X149406237Y-97103119D01*
X149431700Y-97112009D01*
X149458124Y-97117428D01*
X149471093Y-97125763D01*
X149472201Y-97126150D01*
X149472712Y-97126803D01*
X149475490Y-97128589D01*
X149477332Y-97130002D01*
X149477335Y-97130005D01*
X149597164Y-97199188D01*
X149597169Y-97199189D01*
X149602754Y-97201503D01*
X149657158Y-97245344D01*
X149679224Y-97311638D01*
X149675081Y-97348145D01*
X149674501Y-97350308D01*
X149674500Y-97350315D01*
X149674500Y-97350317D01*
X149674500Y-97488683D01*
X149704933Y-97602259D01*
X149710312Y-97622335D01*
X149710313Y-97622338D01*
X149779492Y-97742161D01*
X149779494Y-97742164D01*
X149779495Y-97742165D01*
X149877335Y-97840005D01*
X149997164Y-97909188D01*
X150130817Y-97945000D01*
X150130819Y-97945000D01*
X150269181Y-97945000D01*
X150269183Y-97945000D01*
X150402836Y-97909188D01*
X150522665Y-97840005D01*
X150522670Y-97839999D01*
X150524510Y-97838589D01*
X150526351Y-97837877D01*
X150529703Y-97835942D01*
X150530004Y-97836464D01*
X150589678Y-97813392D01*
X150658124Y-97827428D01*
X150675490Y-97838589D01*
X150677332Y-97840002D01*
X150677335Y-97840005D01*
X150797164Y-97909188D01*
X150930817Y-97945000D01*
X150930819Y-97945000D01*
X151069181Y-97945000D01*
X151069183Y-97945000D01*
X151202836Y-97909188D01*
X151322665Y-97840005D01*
X151322670Y-97839999D01*
X151324510Y-97838589D01*
X151326351Y-97837877D01*
X151329703Y-97835942D01*
X151330004Y-97836464D01*
X151389678Y-97813392D01*
X151458124Y-97827428D01*
X151475490Y-97838589D01*
X151477332Y-97840002D01*
X151477335Y-97840005D01*
X151597164Y-97909188D01*
X151730817Y-97945000D01*
X151730819Y-97945000D01*
X151869180Y-97945000D01*
X151869183Y-97945000D01*
X152002836Y-97909188D01*
X152122665Y-97840005D01*
X152220505Y-97742165D01*
X152289688Y-97622336D01*
X152295066Y-97602262D01*
X152300698Y-97593021D01*
X152302290Y-97582315D01*
X152318561Y-97563713D01*
X152331427Y-97542606D01*
X152342376Y-97536490D01*
X152348293Y-97529727D01*
X152370261Y-97520916D01*
X152380466Y-97515217D01*
X152486626Y-97484588D01*
X152514898Y-97484721D01*
X152543017Y-97481698D01*
X152549380Y-97484883D01*
X152556495Y-97484917D01*
X152580205Y-97500313D01*
X152605496Y-97512973D01*
X152609127Y-97519093D01*
X152615094Y-97522968D01*
X152626719Y-97548743D01*
X152641148Y-97573062D01*
X152642483Y-97583696D01*
X152643820Y-97586659D01*
X152643297Y-97590174D01*
X152645000Y-97603728D01*
X152645000Y-97609500D01*
X153345000Y-97609500D01*
X153345000Y-98109500D01*
X152645000Y-98109500D01*
X152645000Y-98485458D01*
X152684387Y-98683474D01*
X152684390Y-98683483D01*
X152761652Y-98870013D01*
X152761659Y-98870026D01*
X152873829Y-99037899D01*
X152873832Y-99037903D01*
X153016596Y-99180667D01*
X153016600Y-99180670D01*
X153184473Y-99292840D01*
X153184486Y-99292847D01*
X153371016Y-99370109D01*
X153371025Y-99370112D01*
X153420000Y-99379853D01*
X153420000Y-98369118D01*
X153470446Y-98419564D01*
X153544555Y-98462351D01*
X153627213Y-98484500D01*
X153712787Y-98484500D01*
X153795445Y-98462351D01*
X153869554Y-98419564D01*
X153920000Y-98369118D01*
X153920000Y-99379852D01*
X153968974Y-99370112D01*
X153968983Y-99370109D01*
X154155513Y-99292847D01*
X154155526Y-99292840D01*
X154323399Y-99180670D01*
X154323403Y-99180667D01*
X154466167Y-99037903D01*
X154466170Y-99037899D01*
X154578340Y-98870026D01*
X154578347Y-98870013D01*
X154655609Y-98683483D01*
X154655612Y-98683474D01*
X154694999Y-98485458D01*
X154695000Y-98485455D01*
X154695000Y-98109500D01*
X153995000Y-98109500D01*
X153995000Y-97609500D01*
X154695000Y-97609500D01*
X154695000Y-97233545D01*
X154694999Y-97233541D01*
X154655612Y-97035525D01*
X154655609Y-97035516D01*
X154578347Y-96848986D01*
X154578340Y-96848973D01*
X154466170Y-96681100D01*
X154466167Y-96681096D01*
X154323403Y-96538332D01*
X154323399Y-96538329D01*
X154155526Y-96426159D01*
X154155513Y-96426152D01*
X153968984Y-96348890D01*
X153968977Y-96348888D01*
X153920000Y-96339145D01*
X153920000Y-97349882D01*
X153869554Y-97299436D01*
X153795445Y-97256649D01*
X153712787Y-97234500D01*
X153627213Y-97234500D01*
X153544555Y-97256649D01*
X153470446Y-97299436D01*
X153420000Y-97349882D01*
X153420000Y-96339146D01*
X153419999Y-96339145D01*
X153371022Y-96348888D01*
X153371015Y-96348890D01*
X153184486Y-96426152D01*
X153184475Y-96426158D01*
X153146516Y-96451522D01*
X153079838Y-96472399D01*
X153012458Y-96453914D01*
X152965769Y-96401935D01*
X152963065Y-96395872D01*
X152934980Y-96328071D01*
X152464457Y-96798595D01*
X152403134Y-96832080D01*
X152393062Y-96831359D01*
X152425000Y-96754255D01*
X152425000Y-96664745D01*
X152390746Y-96582048D01*
X152327452Y-96518754D01*
X152244755Y-96484500D01*
X152155245Y-96484500D01*
X152080539Y-96515443D01*
X152082403Y-96489389D01*
X152110904Y-96445042D01*
X152581427Y-95974518D01*
X152440644Y-95916204D01*
X152440636Y-95916202D01*
X152281259Y-95884500D01*
X152118740Y-95884500D01*
X151959363Y-95916202D01*
X151959351Y-95916205D01*
X151847452Y-95962555D01*
X151777983Y-95970024D01*
X151752548Y-95962555D01*
X151640648Y-95916205D01*
X151640636Y-95916202D01*
X151481259Y-95884500D01*
X151318740Y-95884500D01*
X151159363Y-95916201D01*
X151159354Y-95916204D01*
X151018571Y-95974518D01*
X151489095Y-96445042D01*
X151522580Y-96506365D01*
X151521859Y-96516437D01*
X151444755Y-96484500D01*
X151355245Y-96484500D01*
X151272548Y-96518754D01*
X151209254Y-96582048D01*
X151175000Y-96664745D01*
X151175000Y-96754255D01*
X151188948Y-96787930D01*
X151150233Y-96758949D01*
X151125816Y-96693484D01*
X151125500Y-96684638D01*
X151125500Y-96640319D01*
X151125500Y-96640317D01*
X151089688Y-96506664D01*
X151029223Y-96401935D01*
X151020507Y-96386838D01*
X151020503Y-96386833D01*
X150922666Y-96288996D01*
X150922661Y-96288992D01*
X150802838Y-96219813D01*
X150802837Y-96219812D01*
X150802836Y-96219812D01*
X150669183Y-96184000D01*
X150530817Y-96184000D01*
X150397164Y-96219812D01*
X150397161Y-96219813D01*
X150277337Y-96288993D01*
X150275483Y-96290416D01*
X150273637Y-96291129D01*
X150270297Y-96293058D01*
X150269996Y-96292536D01*
X150210312Y-96315607D01*
X150141868Y-96301566D01*
X150124517Y-96290416D01*
X150122662Y-96288993D01*
X150002838Y-96219813D01*
X150002837Y-96219812D01*
X150002836Y-96219812D01*
X149869183Y-96184000D01*
X149730817Y-96184000D01*
X149597164Y-96219812D01*
X149597161Y-96219813D01*
X149477337Y-96288993D01*
X149475483Y-96290416D01*
X149473637Y-96291129D01*
X149470297Y-96293058D01*
X149469996Y-96292536D01*
X149410312Y-96315607D01*
X149341868Y-96301566D01*
X149324517Y-96290416D01*
X149322662Y-96288993D01*
X149202838Y-96219813D01*
X149202837Y-96219812D01*
X149202836Y-96219812D01*
X149069183Y-96184000D01*
X148930817Y-96184000D01*
X148797164Y-96219812D01*
X148797161Y-96219813D01*
X148677337Y-96288993D01*
X148675483Y-96290416D01*
X148673637Y-96291129D01*
X148670297Y-96293058D01*
X148669996Y-96292536D01*
X148610312Y-96315607D01*
X148541868Y-96301566D01*
X148524517Y-96290416D01*
X148522662Y-96288993D01*
X148402838Y-96219813D01*
X148402837Y-96219812D01*
X148402836Y-96219812D01*
X148269183Y-96184000D01*
X148130817Y-96184000D01*
X147997164Y-96219812D01*
X147997161Y-96219813D01*
X147877338Y-96288992D01*
X147877333Y-96288996D01*
X147779496Y-96386833D01*
X147779492Y-96386838D01*
X147710313Y-96506661D01*
X147710312Y-96506664D01*
X147674500Y-96640317D01*
X147674500Y-96684638D01*
X147654815Y-96751677D01*
X147609973Y-96790532D01*
X147625000Y-96754255D01*
X147625000Y-96664745D01*
X147590746Y-96582048D01*
X147527452Y-96518754D01*
X147444755Y-96484500D01*
X147355245Y-96484500D01*
X147280539Y-96515443D01*
X147282403Y-96489389D01*
X147310904Y-96445042D01*
X147781427Y-95974518D01*
X147640644Y-95916204D01*
X147640636Y-95916202D01*
X147481259Y-95884500D01*
X147318740Y-95884500D01*
X147159363Y-95916202D01*
X147159351Y-95916205D01*
X147047452Y-95962555D01*
X146977983Y-95970024D01*
X146952548Y-95962555D01*
X146840648Y-95916205D01*
X146840636Y-95916202D01*
X146681259Y-95884500D01*
X146518740Y-95884500D01*
X146359363Y-95916201D01*
X146359354Y-95916204D01*
X146218571Y-95974518D01*
X146689095Y-96445042D01*
X146722580Y-96506365D01*
X146721859Y-96516437D01*
X146644755Y-96484500D01*
X146555245Y-96484500D01*
X146472548Y-96518754D01*
X146409254Y-96582048D01*
X146375000Y-96664745D01*
X146375000Y-96754255D01*
X146405943Y-96828959D01*
X146379889Y-96827096D01*
X146335542Y-96798595D01*
X145865018Y-96328071D01*
X145836934Y-96395872D01*
X145793093Y-96450275D01*
X145726799Y-96472340D01*
X145659099Y-96455061D01*
X145653482Y-96451521D01*
X145615526Y-96426159D01*
X145615513Y-96426152D01*
X145428984Y-96348890D01*
X145428977Y-96348888D01*
X145380000Y-96339145D01*
X145380000Y-97349882D01*
X145329554Y-97299436D01*
X145255445Y-97256649D01*
X145172787Y-97234500D01*
X145087213Y-97234500D01*
X145004555Y-97256649D01*
X144930446Y-97299436D01*
X144880000Y-97349882D01*
X144880000Y-96339146D01*
X144879999Y-96339145D01*
X144831022Y-96348888D01*
X144831015Y-96348890D01*
X144644486Y-96426152D01*
X144644473Y-96426159D01*
X144476600Y-96538329D01*
X144476596Y-96538332D01*
X144333832Y-96681096D01*
X144333829Y-96681100D01*
X144221659Y-96848973D01*
X144221652Y-96848986D01*
X144144390Y-97035516D01*
X144144387Y-97035525D01*
X144105000Y-97233541D01*
X110550500Y-97233541D01*
X110550500Y-96334108D01*
X129524500Y-96334108D01*
X129524500Y-96465891D01*
X129558608Y-96593187D01*
X129574322Y-96620404D01*
X129624500Y-96707314D01*
X129717686Y-96800500D01*
X129831814Y-96866392D01*
X129959108Y-96900500D01*
X129959110Y-96900500D01*
X130090890Y-96900500D01*
X130090892Y-96900500D01*
X130218186Y-96866392D01*
X130332314Y-96800500D01*
X130425500Y-96707314D01*
X130491392Y-96593186D01*
X130525500Y-96465892D01*
X130525500Y-96334108D01*
X130491392Y-96206814D01*
X130425500Y-96092686D01*
X130332314Y-95999500D01*
X130268324Y-95962555D01*
X130218187Y-95933608D01*
X130154539Y-95916554D01*
X130090892Y-95899500D01*
X129959108Y-95899500D01*
X129831812Y-95933608D01*
X129717686Y-95999500D01*
X129717683Y-95999502D01*
X129624502Y-96092683D01*
X129624500Y-96092686D01*
X129558608Y-96206812D01*
X129524500Y-96334108D01*
X110550500Y-96334108D01*
X110550500Y-94584108D01*
X140249500Y-94584108D01*
X140249500Y-94715891D01*
X140283608Y-94843187D01*
X140316554Y-94900250D01*
X140349500Y-94957314D01*
X140442686Y-95050500D01*
X140556814Y-95116392D01*
X140684108Y-95150500D01*
X140684110Y-95150500D01*
X140815890Y-95150500D01*
X140815892Y-95150500D01*
X140943186Y-95116392D01*
X141057314Y-95050500D01*
X141150500Y-94957314D01*
X141216392Y-94843186D01*
X141250500Y-94715892D01*
X141250500Y-94584108D01*
X141216392Y-94456814D01*
X141150500Y-94342686D01*
X141094695Y-94286881D01*
X141061210Y-94225558D01*
X141066194Y-94155866D01*
X141102324Y-94107004D01*
X141101567Y-94106247D01*
X141106620Y-94101193D01*
X141106899Y-94100817D01*
X141107302Y-94100506D01*
X141107314Y-94100500D01*
X141173706Y-94034108D01*
X146774500Y-94034108D01*
X146774500Y-94165892D01*
X146778735Y-94181698D01*
X146808608Y-94293187D01*
X146822005Y-94316391D01*
X146874500Y-94407314D01*
X146967686Y-94500500D01*
X147081814Y-94566392D01*
X147209108Y-94600500D01*
X147209110Y-94600500D01*
X147340890Y-94600500D01*
X147340892Y-94600500D01*
X147468186Y-94566392D01*
X147582314Y-94500500D01*
X147675500Y-94407314D01*
X147741392Y-94293186D01*
X147775500Y-94165892D01*
X147775500Y-94034108D01*
X147741392Y-93906814D01*
X147675500Y-93792686D01*
X147582314Y-93699500D01*
X147554371Y-93683367D01*
X147554370Y-93683366D01*
X147468188Y-93633609D01*
X147468187Y-93633608D01*
X147468186Y-93633608D01*
X147340892Y-93599500D01*
X147209108Y-93599500D01*
X147081812Y-93633608D01*
X146967686Y-93699500D01*
X146967683Y-93699502D01*
X146874502Y-93792683D01*
X146874500Y-93792686D01*
X146808608Y-93906812D01*
X146795076Y-93957316D01*
X146774500Y-94034108D01*
X141173706Y-94034108D01*
X141200500Y-94007314D01*
X141266392Y-93893186D01*
X141300500Y-93765892D01*
X141300500Y-93634108D01*
X141266392Y-93506814D01*
X141200500Y-93392686D01*
X141166922Y-93359108D01*
X143599500Y-93359108D01*
X143599500Y-93490891D01*
X143633608Y-93618187D01*
X143656200Y-93657316D01*
X143699500Y-93732314D01*
X143792686Y-93825500D01*
X143906814Y-93891392D01*
X144034108Y-93925500D01*
X144034110Y-93925500D01*
X144165890Y-93925500D01*
X144165892Y-93925500D01*
X144293186Y-93891392D01*
X144407314Y-93825500D01*
X144500500Y-93732314D01*
X144566392Y-93618186D01*
X144575523Y-93584108D01*
X148124500Y-93584108D01*
X148124500Y-93715891D01*
X148158608Y-93843187D01*
X148186439Y-93891391D01*
X148224500Y-93957314D01*
X148317686Y-94050500D01*
X148405489Y-94101193D01*
X148428436Y-94114442D01*
X148431814Y-94116392D01*
X148559108Y-94150500D01*
X148559110Y-94150500D01*
X148690890Y-94150500D01*
X148690892Y-94150500D01*
X148818186Y-94116392D01*
X148932314Y-94050500D01*
X149025500Y-93957314D01*
X149091392Y-93843186D01*
X149125500Y-93715892D01*
X149125500Y-93584108D01*
X149115839Y-93548051D01*
X149632046Y-93548051D01*
X149632046Y-93679834D01*
X149666154Y-93807130D01*
X149686972Y-93843187D01*
X149732046Y-93921257D01*
X149825232Y-94014443D01*
X149939360Y-94080335D01*
X150066654Y-94114443D01*
X150066656Y-94114443D01*
X150198436Y-94114443D01*
X150198438Y-94114443D01*
X150325732Y-94080335D01*
X150439860Y-94014443D01*
X150533046Y-93921257D01*
X150598938Y-93807129D01*
X150633046Y-93679835D01*
X150633046Y-93548051D01*
X150598938Y-93420757D01*
X150533046Y-93306629D01*
X150439860Y-93213443D01*
X150382796Y-93180497D01*
X150325733Y-93147551D01*
X150255468Y-93128724D01*
X150198438Y-93113443D01*
X150066654Y-93113443D01*
X149939358Y-93147551D01*
X149825232Y-93213443D01*
X149825229Y-93213445D01*
X149732048Y-93306626D01*
X149732046Y-93306629D01*
X149666154Y-93420755D01*
X149632046Y-93548051D01*
X149115839Y-93548051D01*
X149091392Y-93456814D01*
X149025500Y-93342686D01*
X148932314Y-93249500D01*
X148845712Y-93199500D01*
X148818187Y-93183608D01*
X148718188Y-93156814D01*
X148690892Y-93149500D01*
X148559108Y-93149500D01*
X148431812Y-93183608D01*
X148317686Y-93249500D01*
X148317683Y-93249502D01*
X148224502Y-93342683D01*
X148224500Y-93342686D01*
X148158608Y-93456812D01*
X148124500Y-93584108D01*
X144575523Y-93584108D01*
X144600500Y-93490892D01*
X144600500Y-93359108D01*
X144566392Y-93231814D01*
X144500500Y-93117686D01*
X144407314Y-93024500D01*
X144350250Y-92991554D01*
X144293187Y-92958608D01*
X144229539Y-92941554D01*
X144165892Y-92924500D01*
X144034108Y-92924500D01*
X143906812Y-92958608D01*
X143792686Y-93024500D01*
X143792683Y-93024502D01*
X143699502Y-93117683D01*
X143699500Y-93117686D01*
X143633608Y-93231812D01*
X143599500Y-93359108D01*
X141166922Y-93359108D01*
X141107314Y-93299500D01*
X141050250Y-93266554D01*
X140993187Y-93233608D01*
X140917928Y-93213443D01*
X140865892Y-93199500D01*
X140734108Y-93199500D01*
X140606812Y-93233608D01*
X140492686Y-93299500D01*
X140492683Y-93299502D01*
X140399502Y-93392683D01*
X140399500Y-93392686D01*
X140333608Y-93506812D01*
X140320076Y-93557316D01*
X140299500Y-93634108D01*
X140299500Y-93765892D01*
X140315472Y-93825500D01*
X140333608Y-93893187D01*
X140366554Y-93950250D01*
X140399500Y-94007314D01*
X140399502Y-94007316D01*
X140455304Y-94063118D01*
X140488789Y-94124441D01*
X140483805Y-94194133D01*
X140447678Y-94242998D01*
X140448433Y-94243753D01*
X140443399Y-94248786D01*
X140443116Y-94249170D01*
X140442686Y-94249499D01*
X140349502Y-94342683D01*
X140349500Y-94342686D01*
X140283608Y-94456812D01*
X140249500Y-94584108D01*
X110550500Y-94584108D01*
X110550500Y-92246608D01*
X123937000Y-92246608D01*
X123937000Y-92378392D01*
X123940686Y-92392147D01*
X123971108Y-92505687D01*
X123992759Y-92543187D01*
X124037000Y-92619814D01*
X124130186Y-92713000D01*
X124242826Y-92778033D01*
X124244314Y-92778892D01*
X124251818Y-92782000D01*
X124250794Y-92784471D01*
X124299200Y-92813959D01*
X124329745Y-92876798D01*
X124321468Y-92946176D01*
X124314854Y-92959392D01*
X124258609Y-93056810D01*
X124258609Y-93056811D01*
X124258608Y-93056813D01*
X124258608Y-93056814D01*
X124224500Y-93184108D01*
X124224500Y-93315892D01*
X124233505Y-93349500D01*
X124258608Y-93443187D01*
X124286151Y-93490892D01*
X124324500Y-93557314D01*
X124417686Y-93650500D01*
X124502560Y-93699502D01*
X124530944Y-93715890D01*
X124531814Y-93716392D01*
X124659108Y-93750500D01*
X124659110Y-93750500D01*
X124790890Y-93750500D01*
X124790892Y-93750500D01*
X124918186Y-93716392D01*
X125032314Y-93650500D01*
X125125500Y-93557314D01*
X125154697Y-93506742D01*
X125205260Y-93458530D01*
X125273867Y-93445306D01*
X125338732Y-93471273D01*
X125379262Y-93528187D01*
X125381856Y-93536647D01*
X125383608Y-93543187D01*
X125416121Y-93599500D01*
X125449500Y-93657314D01*
X125542686Y-93750500D01*
X125656814Y-93816392D01*
X125784108Y-93850500D01*
X125784110Y-93850500D01*
X125915890Y-93850500D01*
X125915892Y-93850500D01*
X126043186Y-93816392D01*
X126099103Y-93784108D01*
X127749500Y-93784108D01*
X127749500Y-93915892D01*
X127766554Y-93979539D01*
X127783608Y-94043187D01*
X127805055Y-94080334D01*
X127849500Y-94157314D01*
X127942686Y-94250500D01*
X128056814Y-94316392D01*
X128184108Y-94350500D01*
X128184110Y-94350500D01*
X128315890Y-94350500D01*
X128315892Y-94350500D01*
X128443186Y-94316392D01*
X128557314Y-94250500D01*
X128650500Y-94157314D01*
X128716392Y-94043186D01*
X128750500Y-93915892D01*
X128750500Y-93784108D01*
X128716392Y-93656814D01*
X128650500Y-93542686D01*
X128557314Y-93449500D01*
X128458910Y-93392686D01*
X128443187Y-93383608D01*
X128351757Y-93359110D01*
X128315892Y-93349500D01*
X128184108Y-93349500D01*
X128056812Y-93383608D01*
X127942686Y-93449500D01*
X127942683Y-93449502D01*
X127849502Y-93542683D01*
X127849500Y-93542686D01*
X127783608Y-93656812D01*
X127767644Y-93716392D01*
X127749500Y-93784108D01*
X126099103Y-93784108D01*
X126157314Y-93750500D01*
X126250500Y-93657314D01*
X126316392Y-93543186D01*
X126350500Y-93415892D01*
X126350500Y-93284108D01*
X126316392Y-93156814D01*
X126250500Y-93042686D01*
X126157314Y-92949500D01*
X126100250Y-92916554D01*
X126043187Y-92883608D01*
X125979539Y-92866554D01*
X125915892Y-92849500D01*
X125784108Y-92849500D01*
X125656812Y-92883608D01*
X125542686Y-92949500D01*
X125542683Y-92949502D01*
X125449502Y-93042683D01*
X125449500Y-93042686D01*
X125441346Y-93056810D01*
X125420304Y-93093255D01*
X125369736Y-93141470D01*
X125301129Y-93154692D01*
X125236265Y-93128724D01*
X125195737Y-93071810D01*
X125193142Y-93063346D01*
X125191392Y-93056814D01*
X125125500Y-92942686D01*
X125032314Y-92849500D01*
X124919681Y-92784471D01*
X124918185Y-92783607D01*
X124910682Y-92780500D01*
X124911703Y-92778033D01*
X124863281Y-92748520D01*
X124832750Y-92685674D01*
X124841042Y-92616298D01*
X124847646Y-92603106D01*
X124859941Y-92581812D01*
X124903892Y-92505686D01*
X124938000Y-92378392D01*
X124938000Y-92246608D01*
X124903892Y-92119314D01*
X124838000Y-92005186D01*
X124744814Y-91912000D01*
X124687750Y-91879054D01*
X124630687Y-91846108D01*
X124517917Y-91815892D01*
X124503392Y-91812000D01*
X124371608Y-91812000D01*
X124244312Y-91846108D01*
X124130186Y-91912000D01*
X124130183Y-91912002D01*
X124037002Y-92005183D01*
X124037000Y-92005186D01*
X123971108Y-92119312D01*
X123945096Y-92216392D01*
X123937000Y-92246608D01*
X110550500Y-92246608D01*
X110550500Y-91684108D01*
X141924500Y-91684108D01*
X141924500Y-91815891D01*
X141958608Y-91943187D01*
X141987185Y-91992683D01*
X142024500Y-92057314D01*
X142117686Y-92150500D01*
X142231814Y-92216392D01*
X142359108Y-92250500D01*
X142359110Y-92250500D01*
X142467324Y-92250500D01*
X142534363Y-92270185D01*
X142580118Y-92322989D01*
X142590062Y-92392147D01*
X142561037Y-92455703D01*
X142555005Y-92462181D01*
X142549502Y-92467683D01*
X142549500Y-92467686D01*
X142483608Y-92581812D01*
X142474368Y-92616298D01*
X142449500Y-92709108D01*
X142449500Y-92840892D01*
X142459121Y-92876798D01*
X142483608Y-92968187D01*
X142516121Y-93024500D01*
X142549500Y-93082314D01*
X142642686Y-93175500D01*
X142740221Y-93231812D01*
X142756810Y-93241390D01*
X142756814Y-93241392D01*
X142884108Y-93275500D01*
X142884110Y-93275500D01*
X143015890Y-93275500D01*
X143015892Y-93275500D01*
X143143186Y-93241392D01*
X143257314Y-93175500D01*
X143350500Y-93082314D01*
X143416392Y-92968186D01*
X143450500Y-92840892D01*
X143450500Y-92709108D01*
X143416392Y-92581814D01*
X143350500Y-92467686D01*
X143257314Y-92374500D01*
X143168095Y-92322989D01*
X143143187Y-92308608D01*
X143079539Y-92291554D01*
X143015892Y-92274500D01*
X142907676Y-92274500D01*
X142840637Y-92254815D01*
X142794882Y-92202011D01*
X142784938Y-92132853D01*
X142813963Y-92069297D01*
X142819995Y-92062819D01*
X142825500Y-92057314D01*
X142891392Y-91943186D01*
X142925500Y-91815892D01*
X142925500Y-91684108D01*
X142891392Y-91556814D01*
X142887353Y-91549819D01*
X142882563Y-91541521D01*
X142825500Y-91442686D01*
X142732314Y-91349500D01*
X142674968Y-91316391D01*
X142618187Y-91283608D01*
X142591531Y-91276465D01*
X142564692Y-91269274D01*
X142505032Y-91232910D01*
X142474503Y-91170063D01*
X142482798Y-91100688D01*
X142496487Y-91084108D01*
X147649500Y-91084108D01*
X147649500Y-91215891D01*
X147683608Y-91343187D01*
X147716554Y-91400250D01*
X147749500Y-91457314D01*
X147749502Y-91457316D01*
X147842005Y-91549819D01*
X147875490Y-91611142D01*
X147870506Y-91680834D01*
X147842005Y-91725181D01*
X147799502Y-91767683D01*
X147799500Y-91767686D01*
X147733608Y-91881812D01*
X147717163Y-91943187D01*
X147699500Y-92009108D01*
X147699500Y-92140892D01*
X147703766Y-92156812D01*
X147733608Y-92268187D01*
X147756946Y-92308608D01*
X147799500Y-92382314D01*
X147892686Y-92475500D01*
X148006814Y-92541392D01*
X148134108Y-92575500D01*
X148134110Y-92575500D01*
X148265890Y-92575500D01*
X148265892Y-92575500D01*
X148393186Y-92541392D01*
X148507314Y-92475500D01*
X148600500Y-92382314D01*
X148657199Y-92284108D01*
X149874500Y-92284108D01*
X149874500Y-92415892D01*
X149890472Y-92475500D01*
X149908608Y-92543187D01*
X149930909Y-92581812D01*
X149974500Y-92657314D01*
X150067686Y-92750500D01*
X150181814Y-92816392D01*
X150309108Y-92850500D01*
X150309110Y-92850500D01*
X150440890Y-92850500D01*
X150440892Y-92850500D01*
X150568186Y-92816392D01*
X150682314Y-92750500D01*
X150775500Y-92657314D01*
X150841392Y-92543186D01*
X150841392Y-92543183D01*
X150844546Y-92537722D01*
X150895113Y-92489507D01*
X150963720Y-92476283D01*
X151028584Y-92502251D01*
X151059319Y-92537721D01*
X151098307Y-92605248D01*
X151099500Y-92607314D01*
X151192686Y-92700500D01*
X151306814Y-92766392D01*
X151434108Y-92800500D01*
X151434110Y-92800500D01*
X151565890Y-92800500D01*
X151565892Y-92800500D01*
X151693186Y-92766392D01*
X151807314Y-92700500D01*
X151900500Y-92607314D01*
X151966392Y-92493186D01*
X152000500Y-92365892D01*
X152000500Y-92234108D01*
X151966392Y-92106814D01*
X151900500Y-91992686D01*
X151807314Y-91899500D01*
X151714837Y-91846108D01*
X151693187Y-91833608D01*
X151612543Y-91812000D01*
X151565892Y-91799500D01*
X151434108Y-91799500D01*
X151306812Y-91833608D01*
X151192686Y-91899500D01*
X151192683Y-91899502D01*
X151099502Y-91992683D01*
X151099500Y-91992686D01*
X151030453Y-92112278D01*
X150979885Y-92160493D01*
X150911278Y-92173715D01*
X150846414Y-92147747D01*
X150815679Y-92112278D01*
X150812523Y-92106812D01*
X150775500Y-92042686D01*
X150682314Y-91949500D01*
X150617362Y-91912000D01*
X150568187Y-91883608D01*
X150504539Y-91866554D01*
X150440892Y-91849500D01*
X150309108Y-91849500D01*
X150181812Y-91883608D01*
X150067686Y-91949500D01*
X150067683Y-91949502D01*
X149974502Y-92042683D01*
X149974500Y-92042686D01*
X149908608Y-92156812D01*
X149892644Y-92216392D01*
X149874500Y-92284108D01*
X148657199Y-92284108D01*
X148666392Y-92268186D01*
X148700500Y-92140892D01*
X148700500Y-92009108D01*
X148666392Y-91881814D01*
X148600500Y-91767686D01*
X148507995Y-91675181D01*
X148474510Y-91613858D01*
X148479494Y-91544166D01*
X148507995Y-91499819D01*
X148550500Y-91457314D01*
X148616392Y-91343186D01*
X148650500Y-91215892D01*
X148650500Y-91084108D01*
X148616392Y-90956814D01*
X148550500Y-90842686D01*
X148457314Y-90749500D01*
X148372442Y-90700499D01*
X148343187Y-90683608D01*
X148243188Y-90656814D01*
X148215892Y-90649500D01*
X148084108Y-90649500D01*
X147956812Y-90683608D01*
X147842686Y-90749500D01*
X147842683Y-90749502D01*
X147749502Y-90842683D01*
X147749500Y-90842686D01*
X147683608Y-90956812D01*
X147649500Y-91084108D01*
X142496487Y-91084108D01*
X142527283Y-91046810D01*
X142557943Y-91031741D01*
X142576864Y-91025500D01*
X142590892Y-91025500D01*
X142718186Y-90991392D01*
X142832314Y-90925500D01*
X142925500Y-90832314D01*
X142991392Y-90718186D01*
X143025500Y-90590892D01*
X143025500Y-90459108D01*
X142991392Y-90331814D01*
X142991389Y-90331808D01*
X142980520Y-90312982D01*
X142980519Y-90312981D01*
X142953331Y-90265891D01*
X142949415Y-90259108D01*
X146599500Y-90259108D01*
X146599500Y-90390892D01*
X146605687Y-90413981D01*
X146633608Y-90518187D01*
X146647751Y-90542683D01*
X146699500Y-90632314D01*
X146792686Y-90725500D01*
X146906814Y-90791392D01*
X147034108Y-90825500D01*
X147034110Y-90825500D01*
X147165890Y-90825500D01*
X147165892Y-90825500D01*
X147293186Y-90791392D01*
X147407314Y-90725500D01*
X147500500Y-90632314D01*
X147566392Y-90518186D01*
X147600500Y-90390892D01*
X147600500Y-90259108D01*
X147566392Y-90131814D01*
X147500500Y-90017686D01*
X147407314Y-89924500D01*
X147350250Y-89891554D01*
X147293187Y-89858608D01*
X147229539Y-89841554D01*
X147165892Y-89824500D01*
X147034108Y-89824500D01*
X146906812Y-89858608D01*
X146792686Y-89924500D01*
X146792683Y-89924502D01*
X146699502Y-90017683D01*
X146699500Y-90017686D01*
X146633608Y-90131812D01*
X146624343Y-90166391D01*
X146599500Y-90259108D01*
X142949415Y-90259108D01*
X142925500Y-90217686D01*
X142832314Y-90124500D01*
X142761487Y-90083608D01*
X142718187Y-90058608D01*
X142654539Y-90041554D01*
X142590892Y-90024500D01*
X142459108Y-90024500D01*
X142331812Y-90058608D01*
X142217686Y-90124500D01*
X142217683Y-90124502D01*
X142124502Y-90217683D01*
X142124500Y-90217686D01*
X142058608Y-90331812D01*
X142027074Y-90449500D01*
X142024500Y-90459108D01*
X142024500Y-90590892D01*
X142040204Y-90649500D01*
X142058608Y-90718187D01*
X142073042Y-90743187D01*
X142124500Y-90832314D01*
X142217686Y-90925500D01*
X142331814Y-90991392D01*
X142385307Y-91005725D01*
X142444968Y-91042090D01*
X142475497Y-91104937D01*
X142467202Y-91174312D01*
X142422717Y-91228190D01*
X142366853Y-91246048D01*
X142367168Y-91248439D01*
X142359108Y-91249500D01*
X142231812Y-91283608D01*
X142117686Y-91349500D01*
X142117683Y-91349502D01*
X142024502Y-91442683D01*
X142024500Y-91442686D01*
X141958608Y-91556812D01*
X141924500Y-91684108D01*
X110550500Y-91684108D01*
X110550500Y-90134108D01*
X121349500Y-90134108D01*
X121349500Y-90265891D01*
X121383608Y-90393187D01*
X121383609Y-90393188D01*
X121449500Y-90507314D01*
X121542686Y-90600500D01*
X121656814Y-90666392D01*
X121784108Y-90700500D01*
X121784110Y-90700500D01*
X121915890Y-90700500D01*
X121915892Y-90700500D01*
X122043186Y-90666392D01*
X122157314Y-90600500D01*
X122250500Y-90507314D01*
X122263898Y-90484108D01*
X123399500Y-90484108D01*
X123399500Y-90615891D01*
X123433608Y-90743187D01*
X123461439Y-90791391D01*
X123499500Y-90857314D01*
X123592686Y-90950500D01*
X123706814Y-91016392D01*
X123834108Y-91050500D01*
X123834110Y-91050500D01*
X123965890Y-91050500D01*
X123965892Y-91050500D01*
X124093186Y-91016392D01*
X124207314Y-90950500D01*
X124300500Y-90857314D01*
X124342766Y-90784108D01*
X140249500Y-90784108D01*
X140249500Y-90915892D01*
X140258772Y-90950497D01*
X140283608Y-91043187D01*
X140316554Y-91100250D01*
X140349500Y-91157314D01*
X140442686Y-91250500D01*
X140556814Y-91316392D01*
X140684108Y-91350500D01*
X140684110Y-91350500D01*
X140815890Y-91350500D01*
X140815892Y-91350500D01*
X140943186Y-91316392D01*
X141057314Y-91250500D01*
X141150500Y-91157314D01*
X141216392Y-91043186D01*
X141250500Y-90915892D01*
X141250500Y-90784108D01*
X141216392Y-90656814D01*
X141150500Y-90542686D01*
X141057314Y-90449500D01*
X141000250Y-90416554D01*
X140943187Y-90383608D01*
X140843188Y-90356814D01*
X140815892Y-90349500D01*
X140684108Y-90349500D01*
X140556812Y-90383608D01*
X140442686Y-90449500D01*
X140442683Y-90449502D01*
X140349502Y-90542683D01*
X140349500Y-90542686D01*
X140283608Y-90656812D01*
X140249500Y-90784108D01*
X124342766Y-90784108D01*
X124366392Y-90743186D01*
X124400500Y-90615892D01*
X124400500Y-90484108D01*
X124366392Y-90356814D01*
X124300500Y-90242686D01*
X124207314Y-90149500D01*
X124122439Y-90100497D01*
X124093187Y-90083608D01*
X124029539Y-90066554D01*
X123965892Y-90049500D01*
X123834108Y-90049500D01*
X123706812Y-90083608D01*
X123592686Y-90149500D01*
X123592683Y-90149502D01*
X123499502Y-90242683D01*
X123499500Y-90242686D01*
X123433608Y-90356812D01*
X123399500Y-90484108D01*
X122263898Y-90484108D01*
X122316392Y-90393186D01*
X122350500Y-90265892D01*
X122350500Y-90134108D01*
X122316392Y-90006814D01*
X122250500Y-89892686D01*
X122157314Y-89799500D01*
X122099100Y-89765890D01*
X122043187Y-89733608D01*
X121979539Y-89716554D01*
X121915892Y-89699500D01*
X121784108Y-89699500D01*
X121656812Y-89733608D01*
X121542686Y-89799500D01*
X121542683Y-89799502D01*
X121449502Y-89892683D01*
X121449500Y-89892686D01*
X121383608Y-90006812D01*
X121349500Y-90134108D01*
X110550500Y-90134108D01*
X110550500Y-89634108D01*
X157849500Y-89634108D01*
X157849500Y-89765891D01*
X157883608Y-89893187D01*
X157901687Y-89924500D01*
X157949500Y-90007314D01*
X158042686Y-90100500D01*
X158156814Y-90166392D01*
X158284108Y-90200500D01*
X158284110Y-90200500D01*
X158415890Y-90200500D01*
X158415892Y-90200500D01*
X158543186Y-90166392D01*
X158657314Y-90100500D01*
X158750500Y-90007314D01*
X158816392Y-89893186D01*
X158850500Y-89765892D01*
X158850500Y-89634108D01*
X158816392Y-89506814D01*
X158750500Y-89392686D01*
X158657314Y-89299500D01*
X158600250Y-89266554D01*
X158543187Y-89233608D01*
X158479539Y-89216554D01*
X158415892Y-89199500D01*
X158284108Y-89199500D01*
X158156812Y-89233608D01*
X158042686Y-89299500D01*
X158042683Y-89299502D01*
X157949502Y-89392683D01*
X157949500Y-89392686D01*
X157883608Y-89506812D01*
X157849500Y-89634108D01*
X110550500Y-89634108D01*
X110550500Y-88584108D01*
X124449500Y-88584108D01*
X124449500Y-88715892D01*
X124466554Y-88779539D01*
X124483608Y-88843187D01*
X124491475Y-88856812D01*
X124549500Y-88957314D01*
X124642686Y-89050500D01*
X124741521Y-89107563D01*
X124755944Y-89115890D01*
X124756814Y-89116392D01*
X124884108Y-89150500D01*
X124884110Y-89150500D01*
X125015890Y-89150500D01*
X125015892Y-89150500D01*
X125143186Y-89116392D01*
X125257314Y-89050500D01*
X125323706Y-88984108D01*
X143599500Y-88984108D01*
X143599500Y-89115891D01*
X143633608Y-89243187D01*
X143666121Y-89299500D01*
X143699500Y-89357314D01*
X143792686Y-89450500D01*
X143890221Y-89506812D01*
X143906810Y-89516390D01*
X143906814Y-89516392D01*
X144034108Y-89550500D01*
X144034110Y-89550500D01*
X144165890Y-89550500D01*
X144165892Y-89550500D01*
X144293186Y-89516392D01*
X144407314Y-89450500D01*
X144500500Y-89357314D01*
X144566392Y-89243186D01*
X144600500Y-89115892D01*
X144600500Y-88984108D01*
X144566392Y-88856814D01*
X144500500Y-88742686D01*
X144407314Y-88649500D01*
X144350250Y-88616554D01*
X144293187Y-88583608D01*
X144229539Y-88566554D01*
X144165892Y-88549500D01*
X144034108Y-88549500D01*
X143906812Y-88583608D01*
X143792686Y-88649500D01*
X143792683Y-88649502D01*
X143699502Y-88742683D01*
X143699500Y-88742686D01*
X143633608Y-88856812D01*
X143599500Y-88984108D01*
X125323706Y-88984108D01*
X125350500Y-88957314D01*
X125363023Y-88935622D01*
X125375520Y-88913980D01*
X125416390Y-88843189D01*
X125416392Y-88843186D01*
X125450500Y-88715892D01*
X125450500Y-88584108D01*
X125416392Y-88456814D01*
X125350500Y-88342686D01*
X125257314Y-88249500D01*
X125200250Y-88216554D01*
X125143187Y-88183608D01*
X125079539Y-88166554D01*
X125015892Y-88149500D01*
X124884108Y-88149500D01*
X124756812Y-88183608D01*
X124642686Y-88249500D01*
X124642683Y-88249502D01*
X124549502Y-88342683D01*
X124549500Y-88342686D01*
X124483608Y-88456812D01*
X124458773Y-88549500D01*
X124449500Y-88584108D01*
X110550500Y-88584108D01*
X110550500Y-87784108D01*
X125799500Y-87784108D01*
X125799500Y-87915891D01*
X125833608Y-88043187D01*
X125847005Y-88066391D01*
X125899500Y-88157314D01*
X125992686Y-88250500D01*
X126106814Y-88316392D01*
X126234108Y-88350500D01*
X126234110Y-88350500D01*
X126365890Y-88350500D01*
X126365892Y-88350500D01*
X126493186Y-88316392D01*
X126607314Y-88250500D01*
X126700500Y-88157314D01*
X126766392Y-88043186D01*
X126800500Y-87915892D01*
X126800500Y-87784108D01*
X126766392Y-87656814D01*
X126742764Y-87615890D01*
X126700503Y-87542691D01*
X126700502Y-87542690D01*
X126700500Y-87542686D01*
X126641922Y-87484108D01*
X139549500Y-87484108D01*
X139549500Y-87615891D01*
X139583608Y-87743187D01*
X139612476Y-87793186D01*
X139649500Y-87857314D01*
X139742686Y-87950500D01*
X139856814Y-88016392D01*
X139984108Y-88050500D01*
X139984110Y-88050500D01*
X140115890Y-88050500D01*
X140115892Y-88050500D01*
X140243186Y-88016392D01*
X140357314Y-87950500D01*
X140450500Y-87857314D01*
X140516392Y-87743186D01*
X140550500Y-87615892D01*
X140550500Y-87534108D01*
X141499500Y-87534108D01*
X141499500Y-87665891D01*
X141533608Y-87793187D01*
X141566554Y-87850250D01*
X141599500Y-87907314D01*
X141692686Y-88000500D01*
X141806814Y-88066392D01*
X141934108Y-88100500D01*
X141934110Y-88100500D01*
X142065890Y-88100500D01*
X142065892Y-88100500D01*
X142193186Y-88066392D01*
X142307314Y-88000500D01*
X142400500Y-87907314D01*
X142466392Y-87793186D01*
X142500500Y-87665892D01*
X142500500Y-87534108D01*
X142466392Y-87406814D01*
X142400500Y-87292686D01*
X142307314Y-87199500D01*
X142222442Y-87150499D01*
X142193187Y-87133608D01*
X142128931Y-87116391D01*
X142065892Y-87099500D01*
X141934108Y-87099500D01*
X141806812Y-87133608D01*
X141692686Y-87199500D01*
X141692683Y-87199502D01*
X141599502Y-87292683D01*
X141599500Y-87292686D01*
X141533608Y-87406812D01*
X141499500Y-87534108D01*
X140550500Y-87534108D01*
X140550500Y-87484108D01*
X140516392Y-87356814D01*
X140450500Y-87242686D01*
X140357314Y-87149500D01*
X140270712Y-87099500D01*
X140243187Y-87083608D01*
X140179539Y-87066554D01*
X140115892Y-87049500D01*
X139984108Y-87049500D01*
X139856812Y-87083608D01*
X139742686Y-87149500D01*
X139742683Y-87149502D01*
X139649502Y-87242683D01*
X139649500Y-87242686D01*
X139583608Y-87356812D01*
X139549500Y-87484108D01*
X126641922Y-87484108D01*
X126607314Y-87449500D01*
X126533380Y-87406814D01*
X126493187Y-87383608D01*
X126393188Y-87356814D01*
X126365892Y-87349500D01*
X126234108Y-87349500D01*
X126106812Y-87383608D01*
X125992686Y-87449500D01*
X125992683Y-87449502D01*
X125899502Y-87542683D01*
X125899500Y-87542686D01*
X125833608Y-87656812D01*
X125799500Y-87784108D01*
X110550500Y-87784108D01*
X110550500Y-86584108D01*
X124399500Y-86584108D01*
X124399500Y-86715891D01*
X124433608Y-86843187D01*
X124466554Y-86900250D01*
X124499500Y-86957314D01*
X124592686Y-87050500D01*
X124706814Y-87116392D01*
X124834108Y-87150500D01*
X124834110Y-87150500D01*
X124965890Y-87150500D01*
X124965892Y-87150500D01*
X125093186Y-87116392D01*
X125207314Y-87050500D01*
X125300500Y-86957314D01*
X125366392Y-86843186D01*
X125400500Y-86715892D01*
X125400500Y-86584108D01*
X125366392Y-86456814D01*
X125300500Y-86342686D01*
X125207314Y-86249500D01*
X125122442Y-86200499D01*
X125093187Y-86183608D01*
X125028931Y-86166391D01*
X124965892Y-86149500D01*
X124834108Y-86149500D01*
X124706812Y-86183608D01*
X124592686Y-86249500D01*
X124592683Y-86249502D01*
X124499502Y-86342683D01*
X124499500Y-86342686D01*
X124433608Y-86456812D01*
X124399500Y-86584108D01*
X110550500Y-86584108D01*
X110550500Y-85484108D01*
X116274500Y-85484108D01*
X116274500Y-85615892D01*
X116291554Y-85679539D01*
X116308608Y-85743187D01*
X116341554Y-85800250D01*
X116374500Y-85857314D01*
X116467686Y-85950500D01*
X116581814Y-86016392D01*
X116709108Y-86050500D01*
X116709110Y-86050500D01*
X116840890Y-86050500D01*
X116840892Y-86050500D01*
X116968186Y-86016392D01*
X117082314Y-85950500D01*
X117175500Y-85857314D01*
X117241392Y-85743186D01*
X117275500Y-85615892D01*
X117275500Y-85615882D01*
X117276219Y-85610429D01*
X117304485Y-85546533D01*
X117362809Y-85508061D01*
X117432674Y-85507229D01*
X117491898Y-85544301D01*
X117506545Y-85564613D01*
X117518416Y-85585175D01*
X117574500Y-85682314D01*
X117667686Y-85775500D01*
X117781814Y-85841392D01*
X117909108Y-85875500D01*
X117909110Y-85875500D01*
X118040890Y-85875500D01*
X118040892Y-85875500D01*
X118168186Y-85841392D01*
X118282314Y-85775500D01*
X118375500Y-85682314D01*
X118403332Y-85634108D01*
X137649500Y-85634108D01*
X137649500Y-85765892D01*
X137666554Y-85829539D01*
X137683608Y-85893187D01*
X137716554Y-85950250D01*
X137749500Y-86007314D01*
X137842686Y-86100500D01*
X137956814Y-86166392D01*
X138084108Y-86200500D01*
X138084110Y-86200500D01*
X138215890Y-86200500D01*
X138215892Y-86200500D01*
X138343186Y-86166392D01*
X138457314Y-86100500D01*
X138550500Y-86007314D01*
X138616392Y-85893186D01*
X138650500Y-85765892D01*
X138650500Y-85634108D01*
X138616392Y-85506814D01*
X138550500Y-85392686D01*
X138457314Y-85299500D01*
X138358910Y-85242686D01*
X138343187Y-85233608D01*
X138278931Y-85216391D01*
X138215892Y-85199500D01*
X138084108Y-85199500D01*
X137956812Y-85233608D01*
X137842686Y-85299500D01*
X137842683Y-85299502D01*
X137749502Y-85392683D01*
X137749500Y-85392686D01*
X137683608Y-85506812D01*
X137667163Y-85568187D01*
X137649500Y-85634108D01*
X118403332Y-85634108D01*
X118441392Y-85568186D01*
X118475500Y-85440892D01*
X118475500Y-85309108D01*
X118441392Y-85181814D01*
X118375500Y-85067686D01*
X118282314Y-84974500D01*
X118225250Y-84941554D01*
X118168187Y-84908608D01*
X118104539Y-84891554D01*
X118040892Y-84874500D01*
X117909108Y-84874500D01*
X117781812Y-84908608D01*
X117667686Y-84974500D01*
X117667683Y-84974502D01*
X117574502Y-85067683D01*
X117574500Y-85067686D01*
X117508608Y-85181812D01*
X117474499Y-85309112D01*
X117473779Y-85314580D01*
X117445507Y-85378474D01*
X117387180Y-85416941D01*
X117317315Y-85417767D01*
X117258095Y-85380690D01*
X117243454Y-85360385D01*
X117208303Y-85299502D01*
X117175500Y-85242686D01*
X117082314Y-85149500D01*
X117025250Y-85116554D01*
X116968187Y-85083608D01*
X116904539Y-85066554D01*
X116840892Y-85049500D01*
X116709108Y-85049500D01*
X116581812Y-85083608D01*
X116467686Y-85149500D01*
X116467683Y-85149502D01*
X116374502Y-85242683D01*
X116374500Y-85242686D01*
X116308608Y-85356812D01*
X116274500Y-85484108D01*
X110550500Y-85484108D01*
X110550500Y-84684108D01*
X118649500Y-84684108D01*
X118649500Y-84815891D01*
X118683608Y-84943187D01*
X118701687Y-84974500D01*
X118749500Y-85057314D01*
X118842686Y-85150500D01*
X118956814Y-85216392D01*
X119084108Y-85250500D01*
X119084110Y-85250500D01*
X119215890Y-85250500D01*
X119215892Y-85250500D01*
X119343186Y-85216392D01*
X119457314Y-85150500D01*
X119550500Y-85057314D01*
X119616392Y-84943186D01*
X119650500Y-84815892D01*
X119650500Y-84684108D01*
X119616392Y-84556814D01*
X119550500Y-84442686D01*
X119457314Y-84349500D01*
X119400250Y-84316554D01*
X119343187Y-84283608D01*
X119279539Y-84266554D01*
X119215892Y-84249500D01*
X119084108Y-84249500D01*
X118956812Y-84283608D01*
X118842686Y-84349500D01*
X118842683Y-84349502D01*
X118749502Y-84442683D01*
X118749500Y-84442686D01*
X118683608Y-84556812D01*
X118649500Y-84684108D01*
X110550500Y-84684108D01*
X110550500Y-83934108D01*
X151499500Y-83934108D01*
X151499500Y-84065891D01*
X151533608Y-84193187D01*
X151566121Y-84249500D01*
X151599500Y-84307314D01*
X151692686Y-84400500D01*
X151806814Y-84466392D01*
X151934108Y-84500500D01*
X151934110Y-84500500D01*
X152065890Y-84500500D01*
X152065892Y-84500500D01*
X152193186Y-84466392D01*
X152307314Y-84400500D01*
X152400500Y-84307314D01*
X152466392Y-84193186D01*
X152500500Y-84065892D01*
X152500500Y-83968807D01*
X163424499Y-83968807D01*
X163456222Y-84128283D01*
X163456225Y-84128293D01*
X163518450Y-84278519D01*
X163518452Y-84278523D01*
X163608788Y-84413720D01*
X163608794Y-84413728D01*
X163723771Y-84528705D01*
X163723779Y-84528711D01*
X163858976Y-84619047D01*
X163858980Y-84619049D01*
X164009206Y-84681274D01*
X164009211Y-84681276D01*
X164009215Y-84681276D01*
X164009216Y-84681277D01*
X164168692Y-84713000D01*
X164168695Y-84713000D01*
X164331307Y-84713000D01*
X164448324Y-84689723D01*
X164490789Y-84681276D01*
X164641021Y-84619048D01*
X164641023Y-84619047D01*
X164760135Y-84539459D01*
X164776225Y-84528708D01*
X164891208Y-84413725D01*
X164962310Y-84307313D01*
X164981547Y-84278523D01*
X164981549Y-84278519D01*
X165030641Y-84160000D01*
X165043776Y-84128289D01*
X165057340Y-84060099D01*
X165075500Y-83968807D01*
X165075500Y-83806200D01*
X165075500Y-83806195D01*
X165074835Y-83802850D01*
X184174500Y-83802850D01*
X184174500Y-83972149D01*
X184200981Y-84139347D01*
X184253296Y-84300353D01*
X184330152Y-84451188D01*
X184429648Y-84588134D01*
X184429652Y-84588139D01*
X184549360Y-84707847D01*
X184549365Y-84707851D01*
X184668817Y-84794637D01*
X184686315Y-84807350D01*
X184782425Y-84856320D01*
X184837146Y-84884203D01*
X184837148Y-84884203D01*
X184837151Y-84884205D01*
X184923450Y-84912245D01*
X184998152Y-84936518D01*
X185165351Y-84963000D01*
X185165356Y-84963000D01*
X185334649Y-84963000D01*
X185501847Y-84936518D01*
X185662849Y-84884205D01*
X185813685Y-84807350D01*
X185950641Y-84707846D01*
X186070346Y-84588141D01*
X186169850Y-84451185D01*
X186246705Y-84300349D01*
X186299018Y-84139347D01*
X186310652Y-84065891D01*
X186325500Y-83972149D01*
X186325500Y-83802850D01*
X186299018Y-83635652D01*
X186250192Y-83485383D01*
X186246705Y-83474651D01*
X186213764Y-83410000D01*
X195272769Y-83410000D01*
X196166988Y-83410000D01*
X196134075Y-83467007D01*
X196100000Y-83594174D01*
X196100000Y-83725826D01*
X196134075Y-83852993D01*
X196166988Y-83910000D01*
X195272769Y-83910000D01*
X195283242Y-83976126D01*
X195283242Y-83976129D01*
X195348904Y-84178217D01*
X195445379Y-84367557D01*
X195570272Y-84539459D01*
X195570276Y-84539464D01*
X195720535Y-84689723D01*
X195720540Y-84689727D01*
X195892442Y-84814620D01*
X196081782Y-84911095D01*
X196283871Y-84976757D01*
X196350000Y-84987231D01*
X196350000Y-84093012D01*
X196407007Y-84125925D01*
X196534174Y-84160000D01*
X196665826Y-84160000D01*
X196792993Y-84125925D01*
X196850000Y-84093012D01*
X196850000Y-84987230D01*
X196916126Y-84976757D01*
X196916129Y-84976757D01*
X197118217Y-84911095D01*
X197307557Y-84814620D01*
X197479459Y-84689727D01*
X197479464Y-84689723D01*
X197629723Y-84539464D01*
X197629727Y-84539459D01*
X197754620Y-84367557D01*
X197851095Y-84178217D01*
X197916757Y-83976129D01*
X197916757Y-83976126D01*
X197927231Y-83910000D01*
X197033012Y-83910000D01*
X197065925Y-83852993D01*
X197100000Y-83725826D01*
X197100000Y-83594174D01*
X197065925Y-83467007D01*
X197033012Y-83410000D01*
X197927231Y-83410000D01*
X197916757Y-83343873D01*
X197916757Y-83343870D01*
X197851095Y-83141782D01*
X197754620Y-82952442D01*
X197629727Y-82780540D01*
X197629723Y-82780535D01*
X197479464Y-82630276D01*
X197479459Y-82630272D01*
X197307557Y-82505379D01*
X197118216Y-82408904D01*
X196942026Y-82351656D01*
X196884350Y-82312218D01*
X196857152Y-82247860D01*
X196869067Y-82179013D01*
X196916311Y-82127538D01*
X196932882Y-82119168D01*
X197097598Y-82050941D01*
X197269655Y-81935977D01*
X197415977Y-81789655D01*
X197530941Y-81617598D01*
X197610130Y-81426420D01*
X197650500Y-81223465D01*
X197650500Y-81016535D01*
X197610130Y-80813580D01*
X197530941Y-80622402D01*
X197415977Y-80450345D01*
X197415975Y-80450342D01*
X197269657Y-80304024D01*
X197103776Y-80193187D01*
X197097598Y-80189059D01*
X197004506Y-80150499D01*
X196906420Y-80109870D01*
X196906412Y-80109868D01*
X196703469Y-80069500D01*
X196703465Y-80069500D01*
X196496535Y-80069500D01*
X196496530Y-80069500D01*
X196293587Y-80109868D01*
X196293579Y-80109870D01*
X196102403Y-80189058D01*
X195930342Y-80304024D01*
X195784024Y-80450342D01*
X195669058Y-80622403D01*
X195589870Y-80813579D01*
X195589868Y-80813587D01*
X195549500Y-81016530D01*
X195549500Y-81223469D01*
X195589868Y-81426412D01*
X195589870Y-81426420D01*
X195669058Y-81617596D01*
X195784024Y-81789657D01*
X195930342Y-81935975D01*
X196102405Y-82050943D01*
X196205043Y-82093456D01*
X196267108Y-82119164D01*
X196321511Y-82163005D01*
X196343576Y-82229299D01*
X196326297Y-82296998D01*
X196275160Y-82344609D01*
X196257974Y-82351656D01*
X196081781Y-82408905D01*
X195892442Y-82505379D01*
X195720540Y-82630272D01*
X195720535Y-82630276D01*
X195570276Y-82780535D01*
X195570272Y-82780540D01*
X195445379Y-82952442D01*
X195348904Y-83141782D01*
X195283242Y-83343870D01*
X195283242Y-83343873D01*
X195272769Y-83410000D01*
X186213764Y-83410000D01*
X186169850Y-83323815D01*
X186113528Y-83246294D01*
X186070351Y-83186865D01*
X186070347Y-83186860D01*
X185950639Y-83067152D01*
X185950634Y-83067148D01*
X185813688Y-82967652D01*
X185813687Y-82967651D01*
X185813685Y-82967650D01*
X185766582Y-82943650D01*
X185662853Y-82890796D01*
X185501847Y-82838481D01*
X185334649Y-82812000D01*
X185334644Y-82812000D01*
X185165356Y-82812000D01*
X185165351Y-82812000D01*
X184998152Y-82838481D01*
X184837146Y-82890796D01*
X184686311Y-82967652D01*
X184549365Y-83067148D01*
X184549360Y-83067152D01*
X184429652Y-83186860D01*
X184429648Y-83186865D01*
X184330152Y-83323811D01*
X184253296Y-83474646D01*
X184200981Y-83635652D01*
X184174500Y-83802850D01*
X165074835Y-83802850D01*
X165043776Y-83646711D01*
X165039195Y-83635652D01*
X164981549Y-83496480D01*
X164981547Y-83496476D01*
X164891211Y-83361279D01*
X164891205Y-83361271D01*
X164776228Y-83246294D01*
X164776220Y-83246288D01*
X164641023Y-83155952D01*
X164641019Y-83155950D01*
X164490793Y-83093725D01*
X164490783Y-83093722D01*
X164331307Y-83062000D01*
X164331305Y-83062000D01*
X164168695Y-83062000D01*
X164168693Y-83062000D01*
X164009216Y-83093722D01*
X164009206Y-83093725D01*
X163858980Y-83155950D01*
X163858976Y-83155952D01*
X163723779Y-83246288D01*
X163723771Y-83246294D01*
X163608794Y-83361271D01*
X163608788Y-83361279D01*
X163518452Y-83496476D01*
X163518450Y-83496480D01*
X163456225Y-83646706D01*
X163456222Y-83646716D01*
X163424500Y-83806192D01*
X163424500Y-83806195D01*
X163424500Y-83968805D01*
X163424500Y-83968807D01*
X163424499Y-83968807D01*
X152500500Y-83968807D01*
X152500500Y-83934108D01*
X152466392Y-83806814D01*
X152400500Y-83692686D01*
X152307314Y-83599500D01*
X152250250Y-83566554D01*
X152193187Y-83533608D01*
X152129539Y-83516554D01*
X152065892Y-83499500D01*
X151934108Y-83499500D01*
X151806812Y-83533608D01*
X151692686Y-83599500D01*
X151692683Y-83599502D01*
X151599502Y-83692683D01*
X151599500Y-83692686D01*
X151533608Y-83806812D01*
X151499500Y-83934108D01*
X110550500Y-83934108D01*
X110550500Y-80434108D01*
X135899500Y-80434108D01*
X135899500Y-80565891D01*
X135933608Y-80693187D01*
X135962476Y-80743186D01*
X135999500Y-80807314D01*
X136092686Y-80900500D01*
X136206814Y-80966392D01*
X136334108Y-81000500D01*
X136334110Y-81000500D01*
X136465890Y-81000500D01*
X136465892Y-81000500D01*
X136593186Y-80966392D01*
X136707314Y-80900500D01*
X136800500Y-80807314D01*
X136866392Y-80693186D01*
X136900500Y-80565892D01*
X136900500Y-80434108D01*
X136866392Y-80306814D01*
X136800500Y-80192686D01*
X136707314Y-80099500D01*
X136593186Y-80033608D01*
X136465892Y-79999500D01*
X136334108Y-79999500D01*
X136206812Y-80033608D01*
X136092686Y-80099500D01*
X136092683Y-80099502D01*
X135999502Y-80192683D01*
X135999500Y-80192686D01*
X135933608Y-80306812D01*
X135899500Y-80434108D01*
X110550500Y-80434108D01*
X110550500Y-79934108D01*
X137449500Y-79934108D01*
X137449500Y-80065891D01*
X137483608Y-80193187D01*
X137512185Y-80242683D01*
X137549500Y-80307314D01*
X137642686Y-80400500D01*
X137756814Y-80466392D01*
X137884108Y-80500500D01*
X137884110Y-80500500D01*
X138015890Y-80500500D01*
X138015892Y-80500500D01*
X138077068Y-80484108D01*
X148899500Y-80484108D01*
X148899500Y-80615892D01*
X148901245Y-80622403D01*
X148933608Y-80743187D01*
X148966554Y-80800250D01*
X148999500Y-80857314D01*
X149092686Y-80950500D01*
X149206814Y-81016392D01*
X149334108Y-81050500D01*
X149334110Y-81050500D01*
X149465890Y-81050500D01*
X149465892Y-81050500D01*
X149593186Y-81016392D01*
X149707314Y-80950500D01*
X149800500Y-80857314D01*
X149866392Y-80743186D01*
X149900500Y-80615892D01*
X149900500Y-80484108D01*
X149866392Y-80356814D01*
X149800500Y-80242686D01*
X149707314Y-80149500D01*
X149638670Y-80109868D01*
X149593187Y-80083608D01*
X149527061Y-80065890D01*
X149465892Y-80049500D01*
X149334108Y-80049500D01*
X149206812Y-80083608D01*
X149092686Y-80149500D01*
X149092683Y-80149502D01*
X148999502Y-80242683D01*
X148999500Y-80242686D01*
X148933608Y-80356812D01*
X148921902Y-80400500D01*
X148899500Y-80484108D01*
X138077068Y-80484108D01*
X138143186Y-80466392D01*
X138257314Y-80400500D01*
X138350500Y-80307314D01*
X138416392Y-80193186D01*
X138450500Y-80065892D01*
X138450500Y-79934108D01*
X138416392Y-79806814D01*
X138350500Y-79692686D01*
X138257314Y-79599500D01*
X138230654Y-79584108D01*
X141349500Y-79584108D01*
X141349500Y-79715891D01*
X141383608Y-79843187D01*
X141416554Y-79900250D01*
X141449500Y-79957314D01*
X141542686Y-80050500D01*
X141656814Y-80116392D01*
X141784108Y-80150500D01*
X141784110Y-80150500D01*
X141915890Y-80150500D01*
X141915892Y-80150500D01*
X142043186Y-80116392D01*
X142157314Y-80050500D01*
X142250500Y-79957314D01*
X142316392Y-79843186D01*
X142350500Y-79715892D01*
X142350500Y-79584108D01*
X142316392Y-79456814D01*
X142250500Y-79342686D01*
X142157314Y-79249500D01*
X142100250Y-79216554D01*
X142043187Y-79183608D01*
X141979539Y-79166554D01*
X141915892Y-79149500D01*
X141784108Y-79149500D01*
X141656812Y-79183608D01*
X141542686Y-79249500D01*
X141542683Y-79249502D01*
X141449502Y-79342683D01*
X141449500Y-79342686D01*
X141383608Y-79456812D01*
X141349500Y-79584108D01*
X138230654Y-79584108D01*
X138200250Y-79566554D01*
X138143187Y-79533608D01*
X138079539Y-79516554D01*
X138015892Y-79499500D01*
X137884108Y-79499500D01*
X137756812Y-79533608D01*
X137642686Y-79599500D01*
X137642683Y-79599502D01*
X137549502Y-79692683D01*
X137549500Y-79692686D01*
X137483608Y-79806812D01*
X137449500Y-79934108D01*
X110550500Y-79934108D01*
X110550500Y-77934108D01*
X137099500Y-77934108D01*
X137099500Y-78065892D01*
X137106199Y-78090892D01*
X137133608Y-78193187D01*
X137148042Y-78218187D01*
X137199500Y-78307314D01*
X137292686Y-78400500D01*
X137406814Y-78466392D01*
X137534108Y-78500500D01*
X137534110Y-78500500D01*
X137665890Y-78500500D01*
X137665892Y-78500500D01*
X137793186Y-78466392D01*
X137907314Y-78400500D01*
X138000500Y-78307314D01*
X138066392Y-78193186D01*
X138100500Y-78065892D01*
X138100500Y-77934108D01*
X138066392Y-77806814D01*
X138000500Y-77692686D01*
X137907314Y-77599500D01*
X137850250Y-77566554D01*
X137793187Y-77533608D01*
X137729539Y-77516554D01*
X137665892Y-77499500D01*
X137534108Y-77499500D01*
X137406812Y-77533608D01*
X137292686Y-77599500D01*
X137292683Y-77599502D01*
X137199502Y-77692683D01*
X137199500Y-77692686D01*
X137133608Y-77806812D01*
X137126909Y-77831814D01*
X137099500Y-77934108D01*
X110550500Y-77934108D01*
X110550500Y-77234108D01*
X150799500Y-77234108D01*
X150799500Y-77365891D01*
X150833609Y-77493188D01*
X150833609Y-77493189D01*
X150895565Y-77600500D01*
X150912038Y-77668400D01*
X150895565Y-77724500D01*
X150833609Y-77831810D01*
X150833609Y-77831811D01*
X150799500Y-77959108D01*
X150799500Y-78090891D01*
X150833608Y-78218187D01*
X150865589Y-78273579D01*
X150899500Y-78332314D01*
X150992686Y-78425500D01*
X151106814Y-78491392D01*
X151234108Y-78525500D01*
X151234110Y-78525500D01*
X151365890Y-78525500D01*
X151365892Y-78525500D01*
X151493186Y-78491392D01*
X151518928Y-78476530D01*
X195549500Y-78476530D01*
X195549500Y-78683469D01*
X195589868Y-78886412D01*
X195589870Y-78886420D01*
X195669058Y-79077596D01*
X195784024Y-79249657D01*
X195930342Y-79395975D01*
X195930345Y-79395977D01*
X196102402Y-79510941D01*
X196293580Y-79590130D01*
X196496530Y-79630499D01*
X196496534Y-79630500D01*
X196496535Y-79630500D01*
X196703466Y-79630500D01*
X196703467Y-79630499D01*
X196906420Y-79590130D01*
X197097598Y-79510941D01*
X197269655Y-79395977D01*
X197415977Y-79249655D01*
X197530941Y-79077598D01*
X197610130Y-78886420D01*
X197650500Y-78683465D01*
X197650500Y-78476535D01*
X197610130Y-78273580D01*
X197530941Y-78082402D01*
X197415977Y-77910345D01*
X197415975Y-77910342D01*
X197269657Y-77764024D01*
X197108885Y-77656601D01*
X197097598Y-77649059D01*
X196980364Y-77600499D01*
X196906420Y-77569870D01*
X196906412Y-77569868D01*
X196703469Y-77529500D01*
X196703465Y-77529500D01*
X196496535Y-77529500D01*
X196496530Y-77529500D01*
X196293587Y-77569868D01*
X196293579Y-77569870D01*
X196102403Y-77649058D01*
X195930342Y-77764024D01*
X195784024Y-77910342D01*
X195669058Y-78082403D01*
X195589870Y-78273579D01*
X195589868Y-78273587D01*
X195549500Y-78476530D01*
X151518928Y-78476530D01*
X151607314Y-78425500D01*
X151700500Y-78332314D01*
X151766392Y-78218186D01*
X151800500Y-78090892D01*
X151800500Y-77959108D01*
X151766392Y-77831814D01*
X151704433Y-77724499D01*
X151687961Y-77656601D01*
X151704434Y-77600500D01*
X151766392Y-77493186D01*
X151800500Y-77365892D01*
X151800500Y-77234108D01*
X151787103Y-77184108D01*
X191749500Y-77184108D01*
X191749500Y-77315891D01*
X191783608Y-77443187D01*
X191812476Y-77493186D01*
X191849500Y-77557314D01*
X191942686Y-77650500D01*
X192056814Y-77716392D01*
X192184108Y-77750500D01*
X192184110Y-77750500D01*
X192315890Y-77750500D01*
X192315892Y-77750500D01*
X192443186Y-77716392D01*
X192557314Y-77650500D01*
X192650500Y-77557314D01*
X192716392Y-77443186D01*
X192750500Y-77315892D01*
X192750500Y-77184108D01*
X192716392Y-77056814D01*
X192650500Y-76942686D01*
X192557314Y-76849500D01*
X192470712Y-76799500D01*
X192443187Y-76783608D01*
X192379539Y-76766554D01*
X192315892Y-76749500D01*
X192184108Y-76749500D01*
X192056812Y-76783608D01*
X191942686Y-76849500D01*
X191942683Y-76849502D01*
X191849502Y-76942683D01*
X191849500Y-76942686D01*
X191783608Y-77056812D01*
X191749500Y-77184108D01*
X151787103Y-77184108D01*
X151766392Y-77106814D01*
X151700500Y-76992686D01*
X151607314Y-76899500D01*
X151531927Y-76855975D01*
X151493187Y-76833608D01*
X151429539Y-76816554D01*
X151365892Y-76799500D01*
X151234108Y-76799500D01*
X151106812Y-76833608D01*
X150992686Y-76899500D01*
X150992683Y-76899502D01*
X150899502Y-76992683D01*
X150899500Y-76992686D01*
X150833608Y-77106812D01*
X150799500Y-77234108D01*
X110550500Y-77234108D01*
X110550500Y-76584108D01*
X155449500Y-76584108D01*
X155449500Y-76715891D01*
X155483608Y-76843187D01*
X155516121Y-76899500D01*
X155549500Y-76957314D01*
X155642686Y-77050500D01*
X155711968Y-77090500D01*
X155756810Y-77116390D01*
X155756814Y-77116392D01*
X155884108Y-77150500D01*
X155884110Y-77150500D01*
X156015890Y-77150500D01*
X156015892Y-77150500D01*
X156143186Y-77116392D01*
X156257314Y-77050500D01*
X156350500Y-76957314D01*
X156416392Y-76843186D01*
X156450500Y-76715892D01*
X156450500Y-76584108D01*
X156416392Y-76456814D01*
X156350500Y-76342686D01*
X156257314Y-76249500D01*
X156172439Y-76200497D01*
X156143187Y-76183608D01*
X156079539Y-76166554D01*
X156015892Y-76149500D01*
X155884108Y-76149500D01*
X155756812Y-76183608D01*
X155642686Y-76249500D01*
X155642683Y-76249502D01*
X155549502Y-76342683D01*
X155549500Y-76342686D01*
X155483608Y-76456812D01*
X155449500Y-76584108D01*
X110550500Y-76584108D01*
X110550500Y-75734108D01*
X183599500Y-75734108D01*
X183599500Y-75865892D01*
X183608196Y-75898347D01*
X183633608Y-75993187D01*
X183666554Y-76050250D01*
X183699500Y-76107314D01*
X183792686Y-76200500D01*
X183906814Y-76266392D01*
X184034108Y-76300500D01*
X184034110Y-76300500D01*
X184165890Y-76300500D01*
X184165892Y-76300500D01*
X184293186Y-76266392D01*
X184407314Y-76200500D01*
X184500500Y-76107314D01*
X184566392Y-75993186D01*
X184581573Y-75936530D01*
X195549500Y-75936530D01*
X195549500Y-76143469D01*
X195589868Y-76346412D01*
X195589870Y-76346420D01*
X195669058Y-76537596D01*
X195784024Y-76709657D01*
X195930342Y-76855975D01*
X195930345Y-76855977D01*
X196102402Y-76970941D01*
X196293580Y-77050130D01*
X196496530Y-77090499D01*
X196496534Y-77090500D01*
X196496535Y-77090500D01*
X196703466Y-77090500D01*
X196703467Y-77090499D01*
X196906420Y-77050130D01*
X197097598Y-76970941D01*
X197269655Y-76855977D01*
X197415977Y-76709655D01*
X197530941Y-76537598D01*
X197610130Y-76346420D01*
X197650500Y-76143465D01*
X197650500Y-75936535D01*
X197610130Y-75733580D01*
X197530941Y-75542402D01*
X197415977Y-75370345D01*
X197415975Y-75370342D01*
X197269657Y-75224024D01*
X197183626Y-75166541D01*
X197097598Y-75109059D01*
X197093385Y-75107314D01*
X196906420Y-75029870D01*
X196906412Y-75029868D01*
X196703469Y-74989500D01*
X196703465Y-74989500D01*
X196496535Y-74989500D01*
X196496530Y-74989500D01*
X196293587Y-75029868D01*
X196293579Y-75029870D01*
X196102403Y-75109058D01*
X195930342Y-75224024D01*
X195784024Y-75370342D01*
X195669058Y-75542403D01*
X195589870Y-75733579D01*
X195589868Y-75733587D01*
X195549500Y-75936530D01*
X184581573Y-75936530D01*
X184600500Y-75865892D01*
X184600500Y-75734108D01*
X184566392Y-75606814D01*
X184500500Y-75492686D01*
X184407314Y-75399500D01*
X184350250Y-75366554D01*
X184293187Y-75333608D01*
X184229539Y-75316554D01*
X184165892Y-75299500D01*
X184034108Y-75299500D01*
X183906812Y-75333608D01*
X183792686Y-75399500D01*
X183792683Y-75399502D01*
X183699502Y-75492683D01*
X183699500Y-75492686D01*
X183633608Y-75606812D01*
X183617644Y-75666392D01*
X183599500Y-75734108D01*
X110550500Y-75734108D01*
X110550500Y-74734108D01*
X137149500Y-74734108D01*
X137149500Y-74865892D01*
X137166554Y-74929539D01*
X137183608Y-74993187D01*
X137216554Y-75050250D01*
X137249500Y-75107314D01*
X137342686Y-75200500D01*
X137441521Y-75257563D01*
X137455944Y-75265890D01*
X137456814Y-75266392D01*
X137584108Y-75300500D01*
X137584110Y-75300500D01*
X137715890Y-75300500D01*
X137715892Y-75300500D01*
X137843186Y-75266392D01*
X137957314Y-75200500D01*
X138023706Y-75134108D01*
X173799500Y-75134108D01*
X173799500Y-75265891D01*
X173833608Y-75393187D01*
X173866554Y-75450250D01*
X173899500Y-75507314D01*
X173992686Y-75600500D01*
X174091521Y-75657563D01*
X174106810Y-75666390D01*
X174106814Y-75666392D01*
X174234108Y-75700500D01*
X174234110Y-75700500D01*
X174365890Y-75700500D01*
X174365892Y-75700500D01*
X174493186Y-75666392D01*
X174607314Y-75600500D01*
X174700500Y-75507314D01*
X174766392Y-75393186D01*
X174800500Y-75265892D01*
X174800500Y-75134108D01*
X174766392Y-75006814D01*
X174700500Y-74892686D01*
X174607314Y-74799500D01*
X174550250Y-74766554D01*
X174493187Y-74733608D01*
X174429539Y-74716554D01*
X174365892Y-74699500D01*
X174234108Y-74699500D01*
X174106812Y-74733608D01*
X173992686Y-74799500D01*
X173992683Y-74799502D01*
X173899502Y-74892683D01*
X173899500Y-74892686D01*
X173833608Y-75006812D01*
X173799500Y-75134108D01*
X138023706Y-75134108D01*
X138050500Y-75107314D01*
X138063023Y-75085622D01*
X138075520Y-75063980D01*
X138116390Y-74993189D01*
X138116392Y-74993186D01*
X138150500Y-74865892D01*
X138150500Y-74734108D01*
X138116392Y-74606814D01*
X138050500Y-74492686D01*
X137957314Y-74399500D01*
X137900250Y-74366554D01*
X137843187Y-74333608D01*
X137779539Y-74316554D01*
X137715892Y-74299500D01*
X137584108Y-74299500D01*
X137456812Y-74333608D01*
X137342686Y-74399500D01*
X137342683Y-74399502D01*
X137249502Y-74492683D01*
X137249500Y-74492686D01*
X137183608Y-74606812D01*
X137167644Y-74666392D01*
X137149500Y-74734108D01*
X110550500Y-74734108D01*
X110550500Y-73734108D01*
X155799500Y-73734108D01*
X155799500Y-73865892D01*
X155816554Y-73929539D01*
X155833608Y-73993187D01*
X155841475Y-74006812D01*
X155899500Y-74107314D01*
X155992686Y-74200500D01*
X156091521Y-74257563D01*
X156105944Y-74265890D01*
X156106814Y-74266392D01*
X156234108Y-74300500D01*
X156234110Y-74300500D01*
X156365890Y-74300500D01*
X156365892Y-74300500D01*
X156493186Y-74266392D01*
X156607314Y-74200500D01*
X156673706Y-74134108D01*
X159499500Y-74134108D01*
X159499500Y-74265891D01*
X159533608Y-74393187D01*
X159553841Y-74428231D01*
X159599500Y-74507314D01*
X159692686Y-74600500D01*
X159806814Y-74666392D01*
X159934108Y-74700500D01*
X159934110Y-74700500D01*
X160065890Y-74700500D01*
X160065892Y-74700500D01*
X160193186Y-74666392D01*
X160307314Y-74600500D01*
X160400500Y-74507314D01*
X160466392Y-74393186D01*
X160500500Y-74265892D01*
X160500500Y-74134108D01*
X160466392Y-74006814D01*
X160400500Y-73892686D01*
X160307314Y-73799500D01*
X160250250Y-73766554D01*
X160193187Y-73733608D01*
X160129539Y-73716554D01*
X160065892Y-73699500D01*
X159934108Y-73699500D01*
X159806812Y-73733608D01*
X159692686Y-73799500D01*
X159692683Y-73799502D01*
X159599502Y-73892683D01*
X159599500Y-73892686D01*
X159533608Y-74006812D01*
X159499500Y-74134108D01*
X156673706Y-74134108D01*
X156700500Y-74107314D01*
X156713023Y-74085622D01*
X156725520Y-74063980D01*
X156766390Y-73993189D01*
X156766392Y-73993186D01*
X156800500Y-73865892D01*
X156800500Y-73734108D01*
X156766392Y-73606814D01*
X156700500Y-73492686D01*
X156607314Y-73399500D01*
X156550250Y-73366554D01*
X156493187Y-73333608D01*
X156429539Y-73316554D01*
X156365892Y-73299500D01*
X156234108Y-73299500D01*
X156106812Y-73333608D01*
X155992686Y-73399500D01*
X155992683Y-73399502D01*
X155899502Y-73492683D01*
X155899500Y-73492686D01*
X155833608Y-73606812D01*
X155808773Y-73699500D01*
X155799500Y-73734108D01*
X110550500Y-73734108D01*
X110550500Y-71134108D01*
X144699500Y-71134108D01*
X144699500Y-71265892D01*
X144715472Y-71325500D01*
X144733608Y-71393187D01*
X144766554Y-71450250D01*
X144799500Y-71507314D01*
X144892686Y-71600500D01*
X144991521Y-71657563D01*
X145003403Y-71664423D01*
X145006814Y-71666392D01*
X145134108Y-71700500D01*
X145134110Y-71700500D01*
X145265890Y-71700500D01*
X145265892Y-71700500D01*
X145393186Y-71666392D01*
X145393188Y-71666390D01*
X145400532Y-71664423D01*
X145470381Y-71666086D01*
X145528244Y-71705248D01*
X145555748Y-71769477D01*
X145544162Y-71838379D01*
X145520308Y-71871878D01*
X145499500Y-71892686D01*
X145433608Y-72006812D01*
X145399500Y-72134108D01*
X145399500Y-72265891D01*
X145433608Y-72393187D01*
X145466121Y-72449500D01*
X145499500Y-72507314D01*
X145592686Y-72600500D01*
X145706814Y-72666392D01*
X145834108Y-72700500D01*
X145834110Y-72700500D01*
X145965890Y-72700500D01*
X145965892Y-72700500D01*
X146093186Y-72666392D01*
X146149103Y-72634108D01*
X193899500Y-72634108D01*
X193899500Y-72765891D01*
X193933608Y-72893187D01*
X193966554Y-72950250D01*
X193999500Y-73007314D01*
X194092686Y-73100500D01*
X194206814Y-73166392D01*
X194334108Y-73200500D01*
X194334110Y-73200500D01*
X194465890Y-73200500D01*
X194465892Y-73200500D01*
X194593186Y-73166392D01*
X194707314Y-73100500D01*
X194800500Y-73007314D01*
X194866392Y-72893186D01*
X194900500Y-72765892D01*
X194900500Y-72634108D01*
X194899465Y-72630247D01*
X195549500Y-72630247D01*
X195549500Y-74369752D01*
X195561131Y-74428229D01*
X195561132Y-74428230D01*
X195605447Y-74494552D01*
X195671769Y-74538867D01*
X195671770Y-74538868D01*
X195730247Y-74550499D01*
X195730250Y-74550500D01*
X195730252Y-74550500D01*
X197469750Y-74550500D01*
X197469751Y-74550499D01*
X197484568Y-74547552D01*
X197528229Y-74538868D01*
X197528229Y-74538867D01*
X197528231Y-74538867D01*
X197594552Y-74494552D01*
X197638867Y-74428231D01*
X197638867Y-74428229D01*
X197638868Y-74428229D01*
X197650499Y-74369752D01*
X197650500Y-74369750D01*
X197650500Y-72630249D01*
X197650499Y-72630247D01*
X197638868Y-72571770D01*
X197638867Y-72571769D01*
X197594552Y-72505447D01*
X197528230Y-72461132D01*
X197528229Y-72461131D01*
X197469752Y-72449500D01*
X197469748Y-72449500D01*
X195730252Y-72449500D01*
X195730247Y-72449500D01*
X195671770Y-72461131D01*
X195671769Y-72461132D01*
X195605447Y-72505447D01*
X195561132Y-72571769D01*
X195561131Y-72571770D01*
X195549500Y-72630247D01*
X194899465Y-72630247D01*
X194866392Y-72506814D01*
X194800500Y-72392686D01*
X194707314Y-72299500D01*
X194649100Y-72265890D01*
X194593187Y-72233608D01*
X194529539Y-72216554D01*
X194465892Y-72199500D01*
X194334108Y-72199500D01*
X194206812Y-72233608D01*
X194092686Y-72299500D01*
X194092683Y-72299502D01*
X193999502Y-72392683D01*
X193999500Y-72392686D01*
X193933608Y-72506812D01*
X193899500Y-72634108D01*
X146149103Y-72634108D01*
X146207314Y-72600500D01*
X146300500Y-72507314D01*
X146366392Y-72393186D01*
X146400500Y-72265892D01*
X146400500Y-72134108D01*
X146366392Y-72006814D01*
X146366390Y-72006811D01*
X146366391Y-72006811D01*
X146338849Y-71959108D01*
X190124500Y-71959108D01*
X190124500Y-72090891D01*
X190158608Y-72218187D01*
X190186151Y-72265892D01*
X190224500Y-72332314D01*
X190317686Y-72425500D01*
X190431814Y-72491392D01*
X190559108Y-72525500D01*
X190559110Y-72525500D01*
X190690890Y-72525500D01*
X190690892Y-72525500D01*
X190818186Y-72491392D01*
X190932314Y-72425500D01*
X191025500Y-72332314D01*
X191091392Y-72218186D01*
X191125500Y-72090892D01*
X191125500Y-71959108D01*
X191091392Y-71831814D01*
X191025500Y-71717686D01*
X190932314Y-71624500D01*
X190875250Y-71591554D01*
X190818187Y-71558608D01*
X190754539Y-71541554D01*
X190690892Y-71524500D01*
X190559108Y-71524500D01*
X190431812Y-71558608D01*
X190317686Y-71624500D01*
X190317683Y-71624502D01*
X190224502Y-71717683D01*
X190224500Y-71717686D01*
X190158608Y-71831812D01*
X190124500Y-71959108D01*
X146338849Y-71959108D01*
X146300502Y-71892689D01*
X146300497Y-71892683D01*
X146207316Y-71799502D01*
X146207314Y-71799500D01*
X146150250Y-71766554D01*
X146093187Y-71733608D01*
X146029539Y-71716554D01*
X145965892Y-71699500D01*
X145834108Y-71699500D01*
X145699467Y-71735576D01*
X145629617Y-71733913D01*
X145571754Y-71694750D01*
X145544251Y-71630521D01*
X145555838Y-71561619D01*
X145579689Y-71528124D01*
X145600500Y-71507314D01*
X145666392Y-71393186D01*
X145700500Y-71265892D01*
X145700500Y-71134108D01*
X145666392Y-71006814D01*
X145600500Y-70892686D01*
X145566922Y-70859108D01*
X168774500Y-70859108D01*
X168774500Y-70990891D01*
X168808608Y-71118187D01*
X168841554Y-71175250D01*
X168874500Y-71232314D01*
X168967686Y-71325500D01*
X169081814Y-71391392D01*
X169209108Y-71425500D01*
X169209110Y-71425500D01*
X169340890Y-71425500D01*
X169340892Y-71425500D01*
X169468186Y-71391392D01*
X169582314Y-71325500D01*
X169675500Y-71232314D01*
X169741392Y-71118186D01*
X169775500Y-70990892D01*
X169775500Y-70859108D01*
X169741392Y-70731814D01*
X169675500Y-70617686D01*
X169582314Y-70524500D01*
X169582312Y-70524499D01*
X169582310Y-70524497D01*
X169511072Y-70483368D01*
X169511071Y-70483368D01*
X169468187Y-70458608D01*
X169404539Y-70441554D01*
X169340892Y-70424500D01*
X169209108Y-70424500D01*
X169081812Y-70458608D01*
X168967686Y-70524500D01*
X168967683Y-70524502D01*
X168874502Y-70617683D01*
X168874500Y-70617686D01*
X168808608Y-70731812D01*
X168774500Y-70859108D01*
X145566922Y-70859108D01*
X145507314Y-70799500D01*
X145450250Y-70766554D01*
X145393187Y-70733608D01*
X145329539Y-70716554D01*
X145265892Y-70699500D01*
X145134108Y-70699500D01*
X145006812Y-70733608D01*
X144892686Y-70799500D01*
X144892683Y-70799502D01*
X144799502Y-70892683D01*
X144799500Y-70892686D01*
X144733608Y-71006812D01*
X144703766Y-71118186D01*
X144699500Y-71134108D01*
X110550500Y-71134108D01*
X110550500Y-70384108D01*
X188549500Y-70384108D01*
X188549500Y-70515892D01*
X188551807Y-70524502D01*
X188583608Y-70643187D01*
X188616121Y-70699500D01*
X188649500Y-70757314D01*
X188742686Y-70850500D01*
X188856814Y-70916392D01*
X188984108Y-70950500D01*
X188984110Y-70950500D01*
X189115890Y-70950500D01*
X189115892Y-70950500D01*
X189243186Y-70916392D01*
X189357314Y-70850500D01*
X189450500Y-70757314D01*
X189516392Y-70643186D01*
X189550500Y-70515892D01*
X189550500Y-70384108D01*
X189516392Y-70256814D01*
X189450500Y-70142686D01*
X189357314Y-70049500D01*
X189272889Y-70000757D01*
X189243187Y-69983608D01*
X189179539Y-69966554D01*
X189115892Y-69949500D01*
X188984108Y-69949500D01*
X188856812Y-69983608D01*
X188742686Y-70049500D01*
X188742683Y-70049502D01*
X188649502Y-70142683D01*
X188649500Y-70142686D01*
X188583608Y-70256812D01*
X188549500Y-70384108D01*
X110550500Y-70384108D01*
X110550500Y-69134108D01*
X143499500Y-69134108D01*
X143499500Y-69265891D01*
X143533608Y-69393187D01*
X143566554Y-69450250D01*
X143599500Y-69507314D01*
X143692686Y-69600500D01*
X143806814Y-69666392D01*
X143934108Y-69700500D01*
X143934110Y-69700500D01*
X144065890Y-69700500D01*
X144065892Y-69700500D01*
X144193186Y-69666392D01*
X144307314Y-69600500D01*
X144400500Y-69507314D01*
X144466392Y-69393186D01*
X144500500Y-69265892D01*
X144500500Y-69134108D01*
X144466392Y-69006814D01*
X144400500Y-68892686D01*
X144307314Y-68799500D01*
X144279371Y-68783367D01*
X144279370Y-68783366D01*
X144193188Y-68733609D01*
X144193187Y-68733608D01*
X144193186Y-68733608D01*
X144065892Y-68699500D01*
X143934108Y-68699500D01*
X143806812Y-68733608D01*
X143692686Y-68799500D01*
X143692683Y-68799502D01*
X143599502Y-68892683D01*
X143599500Y-68892686D01*
X143533608Y-69006812D01*
X143499500Y-69134108D01*
X110550500Y-69134108D01*
X110550500Y-68684108D01*
X152399500Y-68684108D01*
X152399500Y-68815891D01*
X152433608Y-68943187D01*
X152466482Y-69000126D01*
X152499500Y-69057314D01*
X152592686Y-69150500D01*
X152706814Y-69216392D01*
X152834108Y-69250500D01*
X152834110Y-69250500D01*
X152965890Y-69250500D01*
X152965892Y-69250500D01*
X153093186Y-69216392D01*
X153207314Y-69150500D01*
X153300500Y-69057314D01*
X153366392Y-68943186D01*
X153400500Y-68815892D01*
X153400500Y-68684108D01*
X153366392Y-68556814D01*
X153366389Y-68556808D01*
X153352681Y-68533065D01*
X153352680Y-68533064D01*
X153328398Y-68491007D01*
X153300500Y-68442686D01*
X153291814Y-68434000D01*
X195272769Y-68434000D01*
X196166988Y-68434000D01*
X196134075Y-68491007D01*
X196100000Y-68618174D01*
X196100000Y-68749826D01*
X196134075Y-68876993D01*
X196166988Y-68934000D01*
X195272769Y-68934000D01*
X195283242Y-69000126D01*
X195283242Y-69000129D01*
X195348904Y-69202217D01*
X195445379Y-69391557D01*
X195570272Y-69563459D01*
X195570276Y-69563464D01*
X195720535Y-69713723D01*
X195720540Y-69713727D01*
X195892442Y-69838620D01*
X196081782Y-69935095D01*
X196283871Y-70000757D01*
X196350000Y-70011231D01*
X196350000Y-69117012D01*
X196407007Y-69149925D01*
X196534174Y-69184000D01*
X196665826Y-69184000D01*
X196792993Y-69149925D01*
X196850000Y-69117012D01*
X196850000Y-70011230D01*
X196916126Y-70000757D01*
X196916129Y-70000757D01*
X197118217Y-69935095D01*
X197307557Y-69838620D01*
X197479459Y-69713727D01*
X197479464Y-69713723D01*
X197629723Y-69563464D01*
X197629727Y-69563459D01*
X197754620Y-69391557D01*
X197851095Y-69202217D01*
X197916757Y-69000129D01*
X197916757Y-69000126D01*
X197927231Y-68934000D01*
X197033012Y-68934000D01*
X197065925Y-68876993D01*
X197100000Y-68749826D01*
X197100000Y-68618174D01*
X197065925Y-68491007D01*
X197033012Y-68434000D01*
X197927231Y-68434000D01*
X197916757Y-68367873D01*
X197916757Y-68367870D01*
X197851095Y-68165782D01*
X197754620Y-67976442D01*
X197629727Y-67804540D01*
X197629723Y-67804535D01*
X197479464Y-67654276D01*
X197479459Y-67654272D01*
X197307557Y-67529379D01*
X197118216Y-67432904D01*
X196942026Y-67375656D01*
X196884350Y-67336218D01*
X196857152Y-67271860D01*
X196869067Y-67203013D01*
X196916311Y-67151538D01*
X196932882Y-67143168D01*
X197097598Y-67074941D01*
X197269655Y-66959977D01*
X197415977Y-66813655D01*
X197530941Y-66641598D01*
X197610130Y-66450420D01*
X197650500Y-66247465D01*
X197650500Y-66040535D01*
X197610130Y-65837580D01*
X197530941Y-65646402D01*
X197415977Y-65474345D01*
X197415975Y-65474342D01*
X197269657Y-65328024D01*
X197102586Y-65216392D01*
X197097598Y-65213059D01*
X196983727Y-65165892D01*
X196906420Y-65133870D01*
X196906412Y-65133868D01*
X196703469Y-65093500D01*
X196703465Y-65093500D01*
X196496535Y-65093500D01*
X196496530Y-65093500D01*
X196293587Y-65133868D01*
X196293579Y-65133870D01*
X196102403Y-65213058D01*
X195930342Y-65328024D01*
X195784024Y-65474342D01*
X195669058Y-65646403D01*
X195589870Y-65837579D01*
X195589868Y-65837587D01*
X195549500Y-66040530D01*
X195549500Y-66247469D01*
X195589868Y-66450412D01*
X195589870Y-66450420D01*
X195645038Y-66583608D01*
X195669059Y-66641598D01*
X195674673Y-66650000D01*
X195784024Y-66813657D01*
X195930342Y-66959975D01*
X196102405Y-67074943D01*
X196201261Y-67115890D01*
X196267108Y-67143164D01*
X196321511Y-67187005D01*
X196343576Y-67253299D01*
X196326297Y-67320998D01*
X196275160Y-67368609D01*
X196257974Y-67375656D01*
X196081781Y-67432905D01*
X195892442Y-67529379D01*
X195720540Y-67654272D01*
X195720535Y-67654276D01*
X195570276Y-67804535D01*
X195570272Y-67804540D01*
X195445379Y-67976442D01*
X195348904Y-68165782D01*
X195283242Y-68367870D01*
X195283242Y-68367873D01*
X195272769Y-68434000D01*
X153291814Y-68434000D01*
X153207314Y-68349500D01*
X153150250Y-68316554D01*
X153093187Y-68283608D01*
X153029539Y-68266554D01*
X152965892Y-68249500D01*
X152834108Y-68249500D01*
X152706812Y-68283608D01*
X152592686Y-68349500D01*
X152592683Y-68349502D01*
X152499502Y-68442683D01*
X152499500Y-68442686D01*
X152433608Y-68556812D01*
X152399500Y-68684108D01*
X110550500Y-68684108D01*
X110550500Y-67939153D01*
X121214398Y-67939153D01*
X121221382Y-67944228D01*
X121376206Y-68023115D01*
X121541478Y-68076816D01*
X121713108Y-68104000D01*
X121886892Y-68104000D01*
X122058521Y-68076816D01*
X122223793Y-68023115D01*
X122378624Y-67944224D01*
X122385600Y-67939153D01*
X121800001Y-67353553D01*
X121800000Y-67353553D01*
X121214398Y-67939153D01*
X110550500Y-67939153D01*
X110550500Y-66913107D01*
X120696000Y-66913107D01*
X120696000Y-67086892D01*
X120723183Y-67258521D01*
X120776884Y-67423793D01*
X120855776Y-67578624D01*
X120855777Y-67578626D01*
X120860844Y-67585600D01*
X120860846Y-67585601D01*
X121446446Y-67000001D01*
X121446446Y-66999999D01*
X121400369Y-66953922D01*
X121450000Y-66953922D01*
X121450000Y-67046078D01*
X121473852Y-67135095D01*
X121519930Y-67214905D01*
X121585095Y-67280070D01*
X121664905Y-67326148D01*
X121753922Y-67350000D01*
X121846078Y-67350000D01*
X121935095Y-67326148D01*
X122014905Y-67280070D01*
X122080070Y-67214905D01*
X122126148Y-67135095D01*
X122150000Y-67046078D01*
X122150000Y-66999999D01*
X122153553Y-66999999D01*
X122153553Y-67000000D01*
X122739153Y-67585600D01*
X122744224Y-67578624D01*
X122810346Y-67448853D01*
X122858321Y-67398057D01*
X122926142Y-67381262D01*
X122992276Y-67403799D01*
X123023933Y-67436257D01*
X123075103Y-67512838D01*
X123075106Y-67512842D01*
X123187157Y-67624893D01*
X123187161Y-67624896D01*
X123318919Y-67712935D01*
X123318925Y-67712938D01*
X123318926Y-67712939D01*
X123465336Y-67773584D01*
X123620759Y-67804499D01*
X123620763Y-67804500D01*
X123620764Y-67804500D01*
X123779237Y-67804500D01*
X123779238Y-67804499D01*
X123934664Y-67773584D01*
X124081074Y-67712939D01*
X124199052Y-67634108D01*
X128349500Y-67634108D01*
X128349500Y-67765892D01*
X128359845Y-67804499D01*
X128383608Y-67893187D01*
X128410147Y-67939153D01*
X128449500Y-68007314D01*
X128542686Y-68100500D01*
X128656814Y-68166392D01*
X128784108Y-68200500D01*
X128784110Y-68200500D01*
X128915890Y-68200500D01*
X128915892Y-68200500D01*
X129043186Y-68166392D01*
X129157314Y-68100500D01*
X129250500Y-68007314D01*
X129316392Y-67893186D01*
X129350500Y-67765892D01*
X129350500Y-67634108D01*
X163799500Y-67634108D01*
X163799500Y-67765892D01*
X163809845Y-67804499D01*
X163833608Y-67893187D01*
X163860147Y-67939153D01*
X163899500Y-68007314D01*
X163992686Y-68100500D01*
X164106814Y-68166392D01*
X164234108Y-68200500D01*
X164234110Y-68200500D01*
X164365890Y-68200500D01*
X164365892Y-68200500D01*
X164493186Y-68166392D01*
X164607314Y-68100500D01*
X164700500Y-68007314D01*
X164766392Y-67893186D01*
X164800500Y-67765892D01*
X164800500Y-67634108D01*
X164766392Y-67506814D01*
X164700500Y-67392686D01*
X164607314Y-67299500D01*
X164550250Y-67266554D01*
X164493187Y-67233608D01*
X164423385Y-67214905D01*
X164365892Y-67199500D01*
X164234108Y-67199500D01*
X164106812Y-67233608D01*
X163992686Y-67299500D01*
X163992683Y-67299502D01*
X163899502Y-67392683D01*
X163899500Y-67392686D01*
X163833608Y-67506812D01*
X163812497Y-67585601D01*
X163799500Y-67634108D01*
X129350500Y-67634108D01*
X129316392Y-67506814D01*
X129250500Y-67392686D01*
X129157314Y-67299500D01*
X129100250Y-67266554D01*
X129043187Y-67233608D01*
X128973385Y-67214905D01*
X128915892Y-67199500D01*
X128784108Y-67199500D01*
X128656812Y-67233608D01*
X128542686Y-67299500D01*
X128542683Y-67299502D01*
X128449502Y-67392683D01*
X128449500Y-67392686D01*
X128383608Y-67506812D01*
X128362497Y-67585601D01*
X128349500Y-67634108D01*
X124199052Y-67634108D01*
X124212839Y-67624896D01*
X124252135Y-67585600D01*
X124299436Y-67538300D01*
X124324893Y-67512842D01*
X124324896Y-67512839D01*
X124412939Y-67381074D01*
X124473584Y-67234664D01*
X124504500Y-67079236D01*
X124504500Y-66984108D01*
X136349500Y-66984108D01*
X136349500Y-67115892D01*
X136359051Y-67151538D01*
X136383608Y-67243187D01*
X136400163Y-67271860D01*
X136449500Y-67357314D01*
X136542686Y-67450500D01*
X136640221Y-67506812D01*
X136656810Y-67516390D01*
X136656814Y-67516392D01*
X136784108Y-67550500D01*
X136784110Y-67550500D01*
X136915890Y-67550500D01*
X136915892Y-67550500D01*
X137043186Y-67516392D01*
X137157314Y-67450500D01*
X137250500Y-67357314D01*
X137316392Y-67243186D01*
X137350500Y-67115892D01*
X137350500Y-66984108D01*
X137316392Y-66856814D01*
X137250500Y-66742686D01*
X137157314Y-66649500D01*
X137049233Y-66587099D01*
X137043187Y-66583608D01*
X136969044Y-66563742D01*
X136915892Y-66549500D01*
X136784108Y-66549500D01*
X136656812Y-66583608D01*
X136542686Y-66649500D01*
X136542683Y-66649502D01*
X136449502Y-66742683D01*
X136449500Y-66742686D01*
X136383608Y-66856812D01*
X136381440Y-66864905D01*
X136349500Y-66984108D01*
X124504500Y-66984108D01*
X124504500Y-66920764D01*
X124473584Y-66765336D01*
X124412939Y-66618926D01*
X124412938Y-66618925D01*
X124412935Y-66618919D01*
X124324896Y-66487161D01*
X124324893Y-66487157D01*
X124212842Y-66375106D01*
X124212838Y-66375103D01*
X124081080Y-66287064D01*
X124081071Y-66287059D01*
X123934664Y-66226416D01*
X123934656Y-66226414D01*
X123779240Y-66195500D01*
X123779236Y-66195500D01*
X123620764Y-66195500D01*
X123620759Y-66195500D01*
X123465343Y-66226414D01*
X123465335Y-66226416D01*
X123318928Y-66287059D01*
X123318919Y-66287064D01*
X123187161Y-66375103D01*
X123187157Y-66375106D01*
X123075106Y-66487157D01*
X123075103Y-66487161D01*
X123023933Y-66563742D01*
X122970320Y-66608547D01*
X122900995Y-66617254D01*
X122837968Y-66587099D01*
X122810346Y-66551146D01*
X122744228Y-66421382D01*
X122739153Y-66414398D01*
X122153553Y-66999999D01*
X122150000Y-66999999D01*
X122150000Y-66953922D01*
X122126148Y-66864905D01*
X122080070Y-66785095D01*
X122014905Y-66719930D01*
X121935095Y-66673852D01*
X121846078Y-66650000D01*
X121753922Y-66650000D01*
X121664905Y-66673852D01*
X121585095Y-66719930D01*
X121519930Y-66785095D01*
X121473852Y-66864905D01*
X121450000Y-66953922D01*
X121400369Y-66953922D01*
X120860845Y-66414398D01*
X120860844Y-66414398D01*
X120855775Y-66421375D01*
X120776884Y-66576206D01*
X120723183Y-66741478D01*
X120696000Y-66913107D01*
X110550500Y-66913107D01*
X110550500Y-66060844D01*
X121214398Y-66060844D01*
X121214398Y-66060845D01*
X121800000Y-66646446D01*
X121800001Y-66646446D01*
X122385601Y-66060846D01*
X122385600Y-66060844D01*
X122378626Y-66055777D01*
X122378624Y-66055776D01*
X122223793Y-65976884D01*
X122058521Y-65923183D01*
X121886892Y-65896000D01*
X121713108Y-65896000D01*
X121541478Y-65923183D01*
X121376206Y-65976884D01*
X121221375Y-66055775D01*
X121214398Y-66060844D01*
X110550500Y-66060844D01*
X110550500Y-65534108D01*
X136499500Y-65534108D01*
X136499500Y-65665891D01*
X136533608Y-65793187D01*
X136559238Y-65837579D01*
X136599500Y-65907314D01*
X136692686Y-66000500D01*
X136806814Y-66066392D01*
X136934108Y-66100500D01*
X136934110Y-66100500D01*
X137065890Y-66100500D01*
X137065892Y-66100500D01*
X137193186Y-66066392D01*
X137217013Y-66052635D01*
X137284910Y-66036162D01*
X137350937Y-66059013D01*
X137386400Y-66098022D01*
X137449500Y-66207314D01*
X137542686Y-66300500D01*
X137656814Y-66366392D01*
X137784108Y-66400500D01*
X137784110Y-66400500D01*
X137915890Y-66400500D01*
X137915892Y-66400500D01*
X138043186Y-66366392D01*
X138157314Y-66300500D01*
X138250500Y-66207314D01*
X138316392Y-66093186D01*
X138350500Y-65965892D01*
X138350500Y-65834108D01*
X138316392Y-65706814D01*
X138250500Y-65592686D01*
X138157314Y-65499500D01*
X138055962Y-65440984D01*
X138043187Y-65433608D01*
X137979539Y-65416554D01*
X137915892Y-65399500D01*
X137784108Y-65399500D01*
X137656811Y-65433608D01*
X137632985Y-65447365D01*
X137565084Y-65463836D01*
X137499058Y-65440984D01*
X137463599Y-65401977D01*
X137420902Y-65328024D01*
X137400500Y-65292686D01*
X137307314Y-65199500D01*
X137222439Y-65150497D01*
X137193187Y-65133608D01*
X137129539Y-65116554D01*
X137065892Y-65099500D01*
X136934108Y-65099500D01*
X136806812Y-65133608D01*
X136692686Y-65199500D01*
X136692683Y-65199502D01*
X136599502Y-65292683D01*
X136599500Y-65292686D01*
X136533608Y-65406812D01*
X136499500Y-65534108D01*
X110550500Y-65534108D01*
X110550500Y-64484108D01*
X168349500Y-64484108D01*
X168349500Y-64615891D01*
X168383608Y-64743187D01*
X168412185Y-64792683D01*
X168449500Y-64857314D01*
X168542686Y-64950500D01*
X168656814Y-65016392D01*
X168784108Y-65050500D01*
X168784110Y-65050500D01*
X168915890Y-65050500D01*
X168915892Y-65050500D01*
X168977068Y-65034108D01*
X190899500Y-65034108D01*
X190899500Y-65165891D01*
X190933608Y-65293187D01*
X190953721Y-65328023D01*
X190999500Y-65407314D01*
X191092686Y-65500500D01*
X191206814Y-65566392D01*
X191334108Y-65600500D01*
X191334110Y-65600500D01*
X191465890Y-65600500D01*
X191465892Y-65600500D01*
X191593186Y-65566392D01*
X191707314Y-65500500D01*
X191800500Y-65407314D01*
X191866392Y-65293186D01*
X191900500Y-65165892D01*
X191900500Y-65034108D01*
X191866392Y-64906814D01*
X191800500Y-64792686D01*
X191707314Y-64699500D01*
X191680654Y-64684108D01*
X192599500Y-64684108D01*
X192599500Y-64815892D01*
X192616554Y-64879539D01*
X192633608Y-64943187D01*
X192647005Y-64966390D01*
X192699500Y-65057314D01*
X192792686Y-65150500D01*
X192906814Y-65216392D01*
X193034108Y-65250500D01*
X193034110Y-65250500D01*
X193165890Y-65250500D01*
X193165892Y-65250500D01*
X193293186Y-65216392D01*
X193407314Y-65150500D01*
X193500500Y-65057314D01*
X193566392Y-64943186D01*
X193600500Y-64815892D01*
X193600500Y-64684108D01*
X193566392Y-64556814D01*
X193500500Y-64442686D01*
X193407314Y-64349500D01*
X193333380Y-64306814D01*
X193293187Y-64283608D01*
X193229539Y-64266554D01*
X193165892Y-64249500D01*
X193034108Y-64249500D01*
X192906812Y-64283608D01*
X192792686Y-64349500D01*
X192792683Y-64349502D01*
X192699502Y-64442683D01*
X192699500Y-64442686D01*
X192633608Y-64556812D01*
X192617778Y-64615892D01*
X192599500Y-64684108D01*
X191680654Y-64684108D01*
X191629372Y-64654500D01*
X191593187Y-64633608D01*
X191520489Y-64614129D01*
X191465892Y-64599500D01*
X191334108Y-64599500D01*
X191206812Y-64633608D01*
X191092686Y-64699500D01*
X191092683Y-64699502D01*
X190999502Y-64792683D01*
X190999500Y-64792686D01*
X190933608Y-64906812D01*
X190899500Y-65034108D01*
X168977068Y-65034108D01*
X169043186Y-65016392D01*
X169157314Y-64950500D01*
X169250500Y-64857314D01*
X169316392Y-64743186D01*
X169350500Y-64615892D01*
X169350500Y-64484108D01*
X169316392Y-64356814D01*
X169250500Y-64242686D01*
X169157314Y-64149500D01*
X169074346Y-64101598D01*
X169043187Y-64083608D01*
X169021645Y-64077836D01*
X168915892Y-64049500D01*
X168784108Y-64049500D01*
X168656812Y-64083608D01*
X168542686Y-64149500D01*
X168542683Y-64149502D01*
X168449502Y-64242683D01*
X168449500Y-64242686D01*
X168383608Y-64356812D01*
X168349500Y-64484108D01*
X110550500Y-64484108D01*
X110550500Y-63959108D01*
X175699500Y-63959108D01*
X175699500Y-64090892D01*
X175701807Y-64099502D01*
X175733608Y-64218187D01*
X175747751Y-64242683D01*
X175799500Y-64332314D01*
X175892686Y-64425500D01*
X176006814Y-64491392D01*
X176134108Y-64525500D01*
X176134110Y-64525500D01*
X176265890Y-64525500D01*
X176265892Y-64525500D01*
X176393186Y-64491392D01*
X176492405Y-64434108D01*
X180599500Y-64434108D01*
X180599500Y-64565892D01*
X180612897Y-64615890D01*
X180633608Y-64693187D01*
X180662476Y-64743186D01*
X180699500Y-64807314D01*
X180792686Y-64900500D01*
X180891521Y-64957563D01*
X180906810Y-64966390D01*
X180906814Y-64966392D01*
X181034108Y-65000500D01*
X181034110Y-65000500D01*
X181165890Y-65000500D01*
X181165892Y-65000500D01*
X181293186Y-64966392D01*
X181407314Y-64900500D01*
X181500500Y-64807314D01*
X181566392Y-64693186D01*
X181600500Y-64565892D01*
X181600500Y-64434108D01*
X181566392Y-64306814D01*
X181500500Y-64192686D01*
X181407314Y-64099500D01*
X181320712Y-64049500D01*
X181293187Y-64033608D01*
X181229539Y-64016554D01*
X181165892Y-63999500D01*
X181034108Y-63999500D01*
X180906812Y-64033608D01*
X180792686Y-64099500D01*
X180792683Y-64099502D01*
X180699502Y-64192683D01*
X180699500Y-64192686D01*
X180633608Y-64306812D01*
X180603287Y-64419975D01*
X180599500Y-64434108D01*
X176492405Y-64434108D01*
X176507314Y-64425500D01*
X176600500Y-64332314D01*
X176666392Y-64218186D01*
X176700500Y-64090892D01*
X176700500Y-63959108D01*
X176666392Y-63831814D01*
X176600500Y-63717686D01*
X176507314Y-63624500D01*
X176468047Y-63601829D01*
X176468046Y-63601828D01*
X176393188Y-63558609D01*
X176393187Y-63558608D01*
X176393186Y-63558608D01*
X176265892Y-63524500D01*
X176134108Y-63524500D01*
X176006812Y-63558608D01*
X175892686Y-63624500D01*
X175892683Y-63624502D01*
X175799502Y-63717683D01*
X175799500Y-63717686D01*
X175733608Y-63831812D01*
X175712548Y-63910412D01*
X175699500Y-63959108D01*
X110550500Y-63959108D01*
X110550500Y-63500530D01*
X195549500Y-63500530D01*
X195549500Y-63707469D01*
X195589868Y-63910412D01*
X195589870Y-63910420D01*
X195669058Y-64101596D01*
X195784024Y-64273657D01*
X195930342Y-64419975D01*
X195930345Y-64419977D01*
X196102402Y-64534941D01*
X196293580Y-64614130D01*
X196496530Y-64654499D01*
X196496534Y-64654500D01*
X196496535Y-64654500D01*
X196703466Y-64654500D01*
X196703467Y-64654499D01*
X196906420Y-64614130D01*
X197097598Y-64534941D01*
X197269655Y-64419977D01*
X197415977Y-64273655D01*
X197530941Y-64101598D01*
X197610130Y-63910420D01*
X197650500Y-63707465D01*
X197650500Y-63500535D01*
X197610130Y-63297580D01*
X197530941Y-63106402D01*
X197415977Y-62934345D01*
X197415975Y-62934342D01*
X197269657Y-62788024D01*
X197183626Y-62730541D01*
X197097598Y-62673059D01*
X196906420Y-62593870D01*
X196906412Y-62593868D01*
X196703469Y-62553500D01*
X196703465Y-62553500D01*
X196496535Y-62553500D01*
X196496530Y-62553500D01*
X196293587Y-62593868D01*
X196293579Y-62593870D01*
X196102403Y-62673058D01*
X195930342Y-62788024D01*
X195784024Y-62934342D01*
X195669058Y-63106403D01*
X195589870Y-63297579D01*
X195589868Y-63297587D01*
X195549500Y-63500530D01*
X110550500Y-63500530D01*
X110550500Y-61284108D01*
X154649500Y-61284108D01*
X154649500Y-61415891D01*
X154683608Y-61543187D01*
X154716554Y-61600250D01*
X154749500Y-61657314D01*
X154842686Y-61750500D01*
X154956814Y-61816392D01*
X155084108Y-61850500D01*
X155084110Y-61850500D01*
X155215890Y-61850500D01*
X155215892Y-61850500D01*
X155343186Y-61816392D01*
X155457314Y-61750500D01*
X155550500Y-61657314D01*
X155616392Y-61543186D01*
X155650500Y-61415892D01*
X155650500Y-61284108D01*
X155637103Y-61234108D01*
X164599500Y-61234108D01*
X164599500Y-61365891D01*
X164633608Y-61493187D01*
X164662476Y-61543186D01*
X164699500Y-61607314D01*
X164792686Y-61700500D01*
X164906814Y-61766392D01*
X165034108Y-61800500D01*
X165034110Y-61800500D01*
X165165890Y-61800500D01*
X165165892Y-61800500D01*
X165293186Y-61766392D01*
X165407314Y-61700500D01*
X165500500Y-61607314D01*
X165566392Y-61493186D01*
X165600500Y-61365892D01*
X165600500Y-61234108D01*
X165566392Y-61106814D01*
X165500500Y-60992686D01*
X165407314Y-60899500D01*
X165320712Y-60849500D01*
X165293187Y-60833608D01*
X165229539Y-60816554D01*
X165165892Y-60799500D01*
X165034108Y-60799500D01*
X164906812Y-60833608D01*
X164792686Y-60899500D01*
X164792683Y-60899502D01*
X164699502Y-60992683D01*
X164699500Y-60992686D01*
X164633608Y-61106812D01*
X164599500Y-61234108D01*
X155637103Y-61234108D01*
X155616392Y-61156814D01*
X155550500Y-61042686D01*
X155457314Y-60949500D01*
X155400250Y-60916554D01*
X155343187Y-60883608D01*
X155279539Y-60866554D01*
X155215892Y-60849500D01*
X155084108Y-60849500D01*
X154956812Y-60883608D01*
X154842686Y-60949500D01*
X154842683Y-60949502D01*
X154749502Y-61042683D01*
X154749500Y-61042686D01*
X154683608Y-61156812D01*
X154649500Y-61284108D01*
X110550500Y-61284108D01*
X110550500Y-60534108D01*
X161699500Y-60534108D01*
X161699500Y-60665891D01*
X161733608Y-60793187D01*
X161737253Y-60799500D01*
X161799500Y-60907314D01*
X161892686Y-61000500D01*
X162006814Y-61066392D01*
X162134108Y-61100500D01*
X162134110Y-61100500D01*
X162265890Y-61100500D01*
X162265892Y-61100500D01*
X162393186Y-61066392D01*
X162507314Y-61000500D01*
X162600500Y-60907314D01*
X162666392Y-60793186D01*
X162700500Y-60665892D01*
X162700500Y-60534108D01*
X184299500Y-60534108D01*
X184299500Y-60665891D01*
X184333608Y-60793187D01*
X184337253Y-60799500D01*
X184399500Y-60907314D01*
X184492686Y-61000500D01*
X184606814Y-61066392D01*
X184734108Y-61100500D01*
X184734110Y-61100500D01*
X184865890Y-61100500D01*
X184865892Y-61100500D01*
X184993186Y-61066392D01*
X185107314Y-61000500D01*
X185200500Y-60907314D01*
X185266392Y-60793186D01*
X185300500Y-60665892D01*
X185300500Y-60534108D01*
X185266392Y-60406814D01*
X185200500Y-60292686D01*
X185107314Y-60199500D01*
X185098216Y-60194247D01*
X195549500Y-60194247D01*
X195549500Y-61933752D01*
X195561131Y-61992229D01*
X195561132Y-61992230D01*
X195605447Y-62058552D01*
X195671769Y-62102867D01*
X195671770Y-62102868D01*
X195730247Y-62114499D01*
X195730250Y-62114500D01*
X195730252Y-62114500D01*
X197469750Y-62114500D01*
X197469751Y-62114499D01*
X197484568Y-62111552D01*
X197528229Y-62102868D01*
X197528229Y-62102867D01*
X197528231Y-62102867D01*
X197594552Y-62058552D01*
X197638867Y-61992231D01*
X197638867Y-61992229D01*
X197638868Y-61992229D01*
X197650499Y-61933752D01*
X197650500Y-61933750D01*
X197650500Y-60194249D01*
X197650499Y-60194247D01*
X197638868Y-60135770D01*
X197638867Y-60135769D01*
X197594552Y-60069447D01*
X197528230Y-60025132D01*
X197528229Y-60025131D01*
X197469752Y-60013500D01*
X197469748Y-60013500D01*
X195730252Y-60013500D01*
X195730247Y-60013500D01*
X195671770Y-60025131D01*
X195671769Y-60025132D01*
X195605447Y-60069447D01*
X195561132Y-60135769D01*
X195561131Y-60135770D01*
X195549500Y-60194247D01*
X185098216Y-60194247D01*
X185050250Y-60166554D01*
X184993187Y-60133608D01*
X184929539Y-60116554D01*
X184865892Y-60099500D01*
X184734108Y-60099500D01*
X184606812Y-60133608D01*
X184492686Y-60199500D01*
X184492683Y-60199502D01*
X184399502Y-60292683D01*
X184399500Y-60292686D01*
X184333608Y-60406812D01*
X184299500Y-60534108D01*
X162700500Y-60534108D01*
X162666392Y-60406814D01*
X162600500Y-60292686D01*
X162507314Y-60199500D01*
X162450250Y-60166554D01*
X162393187Y-60133608D01*
X162329539Y-60116554D01*
X162265892Y-60099500D01*
X162134108Y-60099500D01*
X162006812Y-60133608D01*
X161892686Y-60199500D01*
X161892683Y-60199502D01*
X161799502Y-60292683D01*
X161799500Y-60292686D01*
X161733608Y-60406812D01*
X161699500Y-60534108D01*
X110550500Y-60534108D01*
X110550500Y-59609108D01*
X174424500Y-59609108D01*
X174424500Y-59740891D01*
X174458608Y-59868187D01*
X174491554Y-59925250D01*
X174524500Y-59982314D01*
X174617686Y-60075500D01*
X174731814Y-60141392D01*
X174859108Y-60175500D01*
X174859110Y-60175500D01*
X174990890Y-60175500D01*
X174990892Y-60175500D01*
X175118186Y-60141392D01*
X175232314Y-60075500D01*
X175325500Y-59982314D01*
X175391392Y-59868186D01*
X175425500Y-59740892D01*
X175425500Y-59609108D01*
X175391392Y-59481814D01*
X175325500Y-59367686D01*
X175232314Y-59274500D01*
X175147442Y-59225499D01*
X175118187Y-59208608D01*
X175053931Y-59191391D01*
X174990892Y-59174500D01*
X174859108Y-59174500D01*
X174731812Y-59208608D01*
X174617686Y-59274500D01*
X174617683Y-59274502D01*
X174524502Y-59367683D01*
X174524500Y-59367686D01*
X174458608Y-59481812D01*
X174424500Y-59609108D01*
X110550500Y-59609108D01*
X110550500Y-58183435D01*
X139800173Y-58183435D01*
X139800173Y-58315219D01*
X139805100Y-58333608D01*
X139834281Y-58442514D01*
X139863247Y-58492683D01*
X139900173Y-58556641D01*
X139993359Y-58649827D01*
X140107487Y-58715719D01*
X140234781Y-58749827D01*
X140234783Y-58749827D01*
X140366563Y-58749827D01*
X140366565Y-58749827D01*
X140425230Y-58734108D01*
X156049500Y-58734108D01*
X156049500Y-58865892D01*
X156063512Y-58918186D01*
X156083608Y-58993187D01*
X156106200Y-59032316D01*
X156149500Y-59107314D01*
X156242686Y-59200500D01*
X156356814Y-59266392D01*
X156484108Y-59300500D01*
X156484110Y-59300500D01*
X156615890Y-59300500D01*
X156615892Y-59300500D01*
X156743186Y-59266392D01*
X156857314Y-59200500D01*
X156950500Y-59107314D01*
X157016392Y-58993186D01*
X157032222Y-58934108D01*
X184299500Y-58934108D01*
X184299500Y-59065892D01*
X184315472Y-59125500D01*
X184333608Y-59193187D01*
X184366554Y-59250250D01*
X184399500Y-59307314D01*
X184492686Y-59400500D01*
X184606814Y-59466392D01*
X184734108Y-59500500D01*
X184734110Y-59500500D01*
X184865890Y-59500500D01*
X184865892Y-59500500D01*
X184993186Y-59466392D01*
X185107314Y-59400500D01*
X185200500Y-59307314D01*
X185266392Y-59193186D01*
X185300500Y-59065892D01*
X185300500Y-58934108D01*
X185266392Y-58806814D01*
X185200500Y-58692686D01*
X185166922Y-58659108D01*
X194524500Y-58659108D01*
X194524500Y-58790891D01*
X194558608Y-58918187D01*
X194591554Y-58975250D01*
X194624500Y-59032314D01*
X194717686Y-59125500D01*
X194831814Y-59191392D01*
X194959108Y-59225500D01*
X194959110Y-59225500D01*
X195090890Y-59225500D01*
X195090892Y-59225500D01*
X195218186Y-59191392D01*
X195332314Y-59125500D01*
X195425500Y-59032314D01*
X195491392Y-58918186D01*
X195525500Y-58790892D01*
X195525500Y-58659108D01*
X195491392Y-58531814D01*
X195425500Y-58417686D01*
X195332314Y-58324500D01*
X195275250Y-58291554D01*
X195218187Y-58258608D01*
X195154539Y-58241554D01*
X195090892Y-58224500D01*
X194959108Y-58224500D01*
X194831812Y-58258608D01*
X194717686Y-58324500D01*
X194717683Y-58324502D01*
X194624502Y-58417683D01*
X194624500Y-58417686D01*
X194558608Y-58531812D01*
X194524500Y-58659108D01*
X185166922Y-58659108D01*
X185107314Y-58599500D01*
X185033084Y-58556643D01*
X184993187Y-58533608D01*
X184929539Y-58516554D01*
X184865892Y-58499500D01*
X184734108Y-58499500D01*
X184606812Y-58533608D01*
X184492686Y-58599500D01*
X184492683Y-58599502D01*
X184399502Y-58692683D01*
X184399500Y-58692686D01*
X184333608Y-58806812D01*
X184317778Y-58865892D01*
X184299500Y-58934108D01*
X157032222Y-58934108D01*
X157050500Y-58865892D01*
X157050500Y-58734108D01*
X157016392Y-58606814D01*
X156950500Y-58492686D01*
X156857314Y-58399500D01*
X156800250Y-58366554D01*
X156743187Y-58333608D01*
X156674549Y-58315217D01*
X156615892Y-58299500D01*
X156484108Y-58299500D01*
X156356812Y-58333608D01*
X156242686Y-58399500D01*
X156242683Y-58399502D01*
X156149502Y-58492683D01*
X156149500Y-58492686D01*
X156083608Y-58606812D01*
X156054427Y-58715719D01*
X156049500Y-58734108D01*
X140425230Y-58734108D01*
X140493859Y-58715719D01*
X140607987Y-58649827D01*
X140701173Y-58556641D01*
X140767065Y-58442513D01*
X140801173Y-58315219D01*
X140801173Y-58183435D01*
X140767065Y-58056141D01*
X140701173Y-57942013D01*
X140677121Y-57917961D01*
X178574880Y-57917961D01*
X178574880Y-57917962D01*
X178578429Y-57920334D01*
X178705813Y-57973097D01*
X178705823Y-57973100D01*
X178841053Y-58000000D01*
X178978946Y-58000000D01*
X179114176Y-57973100D01*
X179114186Y-57973097D01*
X179241570Y-57920334D01*
X179241572Y-57920332D01*
X179245119Y-57917961D01*
X179674880Y-57917961D01*
X179674880Y-57917962D01*
X179678429Y-57920334D01*
X179805813Y-57973097D01*
X179805823Y-57973100D01*
X179941053Y-58000000D01*
X180078946Y-58000000D01*
X180214176Y-57973100D01*
X180214186Y-57973097D01*
X180341570Y-57920334D01*
X180341572Y-57920332D01*
X180345119Y-57917961D01*
X180010001Y-57582842D01*
X180010000Y-57582842D01*
X179674880Y-57917961D01*
X179245119Y-57917961D01*
X178910001Y-57582842D01*
X178910000Y-57582842D01*
X178574880Y-57917961D01*
X140677121Y-57917961D01*
X140607987Y-57848827D01*
X140550923Y-57815881D01*
X140493860Y-57782935D01*
X140430212Y-57765881D01*
X140366565Y-57748827D01*
X140234781Y-57748827D01*
X140107485Y-57782935D01*
X139993359Y-57848827D01*
X139993356Y-57848829D01*
X139900175Y-57942010D01*
X139900173Y-57942013D01*
X139834281Y-58056139D01*
X139800173Y-58183435D01*
X110550500Y-58183435D01*
X110550500Y-57367961D01*
X178024880Y-57367961D01*
X178024880Y-57367962D01*
X178028425Y-57370331D01*
X178161446Y-57425429D01*
X178160863Y-57426836D01*
X178213032Y-57461015D01*
X178233725Y-57498903D01*
X178234570Y-57498554D01*
X178289668Y-57631573D01*
X178289668Y-57631574D01*
X178292037Y-57635119D01*
X178627157Y-57300000D01*
X178627157Y-57299999D01*
X178597321Y-57270163D01*
X178760000Y-57270163D01*
X178760000Y-57329837D01*
X178782836Y-57384968D01*
X178825032Y-57427164D01*
X178880163Y-57450000D01*
X178939837Y-57450000D01*
X178994968Y-57427164D01*
X179037164Y-57384968D01*
X179060000Y-57329837D01*
X179060000Y-57300000D01*
X179192842Y-57300000D01*
X179460000Y-57567157D01*
X179460001Y-57567157D01*
X179727157Y-57300001D01*
X179727157Y-57299999D01*
X179697321Y-57270163D01*
X179860000Y-57270163D01*
X179860000Y-57329837D01*
X179882836Y-57384968D01*
X179925032Y-57427164D01*
X179980163Y-57450000D01*
X180039837Y-57450000D01*
X180094968Y-57427164D01*
X180137164Y-57384968D01*
X180160000Y-57329837D01*
X180160000Y-57300000D01*
X180292842Y-57300000D01*
X180627961Y-57635119D01*
X180630332Y-57631572D01*
X180630334Y-57631570D01*
X180685430Y-57498554D01*
X180686832Y-57499135D01*
X180721029Y-57446956D01*
X180758903Y-57426274D01*
X180758554Y-57425430D01*
X180891570Y-57370334D01*
X180891572Y-57370332D01*
X180895119Y-57367961D01*
X180560001Y-57032842D01*
X180560000Y-57032842D01*
X180292842Y-57300000D01*
X180160000Y-57300000D01*
X180160000Y-57270163D01*
X180137164Y-57215032D01*
X180094968Y-57172836D01*
X180039837Y-57150000D01*
X179980163Y-57150000D01*
X179925032Y-57172836D01*
X179882836Y-57215032D01*
X179860000Y-57270163D01*
X179697321Y-57270163D01*
X179460000Y-57032842D01*
X179192842Y-57300000D01*
X179060000Y-57300000D01*
X179060000Y-57270163D01*
X179037164Y-57215032D01*
X178994968Y-57172836D01*
X178939837Y-57150000D01*
X178880163Y-57150000D01*
X178825032Y-57172836D01*
X178782836Y-57215032D01*
X178760000Y-57270163D01*
X178597321Y-57270163D01*
X178485737Y-57158579D01*
X178485737Y-57158580D01*
X178359998Y-57032842D01*
X178024880Y-57367961D01*
X110550500Y-57367961D01*
X110550500Y-56818946D01*
X177659999Y-56818946D01*
X177686899Y-56954176D01*
X177686901Y-56954182D01*
X177739668Y-57081573D01*
X177739668Y-57081574D01*
X177742037Y-57085119D01*
X178077157Y-56750000D01*
X178047320Y-56720163D01*
X178210000Y-56720163D01*
X178210000Y-56779837D01*
X178232836Y-56834968D01*
X178275032Y-56877164D01*
X178330163Y-56900000D01*
X178389837Y-56900000D01*
X178444968Y-56877164D01*
X178487164Y-56834968D01*
X178510000Y-56779837D01*
X178510000Y-56750000D01*
X178642842Y-56750000D01*
X178776406Y-56883564D01*
X178776421Y-56883578D01*
X178910000Y-57017157D01*
X178910001Y-57017157D01*
X179043578Y-56883579D01*
X179177157Y-56750000D01*
X179177157Y-56749999D01*
X179147321Y-56720163D01*
X179310000Y-56720163D01*
X179310000Y-56779837D01*
X179332836Y-56834968D01*
X179375032Y-56877164D01*
X179430163Y-56900000D01*
X179489837Y-56900000D01*
X179544968Y-56877164D01*
X179587164Y-56834968D01*
X179610000Y-56779837D01*
X179610000Y-56750000D01*
X179742842Y-56750000D01*
X179876406Y-56883564D01*
X179876421Y-56883578D01*
X180010000Y-57017157D01*
X180010001Y-57017157D01*
X180143578Y-56883579D01*
X180277157Y-56750000D01*
X180277157Y-56749999D01*
X180247321Y-56720163D01*
X180410000Y-56720163D01*
X180410000Y-56779837D01*
X180432836Y-56834968D01*
X180475032Y-56877164D01*
X180530163Y-56900000D01*
X180589837Y-56900000D01*
X180644968Y-56877164D01*
X180687164Y-56834968D01*
X180710000Y-56779837D01*
X180710000Y-56750000D01*
X180842842Y-56750000D01*
X181177961Y-57085119D01*
X181180332Y-57081572D01*
X181180334Y-57081570D01*
X181233097Y-56954186D01*
X181233100Y-56954176D01*
X181260000Y-56818946D01*
X181260000Y-56681053D01*
X181233100Y-56545823D01*
X181233097Y-56545813D01*
X181180334Y-56418429D01*
X181177961Y-56414880D01*
X180842842Y-56750000D01*
X180710000Y-56750000D01*
X180710000Y-56720163D01*
X180687164Y-56665032D01*
X180644968Y-56622836D01*
X180589837Y-56600000D01*
X180530163Y-56600000D01*
X180475032Y-56622836D01*
X180432836Y-56665032D01*
X180410000Y-56720163D01*
X180247321Y-56720163D01*
X180010000Y-56482842D01*
X179742842Y-56750000D01*
X179610000Y-56750000D01*
X179610000Y-56720163D01*
X179587164Y-56665032D01*
X179544968Y-56622836D01*
X179489837Y-56600000D01*
X179430163Y-56600000D01*
X179375032Y-56622836D01*
X179332836Y-56665032D01*
X179310000Y-56720163D01*
X179147321Y-56720163D01*
X178910000Y-56482842D01*
X178642842Y-56750000D01*
X178510000Y-56750000D01*
X178510000Y-56720163D01*
X178487164Y-56665032D01*
X178444968Y-56622836D01*
X178389837Y-56600000D01*
X178330163Y-56600000D01*
X178275032Y-56622836D01*
X178232836Y-56665032D01*
X178210000Y-56720163D01*
X178047320Y-56720163D01*
X177742037Y-56414880D01*
X177742036Y-56414880D01*
X177739667Y-56418427D01*
X177739666Y-56418428D01*
X177686902Y-56545813D01*
X177686899Y-56545823D01*
X177660000Y-56681053D01*
X177660000Y-56818946D01*
X177659999Y-56818946D01*
X110550500Y-56818946D01*
X110550500Y-55659108D01*
X148349500Y-55659108D01*
X148349500Y-55790892D01*
X148366457Y-55854176D01*
X148383608Y-55918187D01*
X148416554Y-55975250D01*
X148449500Y-56032314D01*
X148542686Y-56125500D01*
X148656814Y-56191392D01*
X148784108Y-56225500D01*
X148784110Y-56225500D01*
X148915890Y-56225500D01*
X148915892Y-56225500D01*
X149043186Y-56191392D01*
X149142405Y-56134108D01*
X165349500Y-56134108D01*
X165349500Y-56265892D01*
X165365918Y-56327164D01*
X165383608Y-56393187D01*
X165398182Y-56418429D01*
X165449500Y-56507314D01*
X165542686Y-56600500D01*
X165656814Y-56666392D01*
X165784108Y-56700500D01*
X165784110Y-56700500D01*
X165915890Y-56700500D01*
X165915892Y-56700500D01*
X166043186Y-56666392D01*
X166157314Y-56600500D01*
X166250500Y-56507314D01*
X166316392Y-56393186D01*
X166350500Y-56265892D01*
X166350500Y-56199999D01*
X178092842Y-56199999D01*
X178092842Y-56200000D01*
X178359998Y-56467156D01*
X178493577Y-56333578D01*
X178493581Y-56333575D01*
X178627157Y-56200000D01*
X178627157Y-56199999D01*
X178597321Y-56170163D01*
X178760000Y-56170163D01*
X178760000Y-56229837D01*
X178782836Y-56284968D01*
X178825032Y-56327164D01*
X178880163Y-56350000D01*
X178939837Y-56350000D01*
X178994968Y-56327164D01*
X179037164Y-56284968D01*
X179060000Y-56229837D01*
X179060000Y-56200000D01*
X179192842Y-56200000D01*
X179326406Y-56333564D01*
X179326421Y-56333578D01*
X179460000Y-56467157D01*
X179460001Y-56467157D01*
X179593578Y-56333579D01*
X179727157Y-56200000D01*
X179727157Y-56199999D01*
X179697321Y-56170163D01*
X179860000Y-56170163D01*
X179860000Y-56229837D01*
X179882836Y-56284968D01*
X179925032Y-56327164D01*
X179980163Y-56350000D01*
X180039837Y-56350000D01*
X180094968Y-56327164D01*
X180137164Y-56284968D01*
X180160000Y-56229837D01*
X180160000Y-56200000D01*
X180292842Y-56200000D01*
X180426406Y-56333564D01*
X180426421Y-56333578D01*
X180560000Y-56467157D01*
X180827157Y-56200000D01*
X180827157Y-56199999D01*
X180560001Y-55932842D01*
X180560000Y-55932842D01*
X180292842Y-56200000D01*
X180160000Y-56200000D01*
X180160000Y-56170163D01*
X180137164Y-56115032D01*
X180094968Y-56072836D01*
X180039837Y-56050000D01*
X179980163Y-56050000D01*
X179925032Y-56072836D01*
X179882836Y-56115032D01*
X179860000Y-56170163D01*
X179697321Y-56170163D01*
X179460000Y-55932842D01*
X179192842Y-56200000D01*
X179060000Y-56200000D01*
X179060000Y-56170163D01*
X179037164Y-56115032D01*
X178994968Y-56072836D01*
X178939837Y-56050000D01*
X178880163Y-56050000D01*
X178825032Y-56072836D01*
X178782836Y-56115032D01*
X178760000Y-56170163D01*
X178597321Y-56170163D01*
X178485737Y-56058579D01*
X178485737Y-56058580D01*
X178359998Y-55932842D01*
X178092842Y-56199999D01*
X166350500Y-56199999D01*
X166350500Y-56134108D01*
X166316392Y-56006814D01*
X166250500Y-55892686D01*
X166157314Y-55799500D01*
X166100250Y-55766554D01*
X166043187Y-55733608D01*
X165988466Y-55718946D01*
X177659999Y-55718946D01*
X177686899Y-55854176D01*
X177686901Y-55854182D01*
X177739668Y-55981573D01*
X177739668Y-55981574D01*
X177742037Y-55985119D01*
X178077157Y-55650000D01*
X178047320Y-55620163D01*
X178210000Y-55620163D01*
X178210000Y-55679837D01*
X178232836Y-55734968D01*
X178275032Y-55777164D01*
X178330163Y-55800000D01*
X178389837Y-55800000D01*
X178444968Y-55777164D01*
X178487164Y-55734968D01*
X178510000Y-55679837D01*
X178510000Y-55650000D01*
X178642842Y-55650000D01*
X178776406Y-55783564D01*
X178776421Y-55783578D01*
X178910000Y-55917157D01*
X178910001Y-55917157D01*
X179043578Y-55783579D01*
X179177157Y-55650000D01*
X179177157Y-55649999D01*
X179147321Y-55620163D01*
X179310000Y-55620163D01*
X179310000Y-55679837D01*
X179332836Y-55734968D01*
X179375032Y-55777164D01*
X179430163Y-55800000D01*
X179489837Y-55800000D01*
X179544968Y-55777164D01*
X179587164Y-55734968D01*
X179610000Y-55679837D01*
X179610000Y-55650000D01*
X179742842Y-55650000D01*
X179876406Y-55783564D01*
X179876421Y-55783578D01*
X180010000Y-55917157D01*
X180010001Y-55917157D01*
X180143578Y-55783579D01*
X180277157Y-55650000D01*
X180277157Y-55649999D01*
X180247321Y-55620163D01*
X180410000Y-55620163D01*
X180410000Y-55679837D01*
X180432836Y-55734968D01*
X180475032Y-55777164D01*
X180530163Y-55800000D01*
X180589837Y-55800000D01*
X180644968Y-55777164D01*
X180687164Y-55734968D01*
X180710000Y-55679837D01*
X180710000Y-55650000D01*
X180842842Y-55650000D01*
X181177961Y-55985119D01*
X181180332Y-55981572D01*
X181180334Y-55981570D01*
X181233097Y-55854186D01*
X181233100Y-55854176D01*
X181260000Y-55718946D01*
X181260000Y-55581053D01*
X181233100Y-55445823D01*
X181233097Y-55445813D01*
X181180334Y-55318429D01*
X181177961Y-55314880D01*
X180842842Y-55650000D01*
X180710000Y-55650000D01*
X180710000Y-55620163D01*
X180687164Y-55565032D01*
X180644968Y-55522836D01*
X180589837Y-55500000D01*
X180530163Y-55500000D01*
X180475032Y-55522836D01*
X180432836Y-55565032D01*
X180410000Y-55620163D01*
X180247321Y-55620163D01*
X180010000Y-55382842D01*
X179742842Y-55650000D01*
X179610000Y-55650000D01*
X179610000Y-55620163D01*
X179587164Y-55565032D01*
X179544968Y-55522836D01*
X179489837Y-55500000D01*
X179430163Y-55500000D01*
X179375032Y-55522836D01*
X179332836Y-55565032D01*
X179310000Y-55620163D01*
X179147321Y-55620163D01*
X178910000Y-55382842D01*
X178642842Y-55650000D01*
X178510000Y-55650000D01*
X178510000Y-55620163D01*
X178487164Y-55565032D01*
X178444968Y-55522836D01*
X178389837Y-55500000D01*
X178330163Y-55500000D01*
X178275032Y-55522836D01*
X178232836Y-55565032D01*
X178210000Y-55620163D01*
X178047320Y-55620163D01*
X177742037Y-55314880D01*
X177742036Y-55314880D01*
X177739667Y-55318427D01*
X177739666Y-55318428D01*
X177686902Y-55445813D01*
X177686899Y-55445823D01*
X177660000Y-55581053D01*
X177660000Y-55718946D01*
X177659999Y-55718946D01*
X165988466Y-55718946D01*
X165979539Y-55716554D01*
X165915892Y-55699500D01*
X165784108Y-55699500D01*
X165656812Y-55733608D01*
X165542686Y-55799500D01*
X165542683Y-55799502D01*
X165449502Y-55892683D01*
X165449500Y-55892686D01*
X165383608Y-56006812D01*
X165354611Y-56115032D01*
X165349500Y-56134108D01*
X149142405Y-56134108D01*
X149157314Y-56125500D01*
X149250500Y-56032314D01*
X149316392Y-55918186D01*
X149350500Y-55790892D01*
X149350500Y-55659108D01*
X149316392Y-55531814D01*
X149250500Y-55417686D01*
X149157314Y-55324500D01*
X149086028Y-55283343D01*
X149043187Y-55258608D01*
X148979539Y-55241554D01*
X148915892Y-55224500D01*
X148784108Y-55224500D01*
X148656812Y-55258608D01*
X148542686Y-55324500D01*
X148542683Y-55324502D01*
X148449502Y-55417683D01*
X148449500Y-55417686D01*
X148383608Y-55531812D01*
X148359935Y-55620163D01*
X148349500Y-55659108D01*
X110550500Y-55659108D01*
X110550500Y-53881902D01*
X113499500Y-53881902D01*
X113499500Y-54118097D01*
X113536446Y-54351368D01*
X113609433Y-54575996D01*
X113697658Y-54749146D01*
X113716657Y-54786433D01*
X113855483Y-54977510D01*
X114022490Y-55144517D01*
X114213567Y-55283343D01*
X114282427Y-55318429D01*
X114424003Y-55390566D01*
X114424005Y-55390566D01*
X114424008Y-55390568D01*
X114544412Y-55429689D01*
X114648631Y-55463553D01*
X114881903Y-55500500D01*
X114881908Y-55500500D01*
X115118097Y-55500500D01*
X115351368Y-55463553D01*
X115370563Y-55457316D01*
X115575992Y-55390568D01*
X115786433Y-55283343D01*
X115977510Y-55144517D01*
X116144517Y-54977510D01*
X116283343Y-54786433D01*
X116390568Y-54575992D01*
X116463553Y-54351368D01*
X116497963Y-54134108D01*
X145999500Y-54134108D01*
X145999500Y-54265891D01*
X146033608Y-54393187D01*
X146066554Y-54450250D01*
X146099500Y-54507314D01*
X146192686Y-54600500D01*
X146192692Y-54600503D01*
X146193107Y-54600822D01*
X146193374Y-54601188D01*
X146198433Y-54606247D01*
X146197644Y-54607035D01*
X146234311Y-54657249D01*
X146238468Y-54726995D01*
X146205305Y-54786881D01*
X146149500Y-54842686D01*
X146083608Y-54956812D01*
X146049500Y-55084108D01*
X146049500Y-55215892D01*
X146058639Y-55250000D01*
X146083608Y-55343187D01*
X146106503Y-55382842D01*
X146149500Y-55457314D01*
X146242686Y-55550500D01*
X146356814Y-55616392D01*
X146484108Y-55650500D01*
X146484110Y-55650500D01*
X146615890Y-55650500D01*
X146615892Y-55650500D01*
X146743186Y-55616392D01*
X146857314Y-55550500D01*
X146950500Y-55457314D01*
X147016392Y-55343186D01*
X147050500Y-55215892D01*
X147050500Y-55084108D01*
X147016392Y-54956814D01*
X146950500Y-54842686D01*
X146857314Y-54749500D01*
X146857313Y-54749499D01*
X146857129Y-54749358D01*
X146857089Y-54749328D01*
X146856852Y-54749146D01*
X146856560Y-54748746D01*
X146851567Y-54743753D01*
X146852347Y-54742972D01*
X146815671Y-54692703D01*
X146813683Y-54659108D01*
X152574500Y-54659108D01*
X152574500Y-54790891D01*
X152608608Y-54918187D01*
X152626976Y-54950000D01*
X152674500Y-55032314D01*
X152767686Y-55125500D01*
X152881814Y-55191392D01*
X153009108Y-55225500D01*
X153009110Y-55225500D01*
X153140890Y-55225500D01*
X153140892Y-55225500D01*
X153268186Y-55191392D01*
X153382314Y-55125500D01*
X153475500Y-55032314D01*
X153475661Y-55032036D01*
X178024880Y-55032036D01*
X178024880Y-55032037D01*
X178359998Y-55367157D01*
X178511266Y-55215891D01*
X178627157Y-55099998D01*
X178597322Y-55070163D01*
X178760000Y-55070163D01*
X178760000Y-55129837D01*
X178782836Y-55184968D01*
X178825032Y-55227164D01*
X178880163Y-55250000D01*
X178939837Y-55250000D01*
X178994968Y-55227164D01*
X179037164Y-55184968D01*
X179060000Y-55129837D01*
X179060000Y-55099998D01*
X179192842Y-55099998D01*
X179308735Y-55215892D01*
X179308734Y-55215892D01*
X179460000Y-55367157D01*
X179611265Y-55215892D01*
X179727157Y-55099998D01*
X179697322Y-55070163D01*
X179860000Y-55070163D01*
X179860000Y-55129837D01*
X179882836Y-55184968D01*
X179925032Y-55227164D01*
X179980163Y-55250000D01*
X180039837Y-55250000D01*
X180094968Y-55227164D01*
X180137164Y-55184968D01*
X180160000Y-55129837D01*
X180160000Y-55099998D01*
X180292842Y-55099998D01*
X180408735Y-55215892D01*
X180408734Y-55215892D01*
X180560000Y-55367157D01*
X180560001Y-55367157D01*
X180895119Y-55032037D01*
X180891574Y-55029668D01*
X180758554Y-54974570D01*
X180759134Y-54973168D01*
X180706949Y-54938963D01*
X180686276Y-54901094D01*
X180685429Y-54901446D01*
X180630331Y-54768425D01*
X180627962Y-54764880D01*
X180627961Y-54764880D01*
X180292842Y-55099998D01*
X180160000Y-55099998D01*
X180160000Y-55070163D01*
X180137164Y-55015032D01*
X180094968Y-54972836D01*
X180039837Y-54950000D01*
X179980163Y-54950000D01*
X179925032Y-54972836D01*
X179882836Y-55015032D01*
X179860000Y-55070163D01*
X179697322Y-55070163D01*
X179460001Y-54832842D01*
X179460000Y-54832842D01*
X179192842Y-55099998D01*
X179060000Y-55099998D01*
X179060000Y-55070163D01*
X179037164Y-55015032D01*
X178994968Y-54972836D01*
X178939837Y-54950000D01*
X178880163Y-54950000D01*
X178825032Y-54972836D01*
X178782836Y-55015032D01*
X178760000Y-55070163D01*
X178597322Y-55070163D01*
X178292037Y-54764880D01*
X178292036Y-54764880D01*
X178289667Y-54768427D01*
X178289666Y-54768428D01*
X178234570Y-54901445D01*
X178233171Y-54900865D01*
X178198951Y-54953059D01*
X178161096Y-54973728D01*
X178161445Y-54974570D01*
X178028428Y-55029666D01*
X178028427Y-55029667D01*
X178024880Y-55032036D01*
X153475661Y-55032036D01*
X153541392Y-54918186D01*
X153575500Y-54790892D01*
X153575500Y-54659108D01*
X153541392Y-54531814D01*
X153512653Y-54482036D01*
X178574880Y-54482036D01*
X178574880Y-54482037D01*
X178910000Y-54817157D01*
X178910001Y-54817157D01*
X179245119Y-54482037D01*
X179245118Y-54482036D01*
X179674880Y-54482036D01*
X179674880Y-54482037D01*
X180010000Y-54817157D01*
X180010001Y-54817157D01*
X180345119Y-54482037D01*
X180341574Y-54479668D01*
X180231581Y-54434108D01*
X185174500Y-54434108D01*
X185174500Y-54565892D01*
X185185313Y-54606247D01*
X185208608Y-54693187D01*
X185237352Y-54742972D01*
X185274500Y-54807314D01*
X185367686Y-54900500D01*
X185481814Y-54966392D01*
X185609108Y-55000500D01*
X185609110Y-55000500D01*
X185740890Y-55000500D01*
X185740892Y-55000500D01*
X185868186Y-54966392D01*
X185982314Y-54900500D01*
X186075500Y-54807314D01*
X186141392Y-54693186D01*
X186175500Y-54565892D01*
X186175500Y-54434108D01*
X186141392Y-54306814D01*
X186075500Y-54192686D01*
X185982314Y-54099500D01*
X185897439Y-54050497D01*
X185868187Y-54033608D01*
X185740892Y-53999500D01*
X185609108Y-53999500D01*
X185481812Y-54033608D01*
X185367686Y-54099500D01*
X185367683Y-54099502D01*
X185274502Y-54192683D01*
X185274500Y-54192686D01*
X185208608Y-54306812D01*
X185183639Y-54400000D01*
X185174500Y-54434108D01*
X180231581Y-54434108D01*
X180214182Y-54426901D01*
X180214176Y-54426899D01*
X180078946Y-54400000D01*
X179941054Y-54400000D01*
X179805823Y-54426899D01*
X179805813Y-54426902D01*
X179678428Y-54479666D01*
X179678427Y-54479667D01*
X179674880Y-54482036D01*
X179245118Y-54482036D01*
X179241574Y-54479668D01*
X179114182Y-54426901D01*
X179114176Y-54426899D01*
X178978946Y-54400000D01*
X178841054Y-54400000D01*
X178705823Y-54426899D01*
X178705813Y-54426902D01*
X178578428Y-54479666D01*
X178578427Y-54479667D01*
X178574880Y-54482036D01*
X153512653Y-54482036D01*
X153475500Y-54417686D01*
X153382314Y-54324500D01*
X153325250Y-54291554D01*
X153268187Y-54258608D01*
X153204539Y-54241554D01*
X153140892Y-54224500D01*
X153009108Y-54224500D01*
X152881812Y-54258608D01*
X152767686Y-54324500D01*
X152767683Y-54324502D01*
X152674502Y-54417683D01*
X152674500Y-54417686D01*
X152608608Y-54531812D01*
X152574500Y-54659108D01*
X146813683Y-54659108D01*
X146811543Y-54622955D01*
X146844692Y-54563121D01*
X146900500Y-54507314D01*
X146966392Y-54393186D01*
X147000500Y-54265892D01*
X147000500Y-54134108D01*
X146966392Y-54006814D01*
X146900500Y-53892686D01*
X146807314Y-53799500D01*
X146750250Y-53766554D01*
X146693187Y-53733608D01*
X146627061Y-53715890D01*
X146565892Y-53699500D01*
X146434108Y-53699500D01*
X146306812Y-53733608D01*
X146192686Y-53799500D01*
X146192683Y-53799502D01*
X146099502Y-53892683D01*
X146099500Y-53892686D01*
X146033608Y-54006812D01*
X145999500Y-54134108D01*
X116497963Y-54134108D01*
X116500500Y-54118092D01*
X116500500Y-53881908D01*
X116500500Y-53881902D01*
X116463553Y-53648631D01*
X116442588Y-53584108D01*
X148549500Y-53584108D01*
X148549500Y-53715891D01*
X148583608Y-53843187D01*
X148605961Y-53881902D01*
X148649500Y-53957314D01*
X148742686Y-54050500D01*
X148856814Y-54116392D01*
X148984108Y-54150500D01*
X148984110Y-54150500D01*
X149115890Y-54150500D01*
X149115892Y-54150500D01*
X149243186Y-54116392D01*
X149357314Y-54050500D01*
X149450500Y-53957314D01*
X149494039Y-53881902D01*
X192706607Y-53881902D01*
X192706607Y-54118097D01*
X192743553Y-54351368D01*
X192816540Y-54575996D01*
X192904765Y-54749146D01*
X192923764Y-54786433D01*
X193062590Y-54977510D01*
X193229597Y-55144517D01*
X193420674Y-55283343D01*
X193489534Y-55318429D01*
X193631110Y-55390566D01*
X193631112Y-55390566D01*
X193631115Y-55390568D01*
X193751519Y-55429689D01*
X193855738Y-55463553D01*
X194089010Y-55500500D01*
X194089015Y-55500500D01*
X194325204Y-55500500D01*
X194558475Y-55463553D01*
X194577670Y-55457316D01*
X194783099Y-55390568D01*
X194993540Y-55283343D01*
X195184617Y-55144517D01*
X195351624Y-54977510D01*
X195490450Y-54786433D01*
X195597675Y-54575992D01*
X195670660Y-54351368D01*
X195674915Y-54324502D01*
X195707607Y-54118097D01*
X195707607Y-53881902D01*
X195670660Y-53648631D01*
X195608334Y-53456814D01*
X195597675Y-53424008D01*
X195597673Y-53424005D01*
X195597673Y-53424003D01*
X195541109Y-53312991D01*
X195490450Y-53213567D01*
X195351624Y-53022490D01*
X195184617Y-52855483D01*
X194993540Y-52716657D01*
X194783103Y-52609433D01*
X194558475Y-52536446D01*
X194325204Y-52499500D01*
X194325199Y-52499500D01*
X194089015Y-52499500D01*
X194089010Y-52499500D01*
X193855738Y-52536446D01*
X193631110Y-52609433D01*
X193420673Y-52716657D01*
X193311657Y-52795862D01*
X193229597Y-52855483D01*
X193229595Y-52855485D01*
X193229594Y-52855485D01*
X193062592Y-53022487D01*
X193062592Y-53022488D01*
X193062590Y-53022490D01*
X193026904Y-53071608D01*
X192923764Y-53213566D01*
X192816540Y-53424003D01*
X192743553Y-53648631D01*
X192706607Y-53881902D01*
X149494039Y-53881902D01*
X149516392Y-53843186D01*
X149550500Y-53715892D01*
X149550500Y-53584108D01*
X149516392Y-53456814D01*
X149450500Y-53342686D01*
X149357314Y-53249500D01*
X149277451Y-53203391D01*
X149243187Y-53183608D01*
X149242616Y-53183455D01*
X149115892Y-53149500D01*
X148984108Y-53149500D01*
X148856812Y-53183608D01*
X148742686Y-53249500D01*
X148742683Y-53249502D01*
X148649502Y-53342683D01*
X148649500Y-53342686D01*
X148583608Y-53456812D01*
X148549500Y-53584108D01*
X116442588Y-53584108D01*
X116401227Y-53456814D01*
X116390568Y-53424008D01*
X116390566Y-53424005D01*
X116390566Y-53424003D01*
X116334002Y-53312991D01*
X116283343Y-53213567D01*
X116180203Y-53071608D01*
X156449500Y-53071608D01*
X156449500Y-53203392D01*
X156461855Y-53249502D01*
X156483608Y-53330687D01*
X156490534Y-53342683D01*
X156549500Y-53444814D01*
X156642686Y-53538000D01*
X156756814Y-53603892D01*
X156884108Y-53638000D01*
X156884110Y-53638000D01*
X157015890Y-53638000D01*
X157015892Y-53638000D01*
X157143186Y-53603892D01*
X157257314Y-53538000D01*
X157350500Y-53444814D01*
X157416392Y-53330686D01*
X157450500Y-53203392D01*
X157450500Y-53071608D01*
X157416392Y-52944314D01*
X157350500Y-52830186D01*
X157257314Y-52737000D01*
X157200250Y-52704054D01*
X157143187Y-52671108D01*
X157079539Y-52654054D01*
X157015892Y-52637000D01*
X156884108Y-52637000D01*
X156756812Y-52671108D01*
X156642686Y-52737000D01*
X156642683Y-52737002D01*
X156549502Y-52830183D01*
X156549500Y-52830186D01*
X156483608Y-52944312D01*
X156462661Y-53022490D01*
X156449500Y-53071608D01*
X116180203Y-53071608D01*
X116144517Y-53022490D01*
X115977510Y-52855483D01*
X115786433Y-52716657D01*
X115575996Y-52609433D01*
X115351368Y-52536446D01*
X115118097Y-52499500D01*
X115118092Y-52499500D01*
X114881908Y-52499500D01*
X114881903Y-52499500D01*
X114648631Y-52536446D01*
X114424003Y-52609433D01*
X114213566Y-52716657D01*
X114104550Y-52795862D01*
X114022490Y-52855483D01*
X114022488Y-52855485D01*
X114022487Y-52855485D01*
X113855485Y-53022487D01*
X113855485Y-53022488D01*
X113855483Y-53022490D01*
X113819797Y-53071608D01*
X113716657Y-53213566D01*
X113609433Y-53424003D01*
X113536446Y-53648631D01*
X113499500Y-53881902D01*
X110550500Y-53881902D01*
X110550500Y-50234108D01*
X142399500Y-50234108D01*
X142399500Y-50365891D01*
X142433608Y-50493187D01*
X142454968Y-50530183D01*
X142499500Y-50607314D01*
X142592686Y-50700500D01*
X142706814Y-50766392D01*
X142834108Y-50800500D01*
X142834110Y-50800500D01*
X142965890Y-50800500D01*
X142965892Y-50800500D01*
X143073719Y-50771608D01*
X159849500Y-50771608D01*
X159849500Y-50903391D01*
X159883608Y-51030687D01*
X159903934Y-51065892D01*
X159949500Y-51144814D01*
X160042686Y-51238000D01*
X160156814Y-51303892D01*
X160284108Y-51338000D01*
X160284110Y-51338000D01*
X160415890Y-51338000D01*
X160415892Y-51338000D01*
X160543186Y-51303892D01*
X160657314Y-51238000D01*
X160661206Y-51234108D01*
X162349500Y-51234108D01*
X162349500Y-51365892D01*
X162349634Y-51366391D01*
X162383608Y-51493187D01*
X162416554Y-51550250D01*
X162449500Y-51607314D01*
X162542686Y-51700500D01*
X162656814Y-51766392D01*
X162784108Y-51800500D01*
X162784110Y-51800500D01*
X162915890Y-51800500D01*
X162915892Y-51800500D01*
X163043186Y-51766392D01*
X163157314Y-51700500D01*
X163250500Y-51607314D01*
X163316392Y-51493186D01*
X163329501Y-51444260D01*
X163365864Y-51384602D01*
X163428710Y-51354072D01*
X163498086Y-51362366D01*
X163502843Y-51364747D01*
X163506809Y-51366389D01*
X163506814Y-51366392D01*
X163634108Y-51400500D01*
X163634110Y-51400500D01*
X163765890Y-51400500D01*
X163765892Y-51400500D01*
X163893186Y-51366392D01*
X164007314Y-51300500D01*
X164100500Y-51207314D01*
X164166392Y-51093186D01*
X164200500Y-50965892D01*
X164200500Y-50834108D01*
X164173705Y-50734108D01*
X165699500Y-50734108D01*
X165699500Y-50865892D01*
X165709548Y-50903391D01*
X165733608Y-50993187D01*
X165756200Y-51032316D01*
X165799500Y-51107314D01*
X165892686Y-51200500D01*
X166006814Y-51266392D01*
X166134108Y-51300500D01*
X166134110Y-51300500D01*
X166265890Y-51300500D01*
X166265892Y-51300500D01*
X166393186Y-51266392D01*
X166507314Y-51200500D01*
X166600500Y-51107314D01*
X166666392Y-50993186D01*
X166700500Y-50865892D01*
X166700500Y-50734108D01*
X166680404Y-50659108D01*
X167974500Y-50659108D01*
X167974500Y-50790892D01*
X167978766Y-50806812D01*
X168008608Y-50918187D01*
X168036151Y-50965892D01*
X168074500Y-51032314D01*
X168167686Y-51125500D01*
X168281814Y-51191392D01*
X168409108Y-51225500D01*
X168409110Y-51225500D01*
X168540890Y-51225500D01*
X168540892Y-51225500D01*
X168668186Y-51191392D01*
X168782314Y-51125500D01*
X168875500Y-51032314D01*
X168932199Y-50934108D01*
X171024500Y-50934108D01*
X171024500Y-51065892D01*
X171040472Y-51125500D01*
X171058608Y-51193187D01*
X171082234Y-51234108D01*
X171124500Y-51307314D01*
X171217686Y-51400500D01*
X171331814Y-51466392D01*
X171459108Y-51500500D01*
X171459110Y-51500500D01*
X171590890Y-51500500D01*
X171590892Y-51500500D01*
X171718186Y-51466392D01*
X171774103Y-51434108D01*
X185099500Y-51434108D01*
X185099500Y-51565892D01*
X185116554Y-51629539D01*
X185133608Y-51693187D01*
X185166554Y-51750250D01*
X185199500Y-51807314D01*
X185292686Y-51900500D01*
X185406814Y-51966392D01*
X185534108Y-52000500D01*
X185534110Y-52000500D01*
X185665890Y-52000500D01*
X185665892Y-52000500D01*
X185793186Y-51966392D01*
X185907314Y-51900500D01*
X186000500Y-51807314D01*
X186066392Y-51693186D01*
X186100500Y-51565892D01*
X186100500Y-51434108D01*
X186066392Y-51306814D01*
X186064704Y-51303891D01*
X186043054Y-51266392D01*
X186000500Y-51192686D01*
X185907314Y-51099500D01*
X185849100Y-51065890D01*
X185793187Y-51033608D01*
X185729539Y-51016554D01*
X185665892Y-50999500D01*
X185534108Y-50999500D01*
X185406812Y-51033608D01*
X185292686Y-51099500D01*
X185292683Y-51099502D01*
X185199502Y-51192683D01*
X185199500Y-51192686D01*
X185133608Y-51306812D01*
X185117644Y-51366392D01*
X185099500Y-51434108D01*
X171774103Y-51434108D01*
X171832314Y-51400500D01*
X171925500Y-51307314D01*
X171991392Y-51193186D01*
X172025500Y-51065892D01*
X172025500Y-50934108D01*
X171991392Y-50806814D01*
X171925500Y-50692686D01*
X171832314Y-50599500D01*
X171775250Y-50566554D01*
X171718187Y-50533608D01*
X171654539Y-50516554D01*
X171590892Y-50499500D01*
X171459108Y-50499500D01*
X171331812Y-50533608D01*
X171217686Y-50599500D01*
X171217683Y-50599502D01*
X171124502Y-50692683D01*
X171124500Y-50692686D01*
X171058608Y-50806812D01*
X171032730Y-50903392D01*
X171024500Y-50934108D01*
X168932199Y-50934108D01*
X168941392Y-50918186D01*
X168975500Y-50790892D01*
X168975500Y-50659108D01*
X168941392Y-50531814D01*
X168875500Y-50417686D01*
X168782314Y-50324500D01*
X168725250Y-50291554D01*
X168668187Y-50258608D01*
X168576757Y-50234110D01*
X168540892Y-50224500D01*
X168409108Y-50224500D01*
X168281812Y-50258608D01*
X168167686Y-50324500D01*
X168167683Y-50324502D01*
X168074502Y-50417683D01*
X168074500Y-50417686D01*
X168008608Y-50531812D01*
X167978464Y-50644314D01*
X167974500Y-50659108D01*
X166680404Y-50659108D01*
X166666392Y-50606814D01*
X166600500Y-50492686D01*
X166507314Y-50399500D01*
X166449100Y-50365890D01*
X166393187Y-50333608D01*
X166329539Y-50316554D01*
X166265892Y-50299500D01*
X166134108Y-50299500D01*
X166006812Y-50333608D01*
X165892686Y-50399500D01*
X165892683Y-50399502D01*
X165799502Y-50492683D01*
X165799500Y-50492686D01*
X165733608Y-50606812D01*
X165723560Y-50644314D01*
X165699500Y-50734108D01*
X164173705Y-50734108D01*
X164166392Y-50706814D01*
X164100500Y-50592686D01*
X164007314Y-50499500D01*
X163899065Y-50437002D01*
X163893187Y-50433608D01*
X163829539Y-50416554D01*
X163765892Y-50399500D01*
X163634108Y-50399500D01*
X163506812Y-50433608D01*
X163392686Y-50499500D01*
X163392683Y-50499502D01*
X163299502Y-50592683D01*
X163299500Y-50592686D01*
X163233608Y-50706812D01*
X163220499Y-50755738D01*
X163184133Y-50815399D01*
X163121286Y-50845927D01*
X163051911Y-50837632D01*
X163047156Y-50835252D01*
X163043188Y-50833609D01*
X163043187Y-50833608D01*
X163043186Y-50833608D01*
X162915892Y-50799500D01*
X162784108Y-50799500D01*
X162656812Y-50833608D01*
X162542686Y-50899500D01*
X162542683Y-50899502D01*
X162449502Y-50992683D01*
X162449500Y-50992686D01*
X162383608Y-51106812D01*
X162358506Y-51200497D01*
X162349500Y-51234108D01*
X160661206Y-51234108D01*
X160750500Y-51144814D01*
X160816392Y-51030686D01*
X160850500Y-50903392D01*
X160850500Y-50771608D01*
X160816392Y-50644314D01*
X160750500Y-50530186D01*
X160657314Y-50437000D01*
X160592362Y-50399500D01*
X160543187Y-50371108D01*
X160479539Y-50354054D01*
X160415892Y-50337000D01*
X160284108Y-50337000D01*
X160156812Y-50371108D01*
X160042686Y-50437000D01*
X160042683Y-50437002D01*
X159949502Y-50530183D01*
X159949500Y-50530186D01*
X159883608Y-50644312D01*
X159849500Y-50771608D01*
X143073719Y-50771608D01*
X143093186Y-50766392D01*
X143207314Y-50700500D01*
X143300500Y-50607314D01*
X143366392Y-50493186D01*
X143400500Y-50365892D01*
X143400500Y-50234108D01*
X143366392Y-50106814D01*
X143300500Y-49992686D01*
X143207314Y-49899500D01*
X143150250Y-49866554D01*
X143093187Y-49833608D01*
X143029539Y-49816554D01*
X142965892Y-49799500D01*
X142834108Y-49799500D01*
X142706812Y-49833608D01*
X142592686Y-49899500D01*
X142592683Y-49899502D01*
X142499502Y-49992683D01*
X142499500Y-49992686D01*
X142433608Y-50106812D01*
X142399500Y-50234108D01*
X110550500Y-50234108D01*
X110550500Y-50006961D01*
X110551280Y-49993077D01*
X110551324Y-49992683D01*
X110561459Y-49902731D01*
X110567635Y-49875670D01*
X110595353Y-49796456D01*
X110607396Y-49771450D01*
X110652046Y-49700389D01*
X110669351Y-49678690D01*
X110728690Y-49619351D01*
X110750389Y-49602046D01*
X110821450Y-49557396D01*
X110846456Y-49545353D01*
X110925670Y-49517635D01*
X110952733Y-49511459D01*
X111015419Y-49504396D01*
X111043079Y-49501280D01*
X111056962Y-49500500D01*
X167107317Y-49500500D01*
X167107318Y-49500500D01*
X167289612Y-49474290D01*
X167319764Y-49469955D01*
X167319765Y-49469954D01*
X167319769Y-49469954D01*
X167525710Y-49409484D01*
X167525713Y-49409482D01*
X167525715Y-49409482D01*
X167720938Y-49320327D01*
X167720944Y-49320323D01*
X167720950Y-49320321D01*
X167901513Y-49204281D01*
X168063724Y-49063724D01*
X168204281Y-48901513D01*
X168320321Y-48720950D01*
X168320323Y-48720944D01*
X168320327Y-48720938D01*
X168409482Y-48525715D01*
X168409482Y-48525713D01*
X168409484Y-48525710D01*
X168469954Y-48319769D01*
X168500500Y-48107318D01*
X168500639Y-48106353D01*
X168529664Y-48042797D01*
X168588442Y-48005023D01*
X168623377Y-48000000D01*
X188376623Y-48000000D01*
X188443662Y-48019685D01*
G37*
%TD.AperFunction*%
%TD*%
M02*
