%TF.GenerationSoftware,KiCad,Pcbnew,9.0.0*%
%TF.CreationDate,2025-05-12T22:40:26+02:00*%
%TF.ProjectId,ESP32_PeterDalmaris_Board,45535033-325f-4506-9574-657244616c6d,rev?*%
%TF.SameCoordinates,Original*%
%TF.FileFunction,Copper,L4,Bot*%
%TF.FilePolarity,Positive*%
%FSLAX46Y46*%
G04 Gerber Fmt 4.6, Leading zero omitted, Abs format (unit mm)*
G04 Created by KiCad (PCBNEW 9.0.0) date 2025-05-12 22:40:26*
%MOMM*%
%LPD*%
G01*
G04 APERTURE LIST*
%TA.AperFunction,ComponentPad*%
%ADD10C,1.208000*%
%TD*%
%TA.AperFunction,ComponentPad*%
%ADD11R,1.700000X1.700000*%
%TD*%
%TA.AperFunction,ComponentPad*%
%ADD12O,1.700000X1.700000*%
%TD*%
%TA.AperFunction,ComponentPad*%
%ADD13C,0.650000*%
%TD*%
%TA.AperFunction,ComponentPad*%
%ADD14O,1.050000X2.100000*%
%TD*%
%TA.AperFunction,ComponentPad*%
%ADD15C,0.400000*%
%TD*%
%TA.AperFunction,ViaPad*%
%ADD16C,0.600000*%
%TD*%
%TA.AperFunction,Conductor*%
%ADD17C,0.250000*%
%TD*%
%TA.AperFunction,Conductor*%
%ADD18C,0.254000*%
%TD*%
%TA.AperFunction,Conductor*%
%ADD19C,0.200000*%
%TD*%
%TA.AperFunction,Conductor*%
%ADD20C,0.300000*%
%TD*%
G04 APERTURE END LIST*
D10*
%TO.P,MK1,GND*%
%TO.N,GND*%
X121800000Y-67000000D03*
%TO.P,MK1,OUT*%
%TO.N,Net-(C18-Pad1)*%
X123700000Y-67000000D03*
%TD*%
D11*
%TO.P,J5,1,Pin_1*%
%TO.N,+3.3V*%
X196600000Y-73500000D03*
D12*
%TO.P,J5,2,Pin_2*%
%TO.N,/ESP32/GPIO8*%
X196600000Y-76040000D03*
%TO.P,J5,3,Pin_3*%
%TO.N,/ESP32/GPIO18*%
X196600000Y-78580000D03*
%TO.P,J5,4,Pin_4*%
%TO.N,/ESP32/GPIO19*%
X196600000Y-81120000D03*
%TO.P,J5,5,Pin_5*%
%TO.N,GND*%
X196600000Y-83660000D03*
%TD*%
D13*
%TO.P,J1,B1,GNDB1*%
%TO.N,GND*%
X152200000Y-96709500D03*
%TO.P,J1,B2,SSTXP2*%
%TO.N,unconnected-(J1-SSTXP2-PadB2)*%
X151800000Y-97419500D03*
%TO.P,J1,B3,SSTXN2*%
%TO.N,unconnected-(J1-SSTXN2-PadB3)*%
X151000000Y-97419500D03*
%TO.P,J1,B4,VBUSB1*%
%TO.N,/VBUS*%
X150600000Y-96709500D03*
%TO.P,J1,B5,CC2*%
%TO.N,Net-(J1-CC2)*%
X150200000Y-97419500D03*
%TO.P,J1,B6,DP2*%
%TO.N,/USB_DP*%
X149800000Y-96709500D03*
%TO.P,J1,B7,DN2*%
%TO.N,/USB_DN*%
X149000000Y-96709500D03*
%TO.P,J1,B8,SBU2*%
%TO.N,unconnected-(J1-SBU2-PadB8)*%
X148600000Y-97419500D03*
%TO.P,J1,B9,VBUSB2*%
%TO.N,/VBUS*%
X148200000Y-96709500D03*
%TO.P,J1,B10,SSRXN1*%
%TO.N,unconnected-(J1-SSRXN1-PadB10)*%
X147800000Y-97419500D03*
%TO.P,J1,B11,SSRXP1*%
%TO.N,unconnected-(J1-SSRXP1-PadB11)*%
X147000000Y-97419500D03*
%TO.P,J1,B12,GNDB2*%
%TO.N,GND*%
X146600000Y-96709500D03*
%TO.P,J1,G1,GND/SHIELD*%
X151400000Y-96709500D03*
%TO.P,J1,G2,GND/SHIELD*%
X147400000Y-96709500D03*
D14*
%TO.P,J1,S1,GND/SHIELD*%
X145130000Y-97859500D03*
%TO.P,J1,S2,GND/SHIELD*%
X153670000Y-97859500D03*
%TO.P,J1,S3,GND/SHIELD*%
X145130000Y-102589500D03*
%TO.P,J1,S4,GND/SHIELD*%
X153670000Y-102589500D03*
%TD*%
D15*
%TO.P,U2,28,GND*%
%TO.N,GND*%
X178910000Y-55100000D03*
%TO.P,U2,29,GND*%
X180010000Y-55100000D03*
%TO.P,U2,30,GND*%
X178360000Y-55650000D03*
%TO.P,U2,31,GND*%
X179460000Y-55650000D03*
%TO.P,U2,32,GND*%
X180560000Y-55650000D03*
%TO.P,U2,33,GND*%
X178910000Y-56200000D03*
%TO.P,U2,34,GND*%
X180010000Y-56200000D03*
%TO.P,U2,35,GND*%
X178360000Y-56750000D03*
%TO.P,U2,36,GND*%
X179460000Y-56750000D03*
%TO.P,U2,37,GND*%
X180560000Y-56750000D03*
%TO.P,U2,38,GND*%
X178910000Y-57300000D03*
%TO.P,U2,39,GND*%
X180010000Y-57300000D03*
%TD*%
D11*
%TO.P,J4,1,Pin_1*%
%TO.N,+3.3V*%
X196600000Y-61064000D03*
D12*
%TO.P,J4,2,Pin_2*%
%TO.N,/ESP32/SDA*%
X196600000Y-63604000D03*
%TO.P,J4,3,Pin_3*%
%TO.N,/ESP32/SCL*%
X196600000Y-66144000D03*
%TO.P,J4,4,Pin_4*%
%TO.N,GND*%
X196600000Y-68684000D03*
%TD*%
D16*
%TO.N,GND*%
X128775000Y-55650000D03*
X128750000Y-52675000D03*
X119225000Y-55700000D03*
X117987500Y-51337500D03*
%TO.N,/VBUS*%
X147275000Y-94100000D03*
X148200000Y-92075000D03*
X150375000Y-92350000D03*
X149400000Y-80550000D03*
X152000000Y-84000000D03*
X151500000Y-92300000D03*
X147100000Y-90325000D03*
X148150000Y-91150000D03*
%TO.N,GND*%
X154000000Y-92600000D03*
X122000000Y-85200000D03*
X145500000Y-82300000D03*
X178700000Y-75100000D03*
X185400000Y-79500000D03*
X194475000Y-70000000D03*
X127000000Y-90550000D03*
X160700000Y-82500000D03*
X196500000Y-86000000D03*
X144950000Y-84150000D03*
X121575000Y-68325000D03*
X124850000Y-85500000D03*
X137150000Y-63650000D03*
X146500000Y-58250000D03*
X170400000Y-79850000D03*
X135350000Y-87750000D03*
X140400000Y-65800000D03*
X140750000Y-102650000D03*
X154750000Y-97600000D03*
X132150000Y-82100000D03*
X117850000Y-80725000D03*
X133300000Y-68750000D03*
X144050000Y-98300000D03*
X146550000Y-51050000D03*
X122800000Y-95200000D03*
X130675000Y-88850000D03*
X168000000Y-62650000D03*
X131950000Y-70900000D03*
X159750000Y-96850000D03*
X148450000Y-78700000D03*
X152850000Y-70150000D03*
X128850000Y-69850000D03*
X137950000Y-50900000D03*
X152830250Y-94880250D03*
X148300000Y-76100000D03*
X160700000Y-105600000D03*
X151600000Y-79950000D03*
X169775000Y-63525000D03*
X191100000Y-106300000D03*
X168825000Y-63200000D03*
X149500000Y-76100000D03*
X149450000Y-56950000D03*
X144050000Y-102800000D03*
X134750000Y-59485000D03*
X167000000Y-67700000D03*
X119075000Y-60750000D03*
X152900000Y-89150000D03*
X129700000Y-82000000D03*
X151575000Y-53550000D03*
X154800000Y-102350000D03*
X129150000Y-87750000D03*
X168325000Y-61777000D03*
X146050000Y-95300000D03*
X150450000Y-73550000D03*
X165850000Y-79850000D03*
X166400000Y-53150000D03*
X157850000Y-102400000D03*
X128300000Y-90550000D03*
X149400000Y-101600000D03*
X156050000Y-81000000D03*
X151900000Y-85900000D03*
X148950000Y-82750000D03*
X131300000Y-99350000D03*
X134300000Y-88550000D03*
X163700000Y-54250000D03*
X119200000Y-81550000D03*
X148716656Y-54850000D03*
X127650000Y-90550000D03*
X123450000Y-98300000D03*
%TO.N,+5V*%
X124725000Y-93250000D03*
X125850000Y-93350000D03*
X124437500Y-92312500D03*
X140050000Y-87550000D03*
X142000000Y-87600000D03*
X144100000Y-89050000D03*
%TO.N,/VBAT*%
X119150000Y-84750000D03*
X124950000Y-88650000D03*
X124900000Y-86650000D03*
X126300000Y-87850000D03*
X117975000Y-85375000D03*
X116775000Y-85550000D03*
%TO.N,+3.3V*%
X151300000Y-78025000D03*
X148850000Y-55725000D03*
X195025000Y-58725000D03*
X146500000Y-54200000D03*
X168475000Y-50725000D03*
X140300673Y-58249327D03*
X171525000Y-51000000D03*
X156300000Y-73800000D03*
X156550000Y-58800000D03*
X137950000Y-80000000D03*
X137600000Y-78000000D03*
X162850000Y-51300000D03*
X164300000Y-67700000D03*
X158350000Y-89700000D03*
X151300000Y-77300000D03*
X128850000Y-67700000D03*
X137650000Y-74800000D03*
X136400000Y-80500000D03*
X141850000Y-79650000D03*
X149050000Y-53650000D03*
X156950000Y-53137500D03*
X136850000Y-67050000D03*
X166200000Y-50800000D03*
X184100000Y-75800000D03*
X174300000Y-75200000D03*
X163700000Y-50900000D03*
X146550000Y-55150000D03*
X153075000Y-54725000D03*
X137000000Y-65600000D03*
X138150000Y-85700000D03*
X155950000Y-76650000D03*
X160350000Y-50837500D03*
X152900000Y-68750000D03*
X194400000Y-72700000D03*
X137850000Y-65900000D03*
%TO.N,/ESP32/MIC_OUT*%
X144000000Y-69200000D03*
X162200000Y-60600000D03*
X174925000Y-59675000D03*
X168850000Y-64550000D03*
%TO.N,/ESP32/BOOT*%
X155150000Y-61350000D03*
X165100000Y-61300000D03*
%TO.N,/+5V_USB*%
X140750000Y-90850000D03*
X144100000Y-93425000D03*
X142525000Y-90525000D03*
X142950000Y-92775000D03*
X142425000Y-91750000D03*
X123900000Y-90550000D03*
X128250000Y-93850000D03*
X140800000Y-93700000D03*
X130025000Y-96400000D03*
X140750000Y-94650000D03*
X121850000Y-90200000D03*
%TO.N,/USB_DP*%
X148625000Y-93650000D03*
%TO.N,/USB_DN*%
X150132546Y-93613943D03*
%TO.N,/ESP32/SCL*%
X185675000Y-54500000D03*
X165850000Y-56200000D03*
%TO.N,/ESP32/GPIO8*%
X190625000Y-72025000D03*
X189050000Y-70450000D03*
%TO.N,/ESP32/GPIO18*%
X191400000Y-65100000D03*
X192250000Y-77250000D03*
%TO.N,/ESP32/GPIO19*%
X193100000Y-64750000D03*
%TO.N,/ESP32/PHOTO_C*%
X185600000Y-51500000D03*
X142900000Y-50300000D03*
%TO.N,/ESP32/MISO*%
X176200000Y-64025000D03*
X169275000Y-70925000D03*
%TO.N,/ESP32/CS*%
X160000000Y-74200000D03*
X181100000Y-64500000D03*
%TO.N,/ESP32/TXD*%
X184800000Y-59000000D03*
X145200000Y-71200000D03*
%TO.N,/ESP32/RXD*%
X184800000Y-60600000D03*
X145900000Y-72200000D03*
%TD*%
D17*
%TO.N,/ESP32/GPIO18*%
X191400000Y-76400000D02*
X191400000Y-65100000D01*
X192250000Y-77250000D02*
X191400000Y-76400000D01*
%TO.N,/ESP32/GPIO19*%
X193100000Y-64750000D02*
X193100000Y-77620000D01*
X193100000Y-77620000D02*
X196600000Y-81120000D01*
%TO.N,/ESP32/MIC_OUT*%
X144300000Y-69200000D02*
X152900000Y-60600000D01*
D18*
X169825000Y-64525000D02*
X174675000Y-59675000D01*
D17*
X152900000Y-60600000D02*
X162200000Y-60600000D01*
X144000000Y-69200000D02*
X144300000Y-69200000D01*
D18*
X168875000Y-64525000D02*
X169825000Y-64525000D01*
X168850000Y-64550000D02*
X168875000Y-64525000D01*
X174675000Y-59675000D02*
X174925000Y-59675000D01*
D17*
%TO.N,/ESP32/BOOT*%
X155200000Y-61300000D02*
X155150000Y-61350000D01*
X165100000Y-61300000D02*
X155200000Y-61300000D01*
D19*
%TO.N,/USB_DP*%
X148533724Y-93608724D02*
X148525000Y-93600000D01*
X149800000Y-96709500D02*
X149800000Y-95350000D01*
X149800000Y-95350000D02*
X148625000Y-94175000D01*
X148625000Y-94175000D02*
X148625000Y-93650000D01*
D20*
%TO.N,/ESP32/SCL*%
X185675000Y-54500000D02*
X183400000Y-54500000D01*
X183400000Y-54500000D02*
X182075000Y-53175000D01*
X173550000Y-56200000D02*
X165850000Y-56200000D01*
X182075000Y-53175000D02*
X176575000Y-53175000D01*
X176575000Y-53175000D02*
X173550000Y-56200000D01*
D17*
%TO.N,/ESP32/GPIO8*%
X190625000Y-72025000D02*
X189050000Y-70450000D01*
%TO.N,/ESP32/PHOTO_C*%
X172800000Y-50100000D02*
X143100000Y-50100000D01*
X185600000Y-51500000D02*
X174200000Y-51500000D01*
X143100000Y-50100000D02*
X142900000Y-50300000D01*
X174200000Y-51500000D02*
X172800000Y-50100000D01*
D20*
%TO.N,/ESP32/MISO*%
X176200000Y-64025000D02*
X175987000Y-64238000D01*
X175962000Y-64238000D02*
X169275000Y-70925000D01*
X175987000Y-64238000D02*
X175962000Y-64238000D01*
%TO.N,/ESP32/CS*%
X181100000Y-64500000D02*
X179500000Y-64500000D01*
X179500000Y-64500000D02*
X169800000Y-74200000D01*
X169800000Y-74200000D02*
X160000000Y-74200000D01*
D17*
%TO.N,/ESP32/TXD*%
X145200000Y-71200000D02*
X147000000Y-69400000D01*
X166900000Y-69400000D02*
X177275000Y-59025000D01*
X147000000Y-69400000D02*
X166900000Y-69400000D01*
X177275000Y-59025000D02*
X184775000Y-59025000D01*
D19*
X184775000Y-59025000D02*
X184800000Y-59000000D01*
D17*
%TO.N,/ESP32/RXD*%
X145900000Y-72200000D02*
X147000000Y-71100000D01*
X147000000Y-71100000D02*
X167000000Y-71100000D01*
X167000000Y-71100000D02*
X177500000Y-60600000D01*
X177500000Y-60600000D02*
X184800000Y-60600000D01*
%TD*%
M02*
