%TF.GenerationSoftware,KiCad,Pcbnew,9.0.0*%
%TF.CreationDate,2025-05-12T22:40:26+02:00*%
%TF.ProjectId,ESP32_PeterDalmaris_Board,45535033-325f-4506-9574-657244616c6d,rev?*%
%TF.SameCoordinates,Original*%
%TF.FileFunction,Copper,L3,Inr*%
%TF.FilePolarity,Positive*%
%FSLAX46Y46*%
G04 Gerber Fmt 4.6, Leading zero omitted, Abs format (unit mm)*
G04 Created by KiCad (PCBNEW 9.0.0) date 2025-05-12 22:40:26*
%MOMM*%
%LPD*%
G01*
G04 APERTURE LIST*
%TA.AperFunction,ComponentPad*%
%ADD10C,1.208000*%
%TD*%
%TA.AperFunction,ComponentPad*%
%ADD11R,1.700000X1.700000*%
%TD*%
%TA.AperFunction,ComponentPad*%
%ADD12O,1.700000X1.700000*%
%TD*%
%TA.AperFunction,ComponentPad*%
%ADD13C,0.650000*%
%TD*%
%TA.AperFunction,ComponentPad*%
%ADD14O,1.050000X2.100000*%
%TD*%
%TA.AperFunction,ComponentPad*%
%ADD15C,0.400000*%
%TD*%
%TA.AperFunction,ViaPad*%
%ADD16C,0.600000*%
%TD*%
%TA.AperFunction,Conductor*%
%ADD17C,0.200000*%
%TD*%
G04 APERTURE END LIST*
D10*
%TO.N,GND*%
%TO.C,MK1*%
X121800000Y-67000000D03*
%TO.N,Net-(C18-Pad1)*%
X123700000Y-67000000D03*
%TD*%
D11*
%TO.N,+3.3V*%
%TO.C,J5*%
X196600000Y-73500000D03*
D12*
%TO.N,/ESP32/GPIO8*%
X196600000Y-76040000D03*
%TO.N,/ESP32/GPIO18*%
X196600000Y-78580000D03*
%TO.N,/ESP32/GPIO19*%
X196600000Y-81120000D03*
%TO.N,GND*%
X196600000Y-83660000D03*
%TD*%
D13*
%TO.N,GND*%
%TO.C,J1*%
X152200000Y-96709500D03*
%TO.N,unconnected-(J1-SSTXP2-PadB2)*%
X151800000Y-97419500D03*
%TO.N,unconnected-(J1-SSTXN2-PadB3)*%
X151000000Y-97419500D03*
%TO.N,/VBUS*%
X150600000Y-96709500D03*
%TO.N,Net-(J1-CC2)*%
X150200000Y-97419500D03*
%TO.N,/USB_DP*%
X149800000Y-96709500D03*
%TO.N,/USB_DN*%
X149000000Y-96709500D03*
%TO.N,unconnected-(J1-SBU2-PadB8)*%
X148600000Y-97419500D03*
%TO.N,/VBUS*%
X148200000Y-96709500D03*
%TO.N,unconnected-(J1-SSRXN1-PadB10)*%
X147800000Y-97419500D03*
%TO.N,unconnected-(J1-SSRXP1-PadB11)*%
X147000000Y-97419500D03*
%TO.N,GND*%
X146600000Y-96709500D03*
X151400000Y-96709500D03*
X147400000Y-96709500D03*
D14*
X145130000Y-97859500D03*
X153670000Y-97859500D03*
X145130000Y-102589500D03*
X153670000Y-102589500D03*
%TD*%
D15*
%TO.N,GND*%
%TO.C,U2*%
X178910000Y-55100000D03*
X180010000Y-55100000D03*
X178360000Y-55650000D03*
X179460000Y-55650000D03*
X180560000Y-55650000D03*
X178910000Y-56200000D03*
X180010000Y-56200000D03*
X178360000Y-56750000D03*
X179460000Y-56750000D03*
X180560000Y-56750000D03*
X178910000Y-57300000D03*
X180010000Y-57300000D03*
%TD*%
D11*
%TO.N,+3.3V*%
%TO.C,J4*%
X196600000Y-61064000D03*
D12*
%TO.N,/ESP32/SDA*%
X196600000Y-63604000D03*
%TO.N,/ESP32/SCL*%
X196600000Y-66144000D03*
%TO.N,GND*%
X196600000Y-68684000D03*
%TD*%
D16*
%TO.N,GND*%
X128775000Y-55650000D03*
X128750000Y-52675000D03*
X119225000Y-55700000D03*
X117987500Y-51337500D03*
%TO.N,/VBUS*%
X147275000Y-94100000D03*
X148200000Y-92075000D03*
X150375000Y-92350000D03*
X149400000Y-80550000D03*
X152000000Y-84000000D03*
X151500000Y-92300000D03*
X147100000Y-90325000D03*
X148150000Y-91150000D03*
%TO.N,GND*%
X154000000Y-92600000D03*
X122000000Y-85200000D03*
X145500000Y-82300000D03*
X178700000Y-75100000D03*
X185400000Y-79500000D03*
X194475000Y-70000000D03*
X127000000Y-90550000D03*
X160700000Y-82500000D03*
X196500000Y-86000000D03*
X144950000Y-84150000D03*
X121575000Y-68325000D03*
X124850000Y-85500000D03*
X137150000Y-63650000D03*
X146500000Y-58250000D03*
X170400000Y-79850000D03*
X135350000Y-87750000D03*
X140400000Y-65800000D03*
X140750000Y-102650000D03*
X154750000Y-97600000D03*
X132150000Y-82100000D03*
X117850000Y-80725000D03*
X133300000Y-68750000D03*
X144050000Y-98300000D03*
X146550000Y-51050000D03*
X122800000Y-95200000D03*
X130675000Y-88850000D03*
X168000000Y-62650000D03*
X131950000Y-70900000D03*
X159750000Y-96850000D03*
X148450000Y-78700000D03*
X152850000Y-70150000D03*
X128850000Y-69850000D03*
X137950000Y-50900000D03*
X152830250Y-94880250D03*
X148300000Y-76100000D03*
X160700000Y-105600000D03*
X151600000Y-79950000D03*
X169775000Y-63525000D03*
X191100000Y-106300000D03*
X168825000Y-63200000D03*
X149500000Y-76100000D03*
X149450000Y-56950000D03*
X144050000Y-102800000D03*
X134750000Y-59485000D03*
X167000000Y-67700000D03*
X119075000Y-60750000D03*
X152900000Y-89150000D03*
X129700000Y-82000000D03*
X151575000Y-53550000D03*
X154800000Y-102350000D03*
X129150000Y-87750000D03*
X168325000Y-61777000D03*
X146050000Y-95300000D03*
X150450000Y-73550000D03*
X165850000Y-79850000D03*
X166400000Y-53150000D03*
X157850000Y-102400000D03*
X128300000Y-90550000D03*
X149400000Y-101600000D03*
X156050000Y-81000000D03*
X151900000Y-85900000D03*
X148950000Y-82750000D03*
X131300000Y-99350000D03*
X134300000Y-88550000D03*
X163700000Y-54250000D03*
X119200000Y-81550000D03*
X148716656Y-54850000D03*
X127650000Y-90550000D03*
X123450000Y-98300000D03*
%TO.N,+5V*%
X124725000Y-93250000D03*
X125850000Y-93350000D03*
X124437500Y-92312500D03*
X140050000Y-87550000D03*
X142000000Y-87600000D03*
X144100000Y-89050000D03*
%TO.N,/VBAT*%
X119150000Y-84750000D03*
X124950000Y-88650000D03*
X124900000Y-86650000D03*
X126300000Y-87850000D03*
X117975000Y-85375000D03*
X116775000Y-85550000D03*
%TO.N,+3.3V*%
X151300000Y-78025000D03*
X148850000Y-55725000D03*
X195025000Y-58725000D03*
X146500000Y-54200000D03*
X168475000Y-50725000D03*
X140300673Y-58249327D03*
X171525000Y-51000000D03*
X156300000Y-73800000D03*
X156550000Y-58800000D03*
X137950000Y-80000000D03*
X137600000Y-78000000D03*
X162850000Y-51300000D03*
X164300000Y-67700000D03*
X158350000Y-89700000D03*
X151300000Y-77300000D03*
X128850000Y-67700000D03*
X137650000Y-74800000D03*
X136400000Y-80500000D03*
X141850000Y-79650000D03*
X149050000Y-53650000D03*
X156950000Y-53137500D03*
X136850000Y-67050000D03*
X166200000Y-50800000D03*
X184100000Y-75800000D03*
X174300000Y-75200000D03*
X163700000Y-50900000D03*
X146550000Y-55150000D03*
X153075000Y-54725000D03*
X137000000Y-65600000D03*
X138150000Y-85700000D03*
X155950000Y-76650000D03*
X160350000Y-50837500D03*
X152900000Y-68750000D03*
X194400000Y-72700000D03*
X137850000Y-65900000D03*
%TO.N,/ESP32/MIC_OUT*%
X144000000Y-69200000D03*
X162200000Y-60600000D03*
X174925000Y-59675000D03*
X168850000Y-64550000D03*
%TO.N,/ESP32/BOOT*%
X155150000Y-61350000D03*
X165100000Y-61300000D03*
%TO.N,/+5V_USB*%
X140750000Y-90850000D03*
X144100000Y-93425000D03*
X142525000Y-90525000D03*
X142950000Y-92775000D03*
X142425000Y-91750000D03*
X123900000Y-90550000D03*
X128250000Y-93850000D03*
X140800000Y-93700000D03*
X130025000Y-96400000D03*
X140750000Y-94650000D03*
X121850000Y-90200000D03*
%TO.N,/USB_DP*%
X148625000Y-93650000D03*
%TO.N,/USB_DN*%
X150132546Y-93613943D03*
%TO.N,/ESP32/SCL*%
X185675000Y-54500000D03*
X165850000Y-56200000D03*
%TO.N,/ESP32/GPIO8*%
X190625000Y-72025000D03*
X189050000Y-70450000D03*
%TO.N,/ESP32/GPIO18*%
X191400000Y-65100000D03*
X192250000Y-77250000D03*
%TO.N,/ESP32/GPIO19*%
X193100000Y-64750000D03*
%TO.N,/ESP32/PHOTO_C*%
X185600000Y-51500000D03*
X142900000Y-50300000D03*
%TO.N,/ESP32/MISO*%
X176200000Y-64025000D03*
X169275000Y-70925000D03*
%TO.N,/ESP32/CS*%
X160000000Y-74200000D03*
X181100000Y-64500000D03*
%TO.N,/ESP32/TXD*%
X184800000Y-59000000D03*
X145200000Y-71200000D03*
%TO.N,/ESP32/RXD*%
X184800000Y-60600000D03*
X145900000Y-72200000D03*
%TD*%
D17*
%TO.N,/USB_DN*%
X149000000Y-95300000D02*
X149000000Y-96709500D01*
X150151444Y-93950000D02*
X150151444Y-94148556D01*
X150151444Y-93632841D02*
X150132546Y-93613943D01*
X150151444Y-94148556D02*
X149000000Y-95300000D01*
X150151444Y-93950000D02*
X150151444Y-93632841D01*
X150141270Y-93783733D02*
X150151444Y-93793907D01*
X150151444Y-93793907D02*
X150151444Y-93950000D01*
%TD*%
%TA.AperFunction,Conductor*%
%TO.N,+3.3V*%
G36*
X163540857Y-53774485D02*
G01*
X163506812Y-53783608D01*
X163392686Y-53849500D01*
X163392683Y-53849502D01*
X163299502Y-53942683D01*
X163299500Y-53942686D01*
X163233608Y-54056812D01*
X163217187Y-54118097D01*
X163199500Y-54184108D01*
X163199500Y-54315892D01*
X163200297Y-54318866D01*
X163233608Y-54443187D01*
X163243986Y-54461161D01*
X163299500Y-54557314D01*
X163392686Y-54650500D01*
X163506814Y-54716392D01*
X163634108Y-54750500D01*
X163634110Y-54750500D01*
X163765890Y-54750500D01*
X163765892Y-54750500D01*
X163893186Y-54716392D01*
X164007314Y-54650500D01*
X164007814Y-54650000D01*
X164963169Y-54650000D01*
X164851033Y-60796471D01*
X164830129Y-60863140D01*
X164798068Y-60893162D01*
X164799135Y-60894552D01*
X164792683Y-60899502D01*
X164699502Y-60992683D01*
X164699500Y-60992686D01*
X164633608Y-61106812D01*
X164599500Y-61234108D01*
X164599500Y-61365891D01*
X164633608Y-61493187D01*
X164662476Y-61543186D01*
X164699500Y-61607314D01*
X164699502Y-61607316D01*
X164796531Y-61704345D01*
X164830016Y-61765668D01*
X164832829Y-61794288D01*
X164650284Y-71800000D01*
X164650283Y-71800001D01*
X164650000Y-71800000D01*
X164444293Y-83084473D01*
X164331307Y-83062000D01*
X164331305Y-83062000D01*
X164168695Y-83062000D01*
X164168693Y-83062000D01*
X164009216Y-83093722D01*
X164009206Y-83093725D01*
X163858980Y-83155950D01*
X163858976Y-83155952D01*
X163723779Y-83246288D01*
X163723771Y-83246294D01*
X163608794Y-83361271D01*
X163608788Y-83361279D01*
X163518452Y-83496476D01*
X163518450Y-83496480D01*
X163456225Y-83646706D01*
X163456222Y-83646716D01*
X163424500Y-83806192D01*
X163424500Y-83806195D01*
X163424500Y-83968805D01*
X163424500Y-83968807D01*
X163424499Y-83968807D01*
X163456222Y-84128283D01*
X163456225Y-84128293D01*
X163518450Y-84278519D01*
X163518452Y-84278523D01*
X163608788Y-84413720D01*
X163608794Y-84413728D01*
X163723771Y-84528705D01*
X163723779Y-84528711D01*
X163858976Y-84619047D01*
X163858980Y-84619049D01*
X164009206Y-84681274D01*
X164009211Y-84681276D01*
X164009215Y-84681276D01*
X164009216Y-84681277D01*
X164168692Y-84713000D01*
X164168695Y-84713000D01*
X164331307Y-84713000D01*
X164414909Y-84696369D01*
X164300000Y-91000000D01*
X156124000Y-91000000D01*
X156056961Y-90980315D01*
X156011206Y-90927511D01*
X156000000Y-90876000D01*
X156000000Y-82434108D01*
X160199500Y-82434108D01*
X160199500Y-82565891D01*
X160233608Y-82693187D01*
X160243986Y-82711161D01*
X160299500Y-82807314D01*
X160392686Y-82900500D01*
X160506814Y-82966392D01*
X160634108Y-83000500D01*
X160634110Y-83000500D01*
X160765890Y-83000500D01*
X160765892Y-83000500D01*
X160893186Y-82966392D01*
X161007314Y-82900500D01*
X161100500Y-82807314D01*
X161166392Y-82693186D01*
X161200500Y-82565892D01*
X161200500Y-82434108D01*
X161166392Y-82306814D01*
X161100500Y-82192686D01*
X161007314Y-82099500D01*
X160922444Y-82050500D01*
X160893187Y-82033608D01*
X160828934Y-82016392D01*
X160765892Y-81999500D01*
X160634108Y-81999500D01*
X160506812Y-82033608D01*
X160392686Y-82099500D01*
X160392683Y-82099502D01*
X160299502Y-82192683D01*
X160299500Y-82192686D01*
X160233608Y-82306812D01*
X160199500Y-82434108D01*
X156000000Y-82434108D01*
X156000000Y-81624500D01*
X156019685Y-81557461D01*
X156072489Y-81511706D01*
X156108146Y-81503948D01*
X156107832Y-81501561D01*
X156115883Y-81500500D01*
X156115892Y-81500500D01*
X156243186Y-81466392D01*
X156357314Y-81400500D01*
X156450500Y-81307314D01*
X156516392Y-81193186D01*
X156550500Y-81065892D01*
X156550500Y-80934108D01*
X156516392Y-80806814D01*
X156450500Y-80692686D01*
X156357314Y-80599500D01*
X156300250Y-80566554D01*
X156243187Y-80533608D01*
X156179539Y-80516554D01*
X156115892Y-80499500D01*
X156115891Y-80499500D01*
X156107832Y-80498439D01*
X156108299Y-80494889D01*
X156056961Y-80479815D01*
X156011206Y-80427011D01*
X156000000Y-80375500D01*
X156000000Y-79000000D01*
X149049371Y-79000000D01*
X148982332Y-78980315D01*
X148936577Y-78927511D01*
X148926633Y-78858353D01*
X148929596Y-78843907D01*
X148950500Y-78765892D01*
X148950500Y-78634108D01*
X148916392Y-78506814D01*
X148850500Y-78392686D01*
X148757314Y-78299500D01*
X148699379Y-78266051D01*
X148643187Y-78233608D01*
X148575266Y-78215409D01*
X148515892Y-78199500D01*
X148384108Y-78199500D01*
X148256812Y-78233608D01*
X148142686Y-78299500D01*
X148142683Y-78299502D01*
X148049502Y-78392683D01*
X148049500Y-78392686D01*
X147983608Y-78506812D01*
X147949500Y-78634108D01*
X147949500Y-78765891D01*
X147970404Y-78843907D01*
X147968741Y-78913757D01*
X147929578Y-78971619D01*
X147865350Y-78999123D01*
X147850629Y-79000000D01*
X146496923Y-79000000D01*
X146500000Y-78800000D01*
X146426046Y-76034108D01*
X147799500Y-76034108D01*
X147799500Y-76165892D01*
X147809750Y-76204147D01*
X147833608Y-76293187D01*
X147866554Y-76350250D01*
X147899500Y-76407314D01*
X147992686Y-76500500D01*
X148106814Y-76566392D01*
X148234108Y-76600500D01*
X148234110Y-76600500D01*
X148365890Y-76600500D01*
X148365892Y-76600500D01*
X148493186Y-76566392D01*
X148607314Y-76500500D01*
X148700500Y-76407314D01*
X148766392Y-76293186D01*
X148780225Y-76241556D01*
X148816590Y-76181897D01*
X148879436Y-76151368D01*
X148948812Y-76159662D01*
X149002690Y-76204147D01*
X149019773Y-76241555D01*
X149029072Y-76276259D01*
X149033608Y-76293187D01*
X149066554Y-76350250D01*
X149099500Y-76407314D01*
X149192686Y-76500500D01*
X149306814Y-76566392D01*
X149434108Y-76600500D01*
X149434110Y-76600500D01*
X149565890Y-76600500D01*
X149565892Y-76600500D01*
X149693186Y-76566392D01*
X149807314Y-76500500D01*
X149900500Y-76407314D01*
X149966392Y-76293186D01*
X150000500Y-76165892D01*
X150000500Y-76034108D01*
X149966392Y-75906814D01*
X149900500Y-75792686D01*
X149807314Y-75699500D01*
X149750250Y-75666554D01*
X149693187Y-75633608D01*
X149629539Y-75616554D01*
X149565892Y-75599500D01*
X149434108Y-75599500D01*
X149306812Y-75633608D01*
X149192686Y-75699500D01*
X149192683Y-75699502D01*
X149099502Y-75792683D01*
X149099500Y-75792686D01*
X149033608Y-75906812D01*
X149019775Y-75958441D01*
X148983410Y-76018102D01*
X148920563Y-76048631D01*
X148851188Y-76040336D01*
X148797310Y-75995851D01*
X148780225Y-75958441D01*
X148766391Y-75906812D01*
X148757563Y-75891521D01*
X148700500Y-75792686D01*
X148607314Y-75699500D01*
X148550250Y-75666554D01*
X148493187Y-75633608D01*
X148429539Y-75616554D01*
X148365892Y-75599500D01*
X148234108Y-75599500D01*
X148106812Y-75633608D01*
X147992686Y-75699500D01*
X147992683Y-75699502D01*
X147899502Y-75792683D01*
X147899500Y-75792686D01*
X147833608Y-75906812D01*
X147809751Y-75995851D01*
X147799500Y-76034108D01*
X146426046Y-76034108D01*
X146375244Y-74134108D01*
X159499500Y-74134108D01*
X159499500Y-74265891D01*
X159533608Y-74393187D01*
X159566554Y-74450250D01*
X159599500Y-74507314D01*
X159692686Y-74600500D01*
X159806814Y-74666392D01*
X159934108Y-74700500D01*
X159934110Y-74700500D01*
X160065890Y-74700500D01*
X160065892Y-74700500D01*
X160193186Y-74666392D01*
X160307314Y-74600500D01*
X160400500Y-74507314D01*
X160466392Y-74393186D01*
X160500500Y-74265892D01*
X160500500Y-74134108D01*
X160466392Y-74006814D01*
X160400500Y-73892686D01*
X160307314Y-73799500D01*
X160250250Y-73766554D01*
X160193187Y-73733608D01*
X160129539Y-73716554D01*
X160065892Y-73699500D01*
X159934108Y-73699500D01*
X159806812Y-73733608D01*
X159692686Y-73799500D01*
X159692683Y-73799502D01*
X159599502Y-73892683D01*
X159599500Y-73892686D01*
X159533608Y-74006812D01*
X159499500Y-74134108D01*
X146375244Y-74134108D01*
X146357864Y-73484108D01*
X149949500Y-73484108D01*
X149949500Y-73615891D01*
X149983608Y-73743187D01*
X150016121Y-73799500D01*
X150049500Y-73857314D01*
X150142686Y-73950500D01*
X150240221Y-74006812D01*
X150256810Y-74016390D01*
X150256814Y-74016392D01*
X150384108Y-74050500D01*
X150384110Y-74050500D01*
X150515890Y-74050500D01*
X150515892Y-74050500D01*
X150643186Y-74016392D01*
X150757314Y-73950500D01*
X150850500Y-73857314D01*
X150916392Y-73743186D01*
X150950500Y-73615892D01*
X150950500Y-73484108D01*
X150916392Y-73356814D01*
X150850500Y-73242686D01*
X150757314Y-73149500D01*
X150700250Y-73116554D01*
X150643187Y-73083608D01*
X150579539Y-73066554D01*
X150515892Y-73049500D01*
X150384108Y-73049500D01*
X150256812Y-73083608D01*
X150142686Y-73149500D01*
X150142683Y-73149502D01*
X150049502Y-73242683D01*
X150049500Y-73242686D01*
X149983608Y-73356812D01*
X149949500Y-73484108D01*
X146357864Y-73484108D01*
X146330363Y-72455589D01*
X146366392Y-72393186D01*
X146400500Y-72265892D01*
X146400500Y-72134108D01*
X146366392Y-72006814D01*
X146316031Y-71919587D01*
X146266955Y-70084108D01*
X152349500Y-70084108D01*
X152349500Y-70215891D01*
X152383608Y-70343187D01*
X152406118Y-70382175D01*
X152449500Y-70457314D01*
X152542686Y-70550500D01*
X152656814Y-70616392D01*
X152784108Y-70650500D01*
X152784110Y-70650500D01*
X152915890Y-70650500D01*
X152915892Y-70650500D01*
X153043186Y-70616392D01*
X153157314Y-70550500D01*
X153250500Y-70457314D01*
X153316392Y-70343186D01*
X153350500Y-70215892D01*
X153350500Y-70084108D01*
X153316392Y-69956814D01*
X153250500Y-69842686D01*
X153157314Y-69749500D01*
X153072442Y-69700499D01*
X153043187Y-69683608D01*
X152943188Y-69656814D01*
X152915892Y-69649500D01*
X152784108Y-69649500D01*
X152656812Y-69683608D01*
X152542686Y-69749500D01*
X152542683Y-69749502D01*
X152449502Y-69842683D01*
X152449500Y-69842686D01*
X152383608Y-69956812D01*
X152349500Y-70084108D01*
X146266955Y-70084108D01*
X146250000Y-69450000D01*
X144440141Y-69438652D01*
X144466392Y-69393186D01*
X144500500Y-69265892D01*
X144500500Y-69134108D01*
X144466392Y-69006814D01*
X144400500Y-68892686D01*
X144307314Y-68799500D01*
X144250250Y-68766554D01*
X144193187Y-68733608D01*
X144129539Y-68716554D01*
X144065892Y-68699500D01*
X143934108Y-68699500D01*
X143806812Y-68733608D01*
X143692686Y-68799500D01*
X143692683Y-68799502D01*
X143599502Y-68892683D01*
X143599500Y-68892686D01*
X143533608Y-69006812D01*
X143499500Y-69134108D01*
X143499500Y-69265891D01*
X143533608Y-69393187D01*
X143556660Y-69433113D01*
X130300000Y-69350000D01*
X130432818Y-78487941D01*
X130140245Y-78485690D01*
X111123046Y-78339405D01*
X111056160Y-78319206D01*
X111010813Y-78266051D01*
X111000000Y-78215409D01*
X111000000Y-69784108D01*
X128349500Y-69784108D01*
X128349500Y-69915891D01*
X128383608Y-70043187D01*
X128416554Y-70100250D01*
X128449500Y-70157314D01*
X128542686Y-70250500D01*
X128656814Y-70316392D01*
X128784108Y-70350500D01*
X128784110Y-70350500D01*
X128915890Y-70350500D01*
X128915892Y-70350500D01*
X129043186Y-70316392D01*
X129157314Y-70250500D01*
X129250500Y-70157314D01*
X129316392Y-70043186D01*
X129350500Y-69915892D01*
X129350500Y-69784108D01*
X129316392Y-69656814D01*
X129250500Y-69542686D01*
X129157314Y-69449500D01*
X129100250Y-69416554D01*
X129043187Y-69383608D01*
X128979539Y-69366554D01*
X128915892Y-69349500D01*
X128784108Y-69349500D01*
X128656812Y-69383608D01*
X128542686Y-69449500D01*
X128542683Y-69449502D01*
X128449502Y-69542683D01*
X128449500Y-69542686D01*
X128383608Y-69656812D01*
X128349500Y-69784108D01*
X111000000Y-69784108D01*
X111000000Y-66920759D01*
X120995500Y-66920759D01*
X120995500Y-67079240D01*
X121026414Y-67234656D01*
X121026416Y-67234664D01*
X121087059Y-67381071D01*
X121087064Y-67381080D01*
X121175103Y-67512838D01*
X121175106Y-67512842D01*
X121287157Y-67624893D01*
X121287161Y-67624896D01*
X121352874Y-67668805D01*
X121397679Y-67722418D01*
X121406386Y-67791743D01*
X121376231Y-67854770D01*
X121345984Y-67879293D01*
X121267692Y-67924496D01*
X121267683Y-67924502D01*
X121174502Y-68017683D01*
X121174500Y-68017686D01*
X121108608Y-68131812D01*
X121074500Y-68259108D01*
X121074500Y-68390891D01*
X121108608Y-68518187D01*
X121130909Y-68556812D01*
X121174500Y-68632314D01*
X121267686Y-68725500D01*
X121381814Y-68791392D01*
X121509108Y-68825500D01*
X121509110Y-68825500D01*
X121640890Y-68825500D01*
X121640892Y-68825500D01*
X121768186Y-68791392D01*
X121882314Y-68725500D01*
X121923706Y-68684108D01*
X132799500Y-68684108D01*
X132799500Y-68815892D01*
X132816554Y-68879539D01*
X132833608Y-68943187D01*
X132866554Y-69000250D01*
X132899500Y-69057314D01*
X132992686Y-69150500D01*
X133106814Y-69216392D01*
X133234108Y-69250500D01*
X133234110Y-69250500D01*
X133365890Y-69250500D01*
X133365892Y-69250500D01*
X133493186Y-69216392D01*
X133607314Y-69150500D01*
X133700500Y-69057314D01*
X133766392Y-68943186D01*
X133800500Y-68815892D01*
X133800500Y-68684108D01*
X133766392Y-68556814D01*
X133700500Y-68442686D01*
X133607314Y-68349500D01*
X133550250Y-68316554D01*
X133493187Y-68283608D01*
X133401757Y-68259110D01*
X133365892Y-68249500D01*
X133234108Y-68249500D01*
X133106812Y-68283608D01*
X132992686Y-68349500D01*
X132992683Y-68349502D01*
X132899502Y-68442683D01*
X132899500Y-68442686D01*
X132833608Y-68556812D01*
X132813380Y-68632307D01*
X132799500Y-68684108D01*
X121923706Y-68684108D01*
X121975500Y-68632314D01*
X121976005Y-68631438D01*
X121986086Y-68613980D01*
X122041390Y-68518189D01*
X122041392Y-68518186D01*
X122075500Y-68390892D01*
X122075500Y-68259108D01*
X122041392Y-68131814D01*
X121975500Y-68017686D01*
X121945752Y-67987938D01*
X121912267Y-67926615D01*
X121917251Y-67856923D01*
X121959123Y-67800990D01*
X122009242Y-67778640D01*
X122034664Y-67773584D01*
X122181074Y-67712939D01*
X122312839Y-67624896D01*
X122424896Y-67512839D01*
X122512939Y-67381074D01*
X122573584Y-67234664D01*
X122604500Y-67079236D01*
X122604500Y-66920764D01*
X122604499Y-66920759D01*
X122895500Y-66920759D01*
X122895500Y-67079240D01*
X122926414Y-67234656D01*
X122926416Y-67234664D01*
X122987059Y-67381071D01*
X122987064Y-67381080D01*
X123075103Y-67512838D01*
X123075106Y-67512842D01*
X123187157Y-67624893D01*
X123187161Y-67624896D01*
X123318919Y-67712935D01*
X123318925Y-67712938D01*
X123318926Y-67712939D01*
X123465336Y-67773584D01*
X123603118Y-67800990D01*
X123620759Y-67804499D01*
X123620763Y-67804500D01*
X123620764Y-67804500D01*
X123779237Y-67804500D01*
X123779238Y-67804499D01*
X123934664Y-67773584D01*
X124081074Y-67712939D01*
X124212839Y-67624896D01*
X124324896Y-67512839D01*
X124412939Y-67381074D01*
X124473584Y-67234664D01*
X124504500Y-67079236D01*
X124504500Y-66920764D01*
X124473584Y-66765336D01*
X124412939Y-66618926D01*
X124412938Y-66618925D01*
X124412935Y-66618919D01*
X124324896Y-66487161D01*
X124324893Y-66487157D01*
X124212842Y-66375106D01*
X124212838Y-66375103D01*
X124081080Y-66287064D01*
X124081071Y-66287059D01*
X123934664Y-66226416D01*
X123934656Y-66226414D01*
X123779240Y-66195500D01*
X123779236Y-66195500D01*
X123620764Y-66195500D01*
X123620759Y-66195500D01*
X123465343Y-66226414D01*
X123465335Y-66226416D01*
X123318928Y-66287059D01*
X123318919Y-66287064D01*
X123187161Y-66375103D01*
X123187157Y-66375106D01*
X123075106Y-66487157D01*
X123075103Y-66487161D01*
X122987064Y-66618919D01*
X122987059Y-66618928D01*
X122926416Y-66765335D01*
X122926414Y-66765343D01*
X122895500Y-66920759D01*
X122604499Y-66920759D01*
X122573584Y-66765336D01*
X122512939Y-66618926D01*
X122512938Y-66618925D01*
X122512935Y-66618919D01*
X122424896Y-66487161D01*
X122424893Y-66487157D01*
X122312842Y-66375106D01*
X122312838Y-66375103D01*
X122181080Y-66287064D01*
X122181071Y-66287059D01*
X122034664Y-66226416D01*
X122034656Y-66226414D01*
X121879240Y-66195500D01*
X121879236Y-66195500D01*
X121720764Y-66195500D01*
X121720759Y-66195500D01*
X121565343Y-66226414D01*
X121565335Y-66226416D01*
X121418928Y-66287059D01*
X121418919Y-66287064D01*
X121287161Y-66375103D01*
X121287157Y-66375106D01*
X121175106Y-66487157D01*
X121175103Y-66487161D01*
X121087064Y-66618919D01*
X121087059Y-66618928D01*
X121026416Y-66765335D01*
X121026414Y-66765343D01*
X120995500Y-66920759D01*
X111000000Y-66920759D01*
X111000000Y-65734108D01*
X139899500Y-65734108D01*
X139899500Y-65865891D01*
X139933608Y-65993187D01*
X139966554Y-66050250D01*
X139999500Y-66107314D01*
X140092686Y-66200500D01*
X140206814Y-66266392D01*
X140334108Y-66300500D01*
X140334110Y-66300500D01*
X140465890Y-66300500D01*
X140465892Y-66300500D01*
X140593186Y-66266392D01*
X140707314Y-66200500D01*
X140800500Y-66107314D01*
X140866392Y-65993186D01*
X140900500Y-65865892D01*
X140900500Y-65734108D01*
X140866392Y-65606814D01*
X140800500Y-65492686D01*
X140707314Y-65399500D01*
X140650250Y-65366554D01*
X140593187Y-65333608D01*
X140529539Y-65316554D01*
X140465892Y-65299500D01*
X140334108Y-65299500D01*
X140206812Y-65333608D01*
X140092686Y-65399500D01*
X140092683Y-65399502D01*
X139999502Y-65492683D01*
X139999500Y-65492686D01*
X139933608Y-65606812D01*
X139899500Y-65734108D01*
X111000000Y-65734108D01*
X111000000Y-63584108D01*
X136649500Y-63584108D01*
X136649500Y-63715891D01*
X136683608Y-63843187D01*
X136716554Y-63900250D01*
X136749500Y-63957314D01*
X136842686Y-64050500D01*
X136956814Y-64116392D01*
X137084108Y-64150500D01*
X137084110Y-64150500D01*
X137215890Y-64150500D01*
X137215892Y-64150500D01*
X137343186Y-64116392D01*
X137457314Y-64050500D01*
X137550500Y-63957314D01*
X137616392Y-63843186D01*
X137650500Y-63715892D01*
X137650500Y-63584108D01*
X137616392Y-63456814D01*
X137550500Y-63342686D01*
X137457314Y-63249500D01*
X137400250Y-63216554D01*
X137343187Y-63183608D01*
X137279539Y-63166554D01*
X137215892Y-63149500D01*
X137084108Y-63149500D01*
X136956812Y-63183608D01*
X136842686Y-63249500D01*
X136842683Y-63249502D01*
X136749502Y-63342683D01*
X136749500Y-63342686D01*
X136683608Y-63456812D01*
X136649500Y-63584108D01*
X111000000Y-63584108D01*
X111000000Y-61284108D01*
X154649500Y-61284108D01*
X154649500Y-61415891D01*
X154683608Y-61543187D01*
X154716554Y-61600250D01*
X154749500Y-61657314D01*
X154842686Y-61750500D01*
X154956814Y-61816392D01*
X155084108Y-61850500D01*
X155084110Y-61850500D01*
X155215890Y-61850500D01*
X155215892Y-61850500D01*
X155343186Y-61816392D01*
X155457314Y-61750500D01*
X155550500Y-61657314D01*
X155616392Y-61543186D01*
X155650500Y-61415892D01*
X155650500Y-61284108D01*
X155616392Y-61156814D01*
X155550500Y-61042686D01*
X155457314Y-60949500D01*
X155400250Y-60916554D01*
X155343187Y-60883608D01*
X155279539Y-60866554D01*
X155215892Y-60849500D01*
X155084108Y-60849500D01*
X154956812Y-60883608D01*
X154842686Y-60949500D01*
X154842683Y-60949502D01*
X154749502Y-61042683D01*
X154749500Y-61042686D01*
X154683608Y-61156812D01*
X154649500Y-61284108D01*
X111000000Y-61284108D01*
X111000000Y-60684108D01*
X118574500Y-60684108D01*
X118574500Y-60815892D01*
X118583505Y-60849500D01*
X118608608Y-60943187D01*
X118637185Y-60992683D01*
X118674500Y-61057314D01*
X118767686Y-61150500D01*
X118866521Y-61207563D01*
X118881810Y-61216390D01*
X118881814Y-61216392D01*
X119009108Y-61250500D01*
X119009110Y-61250500D01*
X119140890Y-61250500D01*
X119140892Y-61250500D01*
X119268186Y-61216392D01*
X119382314Y-61150500D01*
X119475500Y-61057314D01*
X119541392Y-60943186D01*
X119575500Y-60815892D01*
X119575500Y-60684108D01*
X119541392Y-60556814D01*
X119528283Y-60534108D01*
X161699500Y-60534108D01*
X161699500Y-60665892D01*
X161712354Y-60713865D01*
X161733608Y-60793187D01*
X161746717Y-60815892D01*
X161799500Y-60907314D01*
X161892686Y-61000500D01*
X162006814Y-61066392D01*
X162134108Y-61100500D01*
X162134110Y-61100500D01*
X162265890Y-61100500D01*
X162265892Y-61100500D01*
X162393186Y-61066392D01*
X162507314Y-61000500D01*
X162600500Y-60907314D01*
X162666392Y-60793186D01*
X162700500Y-60665892D01*
X162700500Y-60534108D01*
X162666392Y-60406814D01*
X162600500Y-60292686D01*
X162507314Y-60199500D01*
X162450250Y-60166554D01*
X162393187Y-60133608D01*
X162329539Y-60116554D01*
X162265892Y-60099500D01*
X162134108Y-60099500D01*
X162006812Y-60133608D01*
X161892686Y-60199500D01*
X161892683Y-60199502D01*
X161799502Y-60292683D01*
X161799500Y-60292686D01*
X161733608Y-60406812D01*
X161723997Y-60442683D01*
X161699500Y-60534108D01*
X119528283Y-60534108D01*
X119475500Y-60442686D01*
X119382314Y-60349500D01*
X119283910Y-60292686D01*
X119268187Y-60283608D01*
X119204539Y-60266554D01*
X119140892Y-60249500D01*
X119009108Y-60249500D01*
X118881812Y-60283608D01*
X118767686Y-60349500D01*
X118767683Y-60349502D01*
X118674502Y-60442683D01*
X118674500Y-60442686D01*
X118608608Y-60556812D01*
X118586630Y-60638837D01*
X118574500Y-60684108D01*
X111000000Y-60684108D01*
X111000000Y-59419108D01*
X134249500Y-59419108D01*
X134249500Y-59550891D01*
X134283608Y-59678187D01*
X134304191Y-59713837D01*
X134349500Y-59792314D01*
X134442686Y-59885500D01*
X134556814Y-59951392D01*
X134684108Y-59985500D01*
X134684110Y-59985500D01*
X134815890Y-59985500D01*
X134815892Y-59985500D01*
X134943186Y-59951392D01*
X135057314Y-59885500D01*
X135150500Y-59792314D01*
X135216392Y-59678186D01*
X135250500Y-59550892D01*
X135250500Y-59419108D01*
X135216392Y-59291814D01*
X135150500Y-59177686D01*
X135057314Y-59084500D01*
X134978224Y-59038837D01*
X134943187Y-59018608D01*
X134879539Y-59001554D01*
X134815892Y-58984500D01*
X134684108Y-58984500D01*
X134556812Y-59018608D01*
X134442686Y-59084500D01*
X134442683Y-59084502D01*
X134349502Y-59177683D01*
X134349500Y-59177686D01*
X134283608Y-59291812D01*
X134249500Y-59419108D01*
X111000000Y-59419108D01*
X111000000Y-58184108D01*
X145999500Y-58184108D01*
X145999500Y-58315891D01*
X146033608Y-58443187D01*
X146066554Y-58500250D01*
X146099500Y-58557314D01*
X146192686Y-58650500D01*
X146306814Y-58716392D01*
X146434108Y-58750500D01*
X146434110Y-58750500D01*
X146565890Y-58750500D01*
X146565892Y-58750500D01*
X146693186Y-58716392D01*
X146807314Y-58650500D01*
X146900500Y-58557314D01*
X146966392Y-58443186D01*
X147000500Y-58315892D01*
X147000500Y-58184108D01*
X146966392Y-58056814D01*
X146900500Y-57942686D01*
X146807314Y-57849500D01*
X146750250Y-57816554D01*
X146693187Y-57783608D01*
X146629539Y-57766554D01*
X146565892Y-57749500D01*
X146434108Y-57749500D01*
X146306812Y-57783608D01*
X146192686Y-57849500D01*
X146192683Y-57849502D01*
X146099502Y-57942683D01*
X146099500Y-57942686D01*
X146033608Y-58056812D01*
X145999500Y-58184108D01*
X111000000Y-58184108D01*
X111000000Y-56884108D01*
X148949500Y-56884108D01*
X148949500Y-57015891D01*
X148983608Y-57143187D01*
X149016554Y-57200250D01*
X149049500Y-57257314D01*
X149142686Y-57350500D01*
X149256814Y-57416392D01*
X149384108Y-57450500D01*
X149384110Y-57450500D01*
X149515890Y-57450500D01*
X149515892Y-57450500D01*
X149643186Y-57416392D01*
X149757314Y-57350500D01*
X149850500Y-57257314D01*
X149916392Y-57143186D01*
X149950500Y-57015892D01*
X149950500Y-56884108D01*
X149916392Y-56756814D01*
X149850500Y-56642686D01*
X149757314Y-56549500D01*
X149650707Y-56487950D01*
X149643187Y-56483608D01*
X149579539Y-56466554D01*
X149515892Y-56449500D01*
X149384108Y-56449500D01*
X149256812Y-56483608D01*
X149142686Y-56549500D01*
X149142683Y-56549502D01*
X149049502Y-56642683D01*
X149049500Y-56642686D01*
X148983608Y-56756812D01*
X148949500Y-56884108D01*
X111000000Y-56884108D01*
X111000000Y-55634108D01*
X118724500Y-55634108D01*
X118724500Y-55765892D01*
X118736154Y-55809386D01*
X118758608Y-55893187D01*
X118787611Y-55943420D01*
X118824500Y-56007314D01*
X118917686Y-56100500D01*
X119031814Y-56166392D01*
X119159108Y-56200500D01*
X119159110Y-56200500D01*
X119290890Y-56200500D01*
X119290892Y-56200500D01*
X119418186Y-56166392D01*
X119532314Y-56100500D01*
X119625500Y-56007314D01*
X119691392Y-55893186D01*
X119725500Y-55765892D01*
X119725500Y-55634108D01*
X119712103Y-55584108D01*
X128274500Y-55584108D01*
X128274500Y-55715892D01*
X128286008Y-55758842D01*
X128308608Y-55843187D01*
X128331264Y-55882428D01*
X128374500Y-55957314D01*
X128467686Y-56050500D01*
X128581814Y-56116392D01*
X128709108Y-56150500D01*
X128709110Y-56150500D01*
X128840890Y-56150500D01*
X128840892Y-56150500D01*
X128968186Y-56116392D01*
X129082314Y-56050500D01*
X129175500Y-55957314D01*
X129241392Y-55843186D01*
X129275500Y-55715892D01*
X129275500Y-55584108D01*
X129241392Y-55456814D01*
X129175500Y-55342686D01*
X129082314Y-55249500D01*
X128995712Y-55199500D01*
X128968187Y-55183608D01*
X128904539Y-55166554D01*
X128840892Y-55149500D01*
X128709108Y-55149500D01*
X128581812Y-55183608D01*
X128467686Y-55249500D01*
X128467683Y-55249502D01*
X128374502Y-55342683D01*
X128374500Y-55342686D01*
X128308608Y-55456812D01*
X128293790Y-55512116D01*
X128274500Y-55584108D01*
X119712103Y-55584108D01*
X119691392Y-55506814D01*
X119625500Y-55392686D01*
X119532314Y-55299500D01*
X119447439Y-55250497D01*
X119418187Y-55233608D01*
X119354539Y-55216554D01*
X119290892Y-55199500D01*
X119159108Y-55199500D01*
X119031812Y-55233608D01*
X118917686Y-55299500D01*
X118917683Y-55299502D01*
X118824502Y-55392683D01*
X118824500Y-55392686D01*
X118758608Y-55506812D01*
X118737897Y-55584108D01*
X118724500Y-55634108D01*
X111000000Y-55634108D01*
X111000000Y-53881902D01*
X113499500Y-53881902D01*
X113499500Y-54118097D01*
X113536446Y-54351368D01*
X113609433Y-54575996D01*
X113698348Y-54750499D01*
X113716657Y-54786433D01*
X113855483Y-54977510D01*
X114022490Y-55144517D01*
X114213567Y-55283343D01*
X114312991Y-55334002D01*
X114424003Y-55390566D01*
X114424005Y-55390566D01*
X114424008Y-55390568D01*
X114544412Y-55429689D01*
X114648631Y-55463553D01*
X114881903Y-55500500D01*
X114881908Y-55500500D01*
X115118097Y-55500500D01*
X115351368Y-55463553D01*
X115372108Y-55456814D01*
X115575992Y-55390568D01*
X115786433Y-55283343D01*
X115977510Y-55144517D01*
X116144517Y-54977510D01*
X116283343Y-54786433D01*
X116284528Y-54784108D01*
X148216156Y-54784108D01*
X148216156Y-54915891D01*
X148250264Y-55043187D01*
X148283210Y-55100250D01*
X148316156Y-55157314D01*
X148409342Y-55250500D01*
X148523470Y-55316392D01*
X148650764Y-55350500D01*
X148650766Y-55350500D01*
X148782546Y-55350500D01*
X148782548Y-55350500D01*
X148909842Y-55316392D01*
X149023970Y-55250500D01*
X149117156Y-55157314D01*
X149183048Y-55043186D01*
X149217156Y-54915892D01*
X149217156Y-54784108D01*
X149183048Y-54656814D01*
X149117156Y-54542686D01*
X149023970Y-54449500D01*
X148966906Y-54416554D01*
X148909843Y-54383608D01*
X148846195Y-54366554D01*
X148782548Y-54349500D01*
X148650764Y-54349500D01*
X148523468Y-54383608D01*
X148409342Y-54449500D01*
X148409339Y-54449502D01*
X148316158Y-54542683D01*
X148316156Y-54542686D01*
X148250264Y-54656812D01*
X148216156Y-54784108D01*
X116284528Y-54784108D01*
X116390568Y-54575992D01*
X116463553Y-54351368D01*
X116494404Y-54156582D01*
X116500500Y-54118096D01*
X116500500Y-53881902D01*
X116463553Y-53648631D01*
X116450296Y-53607834D01*
X116410095Y-53484108D01*
X151074500Y-53484108D01*
X151074500Y-53615891D01*
X151108608Y-53743187D01*
X151112253Y-53749500D01*
X151174500Y-53857314D01*
X151267686Y-53950500D01*
X151381814Y-54016392D01*
X151509108Y-54050500D01*
X151509110Y-54050500D01*
X151640890Y-54050500D01*
X151640892Y-54050500D01*
X151768186Y-54016392D01*
X151882314Y-53950500D01*
X151975500Y-53857314D01*
X152041392Y-53743186D01*
X152075500Y-53615892D01*
X152075500Y-53484108D01*
X152041392Y-53356814D01*
X151975500Y-53242686D01*
X151882314Y-53149500D01*
X151825250Y-53116554D01*
X151768187Y-53083608D01*
X151704539Y-53066554D01*
X151640892Y-53049500D01*
X151509108Y-53049500D01*
X151381812Y-53083608D01*
X151267686Y-53149500D01*
X151267683Y-53149502D01*
X151174502Y-53242683D01*
X151174500Y-53242686D01*
X151108608Y-53356812D01*
X151074500Y-53484108D01*
X116410095Y-53484108D01*
X116390568Y-53424008D01*
X116283343Y-53213567D01*
X116144517Y-53022490D01*
X115977510Y-52855483D01*
X115819787Y-52740890D01*
X115786428Y-52716653D01*
X115776248Y-52711466D01*
X115776245Y-52711466D01*
X115575996Y-52609433D01*
X115574996Y-52609108D01*
X128249500Y-52609108D01*
X128249500Y-52740891D01*
X128283608Y-52868187D01*
X128316554Y-52925250D01*
X128349500Y-52982314D01*
X128442686Y-53075500D01*
X128556814Y-53141392D01*
X128684108Y-53175500D01*
X128684110Y-53175500D01*
X128815890Y-53175500D01*
X128815892Y-53175500D01*
X128943186Y-53141392D01*
X129057314Y-53075500D01*
X129150500Y-52982314D01*
X129216392Y-52868186D01*
X129250500Y-52740892D01*
X129250500Y-52609108D01*
X129216392Y-52481814D01*
X129150500Y-52367686D01*
X129057314Y-52274500D01*
X129000250Y-52241554D01*
X128943187Y-52208608D01*
X128879539Y-52191554D01*
X128815892Y-52174500D01*
X128684108Y-52174500D01*
X128556812Y-52208608D01*
X128442686Y-52274500D01*
X128442683Y-52274502D01*
X128349502Y-52367683D01*
X128349500Y-52367686D01*
X128283608Y-52481812D01*
X128249500Y-52609108D01*
X115574996Y-52609108D01*
X115351368Y-52536446D01*
X115118097Y-52499500D01*
X115118092Y-52499500D01*
X114881908Y-52499500D01*
X114881903Y-52499500D01*
X114648631Y-52536446D01*
X114424003Y-52609433D01*
X114213566Y-52716657D01*
X114180210Y-52740892D01*
X114022490Y-52855483D01*
X114022488Y-52855485D01*
X114022487Y-52855485D01*
X113855485Y-53022487D01*
X113855485Y-53022488D01*
X113855483Y-53022490D01*
X113835859Y-53049500D01*
X113716657Y-53213566D01*
X113609433Y-53424003D01*
X113536446Y-53648631D01*
X113499500Y-53881902D01*
X111000000Y-53881902D01*
X111000000Y-51271608D01*
X117487000Y-51271608D01*
X117487000Y-51403392D01*
X117502479Y-51461161D01*
X117521108Y-51530687D01*
X117554054Y-51587750D01*
X117587000Y-51644814D01*
X117680186Y-51738000D01*
X117794314Y-51803892D01*
X117921608Y-51838000D01*
X117921610Y-51838000D01*
X118053390Y-51838000D01*
X118053392Y-51838000D01*
X118180686Y-51803892D01*
X118294814Y-51738000D01*
X118388000Y-51644814D01*
X118453892Y-51530686D01*
X118488000Y-51403392D01*
X118488000Y-51271608D01*
X118453892Y-51144314D01*
X118388000Y-51030186D01*
X118294814Y-50937000D01*
X118229535Y-50899311D01*
X118180687Y-50871108D01*
X118117039Y-50854054D01*
X118053392Y-50837000D01*
X117921608Y-50837000D01*
X117794312Y-50871108D01*
X117680186Y-50937000D01*
X117680183Y-50937002D01*
X117587002Y-51030183D01*
X117587000Y-51030186D01*
X117521108Y-51144312D01*
X117494615Y-51243187D01*
X117487000Y-51271608D01*
X111000000Y-51271608D01*
X111000000Y-50834108D01*
X137449500Y-50834108D01*
X137449500Y-50965892D01*
X137466554Y-51029539D01*
X137483608Y-51093187D01*
X137496717Y-51115892D01*
X137549500Y-51207314D01*
X137642686Y-51300500D01*
X137756814Y-51366392D01*
X137884108Y-51400500D01*
X137884110Y-51400500D01*
X138015890Y-51400500D01*
X138015892Y-51400500D01*
X138143186Y-51366392D01*
X138257314Y-51300500D01*
X138350500Y-51207314D01*
X138416392Y-51093186D01*
X138445619Y-50984108D01*
X146049500Y-50984108D01*
X146049500Y-51115891D01*
X146083608Y-51243187D01*
X146116554Y-51300250D01*
X146149500Y-51357314D01*
X146242686Y-51450500D01*
X146356814Y-51516392D01*
X146484108Y-51550500D01*
X146484110Y-51550500D01*
X146615890Y-51550500D01*
X146615892Y-51550500D01*
X146743186Y-51516392D01*
X146857314Y-51450500D01*
X146950500Y-51357314D01*
X147016392Y-51243186D01*
X147050500Y-51115892D01*
X147050500Y-50984108D01*
X147016392Y-50856814D01*
X146950500Y-50742686D01*
X146857314Y-50649500D01*
X146800250Y-50616554D01*
X146743187Y-50583608D01*
X146679539Y-50566554D01*
X146615892Y-50549500D01*
X146484108Y-50549500D01*
X146356812Y-50583608D01*
X146242686Y-50649500D01*
X146242683Y-50649502D01*
X146149502Y-50742683D01*
X146149500Y-50742686D01*
X146083608Y-50856812D01*
X146049500Y-50984108D01*
X138445619Y-50984108D01*
X138450500Y-50965892D01*
X138450500Y-50834108D01*
X138416392Y-50706814D01*
X138350500Y-50592686D01*
X138257314Y-50499500D01*
X138199969Y-50466392D01*
X138143187Y-50433608D01*
X138079539Y-50416554D01*
X138015892Y-50399500D01*
X137884108Y-50399500D01*
X137756812Y-50433608D01*
X137642686Y-50499500D01*
X137642683Y-50499502D01*
X137549502Y-50592683D01*
X137549500Y-50592686D01*
X137483608Y-50706812D01*
X137467644Y-50766392D01*
X137449500Y-50834108D01*
X111000000Y-50834108D01*
X111000000Y-50234108D01*
X142399500Y-50234108D01*
X142399500Y-50365891D01*
X142433608Y-50493187D01*
X142466121Y-50549500D01*
X142499500Y-50607314D01*
X142592686Y-50700500D01*
X142706814Y-50766392D01*
X142834108Y-50800500D01*
X142834110Y-50800500D01*
X142965890Y-50800500D01*
X142965892Y-50800500D01*
X143093186Y-50766392D01*
X143207314Y-50700500D01*
X143300500Y-50607314D01*
X143366392Y-50493186D01*
X143400500Y-50365892D01*
X143400500Y-50234108D01*
X143366392Y-50106814D01*
X143300500Y-49992686D01*
X143207314Y-49899500D01*
X143150250Y-49866554D01*
X143093187Y-49833608D01*
X143029539Y-49816554D01*
X142965892Y-49799500D01*
X142834108Y-49799500D01*
X142706812Y-49833608D01*
X142592686Y-49899500D01*
X142592683Y-49899502D01*
X142499502Y-49992683D01*
X142499500Y-49992686D01*
X142433608Y-50106812D01*
X142399500Y-50234108D01*
X111000000Y-50234108D01*
X111000000Y-49624500D01*
X111019685Y-49557461D01*
X111072489Y-49511706D01*
X111124000Y-49500500D01*
X163740310Y-49500500D01*
X163540857Y-53774485D01*
G37*
%TD.AperFunction*%
%TD*%
%TA.AperFunction,Conductor*%
%TO.N,/+5V_USB*%
G36*
X138827992Y-96307118D02*
G01*
X138827991Y-96307119D01*
X138848877Y-98625455D01*
X138829797Y-98692669D01*
X138777407Y-98738898D01*
X138725451Y-98750571D01*
X127950000Y-98799999D01*
X128150000Y-94550000D01*
X128067056Y-94546950D01*
X128096727Y-93468906D01*
X128118248Y-93402436D01*
X128172291Y-93358151D01*
X128218939Y-93348332D01*
X138800000Y-93200000D01*
X138827992Y-96307118D01*
G37*
%TD.AperFunction*%
%TD*%
%TA.AperFunction,Conductor*%
%TO.N,GND*%
G36*
X188585305Y-48563728D02*
G01*
X188631718Y-48615954D01*
X188632372Y-48617364D01*
X188679672Y-48720938D01*
X188679679Y-48720951D01*
X188795720Y-48901514D01*
X188936275Y-49063724D01*
X189060277Y-49171172D01*
X189098487Y-49204281D01*
X189227531Y-49287211D01*
X189279048Y-49320320D01*
X189279061Y-49320327D01*
X189474284Y-49409482D01*
X189474288Y-49409483D01*
X189474290Y-49409484D01*
X189680231Y-49469954D01*
X189680232Y-49469954D01*
X189680235Y-49469955D01*
X189743584Y-49479062D01*
X189892682Y-49500500D01*
X189934108Y-49500500D01*
X191968664Y-49500500D01*
X192035703Y-49520185D01*
X192081458Y-49572989D01*
X192092661Y-49625309D01*
X191994425Y-64688061D01*
X191974304Y-64754970D01*
X191921203Y-64800380D01*
X191851981Y-64809872D01*
X191788616Y-64780433D01*
X191782747Y-64774933D01*
X191707316Y-64699502D01*
X191707314Y-64699500D01*
X191640085Y-64660685D01*
X191593187Y-64633608D01*
X191523661Y-64614979D01*
X191465892Y-64599500D01*
X191334108Y-64599500D01*
X191206812Y-64633608D01*
X191092686Y-64699500D01*
X191092683Y-64699502D01*
X190999502Y-64792683D01*
X190999500Y-64792686D01*
X190933608Y-64906812D01*
X190899500Y-65034108D01*
X190899500Y-65165891D01*
X190933608Y-65293187D01*
X190955712Y-65331472D01*
X190999500Y-65407314D01*
X191092686Y-65500500D01*
X191206814Y-65566392D01*
X191334108Y-65600500D01*
X191334110Y-65600500D01*
X191465890Y-65600500D01*
X191465892Y-65600500D01*
X191593186Y-65566392D01*
X191707314Y-65500500D01*
X191777331Y-65430482D01*
X191838650Y-65397000D01*
X191908342Y-65401984D01*
X191964276Y-65443855D01*
X191988693Y-65509319D01*
X191989006Y-65518975D01*
X191950806Y-71376347D01*
X191930685Y-71443256D01*
X191877584Y-71488666D01*
X191826345Y-71499537D01*
X169783104Y-71417132D01*
X169716139Y-71397197D01*
X169670582Y-71344222D01*
X169660897Y-71275027D01*
X169676178Y-71231138D01*
X169741392Y-71118186D01*
X169775500Y-70990892D01*
X169775500Y-70859108D01*
X169741392Y-70731814D01*
X169675500Y-70617686D01*
X169582314Y-70524500D01*
X169582312Y-70524499D01*
X169582310Y-70524497D01*
X169511072Y-70483368D01*
X169511071Y-70483368D01*
X169468187Y-70458608D01*
X169404539Y-70441554D01*
X169340892Y-70424500D01*
X169209108Y-70424500D01*
X169081812Y-70458608D01*
X168967686Y-70524500D01*
X168967683Y-70524502D01*
X168874502Y-70617683D01*
X168874500Y-70617686D01*
X168808608Y-70731812D01*
X168774500Y-70859108D01*
X168774500Y-70990891D01*
X168808608Y-71118187D01*
X168836708Y-71166856D01*
X168871618Y-71227323D01*
X168888091Y-71295221D01*
X168865239Y-71361248D01*
X168810318Y-71404439D01*
X168763767Y-71413321D01*
X165324703Y-71400466D01*
X165257738Y-71380531D01*
X165212181Y-71327556D01*
X165201172Y-71275304D01*
X165209553Y-70384108D01*
X188549500Y-70384108D01*
X188549500Y-70515892D01*
X188551807Y-70524502D01*
X188583608Y-70643187D01*
X188616554Y-70700250D01*
X188649500Y-70757314D01*
X188742686Y-70850500D01*
X188856814Y-70916392D01*
X188984108Y-70950500D01*
X188984110Y-70950500D01*
X189115890Y-70950500D01*
X189115892Y-70950500D01*
X189243186Y-70916392D01*
X189357314Y-70850500D01*
X189450500Y-70757314D01*
X189516392Y-70643186D01*
X189550500Y-70515892D01*
X189550500Y-70384108D01*
X189516392Y-70256814D01*
X189450500Y-70142686D01*
X189357314Y-70049500D01*
X189300250Y-70016554D01*
X189243187Y-69983608D01*
X189179539Y-69966554D01*
X189115892Y-69949500D01*
X188984108Y-69949500D01*
X188856812Y-69983608D01*
X188742686Y-70049500D01*
X188742683Y-70049502D01*
X188649502Y-70142683D01*
X188649500Y-70142686D01*
X188583608Y-70256812D01*
X188578763Y-70274895D01*
X188549500Y-70384108D01*
X165209553Y-70384108D01*
X165265039Y-64484108D01*
X168349500Y-64484108D01*
X168349500Y-64615891D01*
X168383608Y-64743187D01*
X168409965Y-64788837D01*
X168449500Y-64857314D01*
X168542686Y-64950500D01*
X168656814Y-65016392D01*
X168784108Y-65050500D01*
X168784110Y-65050500D01*
X168915890Y-65050500D01*
X168915892Y-65050500D01*
X169043186Y-65016392D01*
X169157314Y-64950500D01*
X169250500Y-64857314D01*
X169316392Y-64743186D01*
X169350500Y-64615892D01*
X169350500Y-64484108D01*
X169316392Y-64356814D01*
X169250500Y-64242686D01*
X169157314Y-64149500D01*
X169100250Y-64116554D01*
X169043187Y-64083608D01*
X169021645Y-64077836D01*
X168915892Y-64049500D01*
X168784108Y-64049500D01*
X168656812Y-64083608D01*
X168542686Y-64149500D01*
X168542683Y-64149502D01*
X168449502Y-64242683D01*
X168449500Y-64242686D01*
X168383608Y-64356812D01*
X168349500Y-64484108D01*
X165265039Y-64484108D01*
X165269976Y-63959108D01*
X175699500Y-63959108D01*
X175699500Y-64090892D01*
X175701807Y-64099502D01*
X175733608Y-64218187D01*
X175747751Y-64242683D01*
X175799500Y-64332314D01*
X175892686Y-64425500D01*
X176006814Y-64491392D01*
X176134108Y-64525500D01*
X176134110Y-64525500D01*
X176265890Y-64525500D01*
X176265892Y-64525500D01*
X176393186Y-64491392D01*
X176492405Y-64434108D01*
X180599500Y-64434108D01*
X180599500Y-64565892D01*
X180601434Y-64573108D01*
X180633608Y-64693187D01*
X180643986Y-64711162D01*
X180699500Y-64807314D01*
X180792686Y-64900500D01*
X180906814Y-64966392D01*
X181034108Y-65000500D01*
X181034110Y-65000500D01*
X181165890Y-65000500D01*
X181165892Y-65000500D01*
X181293186Y-64966392D01*
X181407314Y-64900500D01*
X181500500Y-64807314D01*
X181566392Y-64693186D01*
X181600500Y-64565892D01*
X181600500Y-64434108D01*
X181566392Y-64306814D01*
X181500500Y-64192686D01*
X181407314Y-64099500D01*
X181320712Y-64049500D01*
X181293187Y-64033608D01*
X181229539Y-64016554D01*
X181165892Y-63999500D01*
X181034108Y-63999500D01*
X180906812Y-64033608D01*
X180792686Y-64099500D01*
X180792683Y-64099502D01*
X180699502Y-64192683D01*
X180699500Y-64192686D01*
X180633608Y-64306812D01*
X180604635Y-64414943D01*
X180599500Y-64434108D01*
X176492405Y-64434108D01*
X176507314Y-64425500D01*
X176600500Y-64332314D01*
X176666392Y-64218186D01*
X176700500Y-64090892D01*
X176700500Y-63959108D01*
X176666392Y-63831814D01*
X176600500Y-63717686D01*
X176507314Y-63624500D01*
X176450250Y-63591554D01*
X176393187Y-63558608D01*
X176329539Y-63541554D01*
X176265892Y-63524500D01*
X176134108Y-63524500D01*
X176006812Y-63558608D01*
X175892686Y-63624500D01*
X175892683Y-63624502D01*
X175799502Y-63717683D01*
X175799500Y-63717686D01*
X175733608Y-63831812D01*
X175699500Y-63959108D01*
X165269976Y-63959108D01*
X165289918Y-61838703D01*
X165310232Y-61771856D01*
X165351910Y-61732487D01*
X165407314Y-61700500D01*
X165500500Y-61607314D01*
X165566392Y-61493186D01*
X165600500Y-61365892D01*
X165600500Y-61234108D01*
X165566392Y-61106814D01*
X165500500Y-60992686D01*
X165407314Y-60899500D01*
X165362011Y-60873344D01*
X165353327Y-60864237D01*
X165341932Y-60858903D01*
X165329676Y-60839432D01*
X165313796Y-60822778D01*
X165310522Y-60809003D01*
X165304712Y-60799772D01*
X165300017Y-60764796D01*
X165302187Y-60534108D01*
X184299500Y-60534108D01*
X184299500Y-60665891D01*
X184333608Y-60793187D01*
X184342740Y-60809003D01*
X184399500Y-60907314D01*
X184492686Y-61000500D01*
X184606814Y-61066392D01*
X184734108Y-61100500D01*
X184734110Y-61100500D01*
X184865890Y-61100500D01*
X184865892Y-61100500D01*
X184993186Y-61066392D01*
X185107314Y-61000500D01*
X185200500Y-60907314D01*
X185266392Y-60793186D01*
X185300500Y-60665892D01*
X185300500Y-60534108D01*
X185266392Y-60406814D01*
X185200500Y-60292686D01*
X185107314Y-60199500D01*
X185044455Y-60163208D01*
X184993187Y-60133608D01*
X184929539Y-60116554D01*
X184865892Y-60099500D01*
X184734108Y-60099500D01*
X184606812Y-60133608D01*
X184492686Y-60199500D01*
X184492683Y-60199502D01*
X184399502Y-60292683D01*
X184399500Y-60292686D01*
X184333608Y-60406812D01*
X184299500Y-60534108D01*
X165302187Y-60534108D01*
X165310886Y-59609108D01*
X174424500Y-59609108D01*
X174424500Y-59740891D01*
X174458608Y-59868187D01*
X174488234Y-59919500D01*
X174524500Y-59982314D01*
X174617686Y-60075500D01*
X174731814Y-60141392D01*
X174859108Y-60175500D01*
X174859110Y-60175500D01*
X174990890Y-60175500D01*
X174990892Y-60175500D01*
X175118186Y-60141392D01*
X175232314Y-60075500D01*
X175325500Y-59982314D01*
X175391392Y-59868186D01*
X175425500Y-59740892D01*
X175425500Y-59609108D01*
X175391392Y-59481814D01*
X175325500Y-59367686D01*
X175232314Y-59274500D01*
X175175250Y-59241554D01*
X175118187Y-59208608D01*
X175054539Y-59191554D01*
X174990892Y-59174500D01*
X174859108Y-59174500D01*
X174731812Y-59208608D01*
X174617686Y-59274500D01*
X174617683Y-59274502D01*
X174524502Y-59367683D01*
X174524500Y-59367686D01*
X174458608Y-59481812D01*
X174424500Y-59609108D01*
X165310886Y-59609108D01*
X165317234Y-58934108D01*
X184299500Y-58934108D01*
X184299500Y-59065891D01*
X184333608Y-59193187D01*
X184366554Y-59250250D01*
X184399500Y-59307314D01*
X184492686Y-59400500D01*
X184606814Y-59466392D01*
X184734108Y-59500500D01*
X184734110Y-59500500D01*
X184865890Y-59500500D01*
X184865892Y-59500500D01*
X184993186Y-59466392D01*
X185107314Y-59400500D01*
X185200500Y-59307314D01*
X185266392Y-59193186D01*
X185300500Y-59065892D01*
X185300500Y-58934108D01*
X185266392Y-58806814D01*
X185200500Y-58692686D01*
X185107314Y-58599500D01*
X185050250Y-58566554D01*
X184993187Y-58533608D01*
X184929539Y-58516554D01*
X184865892Y-58499500D01*
X184734108Y-58499500D01*
X184606812Y-58533608D01*
X184492686Y-58599500D01*
X184492683Y-58599502D01*
X184399502Y-58692683D01*
X184399500Y-58692686D01*
X184333608Y-58806812D01*
X184299500Y-58934108D01*
X165317234Y-58934108D01*
X165326790Y-57917961D01*
X178574880Y-57917961D01*
X178574880Y-57917962D01*
X178578429Y-57920334D01*
X178705813Y-57973097D01*
X178705823Y-57973100D01*
X178841053Y-58000000D01*
X178978946Y-58000000D01*
X179114176Y-57973100D01*
X179114186Y-57973097D01*
X179241570Y-57920334D01*
X179241572Y-57920332D01*
X179245119Y-57917961D01*
X179674880Y-57917961D01*
X179674880Y-57917962D01*
X179678429Y-57920334D01*
X179805813Y-57973097D01*
X179805823Y-57973100D01*
X179941053Y-58000000D01*
X180078946Y-58000000D01*
X180214176Y-57973100D01*
X180214186Y-57973097D01*
X180341570Y-57920334D01*
X180341572Y-57920332D01*
X180345119Y-57917961D01*
X180010001Y-57582842D01*
X180010000Y-57582842D01*
X179674880Y-57917961D01*
X179245119Y-57917961D01*
X178910001Y-57582842D01*
X178910000Y-57582842D01*
X178574880Y-57917961D01*
X165326790Y-57917961D01*
X165331962Y-57367961D01*
X178024880Y-57367961D01*
X178024880Y-57367962D01*
X178028425Y-57370331D01*
X178161446Y-57425429D01*
X178160863Y-57426836D01*
X178213032Y-57461015D01*
X178233725Y-57498903D01*
X178234570Y-57498554D01*
X178289668Y-57631573D01*
X178289668Y-57631574D01*
X178292037Y-57635119D01*
X178627157Y-57300000D01*
X178627157Y-57299999D01*
X178597321Y-57270163D01*
X178760000Y-57270163D01*
X178760000Y-57329837D01*
X178782836Y-57384968D01*
X178825032Y-57427164D01*
X178880163Y-57450000D01*
X178939837Y-57450000D01*
X178994968Y-57427164D01*
X179037164Y-57384968D01*
X179060000Y-57329837D01*
X179060000Y-57300000D01*
X179192842Y-57300000D01*
X179460000Y-57567157D01*
X179460001Y-57567157D01*
X179727157Y-57300001D01*
X179727157Y-57299999D01*
X179697321Y-57270163D01*
X179860000Y-57270163D01*
X179860000Y-57329837D01*
X179882836Y-57384968D01*
X179925032Y-57427164D01*
X179980163Y-57450000D01*
X180039837Y-57450000D01*
X180094968Y-57427164D01*
X180137164Y-57384968D01*
X180160000Y-57329837D01*
X180160000Y-57300000D01*
X180292842Y-57300000D01*
X180627961Y-57635119D01*
X180630332Y-57631572D01*
X180630334Y-57631570D01*
X180685430Y-57498554D01*
X180686832Y-57499135D01*
X180721029Y-57446956D01*
X180758903Y-57426274D01*
X180758554Y-57425430D01*
X180891570Y-57370334D01*
X180891572Y-57370332D01*
X180895119Y-57367961D01*
X180560001Y-57032842D01*
X180560000Y-57032842D01*
X180292842Y-57300000D01*
X180160000Y-57300000D01*
X180160000Y-57270163D01*
X180137164Y-57215032D01*
X180094968Y-57172836D01*
X180039837Y-57150000D01*
X179980163Y-57150000D01*
X179925032Y-57172836D01*
X179882836Y-57215032D01*
X179860000Y-57270163D01*
X179697321Y-57270163D01*
X179460000Y-57032842D01*
X179192842Y-57300000D01*
X179060000Y-57300000D01*
X179060000Y-57270163D01*
X179037164Y-57215032D01*
X178994968Y-57172836D01*
X178939837Y-57150000D01*
X178880163Y-57150000D01*
X178825032Y-57172836D01*
X178782836Y-57215032D01*
X178760000Y-57270163D01*
X178597321Y-57270163D01*
X178485737Y-57158579D01*
X178485737Y-57158580D01*
X178359998Y-57032842D01*
X178024880Y-57367961D01*
X165331962Y-57367961D01*
X165337125Y-56818946D01*
X177659999Y-56818946D01*
X177686899Y-56954176D01*
X177686901Y-56954182D01*
X177739668Y-57081573D01*
X177739668Y-57081574D01*
X177742037Y-57085119D01*
X178077157Y-56750000D01*
X178047320Y-56720163D01*
X178210000Y-56720163D01*
X178210000Y-56779837D01*
X178232836Y-56834968D01*
X178275032Y-56877164D01*
X178330163Y-56900000D01*
X178389837Y-56900000D01*
X178444968Y-56877164D01*
X178487164Y-56834968D01*
X178510000Y-56779837D01*
X178510000Y-56750000D01*
X178642842Y-56750000D01*
X178776406Y-56883564D01*
X178776421Y-56883578D01*
X178910000Y-57017157D01*
X178910001Y-57017157D01*
X179043578Y-56883579D01*
X179177157Y-56750000D01*
X179177157Y-56749999D01*
X179147321Y-56720163D01*
X179310000Y-56720163D01*
X179310000Y-56779837D01*
X179332836Y-56834968D01*
X179375032Y-56877164D01*
X179430163Y-56900000D01*
X179489837Y-56900000D01*
X179544968Y-56877164D01*
X179587164Y-56834968D01*
X179610000Y-56779837D01*
X179610000Y-56750000D01*
X179742842Y-56750000D01*
X179876406Y-56883564D01*
X179876421Y-56883578D01*
X180010000Y-57017157D01*
X180010001Y-57017157D01*
X180143578Y-56883579D01*
X180277157Y-56750000D01*
X180277157Y-56749999D01*
X180247321Y-56720163D01*
X180410000Y-56720163D01*
X180410000Y-56779837D01*
X180432836Y-56834968D01*
X180475032Y-56877164D01*
X180530163Y-56900000D01*
X180589837Y-56900000D01*
X180644968Y-56877164D01*
X180687164Y-56834968D01*
X180710000Y-56779837D01*
X180710000Y-56750000D01*
X180842842Y-56750000D01*
X181177961Y-57085119D01*
X181180332Y-57081572D01*
X181180334Y-57081570D01*
X181233097Y-56954186D01*
X181233100Y-56954176D01*
X181260000Y-56818946D01*
X181260000Y-56681053D01*
X181233100Y-56545823D01*
X181233097Y-56545813D01*
X181180334Y-56418429D01*
X181177961Y-56414880D01*
X180842842Y-56750000D01*
X180710000Y-56750000D01*
X180710000Y-56720163D01*
X180687164Y-56665032D01*
X180644968Y-56622836D01*
X180589837Y-56600000D01*
X180530163Y-56600000D01*
X180475032Y-56622836D01*
X180432836Y-56665032D01*
X180410000Y-56720163D01*
X180247321Y-56720163D01*
X180010000Y-56482842D01*
X179742842Y-56750000D01*
X179610000Y-56750000D01*
X179610000Y-56720163D01*
X179587164Y-56665032D01*
X179544968Y-56622836D01*
X179489837Y-56600000D01*
X179430163Y-56600000D01*
X179375032Y-56622836D01*
X179332836Y-56665032D01*
X179310000Y-56720163D01*
X179147321Y-56720163D01*
X178910000Y-56482842D01*
X178642842Y-56750000D01*
X178510000Y-56750000D01*
X178510000Y-56720163D01*
X178487164Y-56665032D01*
X178444968Y-56622836D01*
X178389837Y-56600000D01*
X178330163Y-56600000D01*
X178275032Y-56622836D01*
X178232836Y-56665032D01*
X178210000Y-56720163D01*
X178047320Y-56720163D01*
X177742037Y-56414880D01*
X177742036Y-56414880D01*
X177739667Y-56418427D01*
X177739666Y-56418428D01*
X177686902Y-56545813D01*
X177686899Y-56545823D01*
X177660000Y-56681053D01*
X177660000Y-56818946D01*
X177659999Y-56818946D01*
X165337125Y-56818946D01*
X165338301Y-56693945D01*
X165358616Y-56627096D01*
X165411848Y-56581839D01*
X165481096Y-56572547D01*
X165537783Y-56596737D01*
X165542682Y-56600496D01*
X165542686Y-56600500D01*
X165656814Y-56666392D01*
X165784108Y-56700500D01*
X165784110Y-56700500D01*
X165915890Y-56700500D01*
X165915892Y-56700500D01*
X166043186Y-56666392D01*
X166157314Y-56600500D01*
X166250500Y-56507314D01*
X166316392Y-56393186D01*
X166350500Y-56265892D01*
X166350500Y-56199999D01*
X178092842Y-56199999D01*
X178092842Y-56200000D01*
X178359998Y-56467156D01*
X178493577Y-56333578D01*
X178493581Y-56333575D01*
X178627157Y-56200000D01*
X178627157Y-56199999D01*
X178597321Y-56170163D01*
X178760000Y-56170163D01*
X178760000Y-56229837D01*
X178782836Y-56284968D01*
X178825032Y-56327164D01*
X178880163Y-56350000D01*
X178939837Y-56350000D01*
X178994968Y-56327164D01*
X179037164Y-56284968D01*
X179060000Y-56229837D01*
X179060000Y-56200000D01*
X179192842Y-56200000D01*
X179326406Y-56333564D01*
X179326421Y-56333578D01*
X179460000Y-56467157D01*
X179460001Y-56467157D01*
X179593578Y-56333579D01*
X179727157Y-56200000D01*
X179727157Y-56199999D01*
X179697321Y-56170163D01*
X179860000Y-56170163D01*
X179860000Y-56229837D01*
X179882836Y-56284968D01*
X179925032Y-56327164D01*
X179980163Y-56350000D01*
X180039837Y-56350000D01*
X180094968Y-56327164D01*
X180137164Y-56284968D01*
X180160000Y-56229837D01*
X180160000Y-56200000D01*
X180292842Y-56200000D01*
X180426406Y-56333564D01*
X180426421Y-56333578D01*
X180560000Y-56467157D01*
X180827157Y-56200000D01*
X180827157Y-56199999D01*
X180560001Y-55932842D01*
X180560000Y-55932842D01*
X180292842Y-56200000D01*
X180160000Y-56200000D01*
X180160000Y-56170163D01*
X180137164Y-56115032D01*
X180094968Y-56072836D01*
X180039837Y-56050000D01*
X179980163Y-56050000D01*
X179925032Y-56072836D01*
X179882836Y-56115032D01*
X179860000Y-56170163D01*
X179697321Y-56170163D01*
X179460000Y-55932842D01*
X179192842Y-56200000D01*
X179060000Y-56200000D01*
X179060000Y-56170163D01*
X179037164Y-56115032D01*
X178994968Y-56072836D01*
X178939837Y-56050000D01*
X178880163Y-56050000D01*
X178825032Y-56072836D01*
X178782836Y-56115032D01*
X178760000Y-56170163D01*
X178597321Y-56170163D01*
X178485737Y-56058579D01*
X178485737Y-56058580D01*
X178359998Y-55932842D01*
X178092842Y-56199999D01*
X166350500Y-56199999D01*
X166350500Y-56134108D01*
X166316392Y-56006814D01*
X166250500Y-55892686D01*
X166157314Y-55799500D01*
X166100250Y-55766554D01*
X166043187Y-55733608D01*
X165988466Y-55718946D01*
X177659999Y-55718946D01*
X177686899Y-55854176D01*
X177686901Y-55854182D01*
X177739668Y-55981573D01*
X177739668Y-55981574D01*
X177742037Y-55985119D01*
X178077157Y-55650000D01*
X178047320Y-55620163D01*
X178210000Y-55620163D01*
X178210000Y-55679837D01*
X178232836Y-55734968D01*
X178275032Y-55777164D01*
X178330163Y-55800000D01*
X178389837Y-55800000D01*
X178444968Y-55777164D01*
X178487164Y-55734968D01*
X178510000Y-55679837D01*
X178510000Y-55650000D01*
X178642842Y-55650000D01*
X178776406Y-55783564D01*
X178776421Y-55783578D01*
X178910000Y-55917157D01*
X178910001Y-55917157D01*
X179043578Y-55783579D01*
X179177157Y-55650000D01*
X179177157Y-55649999D01*
X179147321Y-55620163D01*
X179310000Y-55620163D01*
X179310000Y-55679837D01*
X179332836Y-55734968D01*
X179375032Y-55777164D01*
X179430163Y-55800000D01*
X179489837Y-55800000D01*
X179544968Y-55777164D01*
X179587164Y-55734968D01*
X179610000Y-55679837D01*
X179610000Y-55650000D01*
X179742842Y-55650000D01*
X179876406Y-55783564D01*
X179876421Y-55783578D01*
X180010000Y-55917157D01*
X180010001Y-55917157D01*
X180143578Y-55783579D01*
X180277157Y-55650000D01*
X180277157Y-55649999D01*
X180247321Y-55620163D01*
X180410000Y-55620163D01*
X180410000Y-55679837D01*
X180432836Y-55734968D01*
X180475032Y-55777164D01*
X180530163Y-55800000D01*
X180589837Y-55800000D01*
X180644968Y-55777164D01*
X180687164Y-55734968D01*
X180710000Y-55679837D01*
X180710000Y-55650000D01*
X180842842Y-55650000D01*
X181177961Y-55985119D01*
X181180332Y-55981572D01*
X181180334Y-55981570D01*
X181233097Y-55854186D01*
X181233100Y-55854176D01*
X181260000Y-55718946D01*
X181260000Y-55581053D01*
X181233100Y-55445823D01*
X181233097Y-55445813D01*
X181180334Y-55318429D01*
X181177961Y-55314880D01*
X180842842Y-55650000D01*
X180710000Y-55650000D01*
X180710000Y-55620163D01*
X180687164Y-55565032D01*
X180644968Y-55522836D01*
X180589837Y-55500000D01*
X180530163Y-55500000D01*
X180475032Y-55522836D01*
X180432836Y-55565032D01*
X180410000Y-55620163D01*
X180247321Y-55620163D01*
X180010000Y-55382842D01*
X179742842Y-55650000D01*
X179610000Y-55650000D01*
X179610000Y-55620163D01*
X179587164Y-55565032D01*
X179544968Y-55522836D01*
X179489837Y-55500000D01*
X179430163Y-55500000D01*
X179375032Y-55522836D01*
X179332836Y-55565032D01*
X179310000Y-55620163D01*
X179147321Y-55620163D01*
X178910000Y-55382842D01*
X178642842Y-55650000D01*
X178510000Y-55650000D01*
X178510000Y-55620163D01*
X178487164Y-55565032D01*
X178444968Y-55522836D01*
X178389837Y-55500000D01*
X178330163Y-55500000D01*
X178275032Y-55522836D01*
X178232836Y-55565032D01*
X178210000Y-55620163D01*
X178047320Y-55620163D01*
X177742037Y-55314880D01*
X177742036Y-55314880D01*
X177739667Y-55318427D01*
X177739666Y-55318428D01*
X177686902Y-55445813D01*
X177686899Y-55445823D01*
X177660000Y-55581053D01*
X177660000Y-55718946D01*
X177659999Y-55718946D01*
X165988466Y-55718946D01*
X165979539Y-55716554D01*
X165915892Y-55699500D01*
X165784108Y-55699500D01*
X165656812Y-55733608D01*
X165588661Y-55772956D01*
X165542686Y-55799500D01*
X165542684Y-55799501D01*
X165535648Y-55803564D01*
X165534213Y-55801080D01*
X165533360Y-55801409D01*
X165522125Y-55810962D01*
X165501422Y-55813740D01*
X165481938Y-55821263D01*
X165467492Y-55818293D01*
X165452876Y-55820255D01*
X165433959Y-55811400D01*
X165413499Y-55807194D01*
X165402951Y-55796884D01*
X165389596Y-55790633D01*
X165378469Y-55772956D01*
X165363532Y-55758357D01*
X165359583Y-55742952D01*
X165352376Y-55731503D01*
X165347681Y-55696526D01*
X165348835Y-55573794D01*
X165348838Y-55573786D01*
X165348836Y-55573775D01*
X165348854Y-55571898D01*
X165369180Y-55505050D01*
X165422421Y-55459804D01*
X165471922Y-55449090D01*
X172050000Y-55400000D01*
X172055533Y-55032036D01*
X178024880Y-55032036D01*
X178024880Y-55032037D01*
X178359998Y-55367157D01*
X178359999Y-55367157D01*
X178627157Y-55099999D01*
X178627157Y-55099998D01*
X178597322Y-55070163D01*
X178760000Y-55070163D01*
X178760000Y-55129837D01*
X178782836Y-55184968D01*
X178825032Y-55227164D01*
X178880163Y-55250000D01*
X178939837Y-55250000D01*
X178994968Y-55227164D01*
X179037164Y-55184968D01*
X179060000Y-55129837D01*
X179060000Y-55099998D01*
X179192842Y-55099998D01*
X179192842Y-55099999D01*
X179460000Y-55367157D01*
X179460001Y-55367157D01*
X179593574Y-55233582D01*
X179593578Y-55233577D01*
X179727157Y-55099998D01*
X179697322Y-55070163D01*
X179860000Y-55070163D01*
X179860000Y-55129837D01*
X179882836Y-55184968D01*
X179925032Y-55227164D01*
X179980163Y-55250000D01*
X180039837Y-55250000D01*
X180094968Y-55227164D01*
X180137164Y-55184968D01*
X180160000Y-55129837D01*
X180160000Y-55099998D01*
X180292842Y-55099998D01*
X180292842Y-55099999D01*
X180560000Y-55367157D01*
X180560001Y-55367157D01*
X180895119Y-55032037D01*
X180891574Y-55029668D01*
X180758554Y-54974570D01*
X180759134Y-54973168D01*
X180706949Y-54938963D01*
X180686276Y-54901094D01*
X180685429Y-54901446D01*
X180630331Y-54768425D01*
X180627962Y-54764880D01*
X180627961Y-54764880D01*
X180292842Y-55099998D01*
X180160000Y-55099998D01*
X180160000Y-55070163D01*
X180137164Y-55015032D01*
X180094968Y-54972836D01*
X180039837Y-54950000D01*
X179980163Y-54950000D01*
X179925032Y-54972836D01*
X179882836Y-55015032D01*
X179860000Y-55070163D01*
X179697322Y-55070163D01*
X179460001Y-54832842D01*
X179460000Y-54832842D01*
X179192842Y-55099998D01*
X179060000Y-55099998D01*
X179060000Y-55070163D01*
X179037164Y-55015032D01*
X178994968Y-54972836D01*
X178939837Y-54950000D01*
X178880163Y-54950000D01*
X178825032Y-54972836D01*
X178782836Y-55015032D01*
X178760000Y-55070163D01*
X178597322Y-55070163D01*
X178292037Y-54764880D01*
X178292036Y-54764880D01*
X178289667Y-54768427D01*
X178289666Y-54768428D01*
X178234570Y-54901445D01*
X178233171Y-54900865D01*
X178198951Y-54953059D01*
X178161096Y-54973728D01*
X178161445Y-54974570D01*
X178028428Y-55029666D01*
X178028427Y-55029667D01*
X178024880Y-55032036D01*
X172055533Y-55032036D01*
X172063804Y-54482036D01*
X178574880Y-54482036D01*
X178574880Y-54482037D01*
X178910000Y-54817157D01*
X178910001Y-54817157D01*
X179245119Y-54482037D01*
X179245118Y-54482036D01*
X179674880Y-54482036D01*
X179674880Y-54482037D01*
X180010000Y-54817157D01*
X180010001Y-54817157D01*
X180345119Y-54482037D01*
X180341574Y-54479668D01*
X180231581Y-54434108D01*
X185174500Y-54434108D01*
X185174500Y-54565891D01*
X185208608Y-54693187D01*
X185241554Y-54750250D01*
X185274500Y-54807314D01*
X185367686Y-54900500D01*
X185481814Y-54966392D01*
X185609108Y-55000500D01*
X185609110Y-55000500D01*
X185740890Y-55000500D01*
X185740892Y-55000500D01*
X185868186Y-54966392D01*
X185982314Y-54900500D01*
X186075500Y-54807314D01*
X186141392Y-54693186D01*
X186175500Y-54565892D01*
X186175500Y-54434108D01*
X186141392Y-54306814D01*
X186075500Y-54192686D01*
X185982314Y-54099500D01*
X185925250Y-54066554D01*
X185868187Y-54033608D01*
X185804539Y-54016554D01*
X185740892Y-53999500D01*
X185609108Y-53999500D01*
X185481812Y-54033608D01*
X185367686Y-54099500D01*
X185367683Y-54099502D01*
X185274502Y-54192683D01*
X185274500Y-54192686D01*
X185208608Y-54306812D01*
X185174500Y-54434108D01*
X180231581Y-54434108D01*
X180214182Y-54426901D01*
X180214176Y-54426899D01*
X180078946Y-54400000D01*
X179941054Y-54400000D01*
X179805823Y-54426899D01*
X179805813Y-54426902D01*
X179678428Y-54479666D01*
X179678427Y-54479667D01*
X179674880Y-54482036D01*
X179245118Y-54482036D01*
X179241574Y-54479668D01*
X179114182Y-54426901D01*
X179114176Y-54426899D01*
X178978946Y-54400000D01*
X178841054Y-54400000D01*
X178705823Y-54426899D01*
X178705813Y-54426902D01*
X178578428Y-54479666D01*
X178578427Y-54479667D01*
X178574880Y-54482036D01*
X172063804Y-54482036D01*
X172078687Y-53492292D01*
X172109638Y-51434108D01*
X185099500Y-51434108D01*
X185099500Y-51565891D01*
X185133608Y-51693187D01*
X185166554Y-51750250D01*
X185199500Y-51807314D01*
X185292686Y-51900500D01*
X185406814Y-51966392D01*
X185534108Y-52000500D01*
X185534110Y-52000500D01*
X185665890Y-52000500D01*
X185665892Y-52000500D01*
X185793186Y-51966392D01*
X185907314Y-51900500D01*
X186000500Y-51807314D01*
X186066392Y-51693186D01*
X186100500Y-51565892D01*
X186100500Y-51434108D01*
X186066392Y-51306814D01*
X186000500Y-51192686D01*
X185907314Y-51099500D01*
X185849103Y-51065892D01*
X185793187Y-51033608D01*
X185729539Y-51016554D01*
X185665892Y-50999500D01*
X185534108Y-50999500D01*
X185406812Y-51033608D01*
X185292686Y-51099500D01*
X185292683Y-51099502D01*
X185199502Y-51192683D01*
X185199500Y-51192686D01*
X185133608Y-51306812D01*
X185099500Y-51434108D01*
X172109638Y-51434108D01*
X172109788Y-51424117D01*
X172138714Y-49500499D01*
X172148186Y-48870613D01*
X172168876Y-48803878D01*
X172222362Y-48758922D01*
X172270615Y-48748488D01*
X188518028Y-48544886D01*
X188585305Y-48563728D01*
G37*
%TD.AperFunction*%
%TD*%
%TA.AperFunction,Conductor*%
%TO.N,+3.3V*%
G36*
X143556659Y-69433112D02*
G01*
X143599500Y-69507314D01*
X143692686Y-69600500D01*
X143806814Y-69666392D01*
X143934108Y-69700500D01*
X143934110Y-69700500D01*
X144065890Y-69700500D01*
X144065892Y-69700500D01*
X144193186Y-69666392D01*
X144307314Y-69600500D01*
X144400500Y-69507314D01*
X144440142Y-69438652D01*
X146250000Y-69450000D01*
X146316030Y-71919586D01*
X146300500Y-71892686D01*
X146207314Y-71799500D01*
X146150250Y-71766554D01*
X146093187Y-71733608D01*
X146029539Y-71716554D01*
X145965892Y-71699500D01*
X145834108Y-71699500D01*
X145699467Y-71735576D01*
X145629617Y-71733913D01*
X145571754Y-71694750D01*
X145544251Y-71630521D01*
X145555838Y-71561619D01*
X145579689Y-71528124D01*
X145600500Y-71507314D01*
X145666392Y-71393186D01*
X145700500Y-71265892D01*
X145700500Y-71134108D01*
X145666392Y-71006814D01*
X145600500Y-70892686D01*
X145507314Y-70799500D01*
X145450250Y-70766554D01*
X145393187Y-70733608D01*
X145293188Y-70706814D01*
X145265892Y-70699500D01*
X145134108Y-70699500D01*
X145006812Y-70733608D01*
X144892686Y-70799500D01*
X144892683Y-70799502D01*
X144799502Y-70892683D01*
X144799500Y-70892686D01*
X144733608Y-71006812D01*
X144699500Y-71134108D01*
X144699500Y-71265891D01*
X144733608Y-71393187D01*
X144766554Y-71450250D01*
X144799500Y-71507314D01*
X144892686Y-71600500D01*
X144991521Y-71657563D01*
X145003403Y-71664423D01*
X145006814Y-71666392D01*
X145134108Y-71700500D01*
X145134110Y-71700500D01*
X145265890Y-71700500D01*
X145265892Y-71700500D01*
X145393186Y-71666392D01*
X145393188Y-71666390D01*
X145400532Y-71664423D01*
X145470381Y-71666086D01*
X145528244Y-71705248D01*
X145555748Y-71769477D01*
X145544162Y-71838379D01*
X145520308Y-71871878D01*
X145499500Y-71892686D01*
X145433608Y-72006812D01*
X145399500Y-72134108D01*
X145399500Y-72265891D01*
X145433608Y-72393187D01*
X145466554Y-72450250D01*
X145499500Y-72507314D01*
X145592686Y-72600500D01*
X145706814Y-72666392D01*
X145834108Y-72700500D01*
X145834110Y-72700500D01*
X145965890Y-72700500D01*
X145965892Y-72700500D01*
X146093186Y-72666392D01*
X146207314Y-72600500D01*
X146300500Y-72507314D01*
X146330363Y-72455589D01*
X146500000Y-78800000D01*
X146496923Y-79000000D01*
X146496922Y-79000000D01*
X146401837Y-85180552D01*
X146381124Y-85247281D01*
X146327622Y-85292218D01*
X146280567Y-85302615D01*
X139549999Y-85450000D01*
X139549998Y-85450000D01*
X138886545Y-86445181D01*
X138832980Y-86490042D01*
X138784118Y-86500396D01*
X130672947Y-86549259D01*
X130605790Y-86529978D01*
X130559718Y-86477451D01*
X130548213Y-86427063D01*
X130514158Y-84084108D01*
X144449500Y-84084108D01*
X144449500Y-84215891D01*
X144483608Y-84343187D01*
X144516554Y-84400250D01*
X144549500Y-84457314D01*
X144642686Y-84550500D01*
X144756814Y-84616392D01*
X144884108Y-84650500D01*
X144884110Y-84650500D01*
X145015890Y-84650500D01*
X145015892Y-84650500D01*
X145143186Y-84616392D01*
X145257314Y-84550500D01*
X145350500Y-84457314D01*
X145416392Y-84343186D01*
X145450500Y-84215892D01*
X145450500Y-84084108D01*
X145416392Y-83956814D01*
X145350500Y-83842686D01*
X145257314Y-83749500D01*
X145200250Y-83716554D01*
X145143187Y-83683608D01*
X145079539Y-83666554D01*
X145015892Y-83649500D01*
X144884108Y-83649500D01*
X144756812Y-83683608D01*
X144642686Y-83749500D01*
X144642683Y-83749502D01*
X144549502Y-83842683D01*
X144549500Y-83842686D01*
X144483608Y-83956812D01*
X144449500Y-84084108D01*
X130514158Y-84084108D01*
X130484362Y-82034108D01*
X131649500Y-82034108D01*
X131649500Y-82165892D01*
X131666554Y-82229539D01*
X131683608Y-82293187D01*
X131716554Y-82350250D01*
X131749500Y-82407314D01*
X131842686Y-82500500D01*
X131956814Y-82566392D01*
X132084108Y-82600500D01*
X132084110Y-82600500D01*
X132215890Y-82600500D01*
X132215892Y-82600500D01*
X132343186Y-82566392D01*
X132457314Y-82500500D01*
X132550500Y-82407314D01*
X132616392Y-82293186D01*
X132632222Y-82234108D01*
X144999500Y-82234108D01*
X144999500Y-82365892D01*
X145016554Y-82429539D01*
X145033608Y-82493187D01*
X145066554Y-82550250D01*
X145099500Y-82607314D01*
X145192686Y-82700500D01*
X145306814Y-82766392D01*
X145434108Y-82800500D01*
X145434110Y-82800500D01*
X145565890Y-82800500D01*
X145565892Y-82800500D01*
X145693186Y-82766392D01*
X145807314Y-82700500D01*
X145900500Y-82607314D01*
X145966392Y-82493186D01*
X146000500Y-82365892D01*
X146000500Y-82234108D01*
X145966392Y-82106814D01*
X145900500Y-81992686D01*
X145807314Y-81899500D01*
X145750250Y-81866554D01*
X145693187Y-81833608D01*
X145593188Y-81806814D01*
X145565892Y-81799500D01*
X145434108Y-81799500D01*
X145306812Y-81833608D01*
X145192686Y-81899500D01*
X145192683Y-81899502D01*
X145099502Y-81992683D01*
X145099500Y-81992686D01*
X145033608Y-82106812D01*
X145017778Y-82165892D01*
X144999500Y-82234108D01*
X132632222Y-82234108D01*
X132650500Y-82165892D01*
X132650500Y-82034108D01*
X132616392Y-81906814D01*
X132550500Y-81792686D01*
X132457314Y-81699500D01*
X132400250Y-81666554D01*
X132343187Y-81633608D01*
X132279539Y-81616554D01*
X132215892Y-81599500D01*
X132084108Y-81599500D01*
X131956812Y-81633608D01*
X131842686Y-81699500D01*
X131842683Y-81699502D01*
X131749502Y-81792683D01*
X131749500Y-81792686D01*
X131683608Y-81906812D01*
X131660600Y-81992683D01*
X131649500Y-82034108D01*
X130484362Y-82034108D01*
X130321571Y-70834108D01*
X131449500Y-70834108D01*
X131449500Y-70965891D01*
X131483608Y-71093187D01*
X131516554Y-71150250D01*
X131549500Y-71207314D01*
X131642686Y-71300500D01*
X131756814Y-71366392D01*
X131884108Y-71400500D01*
X131884110Y-71400500D01*
X132015890Y-71400500D01*
X132015892Y-71400500D01*
X132143186Y-71366392D01*
X132257314Y-71300500D01*
X132350500Y-71207314D01*
X132416392Y-71093186D01*
X132450500Y-70965892D01*
X132450500Y-70834108D01*
X132416392Y-70706814D01*
X132350500Y-70592686D01*
X132257314Y-70499500D01*
X132200250Y-70466554D01*
X132143187Y-70433608D01*
X132079539Y-70416554D01*
X132015892Y-70399500D01*
X131884108Y-70399500D01*
X131756812Y-70433608D01*
X131642686Y-70499500D01*
X131642683Y-70499502D01*
X131549502Y-70592683D01*
X131549500Y-70592686D01*
X131483608Y-70706812D01*
X131449500Y-70834108D01*
X130321571Y-70834108D01*
X130300000Y-69350000D01*
X143556659Y-69433112D01*
G37*
%TD.AperFunction*%
%TD*%
%TA.AperFunction,Conductor*%
%TO.N,/VBAT*%
G36*
X119286573Y-83199697D02*
G01*
X119313048Y-83203169D01*
X128150000Y-85350000D01*
X128150000Y-85349998D01*
X128155697Y-85345554D01*
X128220660Y-85319835D01*
X128237470Y-85319440D01*
X129540636Y-85377358D01*
X129606733Y-85399999D01*
X129650098Y-85454782D01*
X129658669Y-85511899D01*
X129514681Y-87179918D01*
X129489303Y-87245017D01*
X129432760Y-87286061D01*
X129363003Y-87290019D01*
X129343698Y-87283819D01*
X129343195Y-87283610D01*
X129266093Y-87262951D01*
X129215892Y-87249500D01*
X129084108Y-87249500D01*
X128956812Y-87283608D01*
X128842686Y-87349500D01*
X128842683Y-87349502D01*
X128749502Y-87442683D01*
X128749500Y-87442686D01*
X128683608Y-87556812D01*
X128649500Y-87684108D01*
X128649500Y-87815891D01*
X128684887Y-87947960D01*
X128683224Y-88017810D01*
X128645301Y-88074635D01*
X127232384Y-89272543D01*
X127168519Y-89300882D01*
X127157581Y-89301844D01*
X124910480Y-89399544D01*
X124889591Y-89398688D01*
X112709641Y-87863816D01*
X112645588Y-87835904D01*
X112606794Y-87777794D01*
X112601151Y-87739497D01*
X112605208Y-87350000D01*
X112628290Y-85134108D01*
X121499500Y-85134108D01*
X121499500Y-85265891D01*
X121533608Y-85393187D01*
X121566554Y-85450250D01*
X121599500Y-85507314D01*
X121692686Y-85600500D01*
X121806814Y-85666392D01*
X121934108Y-85700500D01*
X121934110Y-85700500D01*
X122065890Y-85700500D01*
X122065892Y-85700500D01*
X122193186Y-85666392D01*
X122307314Y-85600500D01*
X122400500Y-85507314D01*
X122442766Y-85434108D01*
X124349500Y-85434108D01*
X124349500Y-85565891D01*
X124383608Y-85693187D01*
X124396063Y-85714759D01*
X124449500Y-85807314D01*
X124542686Y-85900500D01*
X124656814Y-85966392D01*
X124784108Y-86000500D01*
X124784110Y-86000500D01*
X124915890Y-86000500D01*
X124915892Y-86000500D01*
X125043186Y-85966392D01*
X125157314Y-85900500D01*
X125250500Y-85807314D01*
X125316392Y-85693186D01*
X125350500Y-85565892D01*
X125350500Y-85434108D01*
X125316392Y-85306814D01*
X125250500Y-85192686D01*
X125157314Y-85099500D01*
X125100250Y-85066554D01*
X125043187Y-85033608D01*
X124943188Y-85006814D01*
X124915892Y-84999500D01*
X124784108Y-84999500D01*
X124656812Y-85033608D01*
X124542686Y-85099500D01*
X124542683Y-85099502D01*
X124449502Y-85192683D01*
X124449500Y-85192686D01*
X124383608Y-85306812D01*
X124349500Y-85434108D01*
X122442766Y-85434108D01*
X122466392Y-85393186D01*
X122500500Y-85265892D01*
X122500500Y-85134108D01*
X122466392Y-85006814D01*
X122400500Y-84892686D01*
X122307314Y-84799500D01*
X122250250Y-84766554D01*
X122193187Y-84733608D01*
X122129539Y-84716554D01*
X122065892Y-84699500D01*
X121934108Y-84699500D01*
X121806812Y-84733608D01*
X121692686Y-84799500D01*
X121692683Y-84799502D01*
X121599502Y-84892683D01*
X121599500Y-84892686D01*
X121533608Y-85006812D01*
X121499500Y-85134108D01*
X112628290Y-85134108D01*
X112648692Y-83175503D01*
X112669074Y-83108676D01*
X112722351Y-83063473D01*
X112775479Y-83052830D01*
X119286573Y-83199697D01*
G37*
%TD.AperFunction*%
%TD*%
%TA.AperFunction,Conductor*%
%TO.N,+5V*%
G36*
X144637989Y-85721008D02*
G01*
X144684857Y-85772827D01*
X144697154Y-85829451D01*
X144604107Y-90063104D01*
X144582954Y-90129694D01*
X144529158Y-90174278D01*
X144459797Y-90182699D01*
X144429414Y-90173530D01*
X140250003Y-88300001D01*
X140250001Y-88300000D01*
X140250000Y-88300000D01*
X140249998Y-88300000D01*
X136700000Y-88300000D01*
X136797318Y-92825329D01*
X136779080Y-92892776D01*
X136727272Y-92939656D01*
X136675315Y-92951979D01*
X127350000Y-93099999D01*
X127350000Y-94070991D01*
X127330315Y-94138030D01*
X127277511Y-94183785D01*
X127221093Y-94194894D01*
X122421320Y-94004804D01*
X122355112Y-93982482D01*
X122311483Y-93927909D01*
X122302248Y-93878605D01*
X122347776Y-91420091D01*
X122368699Y-91353428D01*
X122422341Y-91308658D01*
X122470098Y-91298398D01*
X126100000Y-91250000D01*
X126460997Y-90893152D01*
X126522507Y-90860025D01*
X126592169Y-90865411D01*
X126635846Y-90893660D01*
X126692686Y-90950500D01*
X126806814Y-91016392D01*
X126934108Y-91050500D01*
X126934110Y-91050500D01*
X127065890Y-91050500D01*
X127065892Y-91050500D01*
X127193186Y-91016392D01*
X127263000Y-90976084D01*
X127330898Y-90959611D01*
X127386998Y-90976084D01*
X127413513Y-90991392D01*
X127456811Y-91016391D01*
X127456813Y-91016391D01*
X127456814Y-91016392D01*
X127584108Y-91050500D01*
X127584110Y-91050500D01*
X127715890Y-91050500D01*
X127715892Y-91050500D01*
X127843186Y-91016392D01*
X127913000Y-90976084D01*
X127980898Y-90959611D01*
X128036998Y-90976084D01*
X128063513Y-90991392D01*
X128106811Y-91016391D01*
X128106813Y-91016391D01*
X128106814Y-91016392D01*
X128234108Y-91050500D01*
X128234110Y-91050500D01*
X128365890Y-91050500D01*
X128365892Y-91050500D01*
X128493186Y-91016392D01*
X128607314Y-90950500D01*
X128700500Y-90857314D01*
X128766392Y-90743186D01*
X128800500Y-90615892D01*
X128800500Y-90484108D01*
X128766392Y-90356814D01*
X128700500Y-90242686D01*
X128607314Y-90149500D01*
X128550250Y-90116554D01*
X128493187Y-90083608D01*
X128416663Y-90063104D01*
X128365892Y-90049500D01*
X128234108Y-90049500D01*
X128106812Y-90083608D01*
X128052974Y-90114692D01*
X128036999Y-90123915D01*
X127969100Y-90140388D01*
X127913000Y-90123915D01*
X127887000Y-90108904D01*
X127843187Y-90083608D01*
X127766663Y-90063104D01*
X127715892Y-90049500D01*
X127616285Y-90049500D01*
X127549246Y-90029815D01*
X127503491Y-89977011D01*
X127493547Y-89907853D01*
X127522572Y-89844297D01*
X127529092Y-89837334D01*
X128594565Y-88784108D01*
X130174500Y-88784108D01*
X130174500Y-88915891D01*
X130208608Y-89043187D01*
X130241554Y-89100250D01*
X130274500Y-89157314D01*
X130367686Y-89250500D01*
X130481814Y-89316392D01*
X130609108Y-89350500D01*
X130609110Y-89350500D01*
X130740890Y-89350500D01*
X130740892Y-89350500D01*
X130868186Y-89316392D01*
X130982314Y-89250500D01*
X131075500Y-89157314D01*
X131141392Y-89043186D01*
X131175500Y-88915892D01*
X131175500Y-88784108D01*
X131141392Y-88656814D01*
X131117764Y-88615890D01*
X131075503Y-88542691D01*
X131075502Y-88542690D01*
X131075500Y-88542686D01*
X131016922Y-88484108D01*
X133799500Y-88484108D01*
X133799500Y-88615891D01*
X133833608Y-88743187D01*
X133866554Y-88800250D01*
X133899500Y-88857314D01*
X133992686Y-88950500D01*
X134106814Y-89016392D01*
X134234108Y-89050500D01*
X134234110Y-89050500D01*
X134365890Y-89050500D01*
X134365892Y-89050500D01*
X134493186Y-89016392D01*
X134607314Y-88950500D01*
X134700500Y-88857314D01*
X134766392Y-88743186D01*
X134800500Y-88615892D01*
X134800500Y-88484108D01*
X134766392Y-88356814D01*
X134700500Y-88242686D01*
X134607314Y-88149500D01*
X134550250Y-88116554D01*
X134493187Y-88083608D01*
X134429539Y-88066554D01*
X134365892Y-88049500D01*
X134234108Y-88049500D01*
X134106812Y-88083608D01*
X133992686Y-88149500D01*
X133992683Y-88149502D01*
X133899502Y-88242683D01*
X133899500Y-88242686D01*
X133833608Y-88356812D01*
X133799500Y-88484108D01*
X131016922Y-88484108D01*
X130982314Y-88449500D01*
X130925250Y-88416554D01*
X130868187Y-88383608D01*
X130768188Y-88356814D01*
X130740892Y-88349500D01*
X130609108Y-88349500D01*
X130481812Y-88383608D01*
X130367686Y-88449500D01*
X130367683Y-88449502D01*
X130274502Y-88542683D01*
X130274500Y-88542686D01*
X130208608Y-88656812D01*
X130174500Y-88784108D01*
X128594565Y-88784108D01*
X128838789Y-88542691D01*
X129098149Y-88286313D01*
X129159665Y-88253183D01*
X129185322Y-88250500D01*
X129215890Y-88250500D01*
X129215892Y-88250500D01*
X129343186Y-88216392D01*
X129457314Y-88150500D01*
X129550500Y-88057314D01*
X129616392Y-87943186D01*
X129650500Y-87815892D01*
X129650500Y-87792093D01*
X129659241Y-87762323D01*
X129666013Y-87732038D01*
X129669476Y-87727466D01*
X129670185Y-87725054D01*
X129687324Y-87703909D01*
X129707355Y-87684108D01*
X134849500Y-87684108D01*
X134849500Y-87815891D01*
X134883608Y-87943187D01*
X134916554Y-88000250D01*
X134949500Y-88057314D01*
X135042686Y-88150500D01*
X135156814Y-88216392D01*
X135284108Y-88250500D01*
X135284110Y-88250500D01*
X135415890Y-88250500D01*
X135415892Y-88250500D01*
X135543186Y-88216392D01*
X135657314Y-88150500D01*
X135750500Y-88057314D01*
X135816392Y-87943186D01*
X135850500Y-87815892D01*
X135850500Y-87684108D01*
X135816392Y-87556814D01*
X135750500Y-87442686D01*
X135657314Y-87349500D01*
X135600250Y-87316554D01*
X135543187Y-87283608D01*
X135479539Y-87266554D01*
X135415892Y-87249500D01*
X135284108Y-87249500D01*
X135156812Y-87283608D01*
X135042686Y-87349500D01*
X135042683Y-87349502D01*
X134949502Y-87442683D01*
X134949500Y-87442686D01*
X134883608Y-87556812D01*
X134849500Y-87684108D01*
X129707355Y-87684108D01*
X130414065Y-86985521D01*
X130475579Y-86952393D01*
X130500522Y-86949712D01*
X139250000Y-86900000D01*
X139964029Y-85852757D01*
X140018056Y-85808458D01*
X140063837Y-85798641D01*
X144570547Y-85702754D01*
X144637989Y-85721008D01*
G37*
%TD.AperFunction*%
%TD*%
%TA.AperFunction,Conductor*%
%TO.N,+3.3V*%
G36*
X171577581Y-47248440D02*
G01*
X171644363Y-47268977D01*
X171689441Y-47322360D01*
X171700000Y-47372430D01*
X171700000Y-54526000D01*
X171680315Y-54593039D01*
X171627511Y-54638794D01*
X171576000Y-54650000D01*
X164007814Y-54650000D01*
X164100500Y-54557314D01*
X164166392Y-54443186D01*
X164200500Y-54315892D01*
X164200500Y-54184108D01*
X164166392Y-54056814D01*
X164100500Y-53942686D01*
X164007314Y-53849500D01*
X163950250Y-53816554D01*
X163893187Y-53783608D01*
X163829539Y-53766554D01*
X163765892Y-53749500D01*
X163634108Y-53749500D01*
X163540857Y-53774486D01*
X163573075Y-53084108D01*
X165899500Y-53084108D01*
X165899500Y-53215891D01*
X165933608Y-53343187D01*
X165966554Y-53400250D01*
X165999500Y-53457314D01*
X166092686Y-53550500D01*
X166206814Y-53616392D01*
X166334108Y-53650500D01*
X166334110Y-53650500D01*
X166465890Y-53650500D01*
X166465892Y-53650500D01*
X166593186Y-53616392D01*
X166707314Y-53550500D01*
X166800500Y-53457314D01*
X166866392Y-53343186D01*
X166900500Y-53215892D01*
X166900500Y-53084108D01*
X166866392Y-52956814D01*
X166800500Y-52842686D01*
X166707314Y-52749500D01*
X166650250Y-52716554D01*
X166593187Y-52683608D01*
X166529539Y-52666554D01*
X166465892Y-52649500D01*
X166334108Y-52649500D01*
X166206812Y-52683608D01*
X166092686Y-52749500D01*
X166092683Y-52749502D01*
X165999502Y-52842683D01*
X165999500Y-52842686D01*
X165933608Y-52956812D01*
X165899500Y-53084108D01*
X163573075Y-53084108D01*
X163740310Y-49500500D01*
X167107317Y-49500500D01*
X167107318Y-49500500D01*
X167277851Y-49475980D01*
X167319764Y-49469955D01*
X167319765Y-49469954D01*
X167319769Y-49469954D01*
X167525710Y-49409484D01*
X167525713Y-49409482D01*
X167525715Y-49409482D01*
X167720938Y-49320327D01*
X167720944Y-49320323D01*
X167720950Y-49320321D01*
X167901513Y-49204281D01*
X168063724Y-49063724D01*
X168204281Y-48901513D01*
X168320321Y-48720950D01*
X168320323Y-48720944D01*
X168320327Y-48720938D01*
X168409482Y-48525715D01*
X168409482Y-48525713D01*
X168409484Y-48525710D01*
X168469954Y-48319769D01*
X168500500Y-48107318D01*
X168500500Y-48000000D01*
X168500500Y-47934108D01*
X168500500Y-47334829D01*
X168520185Y-47267790D01*
X168572989Y-47222035D01*
X168626068Y-47210841D01*
X171577581Y-47248440D01*
G37*
%TD.AperFunction*%
%TD*%
%TA.AperFunction,Conductor*%
%TO.N,+3.3V*%
G36*
X198006922Y-49501280D02*
G01*
X198097266Y-49511459D01*
X198124331Y-49517636D01*
X198203540Y-49545352D01*
X198228553Y-49557398D01*
X198299606Y-49602043D01*
X198321313Y-49619355D01*
X198380644Y-49678686D01*
X198397957Y-49700395D01*
X198442600Y-49771444D01*
X198454648Y-49796462D01*
X198482362Y-49875666D01*
X198488540Y-49902735D01*
X198498720Y-49993076D01*
X198499500Y-50006961D01*
X198499500Y-91112631D01*
X198479815Y-91179670D01*
X198427011Y-91225425D01*
X198374639Y-91236628D01*
X164300002Y-91000000D01*
X164300000Y-91000000D01*
X164392345Y-85934108D01*
X195999500Y-85934108D01*
X195999500Y-86065891D01*
X196033608Y-86193187D01*
X196066554Y-86250250D01*
X196099500Y-86307314D01*
X196192686Y-86400500D01*
X196306814Y-86466392D01*
X196434108Y-86500500D01*
X196434110Y-86500500D01*
X196565890Y-86500500D01*
X196565892Y-86500500D01*
X196693186Y-86466392D01*
X196807314Y-86400500D01*
X196900500Y-86307314D01*
X196966392Y-86193186D01*
X197000500Y-86065892D01*
X197000500Y-85934108D01*
X196966392Y-85806814D01*
X196900500Y-85692686D01*
X196807314Y-85599500D01*
X196750250Y-85566554D01*
X196693187Y-85533608D01*
X196629539Y-85516554D01*
X196565892Y-85499500D01*
X196434108Y-85499500D01*
X196306812Y-85533608D01*
X196192686Y-85599500D01*
X196192683Y-85599502D01*
X196099502Y-85692683D01*
X196099500Y-85692686D01*
X196033608Y-85806812D01*
X195999500Y-85934108D01*
X164392345Y-85934108D01*
X164414908Y-84696369D01*
X164490789Y-84681276D01*
X164641021Y-84619048D01*
X164641023Y-84619047D01*
X164708169Y-84574180D01*
X164776225Y-84528708D01*
X164891208Y-84413725D01*
X164947382Y-84329655D01*
X164981547Y-84278523D01*
X164981549Y-84278519D01*
X165031636Y-84157598D01*
X165043776Y-84128289D01*
X165075500Y-83968805D01*
X165075500Y-83806195D01*
X165074835Y-83802850D01*
X184174500Y-83802850D01*
X184174500Y-83972149D01*
X184200981Y-84139347D01*
X184253296Y-84300353D01*
X184330152Y-84451188D01*
X184429648Y-84588134D01*
X184429652Y-84588139D01*
X184549360Y-84707847D01*
X184549365Y-84707851D01*
X184668817Y-84794637D01*
X184686315Y-84807350D01*
X184782425Y-84856320D01*
X184837146Y-84884203D01*
X184837148Y-84884203D01*
X184837151Y-84884205D01*
X184923450Y-84912245D01*
X184998152Y-84936518D01*
X185165351Y-84963000D01*
X185165356Y-84963000D01*
X185334649Y-84963000D01*
X185501847Y-84936518D01*
X185662849Y-84884205D01*
X185813685Y-84807350D01*
X185950641Y-84707846D01*
X186070346Y-84588141D01*
X186169850Y-84451185D01*
X186246705Y-84300349D01*
X186299018Y-84139347D01*
X186300770Y-84128283D01*
X186325500Y-83972149D01*
X186325500Y-83802850D01*
X186299018Y-83635652D01*
X186283782Y-83588762D01*
X186273311Y-83556535D01*
X186273309Y-83556530D01*
X195549500Y-83556530D01*
X195549500Y-83763469D01*
X195589868Y-83966412D01*
X195589870Y-83966420D01*
X195669058Y-84157596D01*
X195784024Y-84329657D01*
X195930342Y-84475975D01*
X195930345Y-84475977D01*
X196102402Y-84590941D01*
X196293580Y-84670130D01*
X196496530Y-84710499D01*
X196496534Y-84710500D01*
X196496535Y-84710500D01*
X196703466Y-84710500D01*
X196703467Y-84710499D01*
X196906420Y-84670130D01*
X197097598Y-84590941D01*
X197269655Y-84475977D01*
X197415977Y-84329655D01*
X197530941Y-84157598D01*
X197610130Y-83966420D01*
X197650500Y-83763465D01*
X197650500Y-83556535D01*
X197610130Y-83353580D01*
X197530941Y-83162402D01*
X197415977Y-82990345D01*
X197415975Y-82990342D01*
X197269657Y-82844024D01*
X197183626Y-82786541D01*
X197097598Y-82729059D01*
X196906420Y-82649870D01*
X196906412Y-82649868D01*
X196703469Y-82609500D01*
X196703465Y-82609500D01*
X196496535Y-82609500D01*
X196496530Y-82609500D01*
X196293587Y-82649868D01*
X196293579Y-82649870D01*
X196102403Y-82729058D01*
X195930342Y-82844024D01*
X195784024Y-82990342D01*
X195669058Y-83162403D01*
X195589870Y-83353579D01*
X195589868Y-83353587D01*
X195549500Y-83556530D01*
X186273309Y-83556530D01*
X186246705Y-83474651D01*
X186246703Y-83474648D01*
X186246703Y-83474646D01*
X186218820Y-83419925D01*
X186169850Y-83323815D01*
X186113528Y-83246294D01*
X186070351Y-83186865D01*
X186070347Y-83186860D01*
X185950639Y-83067152D01*
X185950634Y-83067148D01*
X185813688Y-82967652D01*
X185813687Y-82967651D01*
X185813685Y-82967650D01*
X185766582Y-82943650D01*
X185662853Y-82890796D01*
X185501847Y-82838481D01*
X185334649Y-82812000D01*
X185334644Y-82812000D01*
X185165356Y-82812000D01*
X185165351Y-82812000D01*
X184998152Y-82838481D01*
X184837146Y-82890796D01*
X184686311Y-82967652D01*
X184549365Y-83067148D01*
X184549360Y-83067152D01*
X184429652Y-83186860D01*
X184429648Y-83186865D01*
X184330152Y-83323811D01*
X184253296Y-83474646D01*
X184200981Y-83635652D01*
X184174500Y-83802850D01*
X165074835Y-83802850D01*
X165067000Y-83763466D01*
X165043777Y-83646716D01*
X165043776Y-83646715D01*
X165043776Y-83646711D01*
X165006422Y-83556530D01*
X164981549Y-83496480D01*
X164981547Y-83496476D01*
X164891211Y-83361279D01*
X164891205Y-83361271D01*
X164776228Y-83246294D01*
X164776220Y-83246288D01*
X164641023Y-83155952D01*
X164641019Y-83155950D01*
X164490793Y-83093725D01*
X164490783Y-83093722D01*
X164444293Y-83084474D01*
X164481990Y-81016530D01*
X195549500Y-81016530D01*
X195549500Y-81223469D01*
X195589868Y-81426412D01*
X195589870Y-81426420D01*
X195669058Y-81617596D01*
X195784024Y-81789657D01*
X195930342Y-81935975D01*
X195930345Y-81935977D01*
X196102402Y-82050941D01*
X196293580Y-82130130D01*
X196496530Y-82170499D01*
X196496534Y-82170500D01*
X196496535Y-82170500D01*
X196703466Y-82170500D01*
X196703467Y-82170499D01*
X196906420Y-82130130D01*
X197097598Y-82050941D01*
X197269655Y-81935977D01*
X197415977Y-81789655D01*
X197530941Y-81617598D01*
X197610130Y-81426420D01*
X197650500Y-81223465D01*
X197650500Y-81016535D01*
X197610130Y-80813580D01*
X197530941Y-80622402D01*
X197415977Y-80450345D01*
X197415975Y-80450342D01*
X197269657Y-80304024D01*
X197183626Y-80246541D01*
X197097598Y-80189059D01*
X197020959Y-80157314D01*
X196906420Y-80109870D01*
X196906412Y-80109868D01*
X196703469Y-80069500D01*
X196703465Y-80069500D01*
X196496535Y-80069500D01*
X196496530Y-80069500D01*
X196293587Y-80109868D01*
X196293579Y-80109870D01*
X196102403Y-80189058D01*
X195930342Y-80304024D01*
X195784024Y-80450342D01*
X195669058Y-80622403D01*
X195589870Y-80813579D01*
X195589868Y-80813587D01*
X195549500Y-81016530D01*
X164481990Y-81016530D01*
X164504456Y-79784108D01*
X165349500Y-79784108D01*
X165349500Y-79915891D01*
X165383608Y-80043187D01*
X165398800Y-80069500D01*
X165449500Y-80157314D01*
X165542686Y-80250500D01*
X165656814Y-80316392D01*
X165784108Y-80350500D01*
X165784110Y-80350500D01*
X165915890Y-80350500D01*
X165915892Y-80350500D01*
X166043186Y-80316392D01*
X166157314Y-80250500D01*
X166250500Y-80157314D01*
X166316392Y-80043186D01*
X166350500Y-79915892D01*
X166350500Y-79784108D01*
X169899500Y-79784108D01*
X169899500Y-79915891D01*
X169933608Y-80043187D01*
X169948800Y-80069500D01*
X169999500Y-80157314D01*
X170092686Y-80250500D01*
X170206814Y-80316392D01*
X170334108Y-80350500D01*
X170334110Y-80350500D01*
X170465890Y-80350500D01*
X170465892Y-80350500D01*
X170593186Y-80316392D01*
X170707314Y-80250500D01*
X170800500Y-80157314D01*
X170866392Y-80043186D01*
X170900500Y-79915892D01*
X170900500Y-79784108D01*
X170866392Y-79656814D01*
X170800500Y-79542686D01*
X170707314Y-79449500D01*
X170680654Y-79434108D01*
X184899500Y-79434108D01*
X184899500Y-79565892D01*
X184905995Y-79590131D01*
X184933608Y-79693187D01*
X184966554Y-79750250D01*
X184999500Y-79807314D01*
X185092686Y-79900500D01*
X185206814Y-79966392D01*
X185334108Y-80000500D01*
X185334110Y-80000500D01*
X185465890Y-80000500D01*
X185465892Y-80000500D01*
X185593186Y-79966392D01*
X185707314Y-79900500D01*
X185800500Y-79807314D01*
X185866392Y-79693186D01*
X185900500Y-79565892D01*
X185900500Y-79434108D01*
X185866392Y-79306814D01*
X185800500Y-79192686D01*
X185707314Y-79099500D01*
X185650250Y-79066554D01*
X185593187Y-79033608D01*
X185529539Y-79016554D01*
X185465892Y-78999500D01*
X185334108Y-78999500D01*
X185206812Y-79033608D01*
X185092686Y-79099500D01*
X185092683Y-79099502D01*
X184999502Y-79192683D01*
X184999500Y-79192686D01*
X184933608Y-79306812D01*
X184909717Y-79395977D01*
X184899500Y-79434108D01*
X170680654Y-79434108D01*
X170614610Y-79395977D01*
X170593187Y-79383608D01*
X170529539Y-79366554D01*
X170465892Y-79349500D01*
X170334108Y-79349500D01*
X170206812Y-79383608D01*
X170092686Y-79449500D01*
X170092683Y-79449502D01*
X169999502Y-79542683D01*
X169999500Y-79542686D01*
X169933608Y-79656812D01*
X169899500Y-79784108D01*
X166350500Y-79784108D01*
X166316392Y-79656814D01*
X166250500Y-79542686D01*
X166157314Y-79449500D01*
X166064610Y-79395977D01*
X166043187Y-79383608D01*
X165979539Y-79366554D01*
X165915892Y-79349500D01*
X165784108Y-79349500D01*
X165656812Y-79383608D01*
X165542686Y-79449500D01*
X165542683Y-79449502D01*
X165449502Y-79542683D01*
X165449500Y-79542686D01*
X165383608Y-79656812D01*
X165349500Y-79784108D01*
X164504456Y-79784108D01*
X164528292Y-78476530D01*
X195549500Y-78476530D01*
X195549500Y-78683469D01*
X195589868Y-78886412D01*
X195589870Y-78886420D01*
X195636709Y-78999500D01*
X195669059Y-79077598D01*
X195683695Y-79099502D01*
X195784024Y-79249657D01*
X195930342Y-79395975D01*
X195930345Y-79395977D01*
X196102402Y-79510941D01*
X196293580Y-79590130D01*
X196496530Y-79630499D01*
X196496534Y-79630500D01*
X196496535Y-79630500D01*
X196703466Y-79630500D01*
X196703467Y-79630499D01*
X196906420Y-79590130D01*
X197097598Y-79510941D01*
X197269655Y-79395977D01*
X197415977Y-79249655D01*
X197530941Y-79077598D01*
X197610130Y-78886420D01*
X197650500Y-78683465D01*
X197650500Y-78476535D01*
X197610130Y-78273580D01*
X197530941Y-78082402D01*
X197415977Y-77910345D01*
X197415975Y-77910342D01*
X197269657Y-77764024D01*
X197183626Y-77706541D01*
X197097598Y-77649059D01*
X196906420Y-77569870D01*
X196906412Y-77569868D01*
X196703469Y-77529500D01*
X196703465Y-77529500D01*
X196496535Y-77529500D01*
X196496530Y-77529500D01*
X196293587Y-77569868D01*
X196293579Y-77569870D01*
X196102403Y-77649058D01*
X195930342Y-77764024D01*
X195784024Y-77910342D01*
X195669058Y-78082403D01*
X195589870Y-78273579D01*
X195589868Y-78273587D01*
X195549500Y-78476530D01*
X164528292Y-78476530D01*
X164551852Y-77184108D01*
X191749500Y-77184108D01*
X191749500Y-77315891D01*
X191783608Y-77443187D01*
X191816554Y-77500250D01*
X191849500Y-77557314D01*
X191942686Y-77650500D01*
X192056814Y-77716392D01*
X192184108Y-77750500D01*
X192184110Y-77750500D01*
X192315890Y-77750500D01*
X192315892Y-77750500D01*
X192443186Y-77716392D01*
X192557314Y-77650500D01*
X192650500Y-77557314D01*
X192716392Y-77443186D01*
X192750500Y-77315892D01*
X192750500Y-77184108D01*
X192716392Y-77056814D01*
X192650500Y-76942686D01*
X192557314Y-76849500D01*
X192500250Y-76816554D01*
X192443187Y-76783608D01*
X192379539Y-76766554D01*
X192315892Y-76749500D01*
X192184108Y-76749500D01*
X192056812Y-76783608D01*
X191942686Y-76849500D01*
X191942683Y-76849502D01*
X191849502Y-76942683D01*
X191849500Y-76942686D01*
X191783608Y-77056812D01*
X191749500Y-77184108D01*
X164551852Y-77184108D01*
X164591045Y-75034108D01*
X178199500Y-75034108D01*
X178199500Y-75165891D01*
X178233608Y-75293187D01*
X178266554Y-75350250D01*
X178299500Y-75407314D01*
X178392686Y-75500500D01*
X178506814Y-75566392D01*
X178634108Y-75600500D01*
X178634110Y-75600500D01*
X178765890Y-75600500D01*
X178765892Y-75600500D01*
X178893186Y-75566392D01*
X179007314Y-75500500D01*
X179100500Y-75407314D01*
X179166392Y-75293186D01*
X179200500Y-75165892D01*
X179200500Y-75034108D01*
X179166392Y-74906814D01*
X179100500Y-74792686D01*
X179007314Y-74699500D01*
X178950250Y-74666554D01*
X178893187Y-74633608D01*
X178829539Y-74616554D01*
X178765892Y-74599500D01*
X178634108Y-74599500D01*
X178506812Y-74633608D01*
X178392686Y-74699500D01*
X178392683Y-74699502D01*
X178299502Y-74792683D01*
X178299500Y-74792686D01*
X178233608Y-74906812D01*
X178199500Y-75034108D01*
X164591045Y-75034108D01*
X164635377Y-72602155D01*
X195250000Y-72602155D01*
X195250000Y-73250000D01*
X196166988Y-73250000D01*
X196134075Y-73307007D01*
X196100000Y-73434174D01*
X196100000Y-73565826D01*
X196134075Y-73692993D01*
X196166988Y-73750000D01*
X195250000Y-73750000D01*
X195250000Y-74397844D01*
X195256401Y-74457372D01*
X195256403Y-74457379D01*
X195306645Y-74592086D01*
X195306649Y-74592093D01*
X195392809Y-74707187D01*
X195392812Y-74707190D01*
X195507906Y-74793350D01*
X195507913Y-74793354D01*
X195642620Y-74843596D01*
X195642627Y-74843598D01*
X195702155Y-74849999D01*
X195702172Y-74850000D01*
X196104435Y-74850000D01*
X196171474Y-74869685D01*
X196217229Y-74922489D01*
X196227173Y-74991647D01*
X196198148Y-75055203D01*
X196151888Y-75088561D01*
X196102403Y-75109058D01*
X195930342Y-75224024D01*
X195784024Y-75370342D01*
X195669058Y-75542403D01*
X195589870Y-75733579D01*
X195589868Y-75733587D01*
X195549500Y-75936530D01*
X195549500Y-76143469D01*
X195589868Y-76346412D01*
X195589870Y-76346420D01*
X195669058Y-76537596D01*
X195784024Y-76709657D01*
X195930342Y-76855975D01*
X195930345Y-76855977D01*
X196102402Y-76970941D01*
X196293580Y-77050130D01*
X196496530Y-77090499D01*
X196496534Y-77090500D01*
X196496535Y-77090500D01*
X196703466Y-77090500D01*
X196703467Y-77090499D01*
X196906420Y-77050130D01*
X197097598Y-76970941D01*
X197269655Y-76855977D01*
X197415977Y-76709655D01*
X197530941Y-76537598D01*
X197610130Y-76346420D01*
X197650500Y-76143465D01*
X197650500Y-75936535D01*
X197610130Y-75733580D01*
X197530941Y-75542402D01*
X197415977Y-75370345D01*
X197415975Y-75370342D01*
X197269657Y-75224024D01*
X197182652Y-75165890D01*
X197097598Y-75109059D01*
X197048112Y-75088561D01*
X196993709Y-75044720D01*
X196971644Y-74978426D01*
X196988923Y-74910726D01*
X197040061Y-74863116D01*
X197095565Y-74850000D01*
X197497828Y-74850000D01*
X197497844Y-74849999D01*
X197557372Y-74843598D01*
X197557379Y-74843596D01*
X197692086Y-74793354D01*
X197692093Y-74793350D01*
X197807187Y-74707190D01*
X197807190Y-74707187D01*
X197893350Y-74592093D01*
X197893354Y-74592086D01*
X197943596Y-74457379D01*
X197943598Y-74457372D01*
X197949999Y-74397844D01*
X197950000Y-74397827D01*
X197950000Y-73750000D01*
X197033012Y-73750000D01*
X197065925Y-73692993D01*
X197100000Y-73565826D01*
X197100000Y-73434174D01*
X197065925Y-73307007D01*
X197033012Y-73250000D01*
X197950000Y-73250000D01*
X197950000Y-72602172D01*
X197949999Y-72602155D01*
X197943598Y-72542627D01*
X197943596Y-72542620D01*
X197893354Y-72407913D01*
X197893350Y-72407906D01*
X197807190Y-72292812D01*
X197807187Y-72292809D01*
X197692093Y-72206649D01*
X197692086Y-72206645D01*
X197557379Y-72156403D01*
X197557372Y-72156401D01*
X197497844Y-72150000D01*
X196850000Y-72150000D01*
X196850000Y-73066988D01*
X196792993Y-73034075D01*
X196665826Y-73000000D01*
X196534174Y-73000000D01*
X196407007Y-73034075D01*
X196350000Y-73066988D01*
X196350000Y-72150000D01*
X195702155Y-72150000D01*
X195642627Y-72156401D01*
X195642620Y-72156403D01*
X195507913Y-72206645D01*
X195507906Y-72206649D01*
X195392812Y-72292809D01*
X195392809Y-72292812D01*
X195306649Y-72407906D01*
X195306645Y-72407913D01*
X195256403Y-72542620D01*
X195256401Y-72542627D01*
X195250000Y-72602155D01*
X164635377Y-72602155D01*
X164650000Y-71800000D01*
X190000953Y-71891354D01*
X190067915Y-71911279D01*
X190113479Y-71964247D01*
X190124500Y-72015352D01*
X190124500Y-72090891D01*
X190158608Y-72218187D01*
X190191554Y-72275250D01*
X190224500Y-72332314D01*
X190317686Y-72425500D01*
X190416521Y-72482563D01*
X190431810Y-72491390D01*
X190431814Y-72491392D01*
X190559108Y-72525500D01*
X190559110Y-72525500D01*
X190690890Y-72525500D01*
X190690892Y-72525500D01*
X190818186Y-72491392D01*
X190932314Y-72425500D01*
X191025500Y-72332314D01*
X191091392Y-72218186D01*
X191125500Y-72090892D01*
X191125500Y-72019854D01*
X191145185Y-71952815D01*
X191197989Y-71907060D01*
X191249943Y-71895855D01*
X192400000Y-71900000D01*
X192428199Y-69934108D01*
X193974500Y-69934108D01*
X193974500Y-70065891D01*
X194008608Y-70193187D01*
X194041554Y-70250250D01*
X194074500Y-70307314D01*
X194167686Y-70400500D01*
X194281814Y-70466392D01*
X194409108Y-70500500D01*
X194409110Y-70500500D01*
X194540890Y-70500500D01*
X194540892Y-70500500D01*
X194668186Y-70466392D01*
X194782314Y-70400500D01*
X194875500Y-70307314D01*
X194941392Y-70193186D01*
X194975500Y-70065892D01*
X194975500Y-69934108D01*
X194941392Y-69806814D01*
X194875500Y-69692686D01*
X194782314Y-69599500D01*
X194725250Y-69566554D01*
X194668187Y-69533608D01*
X194604539Y-69516554D01*
X194540892Y-69499500D01*
X194409108Y-69499500D01*
X194281812Y-69533608D01*
X194167686Y-69599500D01*
X194167683Y-69599502D01*
X194074502Y-69692683D01*
X194074500Y-69692686D01*
X194008608Y-69806812D01*
X193974500Y-69934108D01*
X192428199Y-69934108D01*
X192447615Y-68580530D01*
X195549500Y-68580530D01*
X195549500Y-68787469D01*
X195589868Y-68990412D01*
X195589870Y-68990420D01*
X195669058Y-69181596D01*
X195784024Y-69353657D01*
X195930342Y-69499975D01*
X195930345Y-69499977D01*
X196102402Y-69614941D01*
X196293580Y-69694130D01*
X196496530Y-69734499D01*
X196496534Y-69734500D01*
X196496535Y-69734500D01*
X196703466Y-69734500D01*
X196703467Y-69734499D01*
X196906420Y-69694130D01*
X197097598Y-69614941D01*
X197269655Y-69499977D01*
X197415977Y-69353655D01*
X197530941Y-69181598D01*
X197610130Y-68990420D01*
X197650500Y-68787465D01*
X197650500Y-68580535D01*
X197610130Y-68377580D01*
X197530941Y-68186402D01*
X197415977Y-68014345D01*
X197415975Y-68014342D01*
X197269657Y-67868024D01*
X197116804Y-67765892D01*
X197097598Y-67753059D01*
X196906420Y-67673870D01*
X196906412Y-67673868D01*
X196703469Y-67633500D01*
X196703465Y-67633500D01*
X196496535Y-67633500D01*
X196496530Y-67633500D01*
X196293587Y-67673868D01*
X196293579Y-67673870D01*
X196102403Y-67753058D01*
X195930342Y-67868024D01*
X195784024Y-68014342D01*
X195669058Y-68186403D01*
X195589870Y-68377579D01*
X195589868Y-68377587D01*
X195549500Y-68580530D01*
X192447615Y-68580530D01*
X192484049Y-66040530D01*
X195549500Y-66040530D01*
X195549500Y-66247469D01*
X195589868Y-66450412D01*
X195589870Y-66450420D01*
X195669058Y-66641596D01*
X195784024Y-66813657D01*
X195930342Y-66959975D01*
X195930345Y-66959977D01*
X196102402Y-67074941D01*
X196293580Y-67154130D01*
X196496530Y-67194499D01*
X196496534Y-67194500D01*
X196496535Y-67194500D01*
X196703466Y-67194500D01*
X196703467Y-67194499D01*
X196906420Y-67154130D01*
X197097598Y-67074941D01*
X197269655Y-66959977D01*
X197415977Y-66813655D01*
X197530941Y-66641598D01*
X197610130Y-66450420D01*
X197650500Y-66247465D01*
X197650500Y-66040535D01*
X197610130Y-65837580D01*
X197530941Y-65646402D01*
X197415977Y-65474345D01*
X197415975Y-65474342D01*
X197269657Y-65328024D01*
X197102586Y-65216392D01*
X197097598Y-65213059D01*
X196983727Y-65165892D01*
X196906420Y-65133870D01*
X196906412Y-65133868D01*
X196703469Y-65093500D01*
X196703465Y-65093500D01*
X196496535Y-65093500D01*
X196496530Y-65093500D01*
X196293587Y-65133868D01*
X196293579Y-65133870D01*
X196102403Y-65213058D01*
X195930342Y-65328024D01*
X195784024Y-65474342D01*
X195669058Y-65646403D01*
X195589870Y-65837579D01*
X195589868Y-65837587D01*
X195549500Y-66040530D01*
X192484049Y-66040530D01*
X192496792Y-65152173D01*
X192517436Y-65085426D01*
X192570891Y-65040433D01*
X192640185Y-65031483D01*
X192703317Y-65061416D01*
X192708460Y-65066274D01*
X192792686Y-65150500D01*
X192906814Y-65216392D01*
X193034108Y-65250500D01*
X193034110Y-65250500D01*
X193165890Y-65250500D01*
X193165892Y-65250500D01*
X193293186Y-65216392D01*
X193407314Y-65150500D01*
X193500500Y-65057314D01*
X193566392Y-64943186D01*
X193600500Y-64815892D01*
X193600500Y-64684108D01*
X193566392Y-64556814D01*
X193500500Y-64442686D01*
X193407314Y-64349500D01*
X193333380Y-64306814D01*
X193293187Y-64283608D01*
X193229539Y-64266554D01*
X193165892Y-64249500D01*
X193034108Y-64249500D01*
X192906812Y-64283608D01*
X192792686Y-64349500D01*
X192720218Y-64421968D01*
X192658894Y-64455452D01*
X192589203Y-64450467D01*
X192533269Y-64408596D01*
X192508853Y-64343131D01*
X192508550Y-64332508D01*
X192568313Y-60166155D01*
X195250000Y-60166155D01*
X195250000Y-60814000D01*
X196166988Y-60814000D01*
X196134075Y-60871007D01*
X196100000Y-60998174D01*
X196100000Y-61129826D01*
X196134075Y-61256993D01*
X196166988Y-61314000D01*
X195250000Y-61314000D01*
X195250000Y-61961844D01*
X195256401Y-62021372D01*
X195256403Y-62021379D01*
X195306645Y-62156086D01*
X195306649Y-62156093D01*
X195392809Y-62271187D01*
X195392812Y-62271190D01*
X195507906Y-62357350D01*
X195507913Y-62357354D01*
X195642620Y-62407596D01*
X195642627Y-62407598D01*
X195702155Y-62413999D01*
X195702172Y-62414000D01*
X196104435Y-62414000D01*
X196171474Y-62433685D01*
X196217229Y-62486489D01*
X196227173Y-62555647D01*
X196198148Y-62619203D01*
X196151888Y-62652561D01*
X196102403Y-62673058D01*
X195930342Y-62788024D01*
X195784024Y-62934342D01*
X195669058Y-63106403D01*
X195589870Y-63297579D01*
X195589868Y-63297587D01*
X195549500Y-63500530D01*
X195549500Y-63707469D01*
X195589868Y-63910412D01*
X195589870Y-63910420D01*
X195669058Y-64101596D01*
X195784024Y-64273657D01*
X195930342Y-64419975D01*
X195930345Y-64419977D01*
X196102402Y-64534941D01*
X196293580Y-64614130D01*
X196496530Y-64654499D01*
X196496534Y-64654500D01*
X196496535Y-64654500D01*
X196703466Y-64654500D01*
X196703467Y-64654499D01*
X196906420Y-64614130D01*
X197097598Y-64534941D01*
X197269655Y-64419977D01*
X197415977Y-64273655D01*
X197530941Y-64101598D01*
X197610130Y-63910420D01*
X197650500Y-63707465D01*
X197650500Y-63500535D01*
X197610130Y-63297580D01*
X197530941Y-63106402D01*
X197415977Y-62934345D01*
X197415975Y-62934342D01*
X197269657Y-62788024D01*
X197183626Y-62730541D01*
X197097598Y-62673059D01*
X197048112Y-62652561D01*
X196993709Y-62608720D01*
X196971644Y-62542426D01*
X196988923Y-62474726D01*
X197040061Y-62427116D01*
X197095565Y-62414000D01*
X197497828Y-62414000D01*
X197497844Y-62413999D01*
X197557372Y-62407598D01*
X197557379Y-62407596D01*
X197692086Y-62357354D01*
X197692093Y-62357350D01*
X197807187Y-62271190D01*
X197807190Y-62271187D01*
X197893350Y-62156093D01*
X197893354Y-62156086D01*
X197943596Y-62021379D01*
X197943598Y-62021372D01*
X197949999Y-61961844D01*
X197950000Y-61961827D01*
X197950000Y-61314000D01*
X197033012Y-61314000D01*
X197065925Y-61256993D01*
X197100000Y-61129826D01*
X197100000Y-60998174D01*
X197065925Y-60871007D01*
X197033012Y-60814000D01*
X197950000Y-60814000D01*
X197950000Y-60166172D01*
X197949999Y-60166155D01*
X197943598Y-60106627D01*
X197943596Y-60106620D01*
X197893354Y-59971913D01*
X197893350Y-59971906D01*
X197807190Y-59856812D01*
X197807187Y-59856809D01*
X197692093Y-59770649D01*
X197692086Y-59770645D01*
X197557379Y-59720403D01*
X197557372Y-59720401D01*
X197497844Y-59714000D01*
X196850000Y-59714000D01*
X196850000Y-60630988D01*
X196792993Y-60598075D01*
X196665826Y-60564000D01*
X196534174Y-60564000D01*
X196407007Y-60598075D01*
X196350000Y-60630988D01*
X196350000Y-59714000D01*
X195702155Y-59714000D01*
X195642627Y-59720401D01*
X195642620Y-59720403D01*
X195507913Y-59770645D01*
X195507906Y-59770649D01*
X195392812Y-59856809D01*
X195392809Y-59856812D01*
X195306649Y-59971906D01*
X195306645Y-59971913D01*
X195256403Y-60106620D01*
X195256401Y-60106627D01*
X195250000Y-60166155D01*
X192568313Y-60166155D01*
X192638354Y-55283342D01*
X192645921Y-54755828D01*
X192666565Y-54689078D01*
X192720020Y-54644085D01*
X192789314Y-54635135D01*
X192852446Y-54665068D01*
X192880392Y-54701310D01*
X192923764Y-54786433D01*
X193062590Y-54977510D01*
X193229597Y-55144517D01*
X193420674Y-55283343D01*
X193467351Y-55307126D01*
X193631110Y-55390566D01*
X193631112Y-55390566D01*
X193631115Y-55390568D01*
X193751519Y-55429689D01*
X193855738Y-55463553D01*
X194089010Y-55500500D01*
X194089015Y-55500500D01*
X194325204Y-55500500D01*
X194558475Y-55463553D01*
X194622121Y-55442873D01*
X194783099Y-55390568D01*
X194993540Y-55283343D01*
X195184617Y-55144517D01*
X195351624Y-54977510D01*
X195490450Y-54786433D01*
X195597675Y-54575992D01*
X195670660Y-54351368D01*
X195695793Y-54192686D01*
X195707607Y-54118097D01*
X195707607Y-53881902D01*
X195670660Y-53648631D01*
X195597673Y-53424003D01*
X195511457Y-53254796D01*
X195490450Y-53213567D01*
X195351624Y-53022490D01*
X195184617Y-52855483D01*
X194993540Y-52716657D01*
X194928678Y-52683608D01*
X194783103Y-52609433D01*
X194558475Y-52536446D01*
X194325204Y-52499500D01*
X194325199Y-52499500D01*
X194089015Y-52499500D01*
X194089010Y-52499500D01*
X193855738Y-52536446D01*
X193631110Y-52609433D01*
X193420673Y-52716657D01*
X193311657Y-52795862D01*
X193229597Y-52855483D01*
X193229595Y-52855485D01*
X193229594Y-52855485D01*
X193062592Y-53022487D01*
X193062592Y-53022488D01*
X193062590Y-53022490D01*
X193017822Y-53084108D01*
X192923762Y-53213569D01*
X192902756Y-53254796D01*
X192854782Y-53305591D01*
X192786961Y-53322386D01*
X192720826Y-53299848D01*
X192677375Y-53245133D01*
X192668285Y-53196721D01*
X192719552Y-49622721D01*
X192740196Y-49555971D01*
X192793651Y-49510978D01*
X192843539Y-49500500D01*
X197934108Y-49500500D01*
X197993038Y-49500500D01*
X198006922Y-49501280D01*
G37*
%TD.AperFunction*%
%TD*%
%TA.AperFunction,Conductor*%
%TO.N,/VBUS*%
G36*
X151161857Y-80219685D02*
G01*
X151192838Y-80252176D01*
X151194550Y-80250863D01*
X151199499Y-80257312D01*
X151199500Y-80257314D01*
X151292686Y-80350500D01*
X151406814Y-80416392D01*
X151534108Y-80450500D01*
X151534110Y-80450500D01*
X151665890Y-80450500D01*
X151665892Y-80450500D01*
X151793186Y-80416392D01*
X151907314Y-80350500D01*
X152000500Y-80257314D01*
X152000503Y-80257307D01*
X152005450Y-80250863D01*
X152007179Y-80252190D01*
X152011469Y-80242797D01*
X152031301Y-80230051D01*
X152048364Y-80213783D01*
X152061619Y-80210567D01*
X152070247Y-80205023D01*
X152105182Y-80200000D01*
X152273224Y-80200000D01*
X152340263Y-80219685D01*
X152386018Y-80272489D01*
X152397194Y-80326745D01*
X152286351Y-85333120D01*
X152265187Y-85399707D01*
X152211383Y-85444282D01*
X152142021Y-85452692D01*
X152100378Y-85437760D01*
X152093189Y-85433609D01*
X152093186Y-85433608D01*
X151965892Y-85399500D01*
X151834108Y-85399500D01*
X151706812Y-85433608D01*
X151592686Y-85499500D01*
X151592683Y-85499502D01*
X151499502Y-85592683D01*
X151499500Y-85592686D01*
X151433608Y-85706812D01*
X151399500Y-85834108D01*
X151399500Y-85965891D01*
X151433608Y-86093187D01*
X151466554Y-86150250D01*
X151499500Y-86207314D01*
X151592686Y-86300500D01*
X151706814Y-86366392D01*
X151834108Y-86400500D01*
X151834110Y-86400500D01*
X151965890Y-86400500D01*
X151965892Y-86400500D01*
X152093186Y-86366392D01*
X152093187Y-86366391D01*
X152101037Y-86364288D01*
X152101667Y-86366639D01*
X152158860Y-86360477D01*
X152221347Y-86391738D01*
X152257013Y-86451818D01*
X152260842Y-86485257D01*
X152114452Y-93097294D01*
X152093288Y-93163881D01*
X152039484Y-93208456D01*
X151989355Y-93218544D01*
X150456669Y-93204610D01*
X150395796Y-93188002D01*
X150325735Y-93147552D01*
X150325732Y-93147551D01*
X150198438Y-93113443D01*
X150066654Y-93113443D01*
X149939360Y-93147551D01*
X149939359Y-93147551D01*
X149879378Y-93182181D01*
X149816252Y-93198788D01*
X148857337Y-93190070D01*
X148826545Y-93183806D01*
X148826035Y-93185711D01*
X148785896Y-93174956D01*
X148690892Y-93149500D01*
X148559108Y-93149500D01*
X148438773Y-93181743D01*
X148405553Y-93185963D01*
X148056875Y-93182794D01*
X148053349Y-93182762D01*
X148055714Y-93100000D01*
X146613333Y-93100000D01*
X146676720Y-90247583D01*
X146844798Y-82684108D01*
X148449500Y-82684108D01*
X148449500Y-82815891D01*
X148483608Y-82943187D01*
X148516554Y-83000250D01*
X148549500Y-83057314D01*
X148642686Y-83150500D01*
X148756814Y-83216392D01*
X148884108Y-83250500D01*
X148884110Y-83250500D01*
X149015890Y-83250500D01*
X149015892Y-83250500D01*
X149143186Y-83216392D01*
X149257314Y-83150500D01*
X149350500Y-83057314D01*
X149416392Y-82943186D01*
X149450500Y-82815892D01*
X149450500Y-82684108D01*
X149416392Y-82556814D01*
X149350500Y-82442686D01*
X149257314Y-82349500D01*
X149200250Y-82316554D01*
X149143187Y-82283608D01*
X149079539Y-82266554D01*
X149015892Y-82249500D01*
X148884108Y-82249500D01*
X148756812Y-82283608D01*
X148642686Y-82349500D01*
X148642683Y-82349502D01*
X148549502Y-82442683D01*
X148549500Y-82442686D01*
X148483608Y-82556812D01*
X148449500Y-82684108D01*
X146844798Y-82684108D01*
X146845040Y-82673226D01*
X146897306Y-80321245D01*
X146918475Y-80254660D01*
X146972282Y-80210089D01*
X147021275Y-80200000D01*
X151094818Y-80200000D01*
X151161857Y-80219685D01*
G37*
%TD.AperFunction*%
%TD*%
%TA.AperFunction,Conductor*%
%TO.N,/VBUS*%
G36*
X148053349Y-93182762D02*
G01*
X148053348Y-93182763D01*
X148003442Y-94929541D01*
X147981851Y-94995991D01*
X147927762Y-95040219D01*
X147879493Y-95050000D01*
X146731937Y-95050000D01*
X146664898Y-95030315D01*
X146619143Y-94977511D01*
X146607937Y-94926000D01*
X146607937Y-93342807D01*
X146607936Y-93342803D01*
X146582711Y-93206759D01*
X146582368Y-93163481D01*
X146593101Y-93100000D01*
X146613333Y-93100000D01*
X148055714Y-93100000D01*
X148053349Y-93182762D01*
G37*
%TD.AperFunction*%
%TD*%
%TA.AperFunction,Conductor*%
%TO.N,/+5V_USB*%
G36*
X137547222Y-88806746D02*
G01*
X137850000Y-88850000D01*
X139950000Y-88950000D01*
X140501925Y-88976282D01*
X140546742Y-88986989D01*
X143326211Y-90232957D01*
X143333541Y-90236537D01*
X145079528Y-91161731D01*
X145129548Y-91210514D01*
X145145253Y-91278596D01*
X145145248Y-91278687D01*
X144918308Y-95080982D01*
X144894664Y-95146729D01*
X144839228Y-95189257D01*
X144817156Y-95195512D01*
X138827992Y-96307117D01*
X138800000Y-93200000D01*
X137206971Y-93222332D01*
X137206588Y-93192219D01*
X137216703Y-93141567D01*
X137267053Y-93024732D01*
X137267053Y-93024731D01*
X137267055Y-93024727D01*
X137285293Y-92957280D01*
X137302701Y-92814461D01*
X137219595Y-88950000D01*
X137219212Y-88932166D01*
X137221923Y-88922137D01*
X137220445Y-88911853D01*
X137230888Y-88888985D01*
X137237450Y-88864719D01*
X137245153Y-88857747D01*
X137249470Y-88848297D01*
X137270617Y-88834706D01*
X137289258Y-88817839D01*
X137301069Y-88815136D01*
X137308248Y-88810523D01*
X137343183Y-88805500D01*
X137529686Y-88805500D01*
X137547222Y-88806746D01*
G37*
%TD.AperFunction*%
%TD*%
%TA.AperFunction,Conductor*%
%TO.N,/+5V_USB*%
G36*
X125997849Y-89842539D02*
G01*
X126063276Y-89867055D01*
X126105063Y-89923051D01*
X126111967Y-89951722D01*
X126185194Y-90574153D01*
X126173477Y-90643033D01*
X126126381Y-90694644D01*
X126073861Y-90712077D01*
X122114710Y-91091145D01*
X121960838Y-94322457D01*
X128150000Y-94550000D01*
X127950000Y-98799999D01*
X127949949Y-98800000D01*
X123902927Y-98855950D01*
X123835622Y-98837194D01*
X123789141Y-98785028D01*
X123778243Y-98716013D01*
X123806387Y-98652062D01*
X123813521Y-98644292D01*
X123850500Y-98607314D01*
X123916392Y-98493186D01*
X123950500Y-98365892D01*
X123950500Y-98234108D01*
X123916392Y-98106814D01*
X123850500Y-97992686D01*
X123757314Y-97899500D01*
X123700250Y-97866554D01*
X123643187Y-97833608D01*
X123579539Y-97816554D01*
X123515892Y-97799500D01*
X123384108Y-97799500D01*
X123256812Y-97833608D01*
X123142686Y-97899500D01*
X123142683Y-97899502D01*
X123049502Y-97992683D01*
X123049500Y-97992686D01*
X122983608Y-98106812D01*
X122949500Y-98234108D01*
X122949500Y-98365891D01*
X122983608Y-98493187D01*
X123016554Y-98550250D01*
X123049500Y-98607314D01*
X123049502Y-98607316D01*
X123098773Y-98656587D01*
X123132258Y-98717910D01*
X123127274Y-98787602D01*
X123085402Y-98843535D01*
X123019938Y-98867952D01*
X123012806Y-98868256D01*
X117227009Y-98948244D01*
X117159704Y-98929488D01*
X117113223Y-98877322D01*
X117101302Y-98822987D01*
X117139137Y-95134108D01*
X122299500Y-95134108D01*
X122299500Y-95265891D01*
X122333608Y-95393187D01*
X122366554Y-95450250D01*
X122399500Y-95507314D01*
X122492686Y-95600500D01*
X122606814Y-95666392D01*
X122734108Y-95700500D01*
X122734110Y-95700500D01*
X122865890Y-95700500D01*
X122865892Y-95700500D01*
X122993186Y-95666392D01*
X123107314Y-95600500D01*
X123200500Y-95507314D01*
X123266392Y-95393186D01*
X123300500Y-95265892D01*
X123300500Y-95134108D01*
X123266392Y-95006814D01*
X123200500Y-94892686D01*
X123107314Y-94799500D01*
X123050250Y-94766554D01*
X122993187Y-94733608D01*
X122929539Y-94716554D01*
X122865892Y-94699500D01*
X122734108Y-94699500D01*
X122606812Y-94733608D01*
X122492686Y-94799500D01*
X122492683Y-94799502D01*
X122399502Y-94892683D01*
X122399500Y-94892686D01*
X122333608Y-95006812D01*
X122299500Y-95134108D01*
X117139137Y-95134108D01*
X117198646Y-89332011D01*
X117219016Y-89265181D01*
X117272286Y-89219970D01*
X117331668Y-89209616D01*
X125997849Y-89842539D01*
G37*
%TD.AperFunction*%
%TD*%
M02*
