%TF.GenerationSoftware,KiCad,Pcbnew,9.0.0*%
%TF.CreationDate,2025-05-12T22:40:26+02:00*%
%TF.ProjectId,ESP32_PeterDalmaris_Board,45535033-325f-4506-9574-657244616c6d,rev?*%
%TF.SameCoordinates,Original*%
%TF.FileFunction,Legend,Top*%
%TF.FilePolarity,Positive*%
%FSLAX46Y46*%
G04 Gerber Fmt 4.6, Leading zero omitted, Abs format (unit mm)*
G04 Created by KiCad (PCBNEW 9.0.0) date 2025-05-12 22:40:26*
%MOMM*%
%LPD*%
G01*
G04 APERTURE LIST*
%ADD10C,0.300000*%
%ADD11C,0.150000*%
%ADD12C,0.127000*%
%ADD13C,0.200000*%
%ADD14C,0.120000*%
%ADD15C,0.152400*%
%ADD16C,0.100000*%
G04 APERTURE END LIST*
D10*
X141900000Y-74600000D02*
G75*
G02*
X141700000Y-74600000I-100000J0D01*
G01*
X141700000Y-74600000D02*
G75*
G02*
X141900000Y-74600000I100000J0D01*
G01*
X141900000Y-78400000D02*
G75*
G02*
X141700000Y-78400000I-100000J0D01*
G01*
X141700000Y-78400000D02*
G75*
G02*
X141900000Y-78400000I100000J0D01*
G01*
X135300000Y-89200000D02*
G75*
G02*
X135100000Y-89200000I-100000J0D01*
G01*
X135100000Y-89200000D02*
G75*
G02*
X135300000Y-89200000I100000J0D01*
G01*
X135300000Y-91600000D02*
G75*
G02*
X135100000Y-91600000I-100000J0D01*
G01*
X135100000Y-91600000D02*
G75*
G02*
X135300000Y-91600000I100000J0D01*
G01*
X134500000Y-95800000D02*
G75*
G02*
X134300000Y-95800000I-100000J0D01*
G01*
X134300000Y-95800000D02*
G75*
G02*
X134500000Y-95800000I100000J0D01*
G01*
X160700000Y-89800000D02*
G75*
G02*
X160500000Y-89800000I-100000J0D01*
G01*
X160500000Y-89800000D02*
G75*
G02*
X160700000Y-89800000I100000J0D01*
G01*
D11*
X192610588Y-83167438D02*
X192515350Y-83119819D01*
X192515350Y-83119819D02*
X192372493Y-83119819D01*
X192372493Y-83119819D02*
X192229636Y-83167438D01*
X192229636Y-83167438D02*
X192134398Y-83262676D01*
X192134398Y-83262676D02*
X192086779Y-83357914D01*
X192086779Y-83357914D02*
X192039160Y-83548390D01*
X192039160Y-83548390D02*
X192039160Y-83691247D01*
X192039160Y-83691247D02*
X192086779Y-83881723D01*
X192086779Y-83881723D02*
X192134398Y-83976961D01*
X192134398Y-83976961D02*
X192229636Y-84072200D01*
X192229636Y-84072200D02*
X192372493Y-84119819D01*
X192372493Y-84119819D02*
X192467731Y-84119819D01*
X192467731Y-84119819D02*
X192610588Y-84072200D01*
X192610588Y-84072200D02*
X192658207Y-84024580D01*
X192658207Y-84024580D02*
X192658207Y-83691247D01*
X192658207Y-83691247D02*
X192467731Y-83691247D01*
X193086779Y-84119819D02*
X193086779Y-83119819D01*
X193086779Y-83119819D02*
X193658207Y-84119819D01*
X193658207Y-84119819D02*
X193658207Y-83119819D01*
X194134398Y-84119819D02*
X194134398Y-83119819D01*
X194134398Y-83119819D02*
X194372493Y-83119819D01*
X194372493Y-83119819D02*
X194515350Y-83167438D01*
X194515350Y-83167438D02*
X194610588Y-83262676D01*
X194610588Y-83262676D02*
X194658207Y-83357914D01*
X194658207Y-83357914D02*
X194705826Y-83548390D01*
X194705826Y-83548390D02*
X194705826Y-83691247D01*
X194705826Y-83691247D02*
X194658207Y-83881723D01*
X194658207Y-83881723D02*
X194610588Y-83976961D01*
X194610588Y-83976961D02*
X194515350Y-84072200D01*
X194515350Y-84072200D02*
X194372493Y-84119819D01*
X194372493Y-84119819D02*
X194134398Y-84119819D01*
X190110588Y-80667438D02*
X190015350Y-80619819D01*
X190015350Y-80619819D02*
X189872493Y-80619819D01*
X189872493Y-80619819D02*
X189729636Y-80667438D01*
X189729636Y-80667438D02*
X189634398Y-80762676D01*
X189634398Y-80762676D02*
X189586779Y-80857914D01*
X189586779Y-80857914D02*
X189539160Y-81048390D01*
X189539160Y-81048390D02*
X189539160Y-81191247D01*
X189539160Y-81191247D02*
X189586779Y-81381723D01*
X189586779Y-81381723D02*
X189634398Y-81476961D01*
X189634398Y-81476961D02*
X189729636Y-81572200D01*
X189729636Y-81572200D02*
X189872493Y-81619819D01*
X189872493Y-81619819D02*
X189967731Y-81619819D01*
X189967731Y-81619819D02*
X190110588Y-81572200D01*
X190110588Y-81572200D02*
X190158207Y-81524580D01*
X190158207Y-81524580D02*
X190158207Y-81191247D01*
X190158207Y-81191247D02*
X189967731Y-81191247D01*
X190586779Y-81619819D02*
X190586779Y-80619819D01*
X190586779Y-80619819D02*
X190967731Y-80619819D01*
X190967731Y-80619819D02*
X191062969Y-80667438D01*
X191062969Y-80667438D02*
X191110588Y-80715057D01*
X191110588Y-80715057D02*
X191158207Y-80810295D01*
X191158207Y-80810295D02*
X191158207Y-80953152D01*
X191158207Y-80953152D02*
X191110588Y-81048390D01*
X191110588Y-81048390D02*
X191062969Y-81096009D01*
X191062969Y-81096009D02*
X190967731Y-81143628D01*
X190967731Y-81143628D02*
X190586779Y-81143628D01*
X191586779Y-81619819D02*
X191586779Y-80619819D01*
X192253445Y-80619819D02*
X192443921Y-80619819D01*
X192443921Y-80619819D02*
X192539159Y-80667438D01*
X192539159Y-80667438D02*
X192634397Y-80762676D01*
X192634397Y-80762676D02*
X192682016Y-80953152D01*
X192682016Y-80953152D02*
X192682016Y-81286485D01*
X192682016Y-81286485D02*
X192634397Y-81476961D01*
X192634397Y-81476961D02*
X192539159Y-81572200D01*
X192539159Y-81572200D02*
X192443921Y-81619819D01*
X192443921Y-81619819D02*
X192253445Y-81619819D01*
X192253445Y-81619819D02*
X192158207Y-81572200D01*
X192158207Y-81572200D02*
X192062969Y-81476961D01*
X192062969Y-81476961D02*
X192015350Y-81286485D01*
X192015350Y-81286485D02*
X192015350Y-80953152D01*
X192015350Y-80953152D02*
X192062969Y-80762676D01*
X192062969Y-80762676D02*
X192158207Y-80667438D01*
X192158207Y-80667438D02*
X192253445Y-80619819D01*
X193634397Y-81619819D02*
X193062969Y-81619819D01*
X193348683Y-81619819D02*
X193348683Y-80619819D01*
X193348683Y-80619819D02*
X193253445Y-80762676D01*
X193253445Y-80762676D02*
X193158207Y-80857914D01*
X193158207Y-80857914D02*
X193062969Y-80905533D01*
X194110588Y-81619819D02*
X194301064Y-81619819D01*
X194301064Y-81619819D02*
X194396302Y-81572200D01*
X194396302Y-81572200D02*
X194443921Y-81524580D01*
X194443921Y-81524580D02*
X194539159Y-81381723D01*
X194539159Y-81381723D02*
X194586778Y-81191247D01*
X194586778Y-81191247D02*
X194586778Y-80810295D01*
X194586778Y-80810295D02*
X194539159Y-80715057D01*
X194539159Y-80715057D02*
X194491540Y-80667438D01*
X194491540Y-80667438D02*
X194396302Y-80619819D01*
X194396302Y-80619819D02*
X194205826Y-80619819D01*
X194205826Y-80619819D02*
X194110588Y-80667438D01*
X194110588Y-80667438D02*
X194062969Y-80715057D01*
X194062969Y-80715057D02*
X194015350Y-80810295D01*
X194015350Y-80810295D02*
X194015350Y-81048390D01*
X194015350Y-81048390D02*
X194062969Y-81143628D01*
X194062969Y-81143628D02*
X194110588Y-81191247D01*
X194110588Y-81191247D02*
X194205826Y-81238866D01*
X194205826Y-81238866D02*
X194396302Y-81238866D01*
X194396302Y-81238866D02*
X194491540Y-81191247D01*
X194491540Y-81191247D02*
X194539159Y-81143628D01*
X194539159Y-81143628D02*
X194586778Y-81048390D01*
X190110588Y-78167438D02*
X190015350Y-78119819D01*
X190015350Y-78119819D02*
X189872493Y-78119819D01*
X189872493Y-78119819D02*
X189729636Y-78167438D01*
X189729636Y-78167438D02*
X189634398Y-78262676D01*
X189634398Y-78262676D02*
X189586779Y-78357914D01*
X189586779Y-78357914D02*
X189539160Y-78548390D01*
X189539160Y-78548390D02*
X189539160Y-78691247D01*
X189539160Y-78691247D02*
X189586779Y-78881723D01*
X189586779Y-78881723D02*
X189634398Y-78976961D01*
X189634398Y-78976961D02*
X189729636Y-79072200D01*
X189729636Y-79072200D02*
X189872493Y-79119819D01*
X189872493Y-79119819D02*
X189967731Y-79119819D01*
X189967731Y-79119819D02*
X190110588Y-79072200D01*
X190110588Y-79072200D02*
X190158207Y-79024580D01*
X190158207Y-79024580D02*
X190158207Y-78691247D01*
X190158207Y-78691247D02*
X189967731Y-78691247D01*
X190586779Y-79119819D02*
X190586779Y-78119819D01*
X190586779Y-78119819D02*
X190967731Y-78119819D01*
X190967731Y-78119819D02*
X191062969Y-78167438D01*
X191062969Y-78167438D02*
X191110588Y-78215057D01*
X191110588Y-78215057D02*
X191158207Y-78310295D01*
X191158207Y-78310295D02*
X191158207Y-78453152D01*
X191158207Y-78453152D02*
X191110588Y-78548390D01*
X191110588Y-78548390D02*
X191062969Y-78596009D01*
X191062969Y-78596009D02*
X190967731Y-78643628D01*
X190967731Y-78643628D02*
X190586779Y-78643628D01*
X191586779Y-79119819D02*
X191586779Y-78119819D01*
X192253445Y-78119819D02*
X192443921Y-78119819D01*
X192443921Y-78119819D02*
X192539159Y-78167438D01*
X192539159Y-78167438D02*
X192634397Y-78262676D01*
X192634397Y-78262676D02*
X192682016Y-78453152D01*
X192682016Y-78453152D02*
X192682016Y-78786485D01*
X192682016Y-78786485D02*
X192634397Y-78976961D01*
X192634397Y-78976961D02*
X192539159Y-79072200D01*
X192539159Y-79072200D02*
X192443921Y-79119819D01*
X192443921Y-79119819D02*
X192253445Y-79119819D01*
X192253445Y-79119819D02*
X192158207Y-79072200D01*
X192158207Y-79072200D02*
X192062969Y-78976961D01*
X192062969Y-78976961D02*
X192015350Y-78786485D01*
X192015350Y-78786485D02*
X192015350Y-78453152D01*
X192015350Y-78453152D02*
X192062969Y-78262676D01*
X192062969Y-78262676D02*
X192158207Y-78167438D01*
X192158207Y-78167438D02*
X192253445Y-78119819D01*
X193634397Y-79119819D02*
X193062969Y-79119819D01*
X193348683Y-79119819D02*
X193348683Y-78119819D01*
X193348683Y-78119819D02*
X193253445Y-78262676D01*
X193253445Y-78262676D02*
X193158207Y-78357914D01*
X193158207Y-78357914D02*
X193062969Y-78405533D01*
X194205826Y-78548390D02*
X194110588Y-78500771D01*
X194110588Y-78500771D02*
X194062969Y-78453152D01*
X194062969Y-78453152D02*
X194015350Y-78357914D01*
X194015350Y-78357914D02*
X194015350Y-78310295D01*
X194015350Y-78310295D02*
X194062969Y-78215057D01*
X194062969Y-78215057D02*
X194110588Y-78167438D01*
X194110588Y-78167438D02*
X194205826Y-78119819D01*
X194205826Y-78119819D02*
X194396302Y-78119819D01*
X194396302Y-78119819D02*
X194491540Y-78167438D01*
X194491540Y-78167438D02*
X194539159Y-78215057D01*
X194539159Y-78215057D02*
X194586778Y-78310295D01*
X194586778Y-78310295D02*
X194586778Y-78357914D01*
X194586778Y-78357914D02*
X194539159Y-78453152D01*
X194539159Y-78453152D02*
X194491540Y-78500771D01*
X194491540Y-78500771D02*
X194396302Y-78548390D01*
X194396302Y-78548390D02*
X194205826Y-78548390D01*
X194205826Y-78548390D02*
X194110588Y-78596009D01*
X194110588Y-78596009D02*
X194062969Y-78643628D01*
X194062969Y-78643628D02*
X194015350Y-78738866D01*
X194015350Y-78738866D02*
X194015350Y-78929342D01*
X194015350Y-78929342D02*
X194062969Y-79024580D01*
X194062969Y-79024580D02*
X194110588Y-79072200D01*
X194110588Y-79072200D02*
X194205826Y-79119819D01*
X194205826Y-79119819D02*
X194396302Y-79119819D01*
X194396302Y-79119819D02*
X194491540Y-79072200D01*
X194491540Y-79072200D02*
X194539159Y-79024580D01*
X194539159Y-79024580D02*
X194586778Y-78929342D01*
X194586778Y-78929342D02*
X194586778Y-78738866D01*
X194586778Y-78738866D02*
X194539159Y-78643628D01*
X194539159Y-78643628D02*
X194491540Y-78596009D01*
X194491540Y-78596009D02*
X194396302Y-78548390D01*
X191110588Y-75417438D02*
X191015350Y-75369819D01*
X191015350Y-75369819D02*
X190872493Y-75369819D01*
X190872493Y-75369819D02*
X190729636Y-75417438D01*
X190729636Y-75417438D02*
X190634398Y-75512676D01*
X190634398Y-75512676D02*
X190586779Y-75607914D01*
X190586779Y-75607914D02*
X190539160Y-75798390D01*
X190539160Y-75798390D02*
X190539160Y-75941247D01*
X190539160Y-75941247D02*
X190586779Y-76131723D01*
X190586779Y-76131723D02*
X190634398Y-76226961D01*
X190634398Y-76226961D02*
X190729636Y-76322200D01*
X190729636Y-76322200D02*
X190872493Y-76369819D01*
X190872493Y-76369819D02*
X190967731Y-76369819D01*
X190967731Y-76369819D02*
X191110588Y-76322200D01*
X191110588Y-76322200D02*
X191158207Y-76274580D01*
X191158207Y-76274580D02*
X191158207Y-75941247D01*
X191158207Y-75941247D02*
X190967731Y-75941247D01*
X191586779Y-76369819D02*
X191586779Y-75369819D01*
X191586779Y-75369819D02*
X191967731Y-75369819D01*
X191967731Y-75369819D02*
X192062969Y-75417438D01*
X192062969Y-75417438D02*
X192110588Y-75465057D01*
X192110588Y-75465057D02*
X192158207Y-75560295D01*
X192158207Y-75560295D02*
X192158207Y-75703152D01*
X192158207Y-75703152D02*
X192110588Y-75798390D01*
X192110588Y-75798390D02*
X192062969Y-75846009D01*
X192062969Y-75846009D02*
X191967731Y-75893628D01*
X191967731Y-75893628D02*
X191586779Y-75893628D01*
X192586779Y-76369819D02*
X192586779Y-75369819D01*
X193253445Y-75369819D02*
X193443921Y-75369819D01*
X193443921Y-75369819D02*
X193539159Y-75417438D01*
X193539159Y-75417438D02*
X193634397Y-75512676D01*
X193634397Y-75512676D02*
X193682016Y-75703152D01*
X193682016Y-75703152D02*
X193682016Y-76036485D01*
X193682016Y-76036485D02*
X193634397Y-76226961D01*
X193634397Y-76226961D02*
X193539159Y-76322200D01*
X193539159Y-76322200D02*
X193443921Y-76369819D01*
X193443921Y-76369819D02*
X193253445Y-76369819D01*
X193253445Y-76369819D02*
X193158207Y-76322200D01*
X193158207Y-76322200D02*
X193062969Y-76226961D01*
X193062969Y-76226961D02*
X193015350Y-76036485D01*
X193015350Y-76036485D02*
X193015350Y-75703152D01*
X193015350Y-75703152D02*
X193062969Y-75512676D01*
X193062969Y-75512676D02*
X193158207Y-75417438D01*
X193158207Y-75417438D02*
X193253445Y-75369819D01*
X194253445Y-75798390D02*
X194158207Y-75750771D01*
X194158207Y-75750771D02*
X194110588Y-75703152D01*
X194110588Y-75703152D02*
X194062969Y-75607914D01*
X194062969Y-75607914D02*
X194062969Y-75560295D01*
X194062969Y-75560295D02*
X194110588Y-75465057D01*
X194110588Y-75465057D02*
X194158207Y-75417438D01*
X194158207Y-75417438D02*
X194253445Y-75369819D01*
X194253445Y-75369819D02*
X194443921Y-75369819D01*
X194443921Y-75369819D02*
X194539159Y-75417438D01*
X194539159Y-75417438D02*
X194586778Y-75465057D01*
X194586778Y-75465057D02*
X194634397Y-75560295D01*
X194634397Y-75560295D02*
X194634397Y-75607914D01*
X194634397Y-75607914D02*
X194586778Y-75703152D01*
X194586778Y-75703152D02*
X194539159Y-75750771D01*
X194539159Y-75750771D02*
X194443921Y-75798390D01*
X194443921Y-75798390D02*
X194253445Y-75798390D01*
X194253445Y-75798390D02*
X194158207Y-75846009D01*
X194158207Y-75846009D02*
X194110588Y-75893628D01*
X194110588Y-75893628D02*
X194062969Y-75988866D01*
X194062969Y-75988866D02*
X194062969Y-76179342D01*
X194062969Y-76179342D02*
X194110588Y-76274580D01*
X194110588Y-76274580D02*
X194158207Y-76322200D01*
X194158207Y-76322200D02*
X194253445Y-76369819D01*
X194253445Y-76369819D02*
X194443921Y-76369819D01*
X194443921Y-76369819D02*
X194539159Y-76322200D01*
X194539159Y-76322200D02*
X194586778Y-76274580D01*
X194586778Y-76274580D02*
X194634397Y-76179342D01*
X194634397Y-76179342D02*
X194634397Y-75988866D01*
X194634397Y-75988866D02*
X194586778Y-75893628D01*
X194586778Y-75893628D02*
X194539159Y-75846009D01*
X194539159Y-75846009D02*
X194443921Y-75798390D01*
X190336779Y-73738866D02*
X191098684Y-73738866D01*
X190717731Y-74119819D02*
X190717731Y-73357914D01*
X191479636Y-73119819D02*
X192098683Y-73119819D01*
X192098683Y-73119819D02*
X191765350Y-73500771D01*
X191765350Y-73500771D02*
X191908207Y-73500771D01*
X191908207Y-73500771D02*
X192003445Y-73548390D01*
X192003445Y-73548390D02*
X192051064Y-73596009D01*
X192051064Y-73596009D02*
X192098683Y-73691247D01*
X192098683Y-73691247D02*
X192098683Y-73929342D01*
X192098683Y-73929342D02*
X192051064Y-74024580D01*
X192051064Y-74024580D02*
X192003445Y-74072200D01*
X192003445Y-74072200D02*
X191908207Y-74119819D01*
X191908207Y-74119819D02*
X191622493Y-74119819D01*
X191622493Y-74119819D02*
X191527255Y-74072200D01*
X191527255Y-74072200D02*
X191479636Y-74024580D01*
X192527255Y-74024580D02*
X192574874Y-74072200D01*
X192574874Y-74072200D02*
X192527255Y-74119819D01*
X192527255Y-74119819D02*
X192479636Y-74072200D01*
X192479636Y-74072200D02*
X192527255Y-74024580D01*
X192527255Y-74024580D02*
X192527255Y-74119819D01*
X192908207Y-73119819D02*
X193527254Y-73119819D01*
X193527254Y-73119819D02*
X193193921Y-73500771D01*
X193193921Y-73500771D02*
X193336778Y-73500771D01*
X193336778Y-73500771D02*
X193432016Y-73548390D01*
X193432016Y-73548390D02*
X193479635Y-73596009D01*
X193479635Y-73596009D02*
X193527254Y-73691247D01*
X193527254Y-73691247D02*
X193527254Y-73929342D01*
X193527254Y-73929342D02*
X193479635Y-74024580D01*
X193479635Y-74024580D02*
X193432016Y-74072200D01*
X193432016Y-74072200D02*
X193336778Y-74119819D01*
X193336778Y-74119819D02*
X193051064Y-74119819D01*
X193051064Y-74119819D02*
X192955826Y-74072200D01*
X192955826Y-74072200D02*
X192908207Y-74024580D01*
X193812969Y-73119819D02*
X194146302Y-74119819D01*
X194146302Y-74119819D02*
X194479635Y-73119819D01*
X192610588Y-68167438D02*
X192515350Y-68119819D01*
X192515350Y-68119819D02*
X192372493Y-68119819D01*
X192372493Y-68119819D02*
X192229636Y-68167438D01*
X192229636Y-68167438D02*
X192134398Y-68262676D01*
X192134398Y-68262676D02*
X192086779Y-68357914D01*
X192086779Y-68357914D02*
X192039160Y-68548390D01*
X192039160Y-68548390D02*
X192039160Y-68691247D01*
X192039160Y-68691247D02*
X192086779Y-68881723D01*
X192086779Y-68881723D02*
X192134398Y-68976961D01*
X192134398Y-68976961D02*
X192229636Y-69072200D01*
X192229636Y-69072200D02*
X192372493Y-69119819D01*
X192372493Y-69119819D02*
X192467731Y-69119819D01*
X192467731Y-69119819D02*
X192610588Y-69072200D01*
X192610588Y-69072200D02*
X192658207Y-69024580D01*
X192658207Y-69024580D02*
X192658207Y-68691247D01*
X192658207Y-68691247D02*
X192467731Y-68691247D01*
X193086779Y-69119819D02*
X193086779Y-68119819D01*
X193086779Y-68119819D02*
X193658207Y-69119819D01*
X193658207Y-69119819D02*
X193658207Y-68119819D01*
X194134398Y-69119819D02*
X194134398Y-68119819D01*
X194134398Y-68119819D02*
X194372493Y-68119819D01*
X194372493Y-68119819D02*
X194515350Y-68167438D01*
X194515350Y-68167438D02*
X194610588Y-68262676D01*
X194610588Y-68262676D02*
X194658207Y-68357914D01*
X194658207Y-68357914D02*
X194705826Y-68548390D01*
X194705826Y-68548390D02*
X194705826Y-68691247D01*
X194705826Y-68691247D02*
X194658207Y-68881723D01*
X194658207Y-68881723D02*
X194610588Y-68976961D01*
X194610588Y-68976961D02*
X194515350Y-69072200D01*
X194515350Y-69072200D02*
X194372493Y-69119819D01*
X194372493Y-69119819D02*
X194134398Y-69119819D01*
X192039160Y-66572200D02*
X192182017Y-66619819D01*
X192182017Y-66619819D02*
X192420112Y-66619819D01*
X192420112Y-66619819D02*
X192515350Y-66572200D01*
X192515350Y-66572200D02*
X192562969Y-66524580D01*
X192562969Y-66524580D02*
X192610588Y-66429342D01*
X192610588Y-66429342D02*
X192610588Y-66334104D01*
X192610588Y-66334104D02*
X192562969Y-66238866D01*
X192562969Y-66238866D02*
X192515350Y-66191247D01*
X192515350Y-66191247D02*
X192420112Y-66143628D01*
X192420112Y-66143628D02*
X192229636Y-66096009D01*
X192229636Y-66096009D02*
X192134398Y-66048390D01*
X192134398Y-66048390D02*
X192086779Y-66000771D01*
X192086779Y-66000771D02*
X192039160Y-65905533D01*
X192039160Y-65905533D02*
X192039160Y-65810295D01*
X192039160Y-65810295D02*
X192086779Y-65715057D01*
X192086779Y-65715057D02*
X192134398Y-65667438D01*
X192134398Y-65667438D02*
X192229636Y-65619819D01*
X192229636Y-65619819D02*
X192467731Y-65619819D01*
X192467731Y-65619819D02*
X192610588Y-65667438D01*
X193610588Y-66524580D02*
X193562969Y-66572200D01*
X193562969Y-66572200D02*
X193420112Y-66619819D01*
X193420112Y-66619819D02*
X193324874Y-66619819D01*
X193324874Y-66619819D02*
X193182017Y-66572200D01*
X193182017Y-66572200D02*
X193086779Y-66476961D01*
X193086779Y-66476961D02*
X193039160Y-66381723D01*
X193039160Y-66381723D02*
X192991541Y-66191247D01*
X192991541Y-66191247D02*
X192991541Y-66048390D01*
X192991541Y-66048390D02*
X193039160Y-65857914D01*
X193039160Y-65857914D02*
X193086779Y-65762676D01*
X193086779Y-65762676D02*
X193182017Y-65667438D01*
X193182017Y-65667438D02*
X193324874Y-65619819D01*
X193324874Y-65619819D02*
X193420112Y-65619819D01*
X193420112Y-65619819D02*
X193562969Y-65667438D01*
X193562969Y-65667438D02*
X193610588Y-65715057D01*
X194515350Y-66619819D02*
X194039160Y-66619819D01*
X194039160Y-66619819D02*
X194039160Y-65619819D01*
X192039160Y-64072200D02*
X192182017Y-64119819D01*
X192182017Y-64119819D02*
X192420112Y-64119819D01*
X192420112Y-64119819D02*
X192515350Y-64072200D01*
X192515350Y-64072200D02*
X192562969Y-64024580D01*
X192562969Y-64024580D02*
X192610588Y-63929342D01*
X192610588Y-63929342D02*
X192610588Y-63834104D01*
X192610588Y-63834104D02*
X192562969Y-63738866D01*
X192562969Y-63738866D02*
X192515350Y-63691247D01*
X192515350Y-63691247D02*
X192420112Y-63643628D01*
X192420112Y-63643628D02*
X192229636Y-63596009D01*
X192229636Y-63596009D02*
X192134398Y-63548390D01*
X192134398Y-63548390D02*
X192086779Y-63500771D01*
X192086779Y-63500771D02*
X192039160Y-63405533D01*
X192039160Y-63405533D02*
X192039160Y-63310295D01*
X192039160Y-63310295D02*
X192086779Y-63215057D01*
X192086779Y-63215057D02*
X192134398Y-63167438D01*
X192134398Y-63167438D02*
X192229636Y-63119819D01*
X192229636Y-63119819D02*
X192467731Y-63119819D01*
X192467731Y-63119819D02*
X192610588Y-63167438D01*
X193039160Y-64119819D02*
X193039160Y-63119819D01*
X193039160Y-63119819D02*
X193277255Y-63119819D01*
X193277255Y-63119819D02*
X193420112Y-63167438D01*
X193420112Y-63167438D02*
X193515350Y-63262676D01*
X193515350Y-63262676D02*
X193562969Y-63357914D01*
X193562969Y-63357914D02*
X193610588Y-63548390D01*
X193610588Y-63548390D02*
X193610588Y-63691247D01*
X193610588Y-63691247D02*
X193562969Y-63881723D01*
X193562969Y-63881723D02*
X193515350Y-63976961D01*
X193515350Y-63976961D02*
X193420112Y-64072200D01*
X193420112Y-64072200D02*
X193277255Y-64119819D01*
X193277255Y-64119819D02*
X193039160Y-64119819D01*
X193991541Y-63834104D02*
X194467731Y-63834104D01*
X193896303Y-64119819D02*
X194229636Y-63119819D01*
X194229636Y-63119819D02*
X194562969Y-64119819D01*
X190461779Y-61013866D02*
X191223684Y-61013866D01*
X190842731Y-61394819D02*
X190842731Y-60632914D01*
X191604636Y-60394819D02*
X192223683Y-60394819D01*
X192223683Y-60394819D02*
X191890350Y-60775771D01*
X191890350Y-60775771D02*
X192033207Y-60775771D01*
X192033207Y-60775771D02*
X192128445Y-60823390D01*
X192128445Y-60823390D02*
X192176064Y-60871009D01*
X192176064Y-60871009D02*
X192223683Y-60966247D01*
X192223683Y-60966247D02*
X192223683Y-61204342D01*
X192223683Y-61204342D02*
X192176064Y-61299580D01*
X192176064Y-61299580D02*
X192128445Y-61347200D01*
X192128445Y-61347200D02*
X192033207Y-61394819D01*
X192033207Y-61394819D02*
X191747493Y-61394819D01*
X191747493Y-61394819D02*
X191652255Y-61347200D01*
X191652255Y-61347200D02*
X191604636Y-61299580D01*
X192652255Y-61299580D02*
X192699874Y-61347200D01*
X192699874Y-61347200D02*
X192652255Y-61394819D01*
X192652255Y-61394819D02*
X192604636Y-61347200D01*
X192604636Y-61347200D02*
X192652255Y-61299580D01*
X192652255Y-61299580D02*
X192652255Y-61394819D01*
X193033207Y-60394819D02*
X193652254Y-60394819D01*
X193652254Y-60394819D02*
X193318921Y-60775771D01*
X193318921Y-60775771D02*
X193461778Y-60775771D01*
X193461778Y-60775771D02*
X193557016Y-60823390D01*
X193557016Y-60823390D02*
X193604635Y-60871009D01*
X193604635Y-60871009D02*
X193652254Y-60966247D01*
X193652254Y-60966247D02*
X193652254Y-61204342D01*
X193652254Y-61204342D02*
X193604635Y-61299580D01*
X193604635Y-61299580D02*
X193557016Y-61347200D01*
X193557016Y-61347200D02*
X193461778Y-61394819D01*
X193461778Y-61394819D02*
X193176064Y-61394819D01*
X193176064Y-61394819D02*
X193080826Y-61347200D01*
X193080826Y-61347200D02*
X193033207Y-61299580D01*
X193937969Y-60394819D02*
X194271302Y-61394819D01*
X194271302Y-61394819D02*
X194604635Y-60394819D01*
X124111904Y-49387704D02*
X124378571Y-49768657D01*
X124569047Y-49387704D02*
X124569047Y-50187704D01*
X124569047Y-50187704D02*
X124264285Y-50187704D01*
X124264285Y-50187704D02*
X124188095Y-50149609D01*
X124188095Y-50149609D02*
X124150000Y-50111514D01*
X124150000Y-50111514D02*
X124111904Y-50035323D01*
X124111904Y-50035323D02*
X124111904Y-49921038D01*
X124111904Y-49921038D02*
X124150000Y-49844847D01*
X124150000Y-49844847D02*
X124188095Y-49806752D01*
X124188095Y-49806752D02*
X124264285Y-49768657D01*
X124264285Y-49768657D02*
X124569047Y-49768657D01*
X123769047Y-49806752D02*
X123502381Y-49806752D01*
X123388095Y-49387704D02*
X123769047Y-49387704D01*
X123769047Y-49387704D02*
X123769047Y-50187704D01*
X123769047Y-50187704D02*
X123388095Y-50187704D01*
X123083333Y-49425800D02*
X122969047Y-49387704D01*
X122969047Y-49387704D02*
X122778571Y-49387704D01*
X122778571Y-49387704D02*
X122702380Y-49425800D01*
X122702380Y-49425800D02*
X122664285Y-49463895D01*
X122664285Y-49463895D02*
X122626190Y-49540085D01*
X122626190Y-49540085D02*
X122626190Y-49616276D01*
X122626190Y-49616276D02*
X122664285Y-49692466D01*
X122664285Y-49692466D02*
X122702380Y-49730561D01*
X122702380Y-49730561D02*
X122778571Y-49768657D01*
X122778571Y-49768657D02*
X122930952Y-49806752D01*
X122930952Y-49806752D02*
X123007142Y-49844847D01*
X123007142Y-49844847D02*
X123045237Y-49882942D01*
X123045237Y-49882942D02*
X123083333Y-49959133D01*
X123083333Y-49959133D02*
X123083333Y-50035323D01*
X123083333Y-50035323D02*
X123045237Y-50111514D01*
X123045237Y-50111514D02*
X123007142Y-50149609D01*
X123007142Y-50149609D02*
X122930952Y-50187704D01*
X122930952Y-50187704D02*
X122740475Y-50187704D01*
X122740475Y-50187704D02*
X122626190Y-50149609D01*
X122283332Y-49806752D02*
X122016666Y-49806752D01*
X121902380Y-49387704D02*
X122283332Y-49387704D01*
X122283332Y-49387704D02*
X122283332Y-50187704D01*
X122283332Y-50187704D02*
X121902380Y-50187704D01*
X121673808Y-50187704D02*
X121216665Y-50187704D01*
X121445237Y-49387704D02*
X121445237Y-50187704D01*
X133385714Y-49856752D02*
X133271428Y-49818657D01*
X133271428Y-49818657D02*
X133233333Y-49780561D01*
X133233333Y-49780561D02*
X133195237Y-49704371D01*
X133195237Y-49704371D02*
X133195237Y-49590085D01*
X133195237Y-49590085D02*
X133233333Y-49513895D01*
X133233333Y-49513895D02*
X133271428Y-49475800D01*
X133271428Y-49475800D02*
X133347618Y-49437704D01*
X133347618Y-49437704D02*
X133652380Y-49437704D01*
X133652380Y-49437704D02*
X133652380Y-50237704D01*
X133652380Y-50237704D02*
X133385714Y-50237704D01*
X133385714Y-50237704D02*
X133309523Y-50199609D01*
X133309523Y-50199609D02*
X133271428Y-50161514D01*
X133271428Y-50161514D02*
X133233333Y-50085323D01*
X133233333Y-50085323D02*
X133233333Y-50009133D01*
X133233333Y-50009133D02*
X133271428Y-49932942D01*
X133271428Y-49932942D02*
X133309523Y-49894847D01*
X133309523Y-49894847D02*
X133385714Y-49856752D01*
X133385714Y-49856752D02*
X133652380Y-49856752D01*
X132699999Y-50237704D02*
X132547618Y-50237704D01*
X132547618Y-50237704D02*
X132471428Y-50199609D01*
X132471428Y-50199609D02*
X132395237Y-50123419D01*
X132395237Y-50123419D02*
X132357142Y-49971038D01*
X132357142Y-49971038D02*
X132357142Y-49704371D01*
X132357142Y-49704371D02*
X132395237Y-49551990D01*
X132395237Y-49551990D02*
X132471428Y-49475800D01*
X132471428Y-49475800D02*
X132547618Y-49437704D01*
X132547618Y-49437704D02*
X132699999Y-49437704D01*
X132699999Y-49437704D02*
X132776190Y-49475800D01*
X132776190Y-49475800D02*
X132852380Y-49551990D01*
X132852380Y-49551990D02*
X132890476Y-49704371D01*
X132890476Y-49704371D02*
X132890476Y-49971038D01*
X132890476Y-49971038D02*
X132852380Y-50123419D01*
X132852380Y-50123419D02*
X132776190Y-50199609D01*
X132776190Y-50199609D02*
X132699999Y-50237704D01*
X131861904Y-50237704D02*
X131709523Y-50237704D01*
X131709523Y-50237704D02*
X131633333Y-50199609D01*
X131633333Y-50199609D02*
X131557142Y-50123419D01*
X131557142Y-50123419D02*
X131519047Y-49971038D01*
X131519047Y-49971038D02*
X131519047Y-49704371D01*
X131519047Y-49704371D02*
X131557142Y-49551990D01*
X131557142Y-49551990D02*
X131633333Y-49475800D01*
X131633333Y-49475800D02*
X131709523Y-49437704D01*
X131709523Y-49437704D02*
X131861904Y-49437704D01*
X131861904Y-49437704D02*
X131938095Y-49475800D01*
X131938095Y-49475800D02*
X132014285Y-49551990D01*
X132014285Y-49551990D02*
X132052381Y-49704371D01*
X132052381Y-49704371D02*
X132052381Y-49971038D01*
X132052381Y-49971038D02*
X132014285Y-50123419D01*
X132014285Y-50123419D02*
X131938095Y-50199609D01*
X131938095Y-50199609D02*
X131861904Y-50237704D01*
X131290476Y-50237704D02*
X130833333Y-50237704D01*
X131061905Y-49437704D02*
X131061905Y-50237704D01*
X144806672Y-90530157D02*
X144473095Y-90053618D01*
X144234825Y-90530157D02*
X144234825Y-89529425D01*
X144234825Y-89529425D02*
X144616056Y-89529425D01*
X144616056Y-89529425D02*
X144711364Y-89577079D01*
X144711364Y-89577079D02*
X144759018Y-89624733D01*
X144759018Y-89624733D02*
X144806672Y-89720041D01*
X144806672Y-89720041D02*
X144806672Y-89863003D01*
X144806672Y-89863003D02*
X144759018Y-89958311D01*
X144759018Y-89958311D02*
X144711364Y-90005964D01*
X144711364Y-90005964D02*
X144616056Y-90053618D01*
X144616056Y-90053618D02*
X144234825Y-90053618D01*
X145140249Y-89529425D02*
X145759750Y-89529425D01*
X145759750Y-89529425D02*
X145426173Y-89910657D01*
X145426173Y-89910657D02*
X145569134Y-89910657D01*
X145569134Y-89910657D02*
X145664442Y-89958311D01*
X145664442Y-89958311D02*
X145712096Y-90005964D01*
X145712096Y-90005964D02*
X145759750Y-90101272D01*
X145759750Y-90101272D02*
X145759750Y-90339542D01*
X145759750Y-90339542D02*
X145712096Y-90434850D01*
X145712096Y-90434850D02*
X145664442Y-90482504D01*
X145664442Y-90482504D02*
X145569134Y-90530157D01*
X145569134Y-90530157D02*
X145283211Y-90530157D01*
X145283211Y-90530157D02*
X145187903Y-90482504D01*
X145187903Y-90482504D02*
X145140249Y-90434850D01*
X146665174Y-89529425D02*
X146188635Y-89529425D01*
X146188635Y-89529425D02*
X146140981Y-90005964D01*
X146140981Y-90005964D02*
X146188635Y-89958311D01*
X146188635Y-89958311D02*
X146283943Y-89910657D01*
X146283943Y-89910657D02*
X146522212Y-89910657D01*
X146522212Y-89910657D02*
X146617520Y-89958311D01*
X146617520Y-89958311D02*
X146665174Y-90005964D01*
X146665174Y-90005964D02*
X146712828Y-90101272D01*
X146712828Y-90101272D02*
X146712828Y-90339542D01*
X146712828Y-90339542D02*
X146665174Y-90434850D01*
X146665174Y-90434850D02*
X146617520Y-90482504D01*
X146617520Y-90482504D02*
X146522212Y-90530157D01*
X146522212Y-90530157D02*
X146283943Y-90530157D01*
X146283943Y-90530157D02*
X146188635Y-90482504D01*
X146188635Y-90482504D02*
X146140981Y-90434850D01*
X121934580Y-93429166D02*
X121982200Y-93476785D01*
X121982200Y-93476785D02*
X122029819Y-93619642D01*
X122029819Y-93619642D02*
X122029819Y-93714880D01*
X122029819Y-93714880D02*
X121982200Y-93857737D01*
X121982200Y-93857737D02*
X121886961Y-93952975D01*
X121886961Y-93952975D02*
X121791723Y-94000594D01*
X121791723Y-94000594D02*
X121601247Y-94048213D01*
X121601247Y-94048213D02*
X121458390Y-94048213D01*
X121458390Y-94048213D02*
X121267914Y-94000594D01*
X121267914Y-94000594D02*
X121172676Y-93952975D01*
X121172676Y-93952975D02*
X121077438Y-93857737D01*
X121077438Y-93857737D02*
X121029819Y-93714880D01*
X121029819Y-93714880D02*
X121029819Y-93619642D01*
X121029819Y-93619642D02*
X121077438Y-93476785D01*
X121077438Y-93476785D02*
X121125057Y-93429166D01*
X121029819Y-93095832D02*
X121029819Y-92476785D01*
X121029819Y-92476785D02*
X121410771Y-92810118D01*
X121410771Y-92810118D02*
X121410771Y-92667261D01*
X121410771Y-92667261D02*
X121458390Y-92572023D01*
X121458390Y-92572023D02*
X121506009Y-92524404D01*
X121506009Y-92524404D02*
X121601247Y-92476785D01*
X121601247Y-92476785D02*
X121839342Y-92476785D01*
X121839342Y-92476785D02*
X121934580Y-92524404D01*
X121934580Y-92524404D02*
X121982200Y-92572023D01*
X121982200Y-92572023D02*
X122029819Y-92667261D01*
X122029819Y-92667261D02*
X122029819Y-92952975D01*
X122029819Y-92952975D02*
X121982200Y-93048213D01*
X121982200Y-93048213D02*
X121934580Y-93095832D01*
X133840476Y-81129819D02*
X134173809Y-82129819D01*
X134173809Y-82129819D02*
X134507142Y-81129819D01*
X135411904Y-82129819D02*
X135078571Y-81653628D01*
X134840476Y-82129819D02*
X134840476Y-81129819D01*
X134840476Y-81129819D02*
X135221428Y-81129819D01*
X135221428Y-81129819D02*
X135316666Y-81177438D01*
X135316666Y-81177438D02*
X135364285Y-81225057D01*
X135364285Y-81225057D02*
X135411904Y-81320295D01*
X135411904Y-81320295D02*
X135411904Y-81463152D01*
X135411904Y-81463152D02*
X135364285Y-81558390D01*
X135364285Y-81558390D02*
X135316666Y-81606009D01*
X135316666Y-81606009D02*
X135221428Y-81653628D01*
X135221428Y-81653628D02*
X134840476Y-81653628D01*
X136364285Y-82129819D02*
X135792857Y-82129819D01*
X136078571Y-82129819D02*
X136078571Y-81129819D01*
X136078571Y-81129819D02*
X135983333Y-81272676D01*
X135983333Y-81272676D02*
X135888095Y-81367914D01*
X135888095Y-81367914D02*
X135792857Y-81415533D01*
X141657142Y-67459580D02*
X141609523Y-67507200D01*
X141609523Y-67507200D02*
X141466666Y-67554819D01*
X141466666Y-67554819D02*
X141371428Y-67554819D01*
X141371428Y-67554819D02*
X141228571Y-67507200D01*
X141228571Y-67507200D02*
X141133333Y-67411961D01*
X141133333Y-67411961D02*
X141085714Y-67316723D01*
X141085714Y-67316723D02*
X141038095Y-67126247D01*
X141038095Y-67126247D02*
X141038095Y-66983390D01*
X141038095Y-66983390D02*
X141085714Y-66792914D01*
X141085714Y-66792914D02*
X141133333Y-66697676D01*
X141133333Y-66697676D02*
X141228571Y-66602438D01*
X141228571Y-66602438D02*
X141371428Y-66554819D01*
X141371428Y-66554819D02*
X141466666Y-66554819D01*
X141466666Y-66554819D02*
X141609523Y-66602438D01*
X141609523Y-66602438D02*
X141657142Y-66650057D01*
X142038095Y-66650057D02*
X142085714Y-66602438D01*
X142085714Y-66602438D02*
X142180952Y-66554819D01*
X142180952Y-66554819D02*
X142419047Y-66554819D01*
X142419047Y-66554819D02*
X142514285Y-66602438D01*
X142514285Y-66602438D02*
X142561904Y-66650057D01*
X142561904Y-66650057D02*
X142609523Y-66745295D01*
X142609523Y-66745295D02*
X142609523Y-66840533D01*
X142609523Y-66840533D02*
X142561904Y-66983390D01*
X142561904Y-66983390D02*
X141990476Y-67554819D01*
X141990476Y-67554819D02*
X142609523Y-67554819D01*
X143561904Y-67554819D02*
X142990476Y-67554819D01*
X143276190Y-67554819D02*
X143276190Y-66554819D01*
X143276190Y-66554819D02*
X143180952Y-66697676D01*
X143180952Y-66697676D02*
X143085714Y-66792914D01*
X143085714Y-66792914D02*
X142990476Y-66840533D01*
X154204819Y-54692857D02*
X153728628Y-55026190D01*
X154204819Y-55264285D02*
X153204819Y-55264285D01*
X153204819Y-55264285D02*
X153204819Y-54883333D01*
X153204819Y-54883333D02*
X153252438Y-54788095D01*
X153252438Y-54788095D02*
X153300057Y-54740476D01*
X153300057Y-54740476D02*
X153395295Y-54692857D01*
X153395295Y-54692857D02*
X153538152Y-54692857D01*
X153538152Y-54692857D02*
X153633390Y-54740476D01*
X153633390Y-54740476D02*
X153681009Y-54788095D01*
X153681009Y-54788095D02*
X153728628Y-54883333D01*
X153728628Y-54883333D02*
X153728628Y-55264285D01*
X153300057Y-54311904D02*
X153252438Y-54264285D01*
X153252438Y-54264285D02*
X153204819Y-54169047D01*
X153204819Y-54169047D02*
X153204819Y-53930952D01*
X153204819Y-53930952D02*
X153252438Y-53835714D01*
X153252438Y-53835714D02*
X153300057Y-53788095D01*
X153300057Y-53788095D02*
X153395295Y-53740476D01*
X153395295Y-53740476D02*
X153490533Y-53740476D01*
X153490533Y-53740476D02*
X153633390Y-53788095D01*
X153633390Y-53788095D02*
X154204819Y-54359523D01*
X154204819Y-54359523D02*
X154204819Y-53740476D01*
X153300057Y-53359523D02*
X153252438Y-53311904D01*
X153252438Y-53311904D02*
X153204819Y-53216666D01*
X153204819Y-53216666D02*
X153204819Y-52978571D01*
X153204819Y-52978571D02*
X153252438Y-52883333D01*
X153252438Y-52883333D02*
X153300057Y-52835714D01*
X153300057Y-52835714D02*
X153395295Y-52788095D01*
X153395295Y-52788095D02*
X153490533Y-52788095D01*
X153490533Y-52788095D02*
X153633390Y-52835714D01*
X153633390Y-52835714D02*
X154204819Y-53407142D01*
X154204819Y-53407142D02*
X154204819Y-52788095D01*
X142850057Y-55600238D02*
X142802438Y-55695476D01*
X142802438Y-55695476D02*
X142707200Y-55790714D01*
X142707200Y-55790714D02*
X142564342Y-55933571D01*
X142564342Y-55933571D02*
X142516723Y-56028809D01*
X142516723Y-56028809D02*
X142516723Y-56124047D01*
X142754819Y-56076428D02*
X142707200Y-56171666D01*
X142707200Y-56171666D02*
X142611961Y-56266904D01*
X142611961Y-56266904D02*
X142421485Y-56314523D01*
X142421485Y-56314523D02*
X142088152Y-56314523D01*
X142088152Y-56314523D02*
X141897676Y-56266904D01*
X141897676Y-56266904D02*
X141802438Y-56171666D01*
X141802438Y-56171666D02*
X141754819Y-56076428D01*
X141754819Y-56076428D02*
X141754819Y-55885952D01*
X141754819Y-55885952D02*
X141802438Y-55790714D01*
X141802438Y-55790714D02*
X141897676Y-55695476D01*
X141897676Y-55695476D02*
X142088152Y-55647857D01*
X142088152Y-55647857D02*
X142421485Y-55647857D01*
X142421485Y-55647857D02*
X142611961Y-55695476D01*
X142611961Y-55695476D02*
X142707200Y-55790714D01*
X142707200Y-55790714D02*
X142754819Y-55885952D01*
X142754819Y-55885952D02*
X142754819Y-56076428D01*
X142754819Y-54695476D02*
X142754819Y-55266904D01*
X142754819Y-54981190D02*
X141754819Y-54981190D01*
X141754819Y-54981190D02*
X141897676Y-55076428D01*
X141897676Y-55076428D02*
X141992914Y-55171666D01*
X141992914Y-55171666D02*
X142040533Y-55266904D01*
X121689569Y-72705140D02*
X121689569Y-71704447D01*
X121689569Y-71704447D02*
X122023133Y-72419227D01*
X122023133Y-72419227D02*
X122356697Y-71704447D01*
X122356697Y-71704447D02*
X122356697Y-72705140D01*
X122833218Y-72705140D02*
X122833218Y-71704447D01*
X123405042Y-72705140D02*
X122976174Y-72133315D01*
X123405042Y-71704447D02*
X122833218Y-72276271D01*
X124358083Y-72705140D02*
X123786259Y-72705140D01*
X124072171Y-72705140D02*
X124072171Y-71704447D01*
X124072171Y-71704447D02*
X123976867Y-71847403D01*
X123976867Y-71847403D02*
X123881563Y-71942707D01*
X123881563Y-71942707D02*
X123786259Y-71990359D01*
X190954819Y-93833333D02*
X191669104Y-93833333D01*
X191669104Y-93833333D02*
X191811961Y-93880952D01*
X191811961Y-93880952D02*
X191907200Y-93976190D01*
X191907200Y-93976190D02*
X191954819Y-94119047D01*
X191954819Y-94119047D02*
X191954819Y-94214285D01*
X190954819Y-93452380D02*
X190954819Y-92833333D01*
X190954819Y-92833333D02*
X191335771Y-93166666D01*
X191335771Y-93166666D02*
X191335771Y-93023809D01*
X191335771Y-93023809D02*
X191383390Y-92928571D01*
X191383390Y-92928571D02*
X191431009Y-92880952D01*
X191431009Y-92880952D02*
X191526247Y-92833333D01*
X191526247Y-92833333D02*
X191764342Y-92833333D01*
X191764342Y-92833333D02*
X191859580Y-92880952D01*
X191859580Y-92880952D02*
X191907200Y-92928571D01*
X191907200Y-92928571D02*
X191954819Y-93023809D01*
X191954819Y-93023809D02*
X191954819Y-93309523D01*
X191954819Y-93309523D02*
X191907200Y-93404761D01*
X191907200Y-93404761D02*
X191859580Y-93452380D01*
X135186905Y-95329819D02*
X135186905Y-94329819D01*
X135186905Y-94329819D02*
X135425000Y-94329819D01*
X135425000Y-94329819D02*
X135567857Y-94377438D01*
X135567857Y-94377438D02*
X135663095Y-94472676D01*
X135663095Y-94472676D02*
X135710714Y-94567914D01*
X135710714Y-94567914D02*
X135758333Y-94758390D01*
X135758333Y-94758390D02*
X135758333Y-94901247D01*
X135758333Y-94901247D02*
X135710714Y-95091723D01*
X135710714Y-95091723D02*
X135663095Y-95186961D01*
X135663095Y-95186961D02*
X135567857Y-95282200D01*
X135567857Y-95282200D02*
X135425000Y-95329819D01*
X135425000Y-95329819D02*
X135186905Y-95329819D01*
X136615476Y-94329819D02*
X136425000Y-94329819D01*
X136425000Y-94329819D02*
X136329762Y-94377438D01*
X136329762Y-94377438D02*
X136282143Y-94425057D01*
X136282143Y-94425057D02*
X136186905Y-94567914D01*
X136186905Y-94567914D02*
X136139286Y-94758390D01*
X136139286Y-94758390D02*
X136139286Y-95139342D01*
X136139286Y-95139342D02*
X136186905Y-95234580D01*
X136186905Y-95234580D02*
X136234524Y-95282200D01*
X136234524Y-95282200D02*
X136329762Y-95329819D01*
X136329762Y-95329819D02*
X136520238Y-95329819D01*
X136520238Y-95329819D02*
X136615476Y-95282200D01*
X136615476Y-95282200D02*
X136663095Y-95234580D01*
X136663095Y-95234580D02*
X136710714Y-95139342D01*
X136710714Y-95139342D02*
X136710714Y-94901247D01*
X136710714Y-94901247D02*
X136663095Y-94806009D01*
X136663095Y-94806009D02*
X136615476Y-94758390D01*
X136615476Y-94758390D02*
X136520238Y-94710771D01*
X136520238Y-94710771D02*
X136329762Y-94710771D01*
X136329762Y-94710771D02*
X136234524Y-94758390D01*
X136234524Y-94758390D02*
X136186905Y-94806009D01*
X136186905Y-94806009D02*
X136139286Y-94901247D01*
X196266666Y-70624819D02*
X196266666Y-71339104D01*
X196266666Y-71339104D02*
X196219047Y-71481961D01*
X196219047Y-71481961D02*
X196123809Y-71577200D01*
X196123809Y-71577200D02*
X195980952Y-71624819D01*
X195980952Y-71624819D02*
X195885714Y-71624819D01*
X197219047Y-70624819D02*
X196742857Y-70624819D01*
X196742857Y-70624819D02*
X196695238Y-71101009D01*
X196695238Y-71101009D02*
X196742857Y-71053390D01*
X196742857Y-71053390D02*
X196838095Y-71005771D01*
X196838095Y-71005771D02*
X197076190Y-71005771D01*
X197076190Y-71005771D02*
X197171428Y-71053390D01*
X197171428Y-71053390D02*
X197219047Y-71101009D01*
X197219047Y-71101009D02*
X197266666Y-71196247D01*
X197266666Y-71196247D02*
X197266666Y-71434342D01*
X197266666Y-71434342D02*
X197219047Y-71529580D01*
X197219047Y-71529580D02*
X197171428Y-71577200D01*
X197171428Y-71577200D02*
X197076190Y-71624819D01*
X197076190Y-71624819D02*
X196838095Y-71624819D01*
X196838095Y-71624819D02*
X196742857Y-71577200D01*
X196742857Y-71577200D02*
X196695238Y-71529580D01*
X126807142Y-63209580D02*
X126759523Y-63257200D01*
X126759523Y-63257200D02*
X126616666Y-63304819D01*
X126616666Y-63304819D02*
X126521428Y-63304819D01*
X126521428Y-63304819D02*
X126378571Y-63257200D01*
X126378571Y-63257200D02*
X126283333Y-63161961D01*
X126283333Y-63161961D02*
X126235714Y-63066723D01*
X126235714Y-63066723D02*
X126188095Y-62876247D01*
X126188095Y-62876247D02*
X126188095Y-62733390D01*
X126188095Y-62733390D02*
X126235714Y-62542914D01*
X126235714Y-62542914D02*
X126283333Y-62447676D01*
X126283333Y-62447676D02*
X126378571Y-62352438D01*
X126378571Y-62352438D02*
X126521428Y-62304819D01*
X126521428Y-62304819D02*
X126616666Y-62304819D01*
X126616666Y-62304819D02*
X126759523Y-62352438D01*
X126759523Y-62352438D02*
X126807142Y-62400057D01*
X127759523Y-63304819D02*
X127188095Y-63304819D01*
X127473809Y-63304819D02*
X127473809Y-62304819D01*
X127473809Y-62304819D02*
X127378571Y-62447676D01*
X127378571Y-62447676D02*
X127283333Y-62542914D01*
X127283333Y-62542914D02*
X127188095Y-62590533D01*
X128330952Y-62733390D02*
X128235714Y-62685771D01*
X128235714Y-62685771D02*
X128188095Y-62638152D01*
X128188095Y-62638152D02*
X128140476Y-62542914D01*
X128140476Y-62542914D02*
X128140476Y-62495295D01*
X128140476Y-62495295D02*
X128188095Y-62400057D01*
X128188095Y-62400057D02*
X128235714Y-62352438D01*
X128235714Y-62352438D02*
X128330952Y-62304819D01*
X128330952Y-62304819D02*
X128521428Y-62304819D01*
X128521428Y-62304819D02*
X128616666Y-62352438D01*
X128616666Y-62352438D02*
X128664285Y-62400057D01*
X128664285Y-62400057D02*
X128711904Y-62495295D01*
X128711904Y-62495295D02*
X128711904Y-62542914D01*
X128711904Y-62542914D02*
X128664285Y-62638152D01*
X128664285Y-62638152D02*
X128616666Y-62685771D01*
X128616666Y-62685771D02*
X128521428Y-62733390D01*
X128521428Y-62733390D02*
X128330952Y-62733390D01*
X128330952Y-62733390D02*
X128235714Y-62781009D01*
X128235714Y-62781009D02*
X128188095Y-62828628D01*
X128188095Y-62828628D02*
X128140476Y-62923866D01*
X128140476Y-62923866D02*
X128140476Y-63114342D01*
X128140476Y-63114342D02*
X128188095Y-63209580D01*
X128188095Y-63209580D02*
X128235714Y-63257200D01*
X128235714Y-63257200D02*
X128330952Y-63304819D01*
X128330952Y-63304819D02*
X128521428Y-63304819D01*
X128521428Y-63304819D02*
X128616666Y-63257200D01*
X128616666Y-63257200D02*
X128664285Y-63209580D01*
X128664285Y-63209580D02*
X128711904Y-63114342D01*
X128711904Y-63114342D02*
X128711904Y-62923866D01*
X128711904Y-62923866D02*
X128664285Y-62828628D01*
X128664285Y-62828628D02*
X128616666Y-62781009D01*
X128616666Y-62781009D02*
X128521428Y-62733390D01*
X154704819Y-101333333D02*
X155419104Y-101333333D01*
X155419104Y-101333333D02*
X155561961Y-101380952D01*
X155561961Y-101380952D02*
X155657200Y-101476190D01*
X155657200Y-101476190D02*
X155704819Y-101619047D01*
X155704819Y-101619047D02*
X155704819Y-101714285D01*
X155704819Y-100333333D02*
X155704819Y-100904761D01*
X155704819Y-100619047D02*
X154704819Y-100619047D01*
X154704819Y-100619047D02*
X154847676Y-100714285D01*
X154847676Y-100714285D02*
X154942914Y-100809523D01*
X154942914Y-100809523D02*
X154990533Y-100904761D01*
X142754819Y-100916666D02*
X142278628Y-101249999D01*
X142754819Y-101488094D02*
X141754819Y-101488094D01*
X141754819Y-101488094D02*
X141754819Y-101107142D01*
X141754819Y-101107142D02*
X141802438Y-101011904D01*
X141802438Y-101011904D02*
X141850057Y-100964285D01*
X141850057Y-100964285D02*
X141945295Y-100916666D01*
X141945295Y-100916666D02*
X142088152Y-100916666D01*
X142088152Y-100916666D02*
X142183390Y-100964285D01*
X142183390Y-100964285D02*
X142231009Y-101011904D01*
X142231009Y-101011904D02*
X142278628Y-101107142D01*
X142278628Y-101107142D02*
X142278628Y-101488094D01*
X141850057Y-100535713D02*
X141802438Y-100488094D01*
X141802438Y-100488094D02*
X141754819Y-100392856D01*
X141754819Y-100392856D02*
X141754819Y-100154761D01*
X141754819Y-100154761D02*
X141802438Y-100059523D01*
X141802438Y-100059523D02*
X141850057Y-100011904D01*
X141850057Y-100011904D02*
X141945295Y-99964285D01*
X141945295Y-99964285D02*
X142040533Y-99964285D01*
X142040533Y-99964285D02*
X142183390Y-100011904D01*
X142183390Y-100011904D02*
X142754819Y-100583332D01*
X142754819Y-100583332D02*
X142754819Y-99964285D01*
X167609580Y-55142857D02*
X167657200Y-55190476D01*
X167657200Y-55190476D02*
X167704819Y-55333333D01*
X167704819Y-55333333D02*
X167704819Y-55428571D01*
X167704819Y-55428571D02*
X167657200Y-55571428D01*
X167657200Y-55571428D02*
X167561961Y-55666666D01*
X167561961Y-55666666D02*
X167466723Y-55714285D01*
X167466723Y-55714285D02*
X167276247Y-55761904D01*
X167276247Y-55761904D02*
X167133390Y-55761904D01*
X167133390Y-55761904D02*
X166942914Y-55714285D01*
X166942914Y-55714285D02*
X166847676Y-55666666D01*
X166847676Y-55666666D02*
X166752438Y-55571428D01*
X166752438Y-55571428D02*
X166704819Y-55428571D01*
X166704819Y-55428571D02*
X166704819Y-55333333D01*
X166704819Y-55333333D02*
X166752438Y-55190476D01*
X166752438Y-55190476D02*
X166800057Y-55142857D01*
X167704819Y-54190476D02*
X167704819Y-54761904D01*
X167704819Y-54476190D02*
X166704819Y-54476190D01*
X166704819Y-54476190D02*
X166847676Y-54571428D01*
X166847676Y-54571428D02*
X166942914Y-54666666D01*
X166942914Y-54666666D02*
X166990533Y-54761904D01*
X166704819Y-53571428D02*
X166704819Y-53476190D01*
X166704819Y-53476190D02*
X166752438Y-53380952D01*
X166752438Y-53380952D02*
X166800057Y-53333333D01*
X166800057Y-53333333D02*
X166895295Y-53285714D01*
X166895295Y-53285714D02*
X167085771Y-53238095D01*
X167085771Y-53238095D02*
X167323866Y-53238095D01*
X167323866Y-53238095D02*
X167514342Y-53285714D01*
X167514342Y-53285714D02*
X167609580Y-53333333D01*
X167609580Y-53333333D02*
X167657200Y-53380952D01*
X167657200Y-53380952D02*
X167704819Y-53476190D01*
X167704819Y-53476190D02*
X167704819Y-53571428D01*
X167704819Y-53571428D02*
X167657200Y-53666666D01*
X167657200Y-53666666D02*
X167609580Y-53714285D01*
X167609580Y-53714285D02*
X167514342Y-53761904D01*
X167514342Y-53761904D02*
X167323866Y-53809523D01*
X167323866Y-53809523D02*
X167085771Y-53809523D01*
X167085771Y-53809523D02*
X166895295Y-53761904D01*
X166895295Y-53761904D02*
X166800057Y-53714285D01*
X166800057Y-53714285D02*
X166752438Y-53666666D01*
X166752438Y-53666666D02*
X166704819Y-53571428D01*
X159469642Y-59404819D02*
X159136309Y-58928628D01*
X158898214Y-59404819D02*
X158898214Y-58404819D01*
X158898214Y-58404819D02*
X159279166Y-58404819D01*
X159279166Y-58404819D02*
X159374404Y-58452438D01*
X159374404Y-58452438D02*
X159422023Y-58500057D01*
X159422023Y-58500057D02*
X159469642Y-58595295D01*
X159469642Y-58595295D02*
X159469642Y-58738152D01*
X159469642Y-58738152D02*
X159422023Y-58833390D01*
X159422023Y-58833390D02*
X159374404Y-58881009D01*
X159374404Y-58881009D02*
X159279166Y-58928628D01*
X159279166Y-58928628D02*
X158898214Y-58928628D01*
X159850595Y-58500057D02*
X159898214Y-58452438D01*
X159898214Y-58452438D02*
X159993452Y-58404819D01*
X159993452Y-58404819D02*
X160231547Y-58404819D01*
X160231547Y-58404819D02*
X160326785Y-58452438D01*
X160326785Y-58452438D02*
X160374404Y-58500057D01*
X160374404Y-58500057D02*
X160422023Y-58595295D01*
X160422023Y-58595295D02*
X160422023Y-58690533D01*
X160422023Y-58690533D02*
X160374404Y-58833390D01*
X160374404Y-58833390D02*
X159802976Y-59404819D01*
X159802976Y-59404819D02*
X160422023Y-59404819D01*
X161041071Y-58404819D02*
X161136309Y-58404819D01*
X161136309Y-58404819D02*
X161231547Y-58452438D01*
X161231547Y-58452438D02*
X161279166Y-58500057D01*
X161279166Y-58500057D02*
X161326785Y-58595295D01*
X161326785Y-58595295D02*
X161374404Y-58785771D01*
X161374404Y-58785771D02*
X161374404Y-59023866D01*
X161374404Y-59023866D02*
X161326785Y-59214342D01*
X161326785Y-59214342D02*
X161279166Y-59309580D01*
X161279166Y-59309580D02*
X161231547Y-59357200D01*
X161231547Y-59357200D02*
X161136309Y-59404819D01*
X161136309Y-59404819D02*
X161041071Y-59404819D01*
X161041071Y-59404819D02*
X160945833Y-59357200D01*
X160945833Y-59357200D02*
X160898214Y-59309580D01*
X160898214Y-59309580D02*
X160850595Y-59214342D01*
X160850595Y-59214342D02*
X160802976Y-59023866D01*
X160802976Y-59023866D02*
X160802976Y-58785771D01*
X160802976Y-58785771D02*
X160850595Y-58595295D01*
X160850595Y-58595295D02*
X160898214Y-58500057D01*
X160898214Y-58500057D02*
X160945833Y-58452438D01*
X160945833Y-58452438D02*
X161041071Y-58404819D01*
X129775057Y-57767738D02*
X129727438Y-57862976D01*
X129727438Y-57862976D02*
X129632200Y-57958214D01*
X129632200Y-57958214D02*
X129489342Y-58101071D01*
X129489342Y-58101071D02*
X129441723Y-58196309D01*
X129441723Y-58196309D02*
X129441723Y-58291547D01*
X129679819Y-58243928D02*
X129632200Y-58339166D01*
X129632200Y-58339166D02*
X129536961Y-58434404D01*
X129536961Y-58434404D02*
X129346485Y-58482023D01*
X129346485Y-58482023D02*
X129013152Y-58482023D01*
X129013152Y-58482023D02*
X128822676Y-58434404D01*
X128822676Y-58434404D02*
X128727438Y-58339166D01*
X128727438Y-58339166D02*
X128679819Y-58243928D01*
X128679819Y-58243928D02*
X128679819Y-58053452D01*
X128679819Y-58053452D02*
X128727438Y-57958214D01*
X128727438Y-57958214D02*
X128822676Y-57862976D01*
X128822676Y-57862976D02*
X129013152Y-57815357D01*
X129013152Y-57815357D02*
X129346485Y-57815357D01*
X129346485Y-57815357D02*
X129536961Y-57862976D01*
X129536961Y-57862976D02*
X129632200Y-57958214D01*
X129632200Y-57958214D02*
X129679819Y-58053452D01*
X129679819Y-58053452D02*
X129679819Y-58243928D01*
X128679819Y-57482023D02*
X128679819Y-56862976D01*
X128679819Y-56862976D02*
X129060771Y-57196309D01*
X129060771Y-57196309D02*
X129060771Y-57053452D01*
X129060771Y-57053452D02*
X129108390Y-56958214D01*
X129108390Y-56958214D02*
X129156009Y-56910595D01*
X129156009Y-56910595D02*
X129251247Y-56862976D01*
X129251247Y-56862976D02*
X129489342Y-56862976D01*
X129489342Y-56862976D02*
X129584580Y-56910595D01*
X129584580Y-56910595D02*
X129632200Y-56958214D01*
X129632200Y-56958214D02*
X129679819Y-57053452D01*
X129679819Y-57053452D02*
X129679819Y-57339166D01*
X129679819Y-57339166D02*
X129632200Y-57434404D01*
X129632200Y-57434404D02*
X129584580Y-57482023D01*
X142382142Y-51954819D02*
X142048809Y-51478628D01*
X141810714Y-51954819D02*
X141810714Y-50954819D01*
X141810714Y-50954819D02*
X142191666Y-50954819D01*
X142191666Y-50954819D02*
X142286904Y-51002438D01*
X142286904Y-51002438D02*
X142334523Y-51050057D01*
X142334523Y-51050057D02*
X142382142Y-51145295D01*
X142382142Y-51145295D02*
X142382142Y-51288152D01*
X142382142Y-51288152D02*
X142334523Y-51383390D01*
X142334523Y-51383390D02*
X142286904Y-51431009D01*
X142286904Y-51431009D02*
X142191666Y-51478628D01*
X142191666Y-51478628D02*
X141810714Y-51478628D01*
X142763095Y-51050057D02*
X142810714Y-51002438D01*
X142810714Y-51002438D02*
X142905952Y-50954819D01*
X142905952Y-50954819D02*
X143144047Y-50954819D01*
X143144047Y-50954819D02*
X143239285Y-51002438D01*
X143239285Y-51002438D02*
X143286904Y-51050057D01*
X143286904Y-51050057D02*
X143334523Y-51145295D01*
X143334523Y-51145295D02*
X143334523Y-51240533D01*
X143334523Y-51240533D02*
X143286904Y-51383390D01*
X143286904Y-51383390D02*
X142715476Y-51954819D01*
X142715476Y-51954819D02*
X143334523Y-51954819D01*
X144239285Y-50954819D02*
X143763095Y-50954819D01*
X143763095Y-50954819D02*
X143715476Y-51431009D01*
X143715476Y-51431009D02*
X143763095Y-51383390D01*
X143763095Y-51383390D02*
X143858333Y-51335771D01*
X143858333Y-51335771D02*
X144096428Y-51335771D01*
X144096428Y-51335771D02*
X144191666Y-51383390D01*
X144191666Y-51383390D02*
X144239285Y-51431009D01*
X144239285Y-51431009D02*
X144286904Y-51526247D01*
X144286904Y-51526247D02*
X144286904Y-51764342D01*
X144286904Y-51764342D02*
X144239285Y-51859580D01*
X144239285Y-51859580D02*
X144191666Y-51907200D01*
X144191666Y-51907200D02*
X144096428Y-51954819D01*
X144096428Y-51954819D02*
X143858333Y-51954819D01*
X143858333Y-51954819D02*
X143763095Y-51907200D01*
X143763095Y-51907200D02*
X143715476Y-51859580D01*
X141532142Y-90579819D02*
X141198809Y-90103628D01*
X140960714Y-90579819D02*
X140960714Y-89579819D01*
X140960714Y-89579819D02*
X141341666Y-89579819D01*
X141341666Y-89579819D02*
X141436904Y-89627438D01*
X141436904Y-89627438D02*
X141484523Y-89675057D01*
X141484523Y-89675057D02*
X141532142Y-89770295D01*
X141532142Y-89770295D02*
X141532142Y-89913152D01*
X141532142Y-89913152D02*
X141484523Y-90008390D01*
X141484523Y-90008390D02*
X141436904Y-90056009D01*
X141436904Y-90056009D02*
X141341666Y-90103628D01*
X141341666Y-90103628D02*
X140960714Y-90103628D01*
X142484523Y-90579819D02*
X141913095Y-90579819D01*
X142198809Y-90579819D02*
X142198809Y-89579819D01*
X142198809Y-89579819D02*
X142103571Y-89722676D01*
X142103571Y-89722676D02*
X142008333Y-89817914D01*
X142008333Y-89817914D02*
X141913095Y-89865533D01*
X143103571Y-89579819D02*
X143198809Y-89579819D01*
X143198809Y-89579819D02*
X143294047Y-89627438D01*
X143294047Y-89627438D02*
X143341666Y-89675057D01*
X143341666Y-89675057D02*
X143389285Y-89770295D01*
X143389285Y-89770295D02*
X143436904Y-89960771D01*
X143436904Y-89960771D02*
X143436904Y-90198866D01*
X143436904Y-90198866D02*
X143389285Y-90389342D01*
X143389285Y-90389342D02*
X143341666Y-90484580D01*
X143341666Y-90484580D02*
X143294047Y-90532200D01*
X143294047Y-90532200D02*
X143198809Y-90579819D01*
X143198809Y-90579819D02*
X143103571Y-90579819D01*
X143103571Y-90579819D02*
X143008333Y-90532200D01*
X143008333Y-90532200D02*
X142960714Y-90484580D01*
X142960714Y-90484580D02*
X142913095Y-90389342D01*
X142913095Y-90389342D02*
X142865476Y-90198866D01*
X142865476Y-90198866D02*
X142865476Y-89960771D01*
X142865476Y-89960771D02*
X142913095Y-89770295D01*
X142913095Y-89770295D02*
X142960714Y-89675057D01*
X142960714Y-89675057D02*
X143008333Y-89627438D01*
X143008333Y-89627438D02*
X143103571Y-89579819D01*
X192873773Y-50954819D02*
X192540440Y-50478628D01*
X192302345Y-50954819D02*
X192302345Y-49954819D01*
X192302345Y-49954819D02*
X192683297Y-49954819D01*
X192683297Y-49954819D02*
X192778535Y-50002438D01*
X192778535Y-50002438D02*
X192826154Y-50050057D01*
X192826154Y-50050057D02*
X192873773Y-50145295D01*
X192873773Y-50145295D02*
X192873773Y-50288152D01*
X192873773Y-50288152D02*
X192826154Y-50383390D01*
X192826154Y-50383390D02*
X192778535Y-50431009D01*
X192778535Y-50431009D02*
X192683297Y-50478628D01*
X192683297Y-50478628D02*
X192302345Y-50478628D01*
X193302345Y-50431009D02*
X193635678Y-50431009D01*
X193778535Y-50954819D02*
X193302345Y-50954819D01*
X193302345Y-50954819D02*
X193302345Y-49954819D01*
X193302345Y-49954819D02*
X193778535Y-49954819D01*
X194540440Y-50431009D02*
X194207107Y-50431009D01*
X194207107Y-50954819D02*
X194207107Y-49954819D01*
X194207107Y-49954819D02*
X194683297Y-49954819D01*
X195207107Y-49954819D02*
X195207107Y-50192914D01*
X194969012Y-50097676D02*
X195207107Y-50192914D01*
X195207107Y-50192914D02*
X195445202Y-50097676D01*
X195064250Y-50383390D02*
X195207107Y-50192914D01*
X195207107Y-50192914D02*
X195349964Y-50383390D01*
X195969012Y-49954819D02*
X195969012Y-50192914D01*
X195730917Y-50097676D02*
X195969012Y-50192914D01*
X195969012Y-50192914D02*
X196207107Y-50097676D01*
X195826155Y-50383390D02*
X195969012Y-50192914D01*
X195969012Y-50192914D02*
X196111869Y-50383390D01*
X141508333Y-93329819D02*
X141175000Y-92853628D01*
X140936905Y-93329819D02*
X140936905Y-92329819D01*
X140936905Y-92329819D02*
X141317857Y-92329819D01*
X141317857Y-92329819D02*
X141413095Y-92377438D01*
X141413095Y-92377438D02*
X141460714Y-92425057D01*
X141460714Y-92425057D02*
X141508333Y-92520295D01*
X141508333Y-92520295D02*
X141508333Y-92663152D01*
X141508333Y-92663152D02*
X141460714Y-92758390D01*
X141460714Y-92758390D02*
X141413095Y-92806009D01*
X141413095Y-92806009D02*
X141317857Y-92853628D01*
X141317857Y-92853628D02*
X140936905Y-92853628D01*
X141984524Y-93329819D02*
X142175000Y-93329819D01*
X142175000Y-93329819D02*
X142270238Y-93282200D01*
X142270238Y-93282200D02*
X142317857Y-93234580D01*
X142317857Y-93234580D02*
X142413095Y-93091723D01*
X142413095Y-93091723D02*
X142460714Y-92901247D01*
X142460714Y-92901247D02*
X142460714Y-92520295D01*
X142460714Y-92520295D02*
X142413095Y-92425057D01*
X142413095Y-92425057D02*
X142365476Y-92377438D01*
X142365476Y-92377438D02*
X142270238Y-92329819D01*
X142270238Y-92329819D02*
X142079762Y-92329819D01*
X142079762Y-92329819D02*
X141984524Y-92377438D01*
X141984524Y-92377438D02*
X141936905Y-92425057D01*
X141936905Y-92425057D02*
X141889286Y-92520295D01*
X141889286Y-92520295D02*
X141889286Y-92758390D01*
X141889286Y-92758390D02*
X141936905Y-92853628D01*
X141936905Y-92853628D02*
X141984524Y-92901247D01*
X141984524Y-92901247D02*
X142079762Y-92948866D01*
X142079762Y-92948866D02*
X142270238Y-92948866D01*
X142270238Y-92948866D02*
X142365476Y-92901247D01*
X142365476Y-92901247D02*
X142413095Y-92853628D01*
X142413095Y-92853628D02*
X142460714Y-92758390D01*
X126994642Y-65354819D02*
X126661309Y-64878628D01*
X126423214Y-65354819D02*
X126423214Y-64354819D01*
X126423214Y-64354819D02*
X126804166Y-64354819D01*
X126804166Y-64354819D02*
X126899404Y-64402438D01*
X126899404Y-64402438D02*
X126947023Y-64450057D01*
X126947023Y-64450057D02*
X126994642Y-64545295D01*
X126994642Y-64545295D02*
X126994642Y-64688152D01*
X126994642Y-64688152D02*
X126947023Y-64783390D01*
X126947023Y-64783390D02*
X126899404Y-64831009D01*
X126899404Y-64831009D02*
X126804166Y-64878628D01*
X126804166Y-64878628D02*
X126423214Y-64878628D01*
X127375595Y-64450057D02*
X127423214Y-64402438D01*
X127423214Y-64402438D02*
X127518452Y-64354819D01*
X127518452Y-64354819D02*
X127756547Y-64354819D01*
X127756547Y-64354819D02*
X127851785Y-64402438D01*
X127851785Y-64402438D02*
X127899404Y-64450057D01*
X127899404Y-64450057D02*
X127947023Y-64545295D01*
X127947023Y-64545295D02*
X127947023Y-64640533D01*
X127947023Y-64640533D02*
X127899404Y-64783390D01*
X127899404Y-64783390D02*
X127327976Y-65354819D01*
X127327976Y-65354819D02*
X127947023Y-65354819D01*
X128804166Y-64354819D02*
X128613690Y-64354819D01*
X128613690Y-64354819D02*
X128518452Y-64402438D01*
X128518452Y-64402438D02*
X128470833Y-64450057D01*
X128470833Y-64450057D02*
X128375595Y-64592914D01*
X128375595Y-64592914D02*
X128327976Y-64783390D01*
X128327976Y-64783390D02*
X128327976Y-65164342D01*
X128327976Y-65164342D02*
X128375595Y-65259580D01*
X128375595Y-65259580D02*
X128423214Y-65307200D01*
X128423214Y-65307200D02*
X128518452Y-65354819D01*
X128518452Y-65354819D02*
X128708928Y-65354819D01*
X128708928Y-65354819D02*
X128804166Y-65307200D01*
X128804166Y-65307200D02*
X128851785Y-65259580D01*
X128851785Y-65259580D02*
X128899404Y-65164342D01*
X128899404Y-65164342D02*
X128899404Y-64926247D01*
X128899404Y-64926247D02*
X128851785Y-64831009D01*
X128851785Y-64831009D02*
X128804166Y-64783390D01*
X128804166Y-64783390D02*
X128708928Y-64735771D01*
X128708928Y-64735771D02*
X128518452Y-64735771D01*
X128518452Y-64735771D02*
X128423214Y-64783390D01*
X128423214Y-64783390D02*
X128375595Y-64831009D01*
X128375595Y-64831009D02*
X128327976Y-64926247D01*
X136004819Y-76142857D02*
X135528628Y-76476190D01*
X136004819Y-76714285D02*
X135004819Y-76714285D01*
X135004819Y-76714285D02*
X135004819Y-76333333D01*
X135004819Y-76333333D02*
X135052438Y-76238095D01*
X135052438Y-76238095D02*
X135100057Y-76190476D01*
X135100057Y-76190476D02*
X135195295Y-76142857D01*
X135195295Y-76142857D02*
X135338152Y-76142857D01*
X135338152Y-76142857D02*
X135433390Y-76190476D01*
X135433390Y-76190476D02*
X135481009Y-76238095D01*
X135481009Y-76238095D02*
X135528628Y-76333333D01*
X135528628Y-76333333D02*
X135528628Y-76714285D01*
X135004819Y-75809523D02*
X135004819Y-75190476D01*
X135004819Y-75190476D02*
X135385771Y-75523809D01*
X135385771Y-75523809D02*
X135385771Y-75380952D01*
X135385771Y-75380952D02*
X135433390Y-75285714D01*
X135433390Y-75285714D02*
X135481009Y-75238095D01*
X135481009Y-75238095D02*
X135576247Y-75190476D01*
X135576247Y-75190476D02*
X135814342Y-75190476D01*
X135814342Y-75190476D02*
X135909580Y-75238095D01*
X135909580Y-75238095D02*
X135957200Y-75285714D01*
X135957200Y-75285714D02*
X136004819Y-75380952D01*
X136004819Y-75380952D02*
X136004819Y-75666666D01*
X136004819Y-75666666D02*
X135957200Y-75761904D01*
X135957200Y-75761904D02*
X135909580Y-75809523D01*
X135004819Y-74571428D02*
X135004819Y-74476190D01*
X135004819Y-74476190D02*
X135052438Y-74380952D01*
X135052438Y-74380952D02*
X135100057Y-74333333D01*
X135100057Y-74333333D02*
X135195295Y-74285714D01*
X135195295Y-74285714D02*
X135385771Y-74238095D01*
X135385771Y-74238095D02*
X135623866Y-74238095D01*
X135623866Y-74238095D02*
X135814342Y-74285714D01*
X135814342Y-74285714D02*
X135909580Y-74333333D01*
X135909580Y-74333333D02*
X135957200Y-74380952D01*
X135957200Y-74380952D02*
X136004819Y-74476190D01*
X136004819Y-74476190D02*
X136004819Y-74571428D01*
X136004819Y-74571428D02*
X135957200Y-74666666D01*
X135957200Y-74666666D02*
X135909580Y-74714285D01*
X135909580Y-74714285D02*
X135814342Y-74761904D01*
X135814342Y-74761904D02*
X135623866Y-74809523D01*
X135623866Y-74809523D02*
X135385771Y-74809523D01*
X135385771Y-74809523D02*
X135195295Y-74761904D01*
X135195295Y-74761904D02*
X135100057Y-74714285D01*
X135100057Y-74714285D02*
X135052438Y-74666666D01*
X135052438Y-74666666D02*
X135004819Y-74571428D01*
X163609580Y-52642857D02*
X163657200Y-52690476D01*
X163657200Y-52690476D02*
X163704819Y-52833333D01*
X163704819Y-52833333D02*
X163704819Y-52928571D01*
X163704819Y-52928571D02*
X163657200Y-53071428D01*
X163657200Y-53071428D02*
X163561961Y-53166666D01*
X163561961Y-53166666D02*
X163466723Y-53214285D01*
X163466723Y-53214285D02*
X163276247Y-53261904D01*
X163276247Y-53261904D02*
X163133390Y-53261904D01*
X163133390Y-53261904D02*
X162942914Y-53214285D01*
X162942914Y-53214285D02*
X162847676Y-53166666D01*
X162847676Y-53166666D02*
X162752438Y-53071428D01*
X162752438Y-53071428D02*
X162704819Y-52928571D01*
X162704819Y-52928571D02*
X162704819Y-52833333D01*
X162704819Y-52833333D02*
X162752438Y-52690476D01*
X162752438Y-52690476D02*
X162800057Y-52642857D01*
X163704819Y-51690476D02*
X163704819Y-52261904D01*
X163704819Y-51976190D02*
X162704819Y-51976190D01*
X162704819Y-51976190D02*
X162847676Y-52071428D01*
X162847676Y-52071428D02*
X162942914Y-52166666D01*
X162942914Y-52166666D02*
X162990533Y-52261904D01*
X163704819Y-50738095D02*
X163704819Y-51309523D01*
X163704819Y-51023809D02*
X162704819Y-51023809D01*
X162704819Y-51023809D02*
X162847676Y-51119047D01*
X162847676Y-51119047D02*
X162942914Y-51214285D01*
X162942914Y-51214285D02*
X162990533Y-51309523D01*
X160204819Y-52142857D02*
X159728628Y-52476190D01*
X160204819Y-52714285D02*
X159204819Y-52714285D01*
X159204819Y-52714285D02*
X159204819Y-52333333D01*
X159204819Y-52333333D02*
X159252438Y-52238095D01*
X159252438Y-52238095D02*
X159300057Y-52190476D01*
X159300057Y-52190476D02*
X159395295Y-52142857D01*
X159395295Y-52142857D02*
X159538152Y-52142857D01*
X159538152Y-52142857D02*
X159633390Y-52190476D01*
X159633390Y-52190476D02*
X159681009Y-52238095D01*
X159681009Y-52238095D02*
X159728628Y-52333333D01*
X159728628Y-52333333D02*
X159728628Y-52714285D01*
X159204819Y-51809523D02*
X159204819Y-51190476D01*
X159204819Y-51190476D02*
X159585771Y-51523809D01*
X159585771Y-51523809D02*
X159585771Y-51380952D01*
X159585771Y-51380952D02*
X159633390Y-51285714D01*
X159633390Y-51285714D02*
X159681009Y-51238095D01*
X159681009Y-51238095D02*
X159776247Y-51190476D01*
X159776247Y-51190476D02*
X160014342Y-51190476D01*
X160014342Y-51190476D02*
X160109580Y-51238095D01*
X160109580Y-51238095D02*
X160157200Y-51285714D01*
X160157200Y-51285714D02*
X160204819Y-51380952D01*
X160204819Y-51380952D02*
X160204819Y-51666666D01*
X160204819Y-51666666D02*
X160157200Y-51761904D01*
X160157200Y-51761904D02*
X160109580Y-51809523D01*
X159538152Y-50333333D02*
X160204819Y-50333333D01*
X159157200Y-50571428D02*
X159871485Y-50809523D01*
X159871485Y-50809523D02*
X159871485Y-50190476D01*
X180880952Y-71454819D02*
X181452380Y-71454819D01*
X181166666Y-72454819D02*
X181166666Y-71454819D01*
X182166666Y-72407200D02*
X182071428Y-72454819D01*
X182071428Y-72454819D02*
X181880952Y-72454819D01*
X181880952Y-72454819D02*
X181785714Y-72407200D01*
X181785714Y-72407200D02*
X181738095Y-72311961D01*
X181738095Y-72311961D02*
X181738095Y-71931009D01*
X181738095Y-71931009D02*
X181785714Y-71835771D01*
X181785714Y-71835771D02*
X181880952Y-71788152D01*
X181880952Y-71788152D02*
X182071428Y-71788152D01*
X182071428Y-71788152D02*
X182166666Y-71835771D01*
X182166666Y-71835771D02*
X182214285Y-71931009D01*
X182214285Y-71931009D02*
X182214285Y-72026247D01*
X182214285Y-72026247D02*
X181738095Y-72121485D01*
X182595238Y-72407200D02*
X182690476Y-72454819D01*
X182690476Y-72454819D02*
X182880952Y-72454819D01*
X182880952Y-72454819D02*
X182976190Y-72407200D01*
X182976190Y-72407200D02*
X183023809Y-72311961D01*
X183023809Y-72311961D02*
X183023809Y-72264342D01*
X183023809Y-72264342D02*
X182976190Y-72169104D01*
X182976190Y-72169104D02*
X182880952Y-72121485D01*
X182880952Y-72121485D02*
X182738095Y-72121485D01*
X182738095Y-72121485D02*
X182642857Y-72073866D01*
X182642857Y-72073866D02*
X182595238Y-71978628D01*
X182595238Y-71978628D02*
X182595238Y-71931009D01*
X182595238Y-71931009D02*
X182642857Y-71835771D01*
X182642857Y-71835771D02*
X182738095Y-71788152D01*
X182738095Y-71788152D02*
X182880952Y-71788152D01*
X182880952Y-71788152D02*
X182976190Y-71835771D01*
X183309524Y-71788152D02*
X183690476Y-71788152D01*
X183452381Y-71454819D02*
X183452381Y-72311961D01*
X183452381Y-72311961D02*
X183500000Y-72407200D01*
X183500000Y-72407200D02*
X183595238Y-72454819D01*
X183595238Y-72454819D02*
X183690476Y-72454819D01*
X185357143Y-72359580D02*
X185309524Y-72407200D01*
X185309524Y-72407200D02*
X185166667Y-72454819D01*
X185166667Y-72454819D02*
X185071429Y-72454819D01*
X185071429Y-72454819D02*
X184928572Y-72407200D01*
X184928572Y-72407200D02*
X184833334Y-72311961D01*
X184833334Y-72311961D02*
X184785715Y-72216723D01*
X184785715Y-72216723D02*
X184738096Y-72026247D01*
X184738096Y-72026247D02*
X184738096Y-71883390D01*
X184738096Y-71883390D02*
X184785715Y-71692914D01*
X184785715Y-71692914D02*
X184833334Y-71597676D01*
X184833334Y-71597676D02*
X184928572Y-71502438D01*
X184928572Y-71502438D02*
X185071429Y-71454819D01*
X185071429Y-71454819D02*
X185166667Y-71454819D01*
X185166667Y-71454819D02*
X185309524Y-71502438D01*
X185309524Y-71502438D02*
X185357143Y-71550057D01*
X185738096Y-72407200D02*
X185880953Y-72454819D01*
X185880953Y-72454819D02*
X186119048Y-72454819D01*
X186119048Y-72454819D02*
X186214286Y-72407200D01*
X186214286Y-72407200D02*
X186261905Y-72359580D01*
X186261905Y-72359580D02*
X186309524Y-72264342D01*
X186309524Y-72264342D02*
X186309524Y-72169104D01*
X186309524Y-72169104D02*
X186261905Y-72073866D01*
X186261905Y-72073866D02*
X186214286Y-72026247D01*
X186214286Y-72026247D02*
X186119048Y-71978628D01*
X186119048Y-71978628D02*
X185928572Y-71931009D01*
X185928572Y-71931009D02*
X185833334Y-71883390D01*
X185833334Y-71883390D02*
X185785715Y-71835771D01*
X185785715Y-71835771D02*
X185738096Y-71740533D01*
X185738096Y-71740533D02*
X185738096Y-71645295D01*
X185738096Y-71645295D02*
X185785715Y-71550057D01*
X185785715Y-71550057D02*
X185833334Y-71502438D01*
X185833334Y-71502438D02*
X185928572Y-71454819D01*
X185928572Y-71454819D02*
X186166667Y-71454819D01*
X186166667Y-71454819D02*
X186309524Y-71502438D01*
X186500001Y-72550057D02*
X187261905Y-72550057D01*
X187452382Y-72407200D02*
X187595239Y-72454819D01*
X187595239Y-72454819D02*
X187833334Y-72454819D01*
X187833334Y-72454819D02*
X187928572Y-72407200D01*
X187928572Y-72407200D02*
X187976191Y-72359580D01*
X187976191Y-72359580D02*
X188023810Y-72264342D01*
X188023810Y-72264342D02*
X188023810Y-72169104D01*
X188023810Y-72169104D02*
X187976191Y-72073866D01*
X187976191Y-72073866D02*
X187928572Y-72026247D01*
X187928572Y-72026247D02*
X187833334Y-71978628D01*
X187833334Y-71978628D02*
X187642858Y-71931009D01*
X187642858Y-71931009D02*
X187547620Y-71883390D01*
X187547620Y-71883390D02*
X187500001Y-71835771D01*
X187500001Y-71835771D02*
X187452382Y-71740533D01*
X187452382Y-71740533D02*
X187452382Y-71645295D01*
X187452382Y-71645295D02*
X187500001Y-71550057D01*
X187500001Y-71550057D02*
X187547620Y-71502438D01*
X187547620Y-71502438D02*
X187642858Y-71454819D01*
X187642858Y-71454819D02*
X187880953Y-71454819D01*
X187880953Y-71454819D02*
X188023810Y-71502438D01*
X188452382Y-72454819D02*
X188452382Y-71454819D01*
X188452382Y-71454819D02*
X188690477Y-71454819D01*
X188690477Y-71454819D02*
X188833334Y-71502438D01*
X188833334Y-71502438D02*
X188928572Y-71597676D01*
X188928572Y-71597676D02*
X188976191Y-71692914D01*
X188976191Y-71692914D02*
X189023810Y-71883390D01*
X189023810Y-71883390D02*
X189023810Y-72026247D01*
X189023810Y-72026247D02*
X188976191Y-72216723D01*
X188976191Y-72216723D02*
X188928572Y-72311961D01*
X188928572Y-72311961D02*
X188833334Y-72407200D01*
X188833334Y-72407200D02*
X188690477Y-72454819D01*
X188690477Y-72454819D02*
X188452382Y-72454819D01*
X131629819Y-81291666D02*
X131153628Y-81624999D01*
X131629819Y-81863094D02*
X130629819Y-81863094D01*
X130629819Y-81863094D02*
X130629819Y-81482142D01*
X130629819Y-81482142D02*
X130677438Y-81386904D01*
X130677438Y-81386904D02*
X130725057Y-81339285D01*
X130725057Y-81339285D02*
X130820295Y-81291666D01*
X130820295Y-81291666D02*
X130963152Y-81291666D01*
X130963152Y-81291666D02*
X131058390Y-81339285D01*
X131058390Y-81339285D02*
X131106009Y-81386904D01*
X131106009Y-81386904D02*
X131153628Y-81482142D01*
X131153628Y-81482142D02*
X131153628Y-81863094D01*
X130629819Y-80434523D02*
X130629819Y-80624999D01*
X130629819Y-80624999D02*
X130677438Y-80720237D01*
X130677438Y-80720237D02*
X130725057Y-80767856D01*
X130725057Y-80767856D02*
X130867914Y-80863094D01*
X130867914Y-80863094D02*
X131058390Y-80910713D01*
X131058390Y-80910713D02*
X131439342Y-80910713D01*
X131439342Y-80910713D02*
X131534580Y-80863094D01*
X131534580Y-80863094D02*
X131582200Y-80815475D01*
X131582200Y-80815475D02*
X131629819Y-80720237D01*
X131629819Y-80720237D02*
X131629819Y-80529761D01*
X131629819Y-80529761D02*
X131582200Y-80434523D01*
X131582200Y-80434523D02*
X131534580Y-80386904D01*
X131534580Y-80386904D02*
X131439342Y-80339285D01*
X131439342Y-80339285D02*
X131201247Y-80339285D01*
X131201247Y-80339285D02*
X131106009Y-80386904D01*
X131106009Y-80386904D02*
X131058390Y-80434523D01*
X131058390Y-80434523D02*
X131010771Y-80529761D01*
X131010771Y-80529761D02*
X131010771Y-80720237D01*
X131010771Y-80720237D02*
X131058390Y-80815475D01*
X131058390Y-80815475D02*
X131106009Y-80863094D01*
X131106009Y-80863094D02*
X131201247Y-80910713D01*
X156457142Y-84454819D02*
X156123809Y-83978628D01*
X155885714Y-84454819D02*
X155885714Y-83454819D01*
X155885714Y-83454819D02*
X156266666Y-83454819D01*
X156266666Y-83454819D02*
X156361904Y-83502438D01*
X156361904Y-83502438D02*
X156409523Y-83550057D01*
X156409523Y-83550057D02*
X156457142Y-83645295D01*
X156457142Y-83645295D02*
X156457142Y-83788152D01*
X156457142Y-83788152D02*
X156409523Y-83883390D01*
X156409523Y-83883390D02*
X156361904Y-83931009D01*
X156361904Y-83931009D02*
X156266666Y-83978628D01*
X156266666Y-83978628D02*
X155885714Y-83978628D01*
X157409523Y-84454819D02*
X156838095Y-84454819D01*
X157123809Y-84454819D02*
X157123809Y-83454819D01*
X157123809Y-83454819D02*
X157028571Y-83597676D01*
X157028571Y-83597676D02*
X156933333Y-83692914D01*
X156933333Y-83692914D02*
X156838095Y-83740533D01*
X158266666Y-83788152D02*
X158266666Y-84454819D01*
X158028571Y-83407200D02*
X157790476Y-84121485D01*
X157790476Y-84121485D02*
X158409523Y-84121485D01*
X137594642Y-65154819D02*
X137261309Y-64678628D01*
X137023214Y-65154819D02*
X137023214Y-64154819D01*
X137023214Y-64154819D02*
X137404166Y-64154819D01*
X137404166Y-64154819D02*
X137499404Y-64202438D01*
X137499404Y-64202438D02*
X137547023Y-64250057D01*
X137547023Y-64250057D02*
X137594642Y-64345295D01*
X137594642Y-64345295D02*
X137594642Y-64488152D01*
X137594642Y-64488152D02*
X137547023Y-64583390D01*
X137547023Y-64583390D02*
X137499404Y-64631009D01*
X137499404Y-64631009D02*
X137404166Y-64678628D01*
X137404166Y-64678628D02*
X137023214Y-64678628D01*
X137975595Y-64250057D02*
X138023214Y-64202438D01*
X138023214Y-64202438D02*
X138118452Y-64154819D01*
X138118452Y-64154819D02*
X138356547Y-64154819D01*
X138356547Y-64154819D02*
X138451785Y-64202438D01*
X138451785Y-64202438D02*
X138499404Y-64250057D01*
X138499404Y-64250057D02*
X138547023Y-64345295D01*
X138547023Y-64345295D02*
X138547023Y-64440533D01*
X138547023Y-64440533D02*
X138499404Y-64583390D01*
X138499404Y-64583390D02*
X137927976Y-65154819D01*
X137927976Y-65154819D02*
X138547023Y-65154819D01*
X139118452Y-64583390D02*
X139023214Y-64535771D01*
X139023214Y-64535771D02*
X138975595Y-64488152D01*
X138975595Y-64488152D02*
X138927976Y-64392914D01*
X138927976Y-64392914D02*
X138927976Y-64345295D01*
X138927976Y-64345295D02*
X138975595Y-64250057D01*
X138975595Y-64250057D02*
X139023214Y-64202438D01*
X139023214Y-64202438D02*
X139118452Y-64154819D01*
X139118452Y-64154819D02*
X139308928Y-64154819D01*
X139308928Y-64154819D02*
X139404166Y-64202438D01*
X139404166Y-64202438D02*
X139451785Y-64250057D01*
X139451785Y-64250057D02*
X139499404Y-64345295D01*
X139499404Y-64345295D02*
X139499404Y-64392914D01*
X139499404Y-64392914D02*
X139451785Y-64488152D01*
X139451785Y-64488152D02*
X139404166Y-64535771D01*
X139404166Y-64535771D02*
X139308928Y-64583390D01*
X139308928Y-64583390D02*
X139118452Y-64583390D01*
X139118452Y-64583390D02*
X139023214Y-64631009D01*
X139023214Y-64631009D02*
X138975595Y-64678628D01*
X138975595Y-64678628D02*
X138927976Y-64773866D01*
X138927976Y-64773866D02*
X138927976Y-64964342D01*
X138927976Y-64964342D02*
X138975595Y-65059580D01*
X138975595Y-65059580D02*
X139023214Y-65107200D01*
X139023214Y-65107200D02*
X139118452Y-65154819D01*
X139118452Y-65154819D02*
X139308928Y-65154819D01*
X139308928Y-65154819D02*
X139404166Y-65107200D01*
X139404166Y-65107200D02*
X139451785Y-65059580D01*
X139451785Y-65059580D02*
X139499404Y-64964342D01*
X139499404Y-64964342D02*
X139499404Y-64773866D01*
X139499404Y-64773866D02*
X139451785Y-64678628D01*
X139451785Y-64678628D02*
X139404166Y-64631009D01*
X139404166Y-64631009D02*
X139308928Y-64583390D01*
X166600819Y-77589357D02*
X166124628Y-77922690D01*
X166600819Y-78160785D02*
X165600819Y-78160785D01*
X165600819Y-78160785D02*
X165600819Y-77779833D01*
X165600819Y-77779833D02*
X165648438Y-77684595D01*
X165648438Y-77684595D02*
X165696057Y-77636976D01*
X165696057Y-77636976D02*
X165791295Y-77589357D01*
X165791295Y-77589357D02*
X165934152Y-77589357D01*
X165934152Y-77589357D02*
X166029390Y-77636976D01*
X166029390Y-77636976D02*
X166077009Y-77684595D01*
X166077009Y-77684595D02*
X166124628Y-77779833D01*
X166124628Y-77779833D02*
X166124628Y-78160785D01*
X165696057Y-77208404D02*
X165648438Y-77160785D01*
X165648438Y-77160785D02*
X165600819Y-77065547D01*
X165600819Y-77065547D02*
X165600819Y-76827452D01*
X165600819Y-76827452D02*
X165648438Y-76732214D01*
X165648438Y-76732214D02*
X165696057Y-76684595D01*
X165696057Y-76684595D02*
X165791295Y-76636976D01*
X165791295Y-76636976D02*
X165886533Y-76636976D01*
X165886533Y-76636976D02*
X166029390Y-76684595D01*
X166029390Y-76684595D02*
X166600819Y-77256023D01*
X166600819Y-77256023D02*
X166600819Y-76636976D01*
X166600819Y-75684595D02*
X166600819Y-76256023D01*
X166600819Y-75970309D02*
X165600819Y-75970309D01*
X165600819Y-75970309D02*
X165743676Y-76065547D01*
X165743676Y-76065547D02*
X165838914Y-76160785D01*
X165838914Y-76160785D02*
X165886533Y-76256023D01*
X133509580Y-76142857D02*
X133557200Y-76190476D01*
X133557200Y-76190476D02*
X133604819Y-76333333D01*
X133604819Y-76333333D02*
X133604819Y-76428571D01*
X133604819Y-76428571D02*
X133557200Y-76571428D01*
X133557200Y-76571428D02*
X133461961Y-76666666D01*
X133461961Y-76666666D02*
X133366723Y-76714285D01*
X133366723Y-76714285D02*
X133176247Y-76761904D01*
X133176247Y-76761904D02*
X133033390Y-76761904D01*
X133033390Y-76761904D02*
X132842914Y-76714285D01*
X132842914Y-76714285D02*
X132747676Y-76666666D01*
X132747676Y-76666666D02*
X132652438Y-76571428D01*
X132652438Y-76571428D02*
X132604819Y-76428571D01*
X132604819Y-76428571D02*
X132604819Y-76333333D01*
X132604819Y-76333333D02*
X132652438Y-76190476D01*
X132652438Y-76190476D02*
X132700057Y-76142857D01*
X133604819Y-75190476D02*
X133604819Y-75761904D01*
X133604819Y-75476190D02*
X132604819Y-75476190D01*
X132604819Y-75476190D02*
X132747676Y-75571428D01*
X132747676Y-75571428D02*
X132842914Y-75666666D01*
X132842914Y-75666666D02*
X132890533Y-75761904D01*
X133604819Y-74714285D02*
X133604819Y-74523809D01*
X133604819Y-74523809D02*
X133557200Y-74428571D01*
X133557200Y-74428571D02*
X133509580Y-74380952D01*
X133509580Y-74380952D02*
X133366723Y-74285714D01*
X133366723Y-74285714D02*
X133176247Y-74238095D01*
X133176247Y-74238095D02*
X132795295Y-74238095D01*
X132795295Y-74238095D02*
X132700057Y-74285714D01*
X132700057Y-74285714D02*
X132652438Y-74333333D01*
X132652438Y-74333333D02*
X132604819Y-74428571D01*
X132604819Y-74428571D02*
X132604819Y-74619047D01*
X132604819Y-74619047D02*
X132652438Y-74714285D01*
X132652438Y-74714285D02*
X132700057Y-74761904D01*
X132700057Y-74761904D02*
X132795295Y-74809523D01*
X132795295Y-74809523D02*
X133033390Y-74809523D01*
X133033390Y-74809523D02*
X133128628Y-74761904D01*
X133128628Y-74761904D02*
X133176247Y-74714285D01*
X133176247Y-74714285D02*
X133223866Y-74619047D01*
X133223866Y-74619047D02*
X133223866Y-74428571D01*
X133223866Y-74428571D02*
X133176247Y-74333333D01*
X133176247Y-74333333D02*
X133128628Y-74285714D01*
X133128628Y-74285714D02*
X133033390Y-74238095D01*
X171163095Y-41269819D02*
X171163095Y-42079342D01*
X171163095Y-42079342D02*
X171210714Y-42174580D01*
X171210714Y-42174580D02*
X171258333Y-42222200D01*
X171258333Y-42222200D02*
X171353571Y-42269819D01*
X171353571Y-42269819D02*
X171544047Y-42269819D01*
X171544047Y-42269819D02*
X171639285Y-42222200D01*
X171639285Y-42222200D02*
X171686904Y-42174580D01*
X171686904Y-42174580D02*
X171734523Y-42079342D01*
X171734523Y-42079342D02*
X171734523Y-41269819D01*
X172163095Y-41365057D02*
X172210714Y-41317438D01*
X172210714Y-41317438D02*
X172305952Y-41269819D01*
X172305952Y-41269819D02*
X172544047Y-41269819D01*
X172544047Y-41269819D02*
X172639285Y-41317438D01*
X172639285Y-41317438D02*
X172686904Y-41365057D01*
X172686904Y-41365057D02*
X172734523Y-41460295D01*
X172734523Y-41460295D02*
X172734523Y-41555533D01*
X172734523Y-41555533D02*
X172686904Y-41698390D01*
X172686904Y-41698390D02*
X172115476Y-42269819D01*
X172115476Y-42269819D02*
X172734523Y-42269819D01*
X164291642Y-64657580D02*
X164244023Y-64705200D01*
X164244023Y-64705200D02*
X164101166Y-64752819D01*
X164101166Y-64752819D02*
X164005928Y-64752819D01*
X164005928Y-64752819D02*
X163863071Y-64705200D01*
X163863071Y-64705200D02*
X163767833Y-64609961D01*
X163767833Y-64609961D02*
X163720214Y-64514723D01*
X163720214Y-64514723D02*
X163672595Y-64324247D01*
X163672595Y-64324247D02*
X163672595Y-64181390D01*
X163672595Y-64181390D02*
X163720214Y-63990914D01*
X163720214Y-63990914D02*
X163767833Y-63895676D01*
X163767833Y-63895676D02*
X163863071Y-63800438D01*
X163863071Y-63800438D02*
X164005928Y-63752819D01*
X164005928Y-63752819D02*
X164101166Y-63752819D01*
X164101166Y-63752819D02*
X164244023Y-63800438D01*
X164244023Y-63800438D02*
X164291642Y-63848057D01*
X165244023Y-64752819D02*
X164672595Y-64752819D01*
X164958309Y-64752819D02*
X164958309Y-63752819D01*
X164958309Y-63752819D02*
X164863071Y-63895676D01*
X164863071Y-63895676D02*
X164767833Y-63990914D01*
X164767833Y-63990914D02*
X164672595Y-64038533D01*
X166101166Y-64086152D02*
X166101166Y-64752819D01*
X165863071Y-63705200D02*
X165624976Y-64419485D01*
X165624976Y-64419485D02*
X166244023Y-64419485D01*
X113666666Y-99954819D02*
X113333333Y-99478628D01*
X113095238Y-99954819D02*
X113095238Y-98954819D01*
X113095238Y-98954819D02*
X113476190Y-98954819D01*
X113476190Y-98954819D02*
X113571428Y-99002438D01*
X113571428Y-99002438D02*
X113619047Y-99050057D01*
X113619047Y-99050057D02*
X113666666Y-99145295D01*
X113666666Y-99145295D02*
X113666666Y-99288152D01*
X113666666Y-99288152D02*
X113619047Y-99383390D01*
X113619047Y-99383390D02*
X113571428Y-99431009D01*
X113571428Y-99431009D02*
X113476190Y-99478628D01*
X113476190Y-99478628D02*
X113095238Y-99478628D01*
X114095238Y-99431009D02*
X114428571Y-99431009D01*
X114571428Y-99954819D02*
X114095238Y-99954819D01*
X114095238Y-99954819D02*
X114095238Y-98954819D01*
X114095238Y-98954819D02*
X114571428Y-98954819D01*
X115333333Y-99431009D02*
X115000000Y-99431009D01*
X115000000Y-99954819D02*
X115000000Y-98954819D01*
X115000000Y-98954819D02*
X115476190Y-98954819D01*
X116000000Y-98954819D02*
X116000000Y-99192914D01*
X115761905Y-99097676D02*
X116000000Y-99192914D01*
X116000000Y-99192914D02*
X116238095Y-99097676D01*
X115857143Y-99383390D02*
X116000000Y-99192914D01*
X116000000Y-99192914D02*
X116142857Y-99383390D01*
X116761905Y-98954819D02*
X116761905Y-99192914D01*
X116523810Y-99097676D02*
X116761905Y-99192914D01*
X116761905Y-99192914D02*
X117000000Y-99097676D01*
X116619048Y-99383390D02*
X116761905Y-99192914D01*
X116761905Y-99192914D02*
X116904762Y-99383390D01*
X113666666Y-50954819D02*
X113333333Y-50478628D01*
X113095238Y-50954819D02*
X113095238Y-49954819D01*
X113095238Y-49954819D02*
X113476190Y-49954819D01*
X113476190Y-49954819D02*
X113571428Y-50002438D01*
X113571428Y-50002438D02*
X113619047Y-50050057D01*
X113619047Y-50050057D02*
X113666666Y-50145295D01*
X113666666Y-50145295D02*
X113666666Y-50288152D01*
X113666666Y-50288152D02*
X113619047Y-50383390D01*
X113619047Y-50383390D02*
X113571428Y-50431009D01*
X113571428Y-50431009D02*
X113476190Y-50478628D01*
X113476190Y-50478628D02*
X113095238Y-50478628D01*
X114095238Y-50431009D02*
X114428571Y-50431009D01*
X114571428Y-50954819D02*
X114095238Y-50954819D01*
X114095238Y-50954819D02*
X114095238Y-49954819D01*
X114095238Y-49954819D02*
X114571428Y-49954819D01*
X115333333Y-50431009D02*
X115000000Y-50431009D01*
X115000000Y-50954819D02*
X115000000Y-49954819D01*
X115000000Y-49954819D02*
X115476190Y-49954819D01*
X116000000Y-49954819D02*
X116000000Y-50192914D01*
X115761905Y-50097676D02*
X116000000Y-50192914D01*
X116000000Y-50192914D02*
X116238095Y-50097676D01*
X115857143Y-50383390D02*
X116000000Y-50192914D01*
X116000000Y-50192914D02*
X116142857Y-50383390D01*
X116761905Y-49954819D02*
X116761905Y-50192914D01*
X116523810Y-50097676D02*
X116761905Y-50192914D01*
X116761905Y-50192914D02*
X117000000Y-50097676D01*
X116619048Y-50383390D02*
X116761905Y-50192914D01*
X116761905Y-50192914D02*
X116904762Y-50383390D01*
X142512618Y-74617226D02*
X142512618Y-73347226D01*
X142512618Y-73347226D02*
X142814999Y-73347226D01*
X142814999Y-73347226D02*
X142996428Y-73407702D01*
X142996428Y-73407702D02*
X143117380Y-73528654D01*
X143117380Y-73528654D02*
X143177857Y-73649607D01*
X143177857Y-73649607D02*
X143238333Y-73891511D01*
X143238333Y-73891511D02*
X143238333Y-74072940D01*
X143238333Y-74072940D02*
X143177857Y-74314845D01*
X143177857Y-74314845D02*
X143117380Y-74435797D01*
X143117380Y-74435797D02*
X142996428Y-74556750D01*
X142996428Y-74556750D02*
X142814999Y-74617226D01*
X142814999Y-74617226D02*
X142512618Y-74617226D01*
X143843095Y-74617226D02*
X144084999Y-74617226D01*
X144084999Y-74617226D02*
X144205952Y-74556750D01*
X144205952Y-74556750D02*
X144266428Y-74496273D01*
X144266428Y-74496273D02*
X144387380Y-74314845D01*
X144387380Y-74314845D02*
X144447857Y-74072940D01*
X144447857Y-74072940D02*
X144447857Y-73589130D01*
X144447857Y-73589130D02*
X144387380Y-73468178D01*
X144387380Y-73468178D02*
X144326904Y-73407702D01*
X144326904Y-73407702D02*
X144205952Y-73347226D01*
X144205952Y-73347226D02*
X143964047Y-73347226D01*
X143964047Y-73347226D02*
X143843095Y-73407702D01*
X143843095Y-73407702D02*
X143782618Y-73468178D01*
X143782618Y-73468178D02*
X143722142Y-73589130D01*
X143722142Y-73589130D02*
X143722142Y-73891511D01*
X143722142Y-73891511D02*
X143782618Y-74012464D01*
X143782618Y-74012464D02*
X143843095Y-74072940D01*
X143843095Y-74072940D02*
X143964047Y-74133416D01*
X143964047Y-74133416D02*
X144205952Y-74133416D01*
X144205952Y-74133416D02*
X144326904Y-74072940D01*
X144326904Y-74072940D02*
X144387380Y-74012464D01*
X144387380Y-74012464D02*
X144447857Y-73891511D01*
X182107142Y-74754819D02*
X181773809Y-74278628D01*
X181535714Y-74754819D02*
X181535714Y-73754819D01*
X181535714Y-73754819D02*
X181916666Y-73754819D01*
X181916666Y-73754819D02*
X182011904Y-73802438D01*
X182011904Y-73802438D02*
X182059523Y-73850057D01*
X182059523Y-73850057D02*
X182107142Y-73945295D01*
X182107142Y-73945295D02*
X182107142Y-74088152D01*
X182107142Y-74088152D02*
X182059523Y-74183390D01*
X182059523Y-74183390D02*
X182011904Y-74231009D01*
X182011904Y-74231009D02*
X181916666Y-74278628D01*
X181916666Y-74278628D02*
X181535714Y-74278628D01*
X183059523Y-74754819D02*
X182488095Y-74754819D01*
X182773809Y-74754819D02*
X182773809Y-73754819D01*
X182773809Y-73754819D02*
X182678571Y-73897676D01*
X182678571Y-73897676D02*
X182583333Y-73992914D01*
X182583333Y-73992914D02*
X182488095Y-74040533D01*
X183535714Y-74754819D02*
X183726190Y-74754819D01*
X183726190Y-74754819D02*
X183821428Y-74707200D01*
X183821428Y-74707200D02*
X183869047Y-74659580D01*
X183869047Y-74659580D02*
X183964285Y-74516723D01*
X183964285Y-74516723D02*
X184011904Y-74326247D01*
X184011904Y-74326247D02*
X184011904Y-73945295D01*
X184011904Y-73945295D02*
X183964285Y-73850057D01*
X183964285Y-73850057D02*
X183916666Y-73802438D01*
X183916666Y-73802438D02*
X183821428Y-73754819D01*
X183821428Y-73754819D02*
X183630952Y-73754819D01*
X183630952Y-73754819D02*
X183535714Y-73802438D01*
X183535714Y-73802438D02*
X183488095Y-73850057D01*
X183488095Y-73850057D02*
X183440476Y-73945295D01*
X183440476Y-73945295D02*
X183440476Y-74183390D01*
X183440476Y-74183390D02*
X183488095Y-74278628D01*
X183488095Y-74278628D02*
X183535714Y-74326247D01*
X183535714Y-74326247D02*
X183630952Y-74373866D01*
X183630952Y-74373866D02*
X183821428Y-74373866D01*
X183821428Y-74373866D02*
X183916666Y-74326247D01*
X183916666Y-74326247D02*
X183964285Y-74278628D01*
X183964285Y-74278628D02*
X184011904Y-74183390D01*
X168958333Y-71304819D02*
X169529761Y-71304819D01*
X169244047Y-72304819D02*
X169244047Y-71304819D01*
X170244047Y-72257200D02*
X170148809Y-72304819D01*
X170148809Y-72304819D02*
X169958333Y-72304819D01*
X169958333Y-72304819D02*
X169863095Y-72257200D01*
X169863095Y-72257200D02*
X169815476Y-72161961D01*
X169815476Y-72161961D02*
X169815476Y-71781009D01*
X169815476Y-71781009D02*
X169863095Y-71685771D01*
X169863095Y-71685771D02*
X169958333Y-71638152D01*
X169958333Y-71638152D02*
X170148809Y-71638152D01*
X170148809Y-71638152D02*
X170244047Y-71685771D01*
X170244047Y-71685771D02*
X170291666Y-71781009D01*
X170291666Y-71781009D02*
X170291666Y-71876247D01*
X170291666Y-71876247D02*
X169815476Y-71971485D01*
X170672619Y-72257200D02*
X170767857Y-72304819D01*
X170767857Y-72304819D02*
X170958333Y-72304819D01*
X170958333Y-72304819D02*
X171053571Y-72257200D01*
X171053571Y-72257200D02*
X171101190Y-72161961D01*
X171101190Y-72161961D02*
X171101190Y-72114342D01*
X171101190Y-72114342D02*
X171053571Y-72019104D01*
X171053571Y-72019104D02*
X170958333Y-71971485D01*
X170958333Y-71971485D02*
X170815476Y-71971485D01*
X170815476Y-71971485D02*
X170720238Y-71923866D01*
X170720238Y-71923866D02*
X170672619Y-71828628D01*
X170672619Y-71828628D02*
X170672619Y-71781009D01*
X170672619Y-71781009D02*
X170720238Y-71685771D01*
X170720238Y-71685771D02*
X170815476Y-71638152D01*
X170815476Y-71638152D02*
X170958333Y-71638152D01*
X170958333Y-71638152D02*
X171053571Y-71685771D01*
X171386905Y-71638152D02*
X171767857Y-71638152D01*
X171529762Y-71304819D02*
X171529762Y-72161961D01*
X171529762Y-72161961D02*
X171577381Y-72257200D01*
X171577381Y-72257200D02*
X171672619Y-72304819D01*
X171672619Y-72304819D02*
X171767857Y-72304819D01*
X172815477Y-72257200D02*
X172958334Y-72304819D01*
X172958334Y-72304819D02*
X173196429Y-72304819D01*
X173196429Y-72304819D02*
X173291667Y-72257200D01*
X173291667Y-72257200D02*
X173339286Y-72209580D01*
X173339286Y-72209580D02*
X173386905Y-72114342D01*
X173386905Y-72114342D02*
X173386905Y-72019104D01*
X173386905Y-72019104D02*
X173339286Y-71923866D01*
X173339286Y-71923866D02*
X173291667Y-71876247D01*
X173291667Y-71876247D02*
X173196429Y-71828628D01*
X173196429Y-71828628D02*
X173005953Y-71781009D01*
X173005953Y-71781009D02*
X172910715Y-71733390D01*
X172910715Y-71733390D02*
X172863096Y-71685771D01*
X172863096Y-71685771D02*
X172815477Y-71590533D01*
X172815477Y-71590533D02*
X172815477Y-71495295D01*
X172815477Y-71495295D02*
X172863096Y-71400057D01*
X172863096Y-71400057D02*
X172910715Y-71352438D01*
X172910715Y-71352438D02*
X173005953Y-71304819D01*
X173005953Y-71304819D02*
X173244048Y-71304819D01*
X173244048Y-71304819D02*
X173386905Y-71352438D01*
X174386905Y-72209580D02*
X174339286Y-72257200D01*
X174339286Y-72257200D02*
X174196429Y-72304819D01*
X174196429Y-72304819D02*
X174101191Y-72304819D01*
X174101191Y-72304819D02*
X173958334Y-72257200D01*
X173958334Y-72257200D02*
X173863096Y-72161961D01*
X173863096Y-72161961D02*
X173815477Y-72066723D01*
X173815477Y-72066723D02*
X173767858Y-71876247D01*
X173767858Y-71876247D02*
X173767858Y-71733390D01*
X173767858Y-71733390D02*
X173815477Y-71542914D01*
X173815477Y-71542914D02*
X173863096Y-71447676D01*
X173863096Y-71447676D02*
X173958334Y-71352438D01*
X173958334Y-71352438D02*
X174101191Y-71304819D01*
X174101191Y-71304819D02*
X174196429Y-71304819D01*
X174196429Y-71304819D02*
X174339286Y-71352438D01*
X174339286Y-71352438D02*
X174386905Y-71400057D01*
X175291667Y-72304819D02*
X174815477Y-72304819D01*
X174815477Y-72304819D02*
X174815477Y-71304819D01*
X175625001Y-72304819D02*
X175625001Y-71304819D01*
X176196429Y-72304819D02*
X175767858Y-71733390D01*
X176196429Y-71304819D02*
X175625001Y-71876247D01*
X154204819Y-58892857D02*
X153728628Y-59226190D01*
X154204819Y-59464285D02*
X153204819Y-59464285D01*
X153204819Y-59464285D02*
X153204819Y-59083333D01*
X153204819Y-59083333D02*
X153252438Y-58988095D01*
X153252438Y-58988095D02*
X153300057Y-58940476D01*
X153300057Y-58940476D02*
X153395295Y-58892857D01*
X153395295Y-58892857D02*
X153538152Y-58892857D01*
X153538152Y-58892857D02*
X153633390Y-58940476D01*
X153633390Y-58940476D02*
X153681009Y-58988095D01*
X153681009Y-58988095D02*
X153728628Y-59083333D01*
X153728628Y-59083333D02*
X153728628Y-59464285D01*
X153300057Y-58511904D02*
X153252438Y-58464285D01*
X153252438Y-58464285D02*
X153204819Y-58369047D01*
X153204819Y-58369047D02*
X153204819Y-58130952D01*
X153204819Y-58130952D02*
X153252438Y-58035714D01*
X153252438Y-58035714D02*
X153300057Y-57988095D01*
X153300057Y-57988095D02*
X153395295Y-57940476D01*
X153395295Y-57940476D02*
X153490533Y-57940476D01*
X153490533Y-57940476D02*
X153633390Y-57988095D01*
X153633390Y-57988095D02*
X154204819Y-58559523D01*
X154204819Y-58559523D02*
X154204819Y-57940476D01*
X153538152Y-57083333D02*
X154204819Y-57083333D01*
X153157200Y-57321428D02*
X153871485Y-57559523D01*
X153871485Y-57559523D02*
X153871485Y-56940476D01*
X142054819Y-60467857D02*
X141578628Y-60801190D01*
X142054819Y-61039285D02*
X141054819Y-61039285D01*
X141054819Y-61039285D02*
X141054819Y-60658333D01*
X141054819Y-60658333D02*
X141102438Y-60563095D01*
X141102438Y-60563095D02*
X141150057Y-60515476D01*
X141150057Y-60515476D02*
X141245295Y-60467857D01*
X141245295Y-60467857D02*
X141388152Y-60467857D01*
X141388152Y-60467857D02*
X141483390Y-60515476D01*
X141483390Y-60515476D02*
X141531009Y-60563095D01*
X141531009Y-60563095D02*
X141578628Y-60658333D01*
X141578628Y-60658333D02*
X141578628Y-61039285D01*
X141054819Y-60134523D02*
X141054819Y-59515476D01*
X141054819Y-59515476D02*
X141435771Y-59848809D01*
X141435771Y-59848809D02*
X141435771Y-59705952D01*
X141435771Y-59705952D02*
X141483390Y-59610714D01*
X141483390Y-59610714D02*
X141531009Y-59563095D01*
X141531009Y-59563095D02*
X141626247Y-59515476D01*
X141626247Y-59515476D02*
X141864342Y-59515476D01*
X141864342Y-59515476D02*
X141959580Y-59563095D01*
X141959580Y-59563095D02*
X142007200Y-59610714D01*
X142007200Y-59610714D02*
X142054819Y-59705952D01*
X142054819Y-59705952D02*
X142054819Y-59991666D01*
X142054819Y-59991666D02*
X142007200Y-60086904D01*
X142007200Y-60086904D02*
X141959580Y-60134523D01*
X141054819Y-59182142D02*
X141054819Y-58563095D01*
X141054819Y-58563095D02*
X141435771Y-58896428D01*
X141435771Y-58896428D02*
X141435771Y-58753571D01*
X141435771Y-58753571D02*
X141483390Y-58658333D01*
X141483390Y-58658333D02*
X141531009Y-58610714D01*
X141531009Y-58610714D02*
X141626247Y-58563095D01*
X141626247Y-58563095D02*
X141864342Y-58563095D01*
X141864342Y-58563095D02*
X141959580Y-58610714D01*
X141959580Y-58610714D02*
X142007200Y-58658333D01*
X142007200Y-58658333D02*
X142054819Y-58753571D01*
X142054819Y-58753571D02*
X142054819Y-59039285D01*
X142054819Y-59039285D02*
X142007200Y-59134523D01*
X142007200Y-59134523D02*
X141959580Y-59182142D01*
X119354819Y-83233333D02*
X120069104Y-83233333D01*
X120069104Y-83233333D02*
X120211961Y-83280952D01*
X120211961Y-83280952D02*
X120307200Y-83376190D01*
X120307200Y-83376190D02*
X120354819Y-83519047D01*
X120354819Y-83519047D02*
X120354819Y-83614285D01*
X119450057Y-82804761D02*
X119402438Y-82757142D01*
X119402438Y-82757142D02*
X119354819Y-82661904D01*
X119354819Y-82661904D02*
X119354819Y-82423809D01*
X119354819Y-82423809D02*
X119402438Y-82328571D01*
X119402438Y-82328571D02*
X119450057Y-82280952D01*
X119450057Y-82280952D02*
X119545295Y-82233333D01*
X119545295Y-82233333D02*
X119640533Y-82233333D01*
X119640533Y-82233333D02*
X119783390Y-82280952D01*
X119783390Y-82280952D02*
X120354819Y-82852380D01*
X120354819Y-82852380D02*
X120354819Y-82233333D01*
X146479580Y-53292857D02*
X146527200Y-53340476D01*
X146527200Y-53340476D02*
X146574819Y-53483333D01*
X146574819Y-53483333D02*
X146574819Y-53578571D01*
X146574819Y-53578571D02*
X146527200Y-53721428D01*
X146527200Y-53721428D02*
X146431961Y-53816666D01*
X146431961Y-53816666D02*
X146336723Y-53864285D01*
X146336723Y-53864285D02*
X146146247Y-53911904D01*
X146146247Y-53911904D02*
X146003390Y-53911904D01*
X146003390Y-53911904D02*
X145812914Y-53864285D01*
X145812914Y-53864285D02*
X145717676Y-53816666D01*
X145717676Y-53816666D02*
X145622438Y-53721428D01*
X145622438Y-53721428D02*
X145574819Y-53578571D01*
X145574819Y-53578571D02*
X145574819Y-53483333D01*
X145574819Y-53483333D02*
X145622438Y-53340476D01*
X145622438Y-53340476D02*
X145670057Y-53292857D01*
X146574819Y-52340476D02*
X146574819Y-52911904D01*
X146574819Y-52626190D02*
X145574819Y-52626190D01*
X145574819Y-52626190D02*
X145717676Y-52721428D01*
X145717676Y-52721428D02*
X145812914Y-52816666D01*
X145812914Y-52816666D02*
X145860533Y-52911904D01*
X145574819Y-51435714D02*
X145574819Y-51911904D01*
X145574819Y-51911904D02*
X146051009Y-51959523D01*
X146051009Y-51959523D02*
X146003390Y-51911904D01*
X146003390Y-51911904D02*
X145955771Y-51816666D01*
X145955771Y-51816666D02*
X145955771Y-51578571D01*
X145955771Y-51578571D02*
X146003390Y-51483333D01*
X146003390Y-51483333D02*
X146051009Y-51435714D01*
X146051009Y-51435714D02*
X146146247Y-51388095D01*
X146146247Y-51388095D02*
X146384342Y-51388095D01*
X146384342Y-51388095D02*
X146479580Y-51435714D01*
X146479580Y-51435714D02*
X146527200Y-51483333D01*
X146527200Y-51483333D02*
X146574819Y-51578571D01*
X146574819Y-51578571D02*
X146574819Y-51816666D01*
X146574819Y-51816666D02*
X146527200Y-51911904D01*
X146527200Y-51911904D02*
X146479580Y-51959523D01*
X138057142Y-73009580D02*
X138009523Y-73057200D01*
X138009523Y-73057200D02*
X137866666Y-73104819D01*
X137866666Y-73104819D02*
X137771428Y-73104819D01*
X137771428Y-73104819D02*
X137628571Y-73057200D01*
X137628571Y-73057200D02*
X137533333Y-72961961D01*
X137533333Y-72961961D02*
X137485714Y-72866723D01*
X137485714Y-72866723D02*
X137438095Y-72676247D01*
X137438095Y-72676247D02*
X137438095Y-72533390D01*
X137438095Y-72533390D02*
X137485714Y-72342914D01*
X137485714Y-72342914D02*
X137533333Y-72247676D01*
X137533333Y-72247676D02*
X137628571Y-72152438D01*
X137628571Y-72152438D02*
X137771428Y-72104819D01*
X137771428Y-72104819D02*
X137866666Y-72104819D01*
X137866666Y-72104819D02*
X138009523Y-72152438D01*
X138009523Y-72152438D02*
X138057142Y-72200057D01*
X138438095Y-72200057D02*
X138485714Y-72152438D01*
X138485714Y-72152438D02*
X138580952Y-72104819D01*
X138580952Y-72104819D02*
X138819047Y-72104819D01*
X138819047Y-72104819D02*
X138914285Y-72152438D01*
X138914285Y-72152438D02*
X138961904Y-72200057D01*
X138961904Y-72200057D02*
X139009523Y-72295295D01*
X139009523Y-72295295D02*
X139009523Y-72390533D01*
X139009523Y-72390533D02*
X138961904Y-72533390D01*
X138961904Y-72533390D02*
X138390476Y-73104819D01*
X138390476Y-73104819D02*
X139009523Y-73104819D01*
X139628571Y-72104819D02*
X139723809Y-72104819D01*
X139723809Y-72104819D02*
X139819047Y-72152438D01*
X139819047Y-72152438D02*
X139866666Y-72200057D01*
X139866666Y-72200057D02*
X139914285Y-72295295D01*
X139914285Y-72295295D02*
X139961904Y-72485771D01*
X139961904Y-72485771D02*
X139961904Y-72723866D01*
X139961904Y-72723866D02*
X139914285Y-72914342D01*
X139914285Y-72914342D02*
X139866666Y-73009580D01*
X139866666Y-73009580D02*
X139819047Y-73057200D01*
X139819047Y-73057200D02*
X139723809Y-73104819D01*
X139723809Y-73104819D02*
X139628571Y-73104819D01*
X139628571Y-73104819D02*
X139533333Y-73057200D01*
X139533333Y-73057200D02*
X139485714Y-73009580D01*
X139485714Y-73009580D02*
X139438095Y-72914342D01*
X139438095Y-72914342D02*
X139390476Y-72723866D01*
X139390476Y-72723866D02*
X139390476Y-72485771D01*
X139390476Y-72485771D02*
X139438095Y-72295295D01*
X139438095Y-72295295D02*
X139485714Y-72200057D01*
X139485714Y-72200057D02*
X139533333Y-72152438D01*
X139533333Y-72152438D02*
X139628571Y-72104819D01*
X146359580Y-57392857D02*
X146407200Y-57440476D01*
X146407200Y-57440476D02*
X146454819Y-57583333D01*
X146454819Y-57583333D02*
X146454819Y-57678571D01*
X146454819Y-57678571D02*
X146407200Y-57821428D01*
X146407200Y-57821428D02*
X146311961Y-57916666D01*
X146311961Y-57916666D02*
X146216723Y-57964285D01*
X146216723Y-57964285D02*
X146026247Y-58011904D01*
X146026247Y-58011904D02*
X145883390Y-58011904D01*
X145883390Y-58011904D02*
X145692914Y-57964285D01*
X145692914Y-57964285D02*
X145597676Y-57916666D01*
X145597676Y-57916666D02*
X145502438Y-57821428D01*
X145502438Y-57821428D02*
X145454819Y-57678571D01*
X145454819Y-57678571D02*
X145454819Y-57583333D01*
X145454819Y-57583333D02*
X145502438Y-57440476D01*
X145502438Y-57440476D02*
X145550057Y-57392857D01*
X146454819Y-56440476D02*
X146454819Y-57011904D01*
X146454819Y-56726190D02*
X145454819Y-56726190D01*
X145454819Y-56726190D02*
X145597676Y-56821428D01*
X145597676Y-56821428D02*
X145692914Y-56916666D01*
X145692914Y-56916666D02*
X145740533Y-57011904D01*
X145454819Y-55583333D02*
X145454819Y-55773809D01*
X145454819Y-55773809D02*
X145502438Y-55869047D01*
X145502438Y-55869047D02*
X145550057Y-55916666D01*
X145550057Y-55916666D02*
X145692914Y-56011904D01*
X145692914Y-56011904D02*
X145883390Y-56059523D01*
X145883390Y-56059523D02*
X146264342Y-56059523D01*
X146264342Y-56059523D02*
X146359580Y-56011904D01*
X146359580Y-56011904D02*
X146407200Y-55964285D01*
X146407200Y-55964285D02*
X146454819Y-55869047D01*
X146454819Y-55869047D02*
X146454819Y-55678571D01*
X146454819Y-55678571D02*
X146407200Y-55583333D01*
X146407200Y-55583333D02*
X146359580Y-55535714D01*
X146359580Y-55535714D02*
X146264342Y-55488095D01*
X146264342Y-55488095D02*
X146026247Y-55488095D01*
X146026247Y-55488095D02*
X145931009Y-55535714D01*
X145931009Y-55535714D02*
X145883390Y-55583333D01*
X145883390Y-55583333D02*
X145835771Y-55678571D01*
X145835771Y-55678571D02*
X145835771Y-55869047D01*
X145835771Y-55869047D02*
X145883390Y-55964285D01*
X145883390Y-55964285D02*
X145931009Y-56011904D01*
X145931009Y-56011904D02*
X146026247Y-56059523D01*
X152859580Y-80916666D02*
X152907200Y-80964285D01*
X152907200Y-80964285D02*
X152954819Y-81107142D01*
X152954819Y-81107142D02*
X152954819Y-81202380D01*
X152954819Y-81202380D02*
X152907200Y-81345237D01*
X152907200Y-81345237D02*
X152811961Y-81440475D01*
X152811961Y-81440475D02*
X152716723Y-81488094D01*
X152716723Y-81488094D02*
X152526247Y-81535713D01*
X152526247Y-81535713D02*
X152383390Y-81535713D01*
X152383390Y-81535713D02*
X152192914Y-81488094D01*
X152192914Y-81488094D02*
X152097676Y-81440475D01*
X152097676Y-81440475D02*
X152002438Y-81345237D01*
X152002438Y-81345237D02*
X151954819Y-81202380D01*
X151954819Y-81202380D02*
X151954819Y-81107142D01*
X151954819Y-81107142D02*
X152002438Y-80964285D01*
X152002438Y-80964285D02*
X152050057Y-80916666D01*
X151954819Y-80583332D02*
X151954819Y-79916666D01*
X151954819Y-79916666D02*
X152954819Y-80345237D01*
X136639580Y-58190357D02*
X136687200Y-58237976D01*
X136687200Y-58237976D02*
X136734819Y-58380833D01*
X136734819Y-58380833D02*
X136734819Y-58476071D01*
X136734819Y-58476071D02*
X136687200Y-58618928D01*
X136687200Y-58618928D02*
X136591961Y-58714166D01*
X136591961Y-58714166D02*
X136496723Y-58761785D01*
X136496723Y-58761785D02*
X136306247Y-58809404D01*
X136306247Y-58809404D02*
X136163390Y-58809404D01*
X136163390Y-58809404D02*
X135972914Y-58761785D01*
X135972914Y-58761785D02*
X135877676Y-58714166D01*
X135877676Y-58714166D02*
X135782438Y-58618928D01*
X135782438Y-58618928D02*
X135734819Y-58476071D01*
X135734819Y-58476071D02*
X135734819Y-58380833D01*
X135734819Y-58380833D02*
X135782438Y-58237976D01*
X135782438Y-58237976D02*
X135830057Y-58190357D01*
X135830057Y-57809404D02*
X135782438Y-57761785D01*
X135782438Y-57761785D02*
X135734819Y-57666547D01*
X135734819Y-57666547D02*
X135734819Y-57428452D01*
X135734819Y-57428452D02*
X135782438Y-57333214D01*
X135782438Y-57333214D02*
X135830057Y-57285595D01*
X135830057Y-57285595D02*
X135925295Y-57237976D01*
X135925295Y-57237976D02*
X136020533Y-57237976D01*
X136020533Y-57237976D02*
X136163390Y-57285595D01*
X136163390Y-57285595D02*
X136734819Y-57857023D01*
X136734819Y-57857023D02*
X136734819Y-57237976D01*
X135830057Y-56857023D02*
X135782438Y-56809404D01*
X135782438Y-56809404D02*
X135734819Y-56714166D01*
X135734819Y-56714166D02*
X135734819Y-56476071D01*
X135734819Y-56476071D02*
X135782438Y-56380833D01*
X135782438Y-56380833D02*
X135830057Y-56333214D01*
X135830057Y-56333214D02*
X135925295Y-56285595D01*
X135925295Y-56285595D02*
X136020533Y-56285595D01*
X136020533Y-56285595D02*
X136163390Y-56333214D01*
X136163390Y-56333214D02*
X136734819Y-56904642D01*
X136734819Y-56904642D02*
X136734819Y-56285595D01*
X134660095Y-65848419D02*
X134660095Y-66657942D01*
X134660095Y-66657942D02*
X134707714Y-66753180D01*
X134707714Y-66753180D02*
X134755333Y-66800800D01*
X134755333Y-66800800D02*
X134850571Y-66848419D01*
X134850571Y-66848419D02*
X135041047Y-66848419D01*
X135041047Y-66848419D02*
X135136285Y-66800800D01*
X135136285Y-66800800D02*
X135183904Y-66753180D01*
X135183904Y-66753180D02*
X135231523Y-66657942D01*
X135231523Y-66657942D02*
X135231523Y-65848419D01*
X135612476Y-65848419D02*
X136279142Y-65848419D01*
X136279142Y-65848419D02*
X135850571Y-66848419D01*
X126913095Y-93329819D02*
X126913095Y-94139342D01*
X126913095Y-94139342D02*
X126960714Y-94234580D01*
X126960714Y-94234580D02*
X127008333Y-94282200D01*
X127008333Y-94282200D02*
X127103571Y-94329819D01*
X127103571Y-94329819D02*
X127294047Y-94329819D01*
X127294047Y-94329819D02*
X127389285Y-94282200D01*
X127389285Y-94282200D02*
X127436904Y-94234580D01*
X127436904Y-94234580D02*
X127484523Y-94139342D01*
X127484523Y-94139342D02*
X127484523Y-93329819D01*
X128484523Y-94329819D02*
X127913095Y-94329819D01*
X128198809Y-94329819D02*
X128198809Y-93329819D01*
X128198809Y-93329819D02*
X128103571Y-93472676D01*
X128103571Y-93472676D02*
X128008333Y-93567914D01*
X128008333Y-93567914D02*
X127913095Y-93615533D01*
X126994642Y-69459580D02*
X126947023Y-69507200D01*
X126947023Y-69507200D02*
X126804166Y-69554819D01*
X126804166Y-69554819D02*
X126708928Y-69554819D01*
X126708928Y-69554819D02*
X126566071Y-69507200D01*
X126566071Y-69507200D02*
X126470833Y-69411961D01*
X126470833Y-69411961D02*
X126423214Y-69316723D01*
X126423214Y-69316723D02*
X126375595Y-69126247D01*
X126375595Y-69126247D02*
X126375595Y-68983390D01*
X126375595Y-68983390D02*
X126423214Y-68792914D01*
X126423214Y-68792914D02*
X126470833Y-68697676D01*
X126470833Y-68697676D02*
X126566071Y-68602438D01*
X126566071Y-68602438D02*
X126708928Y-68554819D01*
X126708928Y-68554819D02*
X126804166Y-68554819D01*
X126804166Y-68554819D02*
X126947023Y-68602438D01*
X126947023Y-68602438D02*
X126994642Y-68650057D01*
X127947023Y-69554819D02*
X127375595Y-69554819D01*
X127661309Y-69554819D02*
X127661309Y-68554819D01*
X127661309Y-68554819D02*
X127566071Y-68697676D01*
X127566071Y-68697676D02*
X127470833Y-68792914D01*
X127470833Y-68792914D02*
X127375595Y-68840533D01*
X128280357Y-68554819D02*
X128947023Y-68554819D01*
X128947023Y-68554819D02*
X128518452Y-69554819D01*
X157512553Y-63715048D02*
X157512553Y-64525477D01*
X157512553Y-64525477D02*
X157560225Y-64620821D01*
X157560225Y-64620821D02*
X157607898Y-64668494D01*
X157607898Y-64668494D02*
X157703242Y-64716166D01*
X157703242Y-64716166D02*
X157893931Y-64716166D01*
X157893931Y-64716166D02*
X157989276Y-64668494D01*
X157989276Y-64668494D02*
X158036948Y-64620821D01*
X158036948Y-64620821D02*
X158084620Y-64525477D01*
X158084620Y-64525477D02*
X158084620Y-63715048D01*
X159038066Y-63715048D02*
X158561343Y-63715048D01*
X158561343Y-63715048D02*
X158513671Y-64191771D01*
X158513671Y-64191771D02*
X158561343Y-64144098D01*
X158561343Y-64144098D02*
X158656688Y-64096426D01*
X158656688Y-64096426D02*
X158895049Y-64096426D01*
X158895049Y-64096426D02*
X158990394Y-64144098D01*
X158990394Y-64144098D02*
X159038066Y-64191771D01*
X159038066Y-64191771D02*
X159085738Y-64287115D01*
X159085738Y-64287115D02*
X159085738Y-64525477D01*
X159085738Y-64525477D02*
X159038066Y-64620821D01*
X159038066Y-64620821D02*
X158990394Y-64668494D01*
X158990394Y-64668494D02*
X158895049Y-64716166D01*
X158895049Y-64716166D02*
X158656688Y-64716166D01*
X158656688Y-64716166D02*
X158561343Y-64668494D01*
X158561343Y-64668494D02*
X158513671Y-64620821D01*
X135186905Y-93079819D02*
X135186905Y-92079819D01*
X135186905Y-92079819D02*
X135425000Y-92079819D01*
X135425000Y-92079819D02*
X135567857Y-92127438D01*
X135567857Y-92127438D02*
X135663095Y-92222676D01*
X135663095Y-92222676D02*
X135710714Y-92317914D01*
X135710714Y-92317914D02*
X135758333Y-92508390D01*
X135758333Y-92508390D02*
X135758333Y-92651247D01*
X135758333Y-92651247D02*
X135710714Y-92841723D01*
X135710714Y-92841723D02*
X135663095Y-92936961D01*
X135663095Y-92936961D02*
X135567857Y-93032200D01*
X135567857Y-93032200D02*
X135425000Y-93079819D01*
X135425000Y-93079819D02*
X135186905Y-93079819D01*
X136615476Y-92413152D02*
X136615476Y-93079819D01*
X136377381Y-92032200D02*
X136139286Y-92746485D01*
X136139286Y-92746485D02*
X136758333Y-92746485D01*
X154783333Y-93969080D02*
X154735714Y-94016700D01*
X154735714Y-94016700D02*
X154592857Y-94064319D01*
X154592857Y-94064319D02*
X154497619Y-94064319D01*
X154497619Y-94064319D02*
X154354762Y-94016700D01*
X154354762Y-94016700D02*
X154259524Y-93921461D01*
X154259524Y-93921461D02*
X154211905Y-93826223D01*
X154211905Y-93826223D02*
X154164286Y-93635747D01*
X154164286Y-93635747D02*
X154164286Y-93492890D01*
X154164286Y-93492890D02*
X154211905Y-93302414D01*
X154211905Y-93302414D02*
X154259524Y-93207176D01*
X154259524Y-93207176D02*
X154354762Y-93111938D01*
X154354762Y-93111938D02*
X154497619Y-93064319D01*
X154497619Y-93064319D02*
X154592857Y-93064319D01*
X154592857Y-93064319D02*
X154735714Y-93111938D01*
X154735714Y-93111938D02*
X154783333Y-93159557D01*
X155735714Y-94064319D02*
X155164286Y-94064319D01*
X155450000Y-94064319D02*
X155450000Y-93064319D01*
X155450000Y-93064319D02*
X155354762Y-93207176D01*
X155354762Y-93207176D02*
X155259524Y-93302414D01*
X155259524Y-93302414D02*
X155164286Y-93350033D01*
X125340057Y-57755238D02*
X125292438Y-57850476D01*
X125292438Y-57850476D02*
X125197200Y-57945714D01*
X125197200Y-57945714D02*
X125054342Y-58088571D01*
X125054342Y-58088571D02*
X125006723Y-58183809D01*
X125006723Y-58183809D02*
X125006723Y-58279047D01*
X125244819Y-58231428D02*
X125197200Y-58326666D01*
X125197200Y-58326666D02*
X125101961Y-58421904D01*
X125101961Y-58421904D02*
X124911485Y-58469523D01*
X124911485Y-58469523D02*
X124578152Y-58469523D01*
X124578152Y-58469523D02*
X124387676Y-58421904D01*
X124387676Y-58421904D02*
X124292438Y-58326666D01*
X124292438Y-58326666D02*
X124244819Y-58231428D01*
X124244819Y-58231428D02*
X124244819Y-58040952D01*
X124244819Y-58040952D02*
X124292438Y-57945714D01*
X124292438Y-57945714D02*
X124387676Y-57850476D01*
X124387676Y-57850476D02*
X124578152Y-57802857D01*
X124578152Y-57802857D02*
X124911485Y-57802857D01*
X124911485Y-57802857D02*
X125101961Y-57850476D01*
X125101961Y-57850476D02*
X125197200Y-57945714D01*
X125197200Y-57945714D02*
X125244819Y-58040952D01*
X125244819Y-58040952D02*
X125244819Y-58231428D01*
X124340057Y-57421904D02*
X124292438Y-57374285D01*
X124292438Y-57374285D02*
X124244819Y-57279047D01*
X124244819Y-57279047D02*
X124244819Y-57040952D01*
X124244819Y-57040952D02*
X124292438Y-56945714D01*
X124292438Y-56945714D02*
X124340057Y-56898095D01*
X124340057Y-56898095D02*
X124435295Y-56850476D01*
X124435295Y-56850476D02*
X124530533Y-56850476D01*
X124530533Y-56850476D02*
X124673390Y-56898095D01*
X124673390Y-56898095D02*
X125244819Y-57469523D01*
X125244819Y-57469523D02*
X125244819Y-56850476D01*
X141282142Y-96079819D02*
X140948809Y-95603628D01*
X140710714Y-96079819D02*
X140710714Y-95079819D01*
X140710714Y-95079819D02*
X141091666Y-95079819D01*
X141091666Y-95079819D02*
X141186904Y-95127438D01*
X141186904Y-95127438D02*
X141234523Y-95175057D01*
X141234523Y-95175057D02*
X141282142Y-95270295D01*
X141282142Y-95270295D02*
X141282142Y-95413152D01*
X141282142Y-95413152D02*
X141234523Y-95508390D01*
X141234523Y-95508390D02*
X141186904Y-95556009D01*
X141186904Y-95556009D02*
X141091666Y-95603628D01*
X141091666Y-95603628D02*
X140710714Y-95603628D01*
X142234523Y-96079819D02*
X141663095Y-96079819D01*
X141948809Y-96079819D02*
X141948809Y-95079819D01*
X141948809Y-95079819D02*
X141853571Y-95222676D01*
X141853571Y-95222676D02*
X141758333Y-95317914D01*
X141758333Y-95317914D02*
X141663095Y-95365533D01*
X143186904Y-96079819D02*
X142615476Y-96079819D01*
X142901190Y-96079819D02*
X142901190Y-95079819D01*
X142901190Y-95079819D02*
X142805952Y-95222676D01*
X142805952Y-95222676D02*
X142710714Y-95317914D01*
X142710714Y-95317914D02*
X142615476Y-95365533D01*
X135186905Y-90579819D02*
X135186905Y-89579819D01*
X135186905Y-89579819D02*
X135425000Y-89579819D01*
X135425000Y-89579819D02*
X135567857Y-89627438D01*
X135567857Y-89627438D02*
X135663095Y-89722676D01*
X135663095Y-89722676D02*
X135710714Y-89817914D01*
X135710714Y-89817914D02*
X135758333Y-90008390D01*
X135758333Y-90008390D02*
X135758333Y-90151247D01*
X135758333Y-90151247D02*
X135710714Y-90341723D01*
X135710714Y-90341723D02*
X135663095Y-90436961D01*
X135663095Y-90436961D02*
X135567857Y-90532200D01*
X135567857Y-90532200D02*
X135425000Y-90579819D01*
X135425000Y-90579819D02*
X135186905Y-90579819D01*
X136663095Y-89579819D02*
X136186905Y-89579819D01*
X136186905Y-89579819D02*
X136139286Y-90056009D01*
X136139286Y-90056009D02*
X136186905Y-90008390D01*
X136186905Y-90008390D02*
X136282143Y-89960771D01*
X136282143Y-89960771D02*
X136520238Y-89960771D01*
X136520238Y-89960771D02*
X136615476Y-90008390D01*
X136615476Y-90008390D02*
X136663095Y-90056009D01*
X136663095Y-90056009D02*
X136710714Y-90151247D01*
X136710714Y-90151247D02*
X136710714Y-90389342D01*
X136710714Y-90389342D02*
X136663095Y-90484580D01*
X136663095Y-90484580D02*
X136615476Y-90532200D01*
X136615476Y-90532200D02*
X136520238Y-90579819D01*
X136520238Y-90579819D02*
X136282143Y-90579819D01*
X136282143Y-90579819D02*
X136186905Y-90532200D01*
X136186905Y-90532200D02*
X136139286Y-90484580D01*
X178787142Y-79091080D02*
X178739523Y-79138700D01*
X178739523Y-79138700D02*
X178596666Y-79186319D01*
X178596666Y-79186319D02*
X178501428Y-79186319D01*
X178501428Y-79186319D02*
X178358571Y-79138700D01*
X178358571Y-79138700D02*
X178263333Y-79043461D01*
X178263333Y-79043461D02*
X178215714Y-78948223D01*
X178215714Y-78948223D02*
X178168095Y-78757747D01*
X178168095Y-78757747D02*
X178168095Y-78614890D01*
X178168095Y-78614890D02*
X178215714Y-78424414D01*
X178215714Y-78424414D02*
X178263333Y-78329176D01*
X178263333Y-78329176D02*
X178358571Y-78233938D01*
X178358571Y-78233938D02*
X178501428Y-78186319D01*
X178501428Y-78186319D02*
X178596666Y-78186319D01*
X178596666Y-78186319D02*
X178739523Y-78233938D01*
X178739523Y-78233938D02*
X178787142Y-78281557D01*
X179739523Y-79186319D02*
X179168095Y-79186319D01*
X179453809Y-79186319D02*
X179453809Y-78186319D01*
X179453809Y-78186319D02*
X179358571Y-78329176D01*
X179358571Y-78329176D02*
X179263333Y-78424414D01*
X179263333Y-78424414D02*
X179168095Y-78472033D01*
X180120476Y-78281557D02*
X180168095Y-78233938D01*
X180168095Y-78233938D02*
X180263333Y-78186319D01*
X180263333Y-78186319D02*
X180501428Y-78186319D01*
X180501428Y-78186319D02*
X180596666Y-78233938D01*
X180596666Y-78233938D02*
X180644285Y-78281557D01*
X180644285Y-78281557D02*
X180691904Y-78376795D01*
X180691904Y-78376795D02*
X180691904Y-78472033D01*
X180691904Y-78472033D02*
X180644285Y-78614890D01*
X180644285Y-78614890D02*
X180072857Y-79186319D01*
X180072857Y-79186319D02*
X180691904Y-79186319D01*
X175404762Y-69654819D02*
X175976190Y-69654819D01*
X175690476Y-70654819D02*
X175690476Y-69654819D01*
X176690476Y-70607200D02*
X176595238Y-70654819D01*
X176595238Y-70654819D02*
X176404762Y-70654819D01*
X176404762Y-70654819D02*
X176309524Y-70607200D01*
X176309524Y-70607200D02*
X176261905Y-70511961D01*
X176261905Y-70511961D02*
X176261905Y-70131009D01*
X176261905Y-70131009D02*
X176309524Y-70035771D01*
X176309524Y-70035771D02*
X176404762Y-69988152D01*
X176404762Y-69988152D02*
X176595238Y-69988152D01*
X176595238Y-69988152D02*
X176690476Y-70035771D01*
X176690476Y-70035771D02*
X176738095Y-70131009D01*
X176738095Y-70131009D02*
X176738095Y-70226247D01*
X176738095Y-70226247D02*
X176261905Y-70321485D01*
X177119048Y-70607200D02*
X177214286Y-70654819D01*
X177214286Y-70654819D02*
X177404762Y-70654819D01*
X177404762Y-70654819D02*
X177500000Y-70607200D01*
X177500000Y-70607200D02*
X177547619Y-70511961D01*
X177547619Y-70511961D02*
X177547619Y-70464342D01*
X177547619Y-70464342D02*
X177500000Y-70369104D01*
X177500000Y-70369104D02*
X177404762Y-70321485D01*
X177404762Y-70321485D02*
X177261905Y-70321485D01*
X177261905Y-70321485D02*
X177166667Y-70273866D01*
X177166667Y-70273866D02*
X177119048Y-70178628D01*
X177119048Y-70178628D02*
X177119048Y-70131009D01*
X177119048Y-70131009D02*
X177166667Y-70035771D01*
X177166667Y-70035771D02*
X177261905Y-69988152D01*
X177261905Y-69988152D02*
X177404762Y-69988152D01*
X177404762Y-69988152D02*
X177500000Y-70035771D01*
X177833334Y-69988152D02*
X178214286Y-69988152D01*
X177976191Y-69654819D02*
X177976191Y-70511961D01*
X177976191Y-70511961D02*
X178023810Y-70607200D01*
X178023810Y-70607200D02*
X178119048Y-70654819D01*
X178119048Y-70654819D02*
X178214286Y-70654819D01*
X179309525Y-70654819D02*
X179309525Y-69654819D01*
X179309525Y-69654819D02*
X179642858Y-70369104D01*
X179642858Y-70369104D02*
X179976191Y-69654819D01*
X179976191Y-69654819D02*
X179976191Y-70654819D01*
X180642858Y-69654819D02*
X180833334Y-69654819D01*
X180833334Y-69654819D02*
X180928572Y-69702438D01*
X180928572Y-69702438D02*
X181023810Y-69797676D01*
X181023810Y-69797676D02*
X181071429Y-69988152D01*
X181071429Y-69988152D02*
X181071429Y-70321485D01*
X181071429Y-70321485D02*
X181023810Y-70511961D01*
X181023810Y-70511961D02*
X180928572Y-70607200D01*
X180928572Y-70607200D02*
X180833334Y-70654819D01*
X180833334Y-70654819D02*
X180642858Y-70654819D01*
X180642858Y-70654819D02*
X180547620Y-70607200D01*
X180547620Y-70607200D02*
X180452382Y-70511961D01*
X180452382Y-70511961D02*
X180404763Y-70321485D01*
X180404763Y-70321485D02*
X180404763Y-69988152D01*
X180404763Y-69988152D02*
X180452382Y-69797676D01*
X180452382Y-69797676D02*
X180547620Y-69702438D01*
X180547620Y-69702438D02*
X180642858Y-69654819D01*
X181452382Y-70607200D02*
X181595239Y-70654819D01*
X181595239Y-70654819D02*
X181833334Y-70654819D01*
X181833334Y-70654819D02*
X181928572Y-70607200D01*
X181928572Y-70607200D02*
X181976191Y-70559580D01*
X181976191Y-70559580D02*
X182023810Y-70464342D01*
X182023810Y-70464342D02*
X182023810Y-70369104D01*
X182023810Y-70369104D02*
X181976191Y-70273866D01*
X181976191Y-70273866D02*
X181928572Y-70226247D01*
X181928572Y-70226247D02*
X181833334Y-70178628D01*
X181833334Y-70178628D02*
X181642858Y-70131009D01*
X181642858Y-70131009D02*
X181547620Y-70083390D01*
X181547620Y-70083390D02*
X181500001Y-70035771D01*
X181500001Y-70035771D02*
X181452382Y-69940533D01*
X181452382Y-69940533D02*
X181452382Y-69845295D01*
X181452382Y-69845295D02*
X181500001Y-69750057D01*
X181500001Y-69750057D02*
X181547620Y-69702438D01*
X181547620Y-69702438D02*
X181642858Y-69654819D01*
X181642858Y-69654819D02*
X181880953Y-69654819D01*
X181880953Y-69654819D02*
X182023810Y-69702438D01*
X182452382Y-70654819D02*
X182452382Y-69654819D01*
X128284580Y-87041666D02*
X128332200Y-87089285D01*
X128332200Y-87089285D02*
X128379819Y-87232142D01*
X128379819Y-87232142D02*
X128379819Y-87327380D01*
X128379819Y-87327380D02*
X128332200Y-87470237D01*
X128332200Y-87470237D02*
X128236961Y-87565475D01*
X128236961Y-87565475D02*
X128141723Y-87613094D01*
X128141723Y-87613094D02*
X127951247Y-87660713D01*
X127951247Y-87660713D02*
X127808390Y-87660713D01*
X127808390Y-87660713D02*
X127617914Y-87613094D01*
X127617914Y-87613094D02*
X127522676Y-87565475D01*
X127522676Y-87565475D02*
X127427438Y-87470237D01*
X127427438Y-87470237D02*
X127379819Y-87327380D01*
X127379819Y-87327380D02*
X127379819Y-87232142D01*
X127379819Y-87232142D02*
X127427438Y-87089285D01*
X127427438Y-87089285D02*
X127475057Y-87041666D01*
X127713152Y-86184523D02*
X128379819Y-86184523D01*
X127332200Y-86422618D02*
X128046485Y-86660713D01*
X128046485Y-86660713D02*
X128046485Y-86041666D01*
X129129819Y-81291666D02*
X128653628Y-81624999D01*
X129129819Y-81863094D02*
X128129819Y-81863094D01*
X128129819Y-81863094D02*
X128129819Y-81482142D01*
X128129819Y-81482142D02*
X128177438Y-81386904D01*
X128177438Y-81386904D02*
X128225057Y-81339285D01*
X128225057Y-81339285D02*
X128320295Y-81291666D01*
X128320295Y-81291666D02*
X128463152Y-81291666D01*
X128463152Y-81291666D02*
X128558390Y-81339285D01*
X128558390Y-81339285D02*
X128606009Y-81386904D01*
X128606009Y-81386904D02*
X128653628Y-81482142D01*
X128653628Y-81482142D02*
X128653628Y-81863094D01*
X128129819Y-80386904D02*
X128129819Y-80863094D01*
X128129819Y-80863094D02*
X128606009Y-80910713D01*
X128606009Y-80910713D02*
X128558390Y-80863094D01*
X128558390Y-80863094D02*
X128510771Y-80767856D01*
X128510771Y-80767856D02*
X128510771Y-80529761D01*
X128510771Y-80529761D02*
X128558390Y-80434523D01*
X128558390Y-80434523D02*
X128606009Y-80386904D01*
X128606009Y-80386904D02*
X128701247Y-80339285D01*
X128701247Y-80339285D02*
X128939342Y-80339285D01*
X128939342Y-80339285D02*
X129034580Y-80386904D01*
X129034580Y-80386904D02*
X129082200Y-80434523D01*
X129082200Y-80434523D02*
X129129819Y-80529761D01*
X129129819Y-80529761D02*
X129129819Y-80767856D01*
X129129819Y-80767856D02*
X129082200Y-80863094D01*
X129082200Y-80863094D02*
X129034580Y-80910713D01*
X145759580Y-86416666D02*
X145807200Y-86464285D01*
X145807200Y-86464285D02*
X145854819Y-86607142D01*
X145854819Y-86607142D02*
X145854819Y-86702380D01*
X145854819Y-86702380D02*
X145807200Y-86845237D01*
X145807200Y-86845237D02*
X145711961Y-86940475D01*
X145711961Y-86940475D02*
X145616723Y-86988094D01*
X145616723Y-86988094D02*
X145426247Y-87035713D01*
X145426247Y-87035713D02*
X145283390Y-87035713D01*
X145283390Y-87035713D02*
X145092914Y-86988094D01*
X145092914Y-86988094D02*
X144997676Y-86940475D01*
X144997676Y-86940475D02*
X144902438Y-86845237D01*
X144902438Y-86845237D02*
X144854819Y-86702380D01*
X144854819Y-86702380D02*
X144854819Y-86607142D01*
X144854819Y-86607142D02*
X144902438Y-86464285D01*
X144902438Y-86464285D02*
X144950057Y-86416666D01*
X144854819Y-85511904D02*
X144854819Y-85988094D01*
X144854819Y-85988094D02*
X145331009Y-86035713D01*
X145331009Y-86035713D02*
X145283390Y-85988094D01*
X145283390Y-85988094D02*
X145235771Y-85892856D01*
X145235771Y-85892856D02*
X145235771Y-85654761D01*
X145235771Y-85654761D02*
X145283390Y-85559523D01*
X145283390Y-85559523D02*
X145331009Y-85511904D01*
X145331009Y-85511904D02*
X145426247Y-85464285D01*
X145426247Y-85464285D02*
X145664342Y-85464285D01*
X145664342Y-85464285D02*
X145759580Y-85511904D01*
X145759580Y-85511904D02*
X145807200Y-85559523D01*
X145807200Y-85559523D02*
X145854819Y-85654761D01*
X145854819Y-85654761D02*
X145854819Y-85892856D01*
X145854819Y-85892856D02*
X145807200Y-85988094D01*
X145807200Y-85988094D02*
X145759580Y-86035713D01*
X132258333Y-100329819D02*
X131925000Y-99853628D01*
X131686905Y-100329819D02*
X131686905Y-99329819D01*
X131686905Y-99329819D02*
X132067857Y-99329819D01*
X132067857Y-99329819D02*
X132163095Y-99377438D01*
X132163095Y-99377438D02*
X132210714Y-99425057D01*
X132210714Y-99425057D02*
X132258333Y-99520295D01*
X132258333Y-99520295D02*
X132258333Y-99663152D01*
X132258333Y-99663152D02*
X132210714Y-99758390D01*
X132210714Y-99758390D02*
X132163095Y-99806009D01*
X132163095Y-99806009D02*
X132067857Y-99853628D01*
X132067857Y-99853628D02*
X131686905Y-99853628D01*
X132591667Y-99329819D02*
X133258333Y-99329819D01*
X133258333Y-99329819D02*
X132829762Y-100329819D01*
X128945833Y-99667319D02*
X128612500Y-99191128D01*
X128374405Y-99667319D02*
X128374405Y-98667319D01*
X128374405Y-98667319D02*
X128755357Y-98667319D01*
X128755357Y-98667319D02*
X128850595Y-98714938D01*
X128850595Y-98714938D02*
X128898214Y-98762557D01*
X128898214Y-98762557D02*
X128945833Y-98857795D01*
X128945833Y-98857795D02*
X128945833Y-99000652D01*
X128945833Y-99000652D02*
X128898214Y-99095890D01*
X128898214Y-99095890D02*
X128850595Y-99143509D01*
X128850595Y-99143509D02*
X128755357Y-99191128D01*
X128755357Y-99191128D02*
X128374405Y-99191128D01*
X129279167Y-98667319D02*
X129898214Y-98667319D01*
X129898214Y-98667319D02*
X129564881Y-99048271D01*
X129564881Y-99048271D02*
X129707738Y-99048271D01*
X129707738Y-99048271D02*
X129802976Y-99095890D01*
X129802976Y-99095890D02*
X129850595Y-99143509D01*
X129850595Y-99143509D02*
X129898214Y-99238747D01*
X129898214Y-99238747D02*
X129898214Y-99476842D01*
X129898214Y-99476842D02*
X129850595Y-99572080D01*
X129850595Y-99572080D02*
X129802976Y-99619700D01*
X129802976Y-99619700D02*
X129707738Y-99667319D01*
X129707738Y-99667319D02*
X129422024Y-99667319D01*
X129422024Y-99667319D02*
X129326786Y-99619700D01*
X129326786Y-99619700D02*
X129279167Y-99572080D01*
X137594642Y-63154819D02*
X137261309Y-62678628D01*
X137023214Y-63154819D02*
X137023214Y-62154819D01*
X137023214Y-62154819D02*
X137404166Y-62154819D01*
X137404166Y-62154819D02*
X137499404Y-62202438D01*
X137499404Y-62202438D02*
X137547023Y-62250057D01*
X137547023Y-62250057D02*
X137594642Y-62345295D01*
X137594642Y-62345295D02*
X137594642Y-62488152D01*
X137594642Y-62488152D02*
X137547023Y-62583390D01*
X137547023Y-62583390D02*
X137499404Y-62631009D01*
X137499404Y-62631009D02*
X137404166Y-62678628D01*
X137404166Y-62678628D02*
X137023214Y-62678628D01*
X137975595Y-62250057D02*
X138023214Y-62202438D01*
X138023214Y-62202438D02*
X138118452Y-62154819D01*
X138118452Y-62154819D02*
X138356547Y-62154819D01*
X138356547Y-62154819D02*
X138451785Y-62202438D01*
X138451785Y-62202438D02*
X138499404Y-62250057D01*
X138499404Y-62250057D02*
X138547023Y-62345295D01*
X138547023Y-62345295D02*
X138547023Y-62440533D01*
X138547023Y-62440533D02*
X138499404Y-62583390D01*
X138499404Y-62583390D02*
X137927976Y-63154819D01*
X137927976Y-63154819D02*
X138547023Y-63154819D01*
X139023214Y-63154819D02*
X139213690Y-63154819D01*
X139213690Y-63154819D02*
X139308928Y-63107200D01*
X139308928Y-63107200D02*
X139356547Y-63059580D01*
X139356547Y-63059580D02*
X139451785Y-62916723D01*
X139451785Y-62916723D02*
X139499404Y-62726247D01*
X139499404Y-62726247D02*
X139499404Y-62345295D01*
X139499404Y-62345295D02*
X139451785Y-62250057D01*
X139451785Y-62250057D02*
X139404166Y-62202438D01*
X139404166Y-62202438D02*
X139308928Y-62154819D01*
X139308928Y-62154819D02*
X139118452Y-62154819D01*
X139118452Y-62154819D02*
X139023214Y-62202438D01*
X139023214Y-62202438D02*
X138975595Y-62250057D01*
X138975595Y-62250057D02*
X138927976Y-62345295D01*
X138927976Y-62345295D02*
X138927976Y-62583390D01*
X138927976Y-62583390D02*
X138975595Y-62678628D01*
X138975595Y-62678628D02*
X139023214Y-62726247D01*
X139023214Y-62726247D02*
X139118452Y-62773866D01*
X139118452Y-62773866D02*
X139308928Y-62773866D01*
X139308928Y-62773866D02*
X139404166Y-62726247D01*
X139404166Y-62726247D02*
X139451785Y-62678628D01*
X139451785Y-62678628D02*
X139499404Y-62583390D01*
X139007142Y-74442319D02*
X138673809Y-73966128D01*
X138435714Y-74442319D02*
X138435714Y-73442319D01*
X138435714Y-73442319D02*
X138816666Y-73442319D01*
X138816666Y-73442319D02*
X138911904Y-73489938D01*
X138911904Y-73489938D02*
X138959523Y-73537557D01*
X138959523Y-73537557D02*
X139007142Y-73632795D01*
X139007142Y-73632795D02*
X139007142Y-73775652D01*
X139007142Y-73775652D02*
X138959523Y-73870890D01*
X138959523Y-73870890D02*
X138911904Y-73918509D01*
X138911904Y-73918509D02*
X138816666Y-73966128D01*
X138816666Y-73966128D02*
X138435714Y-73966128D01*
X139959523Y-74442319D02*
X139388095Y-74442319D01*
X139673809Y-74442319D02*
X139673809Y-73442319D01*
X139673809Y-73442319D02*
X139578571Y-73585176D01*
X139578571Y-73585176D02*
X139483333Y-73680414D01*
X139483333Y-73680414D02*
X139388095Y-73728033D01*
X140292857Y-73442319D02*
X140959523Y-73442319D01*
X140959523Y-73442319D02*
X140530952Y-74442319D01*
X125245833Y-99667319D02*
X124912500Y-99191128D01*
X124674405Y-99667319D02*
X124674405Y-98667319D01*
X124674405Y-98667319D02*
X125055357Y-98667319D01*
X125055357Y-98667319D02*
X125150595Y-98714938D01*
X125150595Y-98714938D02*
X125198214Y-98762557D01*
X125198214Y-98762557D02*
X125245833Y-98857795D01*
X125245833Y-98857795D02*
X125245833Y-99000652D01*
X125245833Y-99000652D02*
X125198214Y-99095890D01*
X125198214Y-99095890D02*
X125150595Y-99143509D01*
X125150595Y-99143509D02*
X125055357Y-99191128D01*
X125055357Y-99191128D02*
X124674405Y-99191128D01*
X126102976Y-99000652D02*
X126102976Y-99667319D01*
X125864881Y-98619700D02*
X125626786Y-99333985D01*
X125626786Y-99333985D02*
X126245833Y-99333985D01*
X156583333Y-88109580D02*
X156535714Y-88157200D01*
X156535714Y-88157200D02*
X156392857Y-88204819D01*
X156392857Y-88204819D02*
X156297619Y-88204819D01*
X156297619Y-88204819D02*
X156154762Y-88157200D01*
X156154762Y-88157200D02*
X156059524Y-88061961D01*
X156059524Y-88061961D02*
X156011905Y-87966723D01*
X156011905Y-87966723D02*
X155964286Y-87776247D01*
X155964286Y-87776247D02*
X155964286Y-87633390D01*
X155964286Y-87633390D02*
X156011905Y-87442914D01*
X156011905Y-87442914D02*
X156059524Y-87347676D01*
X156059524Y-87347676D02*
X156154762Y-87252438D01*
X156154762Y-87252438D02*
X156297619Y-87204819D01*
X156297619Y-87204819D02*
X156392857Y-87204819D01*
X156392857Y-87204819D02*
X156535714Y-87252438D01*
X156535714Y-87252438D02*
X156583333Y-87300057D01*
X157059524Y-88204819D02*
X157250000Y-88204819D01*
X157250000Y-88204819D02*
X157345238Y-88157200D01*
X157345238Y-88157200D02*
X157392857Y-88109580D01*
X157392857Y-88109580D02*
X157488095Y-87966723D01*
X157488095Y-87966723D02*
X157535714Y-87776247D01*
X157535714Y-87776247D02*
X157535714Y-87395295D01*
X157535714Y-87395295D02*
X157488095Y-87300057D01*
X157488095Y-87300057D02*
X157440476Y-87252438D01*
X157440476Y-87252438D02*
X157345238Y-87204819D01*
X157345238Y-87204819D02*
X157154762Y-87204819D01*
X157154762Y-87204819D02*
X157059524Y-87252438D01*
X157059524Y-87252438D02*
X157011905Y-87300057D01*
X157011905Y-87300057D02*
X156964286Y-87395295D01*
X156964286Y-87395295D02*
X156964286Y-87633390D01*
X156964286Y-87633390D02*
X157011905Y-87728628D01*
X157011905Y-87728628D02*
X157059524Y-87776247D01*
X157059524Y-87776247D02*
X157154762Y-87823866D01*
X157154762Y-87823866D02*
X157345238Y-87823866D01*
X157345238Y-87823866D02*
X157440476Y-87776247D01*
X157440476Y-87776247D02*
X157488095Y-87728628D01*
X157488095Y-87728628D02*
X157535714Y-87633390D01*
X144104819Y-60467857D02*
X143628628Y-60801190D01*
X144104819Y-61039285D02*
X143104819Y-61039285D01*
X143104819Y-61039285D02*
X143104819Y-60658333D01*
X143104819Y-60658333D02*
X143152438Y-60563095D01*
X143152438Y-60563095D02*
X143200057Y-60515476D01*
X143200057Y-60515476D02*
X143295295Y-60467857D01*
X143295295Y-60467857D02*
X143438152Y-60467857D01*
X143438152Y-60467857D02*
X143533390Y-60515476D01*
X143533390Y-60515476D02*
X143581009Y-60563095D01*
X143581009Y-60563095D02*
X143628628Y-60658333D01*
X143628628Y-60658333D02*
X143628628Y-61039285D01*
X143104819Y-60134523D02*
X143104819Y-59515476D01*
X143104819Y-59515476D02*
X143485771Y-59848809D01*
X143485771Y-59848809D02*
X143485771Y-59705952D01*
X143485771Y-59705952D02*
X143533390Y-59610714D01*
X143533390Y-59610714D02*
X143581009Y-59563095D01*
X143581009Y-59563095D02*
X143676247Y-59515476D01*
X143676247Y-59515476D02*
X143914342Y-59515476D01*
X143914342Y-59515476D02*
X144009580Y-59563095D01*
X144009580Y-59563095D02*
X144057200Y-59610714D01*
X144057200Y-59610714D02*
X144104819Y-59705952D01*
X144104819Y-59705952D02*
X144104819Y-59991666D01*
X144104819Y-59991666D02*
X144057200Y-60086904D01*
X144057200Y-60086904D02*
X144009580Y-60134523D01*
X143200057Y-59134523D02*
X143152438Y-59086904D01*
X143152438Y-59086904D02*
X143104819Y-58991666D01*
X143104819Y-58991666D02*
X143104819Y-58753571D01*
X143104819Y-58753571D02*
X143152438Y-58658333D01*
X143152438Y-58658333D02*
X143200057Y-58610714D01*
X143200057Y-58610714D02*
X143295295Y-58563095D01*
X143295295Y-58563095D02*
X143390533Y-58563095D01*
X143390533Y-58563095D02*
X143533390Y-58610714D01*
X143533390Y-58610714D02*
X144104819Y-59182142D01*
X144104819Y-59182142D02*
X144104819Y-58563095D01*
X141057142Y-73104819D02*
X140723809Y-72628628D01*
X140485714Y-73104819D02*
X140485714Y-72104819D01*
X140485714Y-72104819D02*
X140866666Y-72104819D01*
X140866666Y-72104819D02*
X140961904Y-72152438D01*
X140961904Y-72152438D02*
X141009523Y-72200057D01*
X141009523Y-72200057D02*
X141057142Y-72295295D01*
X141057142Y-72295295D02*
X141057142Y-72438152D01*
X141057142Y-72438152D02*
X141009523Y-72533390D01*
X141009523Y-72533390D02*
X140961904Y-72581009D01*
X140961904Y-72581009D02*
X140866666Y-72628628D01*
X140866666Y-72628628D02*
X140485714Y-72628628D01*
X141390476Y-72104819D02*
X142009523Y-72104819D01*
X142009523Y-72104819D02*
X141676190Y-72485771D01*
X141676190Y-72485771D02*
X141819047Y-72485771D01*
X141819047Y-72485771D02*
X141914285Y-72533390D01*
X141914285Y-72533390D02*
X141961904Y-72581009D01*
X141961904Y-72581009D02*
X142009523Y-72676247D01*
X142009523Y-72676247D02*
X142009523Y-72914342D01*
X142009523Y-72914342D02*
X141961904Y-73009580D01*
X141961904Y-73009580D02*
X141914285Y-73057200D01*
X141914285Y-73057200D02*
X141819047Y-73104819D01*
X141819047Y-73104819D02*
X141533333Y-73104819D01*
X141533333Y-73104819D02*
X141438095Y-73057200D01*
X141438095Y-73057200D02*
X141390476Y-73009580D01*
X142961904Y-73104819D02*
X142390476Y-73104819D01*
X142676190Y-73104819D02*
X142676190Y-72104819D01*
X142676190Y-72104819D02*
X142580952Y-72247676D01*
X142580952Y-72247676D02*
X142485714Y-72342914D01*
X142485714Y-72342914D02*
X142390476Y-72390533D01*
X150479819Y-66767857D02*
X150003628Y-67101190D01*
X150479819Y-67339285D02*
X149479819Y-67339285D01*
X149479819Y-67339285D02*
X149479819Y-66958333D01*
X149479819Y-66958333D02*
X149527438Y-66863095D01*
X149527438Y-66863095D02*
X149575057Y-66815476D01*
X149575057Y-66815476D02*
X149670295Y-66767857D01*
X149670295Y-66767857D02*
X149813152Y-66767857D01*
X149813152Y-66767857D02*
X149908390Y-66815476D01*
X149908390Y-66815476D02*
X149956009Y-66863095D01*
X149956009Y-66863095D02*
X150003628Y-66958333D01*
X150003628Y-66958333D02*
X150003628Y-67339285D01*
X149575057Y-66386904D02*
X149527438Y-66339285D01*
X149527438Y-66339285D02*
X149479819Y-66244047D01*
X149479819Y-66244047D02*
X149479819Y-66005952D01*
X149479819Y-66005952D02*
X149527438Y-65910714D01*
X149527438Y-65910714D02*
X149575057Y-65863095D01*
X149575057Y-65863095D02*
X149670295Y-65815476D01*
X149670295Y-65815476D02*
X149765533Y-65815476D01*
X149765533Y-65815476D02*
X149908390Y-65863095D01*
X149908390Y-65863095D02*
X150479819Y-66434523D01*
X150479819Y-66434523D02*
X150479819Y-65815476D01*
X149479819Y-65482142D02*
X149479819Y-64863095D01*
X149479819Y-64863095D02*
X149860771Y-65196428D01*
X149860771Y-65196428D02*
X149860771Y-65053571D01*
X149860771Y-65053571D02*
X149908390Y-64958333D01*
X149908390Y-64958333D02*
X149956009Y-64910714D01*
X149956009Y-64910714D02*
X150051247Y-64863095D01*
X150051247Y-64863095D02*
X150289342Y-64863095D01*
X150289342Y-64863095D02*
X150384580Y-64910714D01*
X150384580Y-64910714D02*
X150432200Y-64958333D01*
X150432200Y-64958333D02*
X150479819Y-65053571D01*
X150479819Y-65053571D02*
X150479819Y-65339285D01*
X150479819Y-65339285D02*
X150432200Y-65434523D01*
X150432200Y-65434523D02*
X150384580Y-65482142D01*
X156457142Y-86454819D02*
X156123809Y-85978628D01*
X155885714Y-86454819D02*
X155885714Y-85454819D01*
X155885714Y-85454819D02*
X156266666Y-85454819D01*
X156266666Y-85454819D02*
X156361904Y-85502438D01*
X156361904Y-85502438D02*
X156409523Y-85550057D01*
X156409523Y-85550057D02*
X156457142Y-85645295D01*
X156457142Y-85645295D02*
X156457142Y-85788152D01*
X156457142Y-85788152D02*
X156409523Y-85883390D01*
X156409523Y-85883390D02*
X156361904Y-85931009D01*
X156361904Y-85931009D02*
X156266666Y-85978628D01*
X156266666Y-85978628D02*
X155885714Y-85978628D01*
X157409523Y-86454819D02*
X156838095Y-86454819D01*
X157123809Y-86454819D02*
X157123809Y-85454819D01*
X157123809Y-85454819D02*
X157028571Y-85597676D01*
X157028571Y-85597676D02*
X156933333Y-85692914D01*
X156933333Y-85692914D02*
X156838095Y-85740533D01*
X158314285Y-85454819D02*
X157838095Y-85454819D01*
X157838095Y-85454819D02*
X157790476Y-85931009D01*
X157790476Y-85931009D02*
X157838095Y-85883390D01*
X157838095Y-85883390D02*
X157933333Y-85835771D01*
X157933333Y-85835771D02*
X158171428Y-85835771D01*
X158171428Y-85835771D02*
X158266666Y-85883390D01*
X158266666Y-85883390D02*
X158314285Y-85931009D01*
X158314285Y-85931009D02*
X158361904Y-86026247D01*
X158361904Y-86026247D02*
X158361904Y-86264342D01*
X158361904Y-86264342D02*
X158314285Y-86359580D01*
X158314285Y-86359580D02*
X158266666Y-86407200D01*
X158266666Y-86407200D02*
X158171428Y-86454819D01*
X158171428Y-86454819D02*
X157933333Y-86454819D01*
X157933333Y-86454819D02*
X157838095Y-86407200D01*
X157838095Y-86407200D02*
X157790476Y-86359580D01*
X158504726Y-92212381D02*
X157234726Y-92212381D01*
X157234726Y-92212381D02*
X157234726Y-91910000D01*
X157234726Y-91910000D02*
X157295202Y-91728571D01*
X157295202Y-91728571D02*
X157416154Y-91607619D01*
X157416154Y-91607619D02*
X157537107Y-91547142D01*
X157537107Y-91547142D02*
X157779011Y-91486666D01*
X157779011Y-91486666D02*
X157960440Y-91486666D01*
X157960440Y-91486666D02*
X158202345Y-91547142D01*
X158202345Y-91547142D02*
X158323297Y-91607619D01*
X158323297Y-91607619D02*
X158444250Y-91728571D01*
X158444250Y-91728571D02*
X158504726Y-91910000D01*
X158504726Y-91910000D02*
X158504726Y-92212381D01*
X157234726Y-91063333D02*
X157234726Y-90216666D01*
X157234726Y-90216666D02*
X158504726Y-90760952D01*
X176037142Y-75091080D02*
X175989523Y-75138700D01*
X175989523Y-75138700D02*
X175846666Y-75186319D01*
X175846666Y-75186319D02*
X175751428Y-75186319D01*
X175751428Y-75186319D02*
X175608571Y-75138700D01*
X175608571Y-75138700D02*
X175513333Y-75043461D01*
X175513333Y-75043461D02*
X175465714Y-74948223D01*
X175465714Y-74948223D02*
X175418095Y-74757747D01*
X175418095Y-74757747D02*
X175418095Y-74614890D01*
X175418095Y-74614890D02*
X175465714Y-74424414D01*
X175465714Y-74424414D02*
X175513333Y-74329176D01*
X175513333Y-74329176D02*
X175608571Y-74233938D01*
X175608571Y-74233938D02*
X175751428Y-74186319D01*
X175751428Y-74186319D02*
X175846666Y-74186319D01*
X175846666Y-74186319D02*
X175989523Y-74233938D01*
X175989523Y-74233938D02*
X176037142Y-74281557D01*
X176989523Y-75186319D02*
X176418095Y-75186319D01*
X176703809Y-75186319D02*
X176703809Y-74186319D01*
X176703809Y-74186319D02*
X176608571Y-74329176D01*
X176608571Y-74329176D02*
X176513333Y-74424414D01*
X176513333Y-74424414D02*
X176418095Y-74472033D01*
X177322857Y-74186319D02*
X177941904Y-74186319D01*
X177941904Y-74186319D02*
X177608571Y-74567271D01*
X177608571Y-74567271D02*
X177751428Y-74567271D01*
X177751428Y-74567271D02*
X177846666Y-74614890D01*
X177846666Y-74614890D02*
X177894285Y-74662509D01*
X177894285Y-74662509D02*
X177941904Y-74757747D01*
X177941904Y-74757747D02*
X177941904Y-74995842D01*
X177941904Y-74995842D02*
X177894285Y-75091080D01*
X177894285Y-75091080D02*
X177846666Y-75138700D01*
X177846666Y-75138700D02*
X177751428Y-75186319D01*
X177751428Y-75186319D02*
X177465714Y-75186319D01*
X177465714Y-75186319D02*
X177370476Y-75138700D01*
X177370476Y-75138700D02*
X177322857Y-75091080D01*
X139107142Y-79704819D02*
X138773809Y-79228628D01*
X138535714Y-79704819D02*
X138535714Y-78704819D01*
X138535714Y-78704819D02*
X138916666Y-78704819D01*
X138916666Y-78704819D02*
X139011904Y-78752438D01*
X139011904Y-78752438D02*
X139059523Y-78800057D01*
X139059523Y-78800057D02*
X139107142Y-78895295D01*
X139107142Y-78895295D02*
X139107142Y-79038152D01*
X139107142Y-79038152D02*
X139059523Y-79133390D01*
X139059523Y-79133390D02*
X139011904Y-79181009D01*
X139011904Y-79181009D02*
X138916666Y-79228628D01*
X138916666Y-79228628D02*
X138535714Y-79228628D01*
X140059523Y-79704819D02*
X139488095Y-79704819D01*
X139773809Y-79704819D02*
X139773809Y-78704819D01*
X139773809Y-78704819D02*
X139678571Y-78847676D01*
X139678571Y-78847676D02*
X139583333Y-78942914D01*
X139583333Y-78942914D02*
X139488095Y-78990533D01*
X140916666Y-78704819D02*
X140726190Y-78704819D01*
X140726190Y-78704819D02*
X140630952Y-78752438D01*
X140630952Y-78752438D02*
X140583333Y-78800057D01*
X140583333Y-78800057D02*
X140488095Y-78942914D01*
X140488095Y-78942914D02*
X140440476Y-79133390D01*
X140440476Y-79133390D02*
X140440476Y-79514342D01*
X140440476Y-79514342D02*
X140488095Y-79609580D01*
X140488095Y-79609580D02*
X140535714Y-79657200D01*
X140535714Y-79657200D02*
X140630952Y-79704819D01*
X140630952Y-79704819D02*
X140821428Y-79704819D01*
X140821428Y-79704819D02*
X140916666Y-79657200D01*
X140916666Y-79657200D02*
X140964285Y-79609580D01*
X140964285Y-79609580D02*
X141011904Y-79514342D01*
X141011904Y-79514342D02*
X141011904Y-79276247D01*
X141011904Y-79276247D02*
X140964285Y-79181009D01*
X140964285Y-79181009D02*
X140916666Y-79133390D01*
X140916666Y-79133390D02*
X140821428Y-79085771D01*
X140821428Y-79085771D02*
X140630952Y-79085771D01*
X140630952Y-79085771D02*
X140535714Y-79133390D01*
X140535714Y-79133390D02*
X140488095Y-79181009D01*
X140488095Y-79181009D02*
X140440476Y-79276247D01*
X117884580Y-59317857D02*
X117932200Y-59365476D01*
X117932200Y-59365476D02*
X117979819Y-59508333D01*
X117979819Y-59508333D02*
X117979819Y-59603571D01*
X117979819Y-59603571D02*
X117932200Y-59746428D01*
X117932200Y-59746428D02*
X117836961Y-59841666D01*
X117836961Y-59841666D02*
X117741723Y-59889285D01*
X117741723Y-59889285D02*
X117551247Y-59936904D01*
X117551247Y-59936904D02*
X117408390Y-59936904D01*
X117408390Y-59936904D02*
X117217914Y-59889285D01*
X117217914Y-59889285D02*
X117122676Y-59841666D01*
X117122676Y-59841666D02*
X117027438Y-59746428D01*
X117027438Y-59746428D02*
X116979819Y-59603571D01*
X116979819Y-59603571D02*
X116979819Y-59508333D01*
X116979819Y-59508333D02*
X117027438Y-59365476D01*
X117027438Y-59365476D02*
X117075057Y-59317857D01*
X117075057Y-58936904D02*
X117027438Y-58889285D01*
X117027438Y-58889285D02*
X116979819Y-58794047D01*
X116979819Y-58794047D02*
X116979819Y-58555952D01*
X116979819Y-58555952D02*
X117027438Y-58460714D01*
X117027438Y-58460714D02*
X117075057Y-58413095D01*
X117075057Y-58413095D02*
X117170295Y-58365476D01*
X117170295Y-58365476D02*
X117265533Y-58365476D01*
X117265533Y-58365476D02*
X117408390Y-58413095D01*
X117408390Y-58413095D02*
X117979819Y-58984523D01*
X117979819Y-58984523D02*
X117979819Y-58365476D01*
X116979819Y-58032142D02*
X116979819Y-57413095D01*
X116979819Y-57413095D02*
X117360771Y-57746428D01*
X117360771Y-57746428D02*
X117360771Y-57603571D01*
X117360771Y-57603571D02*
X117408390Y-57508333D01*
X117408390Y-57508333D02*
X117456009Y-57460714D01*
X117456009Y-57460714D02*
X117551247Y-57413095D01*
X117551247Y-57413095D02*
X117789342Y-57413095D01*
X117789342Y-57413095D02*
X117884580Y-57460714D01*
X117884580Y-57460714D02*
X117932200Y-57508333D01*
X117932200Y-57508333D02*
X117979819Y-57603571D01*
X117979819Y-57603571D02*
X117979819Y-57889285D01*
X117979819Y-57889285D02*
X117932200Y-57984523D01*
X117932200Y-57984523D02*
X117884580Y-58032142D01*
X161429762Y-72554819D02*
X162001190Y-72554819D01*
X161715476Y-73554819D02*
X161715476Y-72554819D01*
X162715476Y-73507200D02*
X162620238Y-73554819D01*
X162620238Y-73554819D02*
X162429762Y-73554819D01*
X162429762Y-73554819D02*
X162334524Y-73507200D01*
X162334524Y-73507200D02*
X162286905Y-73411961D01*
X162286905Y-73411961D02*
X162286905Y-73031009D01*
X162286905Y-73031009D02*
X162334524Y-72935771D01*
X162334524Y-72935771D02*
X162429762Y-72888152D01*
X162429762Y-72888152D02*
X162620238Y-72888152D01*
X162620238Y-72888152D02*
X162715476Y-72935771D01*
X162715476Y-72935771D02*
X162763095Y-73031009D01*
X162763095Y-73031009D02*
X162763095Y-73126247D01*
X162763095Y-73126247D02*
X162286905Y-73221485D01*
X163144048Y-73507200D02*
X163239286Y-73554819D01*
X163239286Y-73554819D02*
X163429762Y-73554819D01*
X163429762Y-73554819D02*
X163525000Y-73507200D01*
X163525000Y-73507200D02*
X163572619Y-73411961D01*
X163572619Y-73411961D02*
X163572619Y-73364342D01*
X163572619Y-73364342D02*
X163525000Y-73269104D01*
X163525000Y-73269104D02*
X163429762Y-73221485D01*
X163429762Y-73221485D02*
X163286905Y-73221485D01*
X163286905Y-73221485D02*
X163191667Y-73173866D01*
X163191667Y-73173866D02*
X163144048Y-73078628D01*
X163144048Y-73078628D02*
X163144048Y-73031009D01*
X163144048Y-73031009D02*
X163191667Y-72935771D01*
X163191667Y-72935771D02*
X163286905Y-72888152D01*
X163286905Y-72888152D02*
X163429762Y-72888152D01*
X163429762Y-72888152D02*
X163525000Y-72935771D01*
X163858334Y-72888152D02*
X164239286Y-72888152D01*
X164001191Y-72554819D02*
X164001191Y-73411961D01*
X164001191Y-73411961D02*
X164048810Y-73507200D01*
X164048810Y-73507200D02*
X164144048Y-73554819D01*
X164144048Y-73554819D02*
X164239286Y-73554819D01*
X165334525Y-73554819D02*
X165334525Y-72554819D01*
X165334525Y-72554819D02*
X165667858Y-73269104D01*
X165667858Y-73269104D02*
X166001191Y-72554819D01*
X166001191Y-72554819D02*
X166001191Y-73554819D01*
X166477382Y-73554819D02*
X166477382Y-72554819D01*
X166905953Y-73507200D02*
X167048810Y-73554819D01*
X167048810Y-73554819D02*
X167286905Y-73554819D01*
X167286905Y-73554819D02*
X167382143Y-73507200D01*
X167382143Y-73507200D02*
X167429762Y-73459580D01*
X167429762Y-73459580D02*
X167477381Y-73364342D01*
X167477381Y-73364342D02*
X167477381Y-73269104D01*
X167477381Y-73269104D02*
X167429762Y-73173866D01*
X167429762Y-73173866D02*
X167382143Y-73126247D01*
X167382143Y-73126247D02*
X167286905Y-73078628D01*
X167286905Y-73078628D02*
X167096429Y-73031009D01*
X167096429Y-73031009D02*
X167001191Y-72983390D01*
X167001191Y-72983390D02*
X166953572Y-72935771D01*
X166953572Y-72935771D02*
X166905953Y-72840533D01*
X166905953Y-72840533D02*
X166905953Y-72745295D01*
X166905953Y-72745295D02*
X166953572Y-72650057D01*
X166953572Y-72650057D02*
X167001191Y-72602438D01*
X167001191Y-72602438D02*
X167096429Y-72554819D01*
X167096429Y-72554819D02*
X167334524Y-72554819D01*
X167334524Y-72554819D02*
X167477381Y-72602438D01*
X168096429Y-72554819D02*
X168286905Y-72554819D01*
X168286905Y-72554819D02*
X168382143Y-72602438D01*
X168382143Y-72602438D02*
X168477381Y-72697676D01*
X168477381Y-72697676D02*
X168525000Y-72888152D01*
X168525000Y-72888152D02*
X168525000Y-73221485D01*
X168525000Y-73221485D02*
X168477381Y-73411961D01*
X168477381Y-73411961D02*
X168382143Y-73507200D01*
X168382143Y-73507200D02*
X168286905Y-73554819D01*
X168286905Y-73554819D02*
X168096429Y-73554819D01*
X168096429Y-73554819D02*
X168001191Y-73507200D01*
X168001191Y-73507200D02*
X167905953Y-73411961D01*
X167905953Y-73411961D02*
X167858334Y-73221485D01*
X167858334Y-73221485D02*
X167858334Y-72888152D01*
X167858334Y-72888152D02*
X167905953Y-72697676D01*
X167905953Y-72697676D02*
X168001191Y-72602438D01*
X168001191Y-72602438D02*
X168096429Y-72554819D01*
X133258333Y-86329819D02*
X132925000Y-85853628D01*
X132686905Y-86329819D02*
X132686905Y-85329819D01*
X132686905Y-85329819D02*
X133067857Y-85329819D01*
X133067857Y-85329819D02*
X133163095Y-85377438D01*
X133163095Y-85377438D02*
X133210714Y-85425057D01*
X133210714Y-85425057D02*
X133258333Y-85520295D01*
X133258333Y-85520295D02*
X133258333Y-85663152D01*
X133258333Y-85663152D02*
X133210714Y-85758390D01*
X133210714Y-85758390D02*
X133163095Y-85806009D01*
X133163095Y-85806009D02*
X133067857Y-85853628D01*
X133067857Y-85853628D02*
X132686905Y-85853628D01*
X133829762Y-85758390D02*
X133734524Y-85710771D01*
X133734524Y-85710771D02*
X133686905Y-85663152D01*
X133686905Y-85663152D02*
X133639286Y-85567914D01*
X133639286Y-85567914D02*
X133639286Y-85520295D01*
X133639286Y-85520295D02*
X133686905Y-85425057D01*
X133686905Y-85425057D02*
X133734524Y-85377438D01*
X133734524Y-85377438D02*
X133829762Y-85329819D01*
X133829762Y-85329819D02*
X134020238Y-85329819D01*
X134020238Y-85329819D02*
X134115476Y-85377438D01*
X134115476Y-85377438D02*
X134163095Y-85425057D01*
X134163095Y-85425057D02*
X134210714Y-85520295D01*
X134210714Y-85520295D02*
X134210714Y-85567914D01*
X134210714Y-85567914D02*
X134163095Y-85663152D01*
X134163095Y-85663152D02*
X134115476Y-85710771D01*
X134115476Y-85710771D02*
X134020238Y-85758390D01*
X134020238Y-85758390D02*
X133829762Y-85758390D01*
X133829762Y-85758390D02*
X133734524Y-85806009D01*
X133734524Y-85806009D02*
X133686905Y-85853628D01*
X133686905Y-85853628D02*
X133639286Y-85948866D01*
X133639286Y-85948866D02*
X133639286Y-86139342D01*
X133639286Y-86139342D02*
X133686905Y-86234580D01*
X133686905Y-86234580D02*
X133734524Y-86282200D01*
X133734524Y-86282200D02*
X133829762Y-86329819D01*
X133829762Y-86329819D02*
X134020238Y-86329819D01*
X134020238Y-86329819D02*
X134115476Y-86282200D01*
X134115476Y-86282200D02*
X134163095Y-86234580D01*
X134163095Y-86234580D02*
X134210714Y-86139342D01*
X134210714Y-86139342D02*
X134210714Y-85948866D01*
X134210714Y-85948866D02*
X134163095Y-85853628D01*
X134163095Y-85853628D02*
X134115476Y-85806009D01*
X134115476Y-85806009D02*
X134020238Y-85758390D01*
X148688095Y-85017319D02*
X148688095Y-85826842D01*
X148688095Y-85826842D02*
X148735714Y-85922080D01*
X148735714Y-85922080D02*
X148783333Y-85969700D01*
X148783333Y-85969700D02*
X148878571Y-86017319D01*
X148878571Y-86017319D02*
X149069047Y-86017319D01*
X149069047Y-86017319D02*
X149164285Y-85969700D01*
X149164285Y-85969700D02*
X149211904Y-85922080D01*
X149211904Y-85922080D02*
X149259523Y-85826842D01*
X149259523Y-85826842D02*
X149259523Y-85017319D01*
X150164285Y-85350652D02*
X150164285Y-86017319D01*
X149926190Y-84969700D02*
X149688095Y-85683985D01*
X149688095Y-85683985D02*
X150307142Y-85683985D01*
X156809580Y-79280357D02*
X156857200Y-79327976D01*
X156857200Y-79327976D02*
X156904819Y-79470833D01*
X156904819Y-79470833D02*
X156904819Y-79566071D01*
X156904819Y-79566071D02*
X156857200Y-79708928D01*
X156857200Y-79708928D02*
X156761961Y-79804166D01*
X156761961Y-79804166D02*
X156666723Y-79851785D01*
X156666723Y-79851785D02*
X156476247Y-79899404D01*
X156476247Y-79899404D02*
X156333390Y-79899404D01*
X156333390Y-79899404D02*
X156142914Y-79851785D01*
X156142914Y-79851785D02*
X156047676Y-79804166D01*
X156047676Y-79804166D02*
X155952438Y-79708928D01*
X155952438Y-79708928D02*
X155904819Y-79566071D01*
X155904819Y-79566071D02*
X155904819Y-79470833D01*
X155904819Y-79470833D02*
X155952438Y-79327976D01*
X155952438Y-79327976D02*
X156000057Y-79280357D01*
X156000057Y-78899404D02*
X155952438Y-78851785D01*
X155952438Y-78851785D02*
X155904819Y-78756547D01*
X155904819Y-78756547D02*
X155904819Y-78518452D01*
X155904819Y-78518452D02*
X155952438Y-78423214D01*
X155952438Y-78423214D02*
X156000057Y-78375595D01*
X156000057Y-78375595D02*
X156095295Y-78327976D01*
X156095295Y-78327976D02*
X156190533Y-78327976D01*
X156190533Y-78327976D02*
X156333390Y-78375595D01*
X156333390Y-78375595D02*
X156904819Y-78947023D01*
X156904819Y-78947023D02*
X156904819Y-78327976D01*
X155904819Y-77423214D02*
X155904819Y-77899404D01*
X155904819Y-77899404D02*
X156381009Y-77947023D01*
X156381009Y-77947023D02*
X156333390Y-77899404D01*
X156333390Y-77899404D02*
X156285771Y-77804166D01*
X156285771Y-77804166D02*
X156285771Y-77566071D01*
X156285771Y-77566071D02*
X156333390Y-77470833D01*
X156333390Y-77470833D02*
X156381009Y-77423214D01*
X156381009Y-77423214D02*
X156476247Y-77375595D01*
X156476247Y-77375595D02*
X156714342Y-77375595D01*
X156714342Y-77375595D02*
X156809580Y-77423214D01*
X156809580Y-77423214D02*
X156857200Y-77470833D01*
X156857200Y-77470833D02*
X156904819Y-77566071D01*
X156904819Y-77566071D02*
X156904819Y-77804166D01*
X156904819Y-77804166D02*
X156857200Y-77899404D01*
X156857200Y-77899404D02*
X156809580Y-77947023D01*
X192916666Y-100454819D02*
X192583333Y-99978628D01*
X192345238Y-100454819D02*
X192345238Y-99454819D01*
X192345238Y-99454819D02*
X192726190Y-99454819D01*
X192726190Y-99454819D02*
X192821428Y-99502438D01*
X192821428Y-99502438D02*
X192869047Y-99550057D01*
X192869047Y-99550057D02*
X192916666Y-99645295D01*
X192916666Y-99645295D02*
X192916666Y-99788152D01*
X192916666Y-99788152D02*
X192869047Y-99883390D01*
X192869047Y-99883390D02*
X192821428Y-99931009D01*
X192821428Y-99931009D02*
X192726190Y-99978628D01*
X192726190Y-99978628D02*
X192345238Y-99978628D01*
X193345238Y-99931009D02*
X193678571Y-99931009D01*
X193821428Y-100454819D02*
X193345238Y-100454819D01*
X193345238Y-100454819D02*
X193345238Y-99454819D01*
X193345238Y-99454819D02*
X193821428Y-99454819D01*
X194583333Y-99931009D02*
X194250000Y-99931009D01*
X194250000Y-100454819D02*
X194250000Y-99454819D01*
X194250000Y-99454819D02*
X194726190Y-99454819D01*
X195250000Y-99454819D02*
X195250000Y-99692914D01*
X195011905Y-99597676D02*
X195250000Y-99692914D01*
X195250000Y-99692914D02*
X195488095Y-99597676D01*
X195107143Y-99883390D02*
X195250000Y-99692914D01*
X195250000Y-99692914D02*
X195392857Y-99883390D01*
X196011905Y-99454819D02*
X196011905Y-99692914D01*
X195773810Y-99597676D02*
X196011905Y-99692914D01*
X196011905Y-99692914D02*
X196250000Y-99597676D01*
X195869048Y-99883390D02*
X196011905Y-99692914D01*
X196011905Y-99692914D02*
X196154762Y-99883390D01*
X160104819Y-100666666D02*
X159628628Y-100999999D01*
X160104819Y-101238094D02*
X159104819Y-101238094D01*
X159104819Y-101238094D02*
X159104819Y-100857142D01*
X159104819Y-100857142D02*
X159152438Y-100761904D01*
X159152438Y-100761904D02*
X159200057Y-100714285D01*
X159200057Y-100714285D02*
X159295295Y-100666666D01*
X159295295Y-100666666D02*
X159438152Y-100666666D01*
X159438152Y-100666666D02*
X159533390Y-100714285D01*
X159533390Y-100714285D02*
X159581009Y-100761904D01*
X159581009Y-100761904D02*
X159628628Y-100857142D01*
X159628628Y-100857142D02*
X159628628Y-101238094D01*
X160104819Y-99714285D02*
X160104819Y-100285713D01*
X160104819Y-99999999D02*
X159104819Y-99999999D01*
X159104819Y-99999999D02*
X159247676Y-100095237D01*
X159247676Y-100095237D02*
X159342914Y-100190475D01*
X159342914Y-100190475D02*
X159390533Y-100285713D01*
X149838095Y-52504819D02*
X149838095Y-53314342D01*
X149838095Y-53314342D02*
X149885714Y-53409580D01*
X149885714Y-53409580D02*
X149933333Y-53457200D01*
X149933333Y-53457200D02*
X150028571Y-53504819D01*
X150028571Y-53504819D02*
X150219047Y-53504819D01*
X150219047Y-53504819D02*
X150314285Y-53457200D01*
X150314285Y-53457200D02*
X150361904Y-53409580D01*
X150361904Y-53409580D02*
X150409523Y-53314342D01*
X150409523Y-53314342D02*
X150409523Y-52504819D01*
X151314285Y-52504819D02*
X151123809Y-52504819D01*
X151123809Y-52504819D02*
X151028571Y-52552438D01*
X151028571Y-52552438D02*
X150980952Y-52600057D01*
X150980952Y-52600057D02*
X150885714Y-52742914D01*
X150885714Y-52742914D02*
X150838095Y-52933390D01*
X150838095Y-52933390D02*
X150838095Y-53314342D01*
X150838095Y-53314342D02*
X150885714Y-53409580D01*
X150885714Y-53409580D02*
X150933333Y-53457200D01*
X150933333Y-53457200D02*
X151028571Y-53504819D01*
X151028571Y-53504819D02*
X151219047Y-53504819D01*
X151219047Y-53504819D02*
X151314285Y-53457200D01*
X151314285Y-53457200D02*
X151361904Y-53409580D01*
X151361904Y-53409580D02*
X151409523Y-53314342D01*
X151409523Y-53314342D02*
X151409523Y-53076247D01*
X151409523Y-53076247D02*
X151361904Y-52981009D01*
X151361904Y-52981009D02*
X151314285Y-52933390D01*
X151314285Y-52933390D02*
X151219047Y-52885771D01*
X151219047Y-52885771D02*
X151028571Y-52885771D01*
X151028571Y-52885771D02*
X150933333Y-52933390D01*
X150933333Y-52933390D02*
X150885714Y-52981009D01*
X150885714Y-52981009D02*
X150838095Y-53076247D01*
X147709580Y-81216666D02*
X147757200Y-81264285D01*
X147757200Y-81264285D02*
X147804819Y-81407142D01*
X147804819Y-81407142D02*
X147804819Y-81502380D01*
X147804819Y-81502380D02*
X147757200Y-81645237D01*
X147757200Y-81645237D02*
X147661961Y-81740475D01*
X147661961Y-81740475D02*
X147566723Y-81788094D01*
X147566723Y-81788094D02*
X147376247Y-81835713D01*
X147376247Y-81835713D02*
X147233390Y-81835713D01*
X147233390Y-81835713D02*
X147042914Y-81788094D01*
X147042914Y-81788094D02*
X146947676Y-81740475D01*
X146947676Y-81740475D02*
X146852438Y-81645237D01*
X146852438Y-81645237D02*
X146804819Y-81502380D01*
X146804819Y-81502380D02*
X146804819Y-81407142D01*
X146804819Y-81407142D02*
X146852438Y-81264285D01*
X146852438Y-81264285D02*
X146900057Y-81216666D01*
X146804819Y-80359523D02*
X146804819Y-80549999D01*
X146804819Y-80549999D02*
X146852438Y-80645237D01*
X146852438Y-80645237D02*
X146900057Y-80692856D01*
X146900057Y-80692856D02*
X147042914Y-80788094D01*
X147042914Y-80788094D02*
X147233390Y-80835713D01*
X147233390Y-80835713D02*
X147614342Y-80835713D01*
X147614342Y-80835713D02*
X147709580Y-80788094D01*
X147709580Y-80788094D02*
X147757200Y-80740475D01*
X147757200Y-80740475D02*
X147804819Y-80645237D01*
X147804819Y-80645237D02*
X147804819Y-80454761D01*
X147804819Y-80454761D02*
X147757200Y-80359523D01*
X147757200Y-80359523D02*
X147709580Y-80311904D01*
X147709580Y-80311904D02*
X147614342Y-80264285D01*
X147614342Y-80264285D02*
X147376247Y-80264285D01*
X147376247Y-80264285D02*
X147281009Y-80311904D01*
X147281009Y-80311904D02*
X147233390Y-80359523D01*
X147233390Y-80359523D02*
X147185771Y-80454761D01*
X147185771Y-80454761D02*
X147185771Y-80645237D01*
X147185771Y-80645237D02*
X147233390Y-80740475D01*
X147233390Y-80740475D02*
X147281009Y-80788094D01*
X147281009Y-80788094D02*
X147376247Y-80835713D01*
X156807142Y-75292319D02*
X156473809Y-74816128D01*
X156235714Y-75292319D02*
X156235714Y-74292319D01*
X156235714Y-74292319D02*
X156616666Y-74292319D01*
X156616666Y-74292319D02*
X156711904Y-74339938D01*
X156711904Y-74339938D02*
X156759523Y-74387557D01*
X156759523Y-74387557D02*
X156807142Y-74482795D01*
X156807142Y-74482795D02*
X156807142Y-74625652D01*
X156807142Y-74625652D02*
X156759523Y-74720890D01*
X156759523Y-74720890D02*
X156711904Y-74768509D01*
X156711904Y-74768509D02*
X156616666Y-74816128D01*
X156616666Y-74816128D02*
X156235714Y-74816128D01*
X157759523Y-75292319D02*
X157188095Y-75292319D01*
X157473809Y-75292319D02*
X157473809Y-74292319D01*
X157473809Y-74292319D02*
X157378571Y-74435176D01*
X157378571Y-74435176D02*
X157283333Y-74530414D01*
X157283333Y-74530414D02*
X157188095Y-74578033D01*
X158092857Y-74292319D02*
X158711904Y-74292319D01*
X158711904Y-74292319D02*
X158378571Y-74673271D01*
X158378571Y-74673271D02*
X158521428Y-74673271D01*
X158521428Y-74673271D02*
X158616666Y-74720890D01*
X158616666Y-74720890D02*
X158664285Y-74768509D01*
X158664285Y-74768509D02*
X158711904Y-74863747D01*
X158711904Y-74863747D02*
X158711904Y-75101842D01*
X158711904Y-75101842D02*
X158664285Y-75197080D01*
X158664285Y-75197080D02*
X158616666Y-75244700D01*
X158616666Y-75244700D02*
X158521428Y-75292319D01*
X158521428Y-75292319D02*
X158235714Y-75292319D01*
X158235714Y-75292319D02*
X158140476Y-75244700D01*
X158140476Y-75244700D02*
X158092857Y-75197080D01*
X158304819Y-95522357D02*
X157828628Y-95855690D01*
X158304819Y-96093785D02*
X157304819Y-96093785D01*
X157304819Y-96093785D02*
X157304819Y-95712833D01*
X157304819Y-95712833D02*
X157352438Y-95617595D01*
X157352438Y-95617595D02*
X157400057Y-95569976D01*
X157400057Y-95569976D02*
X157495295Y-95522357D01*
X157495295Y-95522357D02*
X157638152Y-95522357D01*
X157638152Y-95522357D02*
X157733390Y-95569976D01*
X157733390Y-95569976D02*
X157781009Y-95617595D01*
X157781009Y-95617595D02*
X157828628Y-95712833D01*
X157828628Y-95712833D02*
X157828628Y-96093785D01*
X158304819Y-94569976D02*
X158304819Y-95141404D01*
X158304819Y-94855690D02*
X157304819Y-94855690D01*
X157304819Y-94855690D02*
X157447676Y-94950928D01*
X157447676Y-94950928D02*
X157542914Y-95046166D01*
X157542914Y-95046166D02*
X157590533Y-95141404D01*
X157400057Y-94189023D02*
X157352438Y-94141404D01*
X157352438Y-94141404D02*
X157304819Y-94046166D01*
X157304819Y-94046166D02*
X157304819Y-93808071D01*
X157304819Y-93808071D02*
X157352438Y-93712833D01*
X157352438Y-93712833D02*
X157400057Y-93665214D01*
X157400057Y-93665214D02*
X157495295Y-93617595D01*
X157495295Y-93617595D02*
X157590533Y-93617595D01*
X157590533Y-93617595D02*
X157733390Y-93665214D01*
X157733390Y-93665214D02*
X158304819Y-94236642D01*
X158304819Y-94236642D02*
X158304819Y-93617595D01*
X164832142Y-62954819D02*
X164498809Y-62478628D01*
X164260714Y-62954819D02*
X164260714Y-61954819D01*
X164260714Y-61954819D02*
X164641666Y-61954819D01*
X164641666Y-61954819D02*
X164736904Y-62002438D01*
X164736904Y-62002438D02*
X164784523Y-62050057D01*
X164784523Y-62050057D02*
X164832142Y-62145295D01*
X164832142Y-62145295D02*
X164832142Y-62288152D01*
X164832142Y-62288152D02*
X164784523Y-62383390D01*
X164784523Y-62383390D02*
X164736904Y-62431009D01*
X164736904Y-62431009D02*
X164641666Y-62478628D01*
X164641666Y-62478628D02*
X164260714Y-62478628D01*
X165784523Y-62954819D02*
X165213095Y-62954819D01*
X165498809Y-62954819D02*
X165498809Y-61954819D01*
X165498809Y-61954819D02*
X165403571Y-62097676D01*
X165403571Y-62097676D02*
X165308333Y-62192914D01*
X165308333Y-62192914D02*
X165213095Y-62240533D01*
X166355952Y-62383390D02*
X166260714Y-62335771D01*
X166260714Y-62335771D02*
X166213095Y-62288152D01*
X166213095Y-62288152D02*
X166165476Y-62192914D01*
X166165476Y-62192914D02*
X166165476Y-62145295D01*
X166165476Y-62145295D02*
X166213095Y-62050057D01*
X166213095Y-62050057D02*
X166260714Y-62002438D01*
X166260714Y-62002438D02*
X166355952Y-61954819D01*
X166355952Y-61954819D02*
X166546428Y-61954819D01*
X166546428Y-61954819D02*
X166641666Y-62002438D01*
X166641666Y-62002438D02*
X166689285Y-62050057D01*
X166689285Y-62050057D02*
X166736904Y-62145295D01*
X166736904Y-62145295D02*
X166736904Y-62192914D01*
X166736904Y-62192914D02*
X166689285Y-62288152D01*
X166689285Y-62288152D02*
X166641666Y-62335771D01*
X166641666Y-62335771D02*
X166546428Y-62383390D01*
X166546428Y-62383390D02*
X166355952Y-62383390D01*
X166355952Y-62383390D02*
X166260714Y-62431009D01*
X166260714Y-62431009D02*
X166213095Y-62478628D01*
X166213095Y-62478628D02*
X166165476Y-62573866D01*
X166165476Y-62573866D02*
X166165476Y-62764342D01*
X166165476Y-62764342D02*
X166213095Y-62859580D01*
X166213095Y-62859580D02*
X166260714Y-62907200D01*
X166260714Y-62907200D02*
X166355952Y-62954819D01*
X166355952Y-62954819D02*
X166546428Y-62954819D01*
X166546428Y-62954819D02*
X166641666Y-62907200D01*
X166641666Y-62907200D02*
X166689285Y-62859580D01*
X166689285Y-62859580D02*
X166736904Y-62764342D01*
X166736904Y-62764342D02*
X166736904Y-62573866D01*
X166736904Y-62573866D02*
X166689285Y-62478628D01*
X166689285Y-62478628D02*
X166641666Y-62431009D01*
X166641666Y-62431009D02*
X166546428Y-62383390D01*
X196266666Y-58188819D02*
X196266666Y-58903104D01*
X196266666Y-58903104D02*
X196219047Y-59045961D01*
X196219047Y-59045961D02*
X196123809Y-59141200D01*
X196123809Y-59141200D02*
X195980952Y-59188819D01*
X195980952Y-59188819D02*
X195885714Y-59188819D01*
X197171428Y-58522152D02*
X197171428Y-59188819D01*
X196933333Y-58141200D02*
X196695238Y-58855485D01*
X196695238Y-58855485D02*
X197314285Y-58855485D01*
X126994642Y-67354819D02*
X126661309Y-66878628D01*
X126423214Y-67354819D02*
X126423214Y-66354819D01*
X126423214Y-66354819D02*
X126804166Y-66354819D01*
X126804166Y-66354819D02*
X126899404Y-66402438D01*
X126899404Y-66402438D02*
X126947023Y-66450057D01*
X126947023Y-66450057D02*
X126994642Y-66545295D01*
X126994642Y-66545295D02*
X126994642Y-66688152D01*
X126994642Y-66688152D02*
X126947023Y-66783390D01*
X126947023Y-66783390D02*
X126899404Y-66831009D01*
X126899404Y-66831009D02*
X126804166Y-66878628D01*
X126804166Y-66878628D02*
X126423214Y-66878628D01*
X127375595Y-66450057D02*
X127423214Y-66402438D01*
X127423214Y-66402438D02*
X127518452Y-66354819D01*
X127518452Y-66354819D02*
X127756547Y-66354819D01*
X127756547Y-66354819D02*
X127851785Y-66402438D01*
X127851785Y-66402438D02*
X127899404Y-66450057D01*
X127899404Y-66450057D02*
X127947023Y-66545295D01*
X127947023Y-66545295D02*
X127947023Y-66640533D01*
X127947023Y-66640533D02*
X127899404Y-66783390D01*
X127899404Y-66783390D02*
X127327976Y-67354819D01*
X127327976Y-67354819D02*
X127947023Y-67354819D01*
X128280357Y-66354819D02*
X128947023Y-66354819D01*
X128947023Y-66354819D02*
X128518452Y-67354819D01*
X180663095Y-65479819D02*
X181234523Y-65479819D01*
X180948809Y-66479819D02*
X180948809Y-65479819D01*
X181948809Y-66432200D02*
X181853571Y-66479819D01*
X181853571Y-66479819D02*
X181663095Y-66479819D01*
X181663095Y-66479819D02*
X181567857Y-66432200D01*
X181567857Y-66432200D02*
X181520238Y-66336961D01*
X181520238Y-66336961D02*
X181520238Y-65956009D01*
X181520238Y-65956009D02*
X181567857Y-65860771D01*
X181567857Y-65860771D02*
X181663095Y-65813152D01*
X181663095Y-65813152D02*
X181853571Y-65813152D01*
X181853571Y-65813152D02*
X181948809Y-65860771D01*
X181948809Y-65860771D02*
X181996428Y-65956009D01*
X181996428Y-65956009D02*
X181996428Y-66051247D01*
X181996428Y-66051247D02*
X181520238Y-66146485D01*
X182377381Y-66432200D02*
X182472619Y-66479819D01*
X182472619Y-66479819D02*
X182663095Y-66479819D01*
X182663095Y-66479819D02*
X182758333Y-66432200D01*
X182758333Y-66432200D02*
X182805952Y-66336961D01*
X182805952Y-66336961D02*
X182805952Y-66289342D01*
X182805952Y-66289342D02*
X182758333Y-66194104D01*
X182758333Y-66194104D02*
X182663095Y-66146485D01*
X182663095Y-66146485D02*
X182520238Y-66146485D01*
X182520238Y-66146485D02*
X182425000Y-66098866D01*
X182425000Y-66098866D02*
X182377381Y-66003628D01*
X182377381Y-66003628D02*
X182377381Y-65956009D01*
X182377381Y-65956009D02*
X182425000Y-65860771D01*
X182425000Y-65860771D02*
X182520238Y-65813152D01*
X182520238Y-65813152D02*
X182663095Y-65813152D01*
X182663095Y-65813152D02*
X182758333Y-65860771D01*
X183091667Y-65813152D02*
X183472619Y-65813152D01*
X183234524Y-65479819D02*
X183234524Y-66336961D01*
X183234524Y-66336961D02*
X183282143Y-66432200D01*
X183282143Y-66432200D02*
X183377381Y-66479819D01*
X183377381Y-66479819D02*
X183472619Y-66479819D01*
X185139286Y-66384580D02*
X185091667Y-66432200D01*
X185091667Y-66432200D02*
X184948810Y-66479819D01*
X184948810Y-66479819D02*
X184853572Y-66479819D01*
X184853572Y-66479819D02*
X184710715Y-66432200D01*
X184710715Y-66432200D02*
X184615477Y-66336961D01*
X184615477Y-66336961D02*
X184567858Y-66241723D01*
X184567858Y-66241723D02*
X184520239Y-66051247D01*
X184520239Y-66051247D02*
X184520239Y-65908390D01*
X184520239Y-65908390D02*
X184567858Y-65717914D01*
X184567858Y-65717914D02*
X184615477Y-65622676D01*
X184615477Y-65622676D02*
X184710715Y-65527438D01*
X184710715Y-65527438D02*
X184853572Y-65479819D01*
X184853572Y-65479819D02*
X184948810Y-65479819D01*
X184948810Y-65479819D02*
X185091667Y-65527438D01*
X185091667Y-65527438D02*
X185139286Y-65575057D01*
X185520239Y-66432200D02*
X185663096Y-66479819D01*
X185663096Y-66479819D02*
X185901191Y-66479819D01*
X185901191Y-66479819D02*
X185996429Y-66432200D01*
X185996429Y-66432200D02*
X186044048Y-66384580D01*
X186044048Y-66384580D02*
X186091667Y-66289342D01*
X186091667Y-66289342D02*
X186091667Y-66194104D01*
X186091667Y-66194104D02*
X186044048Y-66098866D01*
X186044048Y-66098866D02*
X185996429Y-66051247D01*
X185996429Y-66051247D02*
X185901191Y-66003628D01*
X185901191Y-66003628D02*
X185710715Y-65956009D01*
X185710715Y-65956009D02*
X185615477Y-65908390D01*
X185615477Y-65908390D02*
X185567858Y-65860771D01*
X185567858Y-65860771D02*
X185520239Y-65765533D01*
X185520239Y-65765533D02*
X185520239Y-65670295D01*
X185520239Y-65670295D02*
X185567858Y-65575057D01*
X185567858Y-65575057D02*
X185615477Y-65527438D01*
X185615477Y-65527438D02*
X185710715Y-65479819D01*
X185710715Y-65479819D02*
X185948810Y-65479819D01*
X185948810Y-65479819D02*
X186091667Y-65527438D01*
X148138095Y-72717319D02*
X148138095Y-73526842D01*
X148138095Y-73526842D02*
X148185714Y-73622080D01*
X148185714Y-73622080D02*
X148233333Y-73669700D01*
X148233333Y-73669700D02*
X148328571Y-73717319D01*
X148328571Y-73717319D02*
X148519047Y-73717319D01*
X148519047Y-73717319D02*
X148614285Y-73669700D01*
X148614285Y-73669700D02*
X148661904Y-73622080D01*
X148661904Y-73622080D02*
X148709523Y-73526842D01*
X148709523Y-73526842D02*
X148709523Y-72717319D01*
X149090476Y-72717319D02*
X149709523Y-72717319D01*
X149709523Y-72717319D02*
X149376190Y-73098271D01*
X149376190Y-73098271D02*
X149519047Y-73098271D01*
X149519047Y-73098271D02*
X149614285Y-73145890D01*
X149614285Y-73145890D02*
X149661904Y-73193509D01*
X149661904Y-73193509D02*
X149709523Y-73288747D01*
X149709523Y-73288747D02*
X149709523Y-73526842D01*
X149709523Y-73526842D02*
X149661904Y-73622080D01*
X149661904Y-73622080D02*
X149614285Y-73669700D01*
X149614285Y-73669700D02*
X149519047Y-73717319D01*
X149519047Y-73717319D02*
X149233333Y-73717319D01*
X149233333Y-73717319D02*
X149138095Y-73669700D01*
X149138095Y-73669700D02*
X149090476Y-73622080D01*
X121784580Y-88330357D02*
X121832200Y-88377976D01*
X121832200Y-88377976D02*
X121879819Y-88520833D01*
X121879819Y-88520833D02*
X121879819Y-88616071D01*
X121879819Y-88616071D02*
X121832200Y-88758928D01*
X121832200Y-88758928D02*
X121736961Y-88854166D01*
X121736961Y-88854166D02*
X121641723Y-88901785D01*
X121641723Y-88901785D02*
X121451247Y-88949404D01*
X121451247Y-88949404D02*
X121308390Y-88949404D01*
X121308390Y-88949404D02*
X121117914Y-88901785D01*
X121117914Y-88901785D02*
X121022676Y-88854166D01*
X121022676Y-88854166D02*
X120927438Y-88758928D01*
X120927438Y-88758928D02*
X120879819Y-88616071D01*
X120879819Y-88616071D02*
X120879819Y-88520833D01*
X120879819Y-88520833D02*
X120927438Y-88377976D01*
X120927438Y-88377976D02*
X120975057Y-88330357D01*
X120975057Y-87949404D02*
X120927438Y-87901785D01*
X120927438Y-87901785D02*
X120879819Y-87806547D01*
X120879819Y-87806547D02*
X120879819Y-87568452D01*
X120879819Y-87568452D02*
X120927438Y-87473214D01*
X120927438Y-87473214D02*
X120975057Y-87425595D01*
X120975057Y-87425595D02*
X121070295Y-87377976D01*
X121070295Y-87377976D02*
X121165533Y-87377976D01*
X121165533Y-87377976D02*
X121308390Y-87425595D01*
X121308390Y-87425595D02*
X121879819Y-87997023D01*
X121879819Y-87997023D02*
X121879819Y-87377976D01*
X121213152Y-86520833D02*
X121879819Y-86520833D01*
X120832200Y-86758928D02*
X121546485Y-86997023D01*
X121546485Y-86997023D02*
X121546485Y-86377976D01*
X142312618Y-79617226D02*
X142312618Y-78347226D01*
X142312618Y-78347226D02*
X142614999Y-78347226D01*
X142614999Y-78347226D02*
X142796428Y-78407702D01*
X142796428Y-78407702D02*
X142917380Y-78528654D01*
X142917380Y-78528654D02*
X142977857Y-78649607D01*
X142977857Y-78649607D02*
X143038333Y-78891511D01*
X143038333Y-78891511D02*
X143038333Y-79072940D01*
X143038333Y-79072940D02*
X142977857Y-79314845D01*
X142977857Y-79314845D02*
X142917380Y-79435797D01*
X142917380Y-79435797D02*
X142796428Y-79556750D01*
X142796428Y-79556750D02*
X142614999Y-79617226D01*
X142614999Y-79617226D02*
X142312618Y-79617226D01*
X143764047Y-78891511D02*
X143643095Y-78831035D01*
X143643095Y-78831035D02*
X143582618Y-78770559D01*
X143582618Y-78770559D02*
X143522142Y-78649607D01*
X143522142Y-78649607D02*
X143522142Y-78589130D01*
X143522142Y-78589130D02*
X143582618Y-78468178D01*
X143582618Y-78468178D02*
X143643095Y-78407702D01*
X143643095Y-78407702D02*
X143764047Y-78347226D01*
X143764047Y-78347226D02*
X144005952Y-78347226D01*
X144005952Y-78347226D02*
X144126904Y-78407702D01*
X144126904Y-78407702D02*
X144187380Y-78468178D01*
X144187380Y-78468178D02*
X144247857Y-78589130D01*
X144247857Y-78589130D02*
X144247857Y-78649607D01*
X144247857Y-78649607D02*
X144187380Y-78770559D01*
X144187380Y-78770559D02*
X144126904Y-78831035D01*
X144126904Y-78831035D02*
X144005952Y-78891511D01*
X144005952Y-78891511D02*
X143764047Y-78891511D01*
X143764047Y-78891511D02*
X143643095Y-78951988D01*
X143643095Y-78951988D02*
X143582618Y-79012464D01*
X143582618Y-79012464D02*
X143522142Y-79133416D01*
X143522142Y-79133416D02*
X143522142Y-79375321D01*
X143522142Y-79375321D02*
X143582618Y-79496273D01*
X143582618Y-79496273D02*
X143643095Y-79556750D01*
X143643095Y-79556750D02*
X143764047Y-79617226D01*
X143764047Y-79617226D02*
X144005952Y-79617226D01*
X144005952Y-79617226D02*
X144126904Y-79556750D01*
X144126904Y-79556750D02*
X144187380Y-79496273D01*
X144187380Y-79496273D02*
X144247857Y-79375321D01*
X144247857Y-79375321D02*
X144247857Y-79133416D01*
X144247857Y-79133416D02*
X144187380Y-79012464D01*
X144187380Y-79012464D02*
X144126904Y-78951988D01*
X144126904Y-78951988D02*
X144005952Y-78891511D01*
D12*
%TO.C,S2*%
X120700000Y-55087500D02*
X120700000Y-50587500D01*
X120700000Y-55087500D02*
X125200000Y-55087500D01*
X125200000Y-50587500D02*
X125200000Y-55087500D01*
X125200000Y-50587500D02*
X120700000Y-50587500D01*
D13*
X126650000Y-50137500D02*
G75*
G02*
X126450000Y-50137500I-100000J0D01*
G01*
X126450000Y-50137500D02*
G75*
G02*
X126650000Y-50137500I100000J0D01*
G01*
D12*
%TO.C,S1*%
X130125000Y-55075000D02*
X130125000Y-50575000D01*
X130125000Y-55075000D02*
X134625000Y-55075000D01*
X134625000Y-50575000D02*
X134625000Y-55075000D01*
X134625000Y-50575000D02*
X130125000Y-50575000D01*
D13*
X136075000Y-50125000D02*
G75*
G02*
X135875000Y-50125000I-100000J0D01*
G01*
X135875000Y-50125000D02*
G75*
G02*
X136075000Y-50125000I100000J0D01*
G01*
D12*
%TO.C,R35*%
X147080000Y-92940000D02*
X143820000Y-92940000D01*
X147080000Y-90760000D02*
X143820000Y-90760000D01*
D14*
%TO.C,C3*%
X122440000Y-93001248D02*
X122440000Y-93523752D01*
X123910000Y-93001248D02*
X123910000Y-93523752D01*
D12*
%TO.C,VR1*%
X135350000Y-82750000D02*
X136590000Y-82750000D01*
X135350000Y-86250000D02*
X135350000Y-82750000D01*
X141850000Y-82750000D02*
X140610000Y-82750000D01*
X141850000Y-86250000D02*
X141850000Y-82750000D01*
D13*
X136400000Y-89100000D02*
G75*
G02*
X136200000Y-89100000I-100000J0D01*
G01*
X136200000Y-89100000D02*
G75*
G02*
X136400000Y-89100000I100000J0D01*
G01*
D14*
%TO.C,C21*%
X138838748Y-66365000D02*
X139361252Y-66365000D01*
X138838748Y-67835000D02*
X139361252Y-67835000D01*
%TO.C,R22*%
X154665000Y-54277064D02*
X154665000Y-53822936D01*
X156135000Y-54277064D02*
X156135000Y-53822936D01*
D12*
%TO.C,Q1*%
X138775000Y-57585000D02*
X138775000Y-54680000D01*
X138970000Y-57585000D02*
X138775000Y-57585000D01*
X140925000Y-54690000D02*
X140925000Y-57585000D01*
X140925000Y-57585000D02*
X140720000Y-57585000D01*
D13*
X140650000Y-52510000D02*
G75*
G02*
X140450000Y-52510000I-100000J0D01*
G01*
X140450000Y-52510000D02*
G75*
G02*
X140650000Y-52510000I100000J0D01*
G01*
D12*
%TO.C,MK1*%
X125750000Y-68000000D02*
G75*
G02*
X119750000Y-68000000I-3000000J0D01*
G01*
X119750000Y-68000000D02*
G75*
G02*
X125750000Y-68000000I3000000J0D01*
G01*
%TO.C,J3*%
X162450000Y-84607500D02*
X162450000Y-102667500D01*
X162450000Y-106887500D02*
X162450000Y-106107500D01*
X168520000Y-81887500D02*
X169305000Y-81887500D01*
X170945000Y-81887500D02*
X171805000Y-81887500D01*
X173445000Y-81887500D02*
X174305000Y-81887500D01*
X175945000Y-81887500D02*
X176805000Y-81887500D01*
X178445000Y-81887500D02*
X179305000Y-81887500D01*
X180945000Y-81887500D02*
X181805000Y-81887500D01*
X183445000Y-81887500D02*
X184305000Y-81887500D01*
X188270000Y-81887500D02*
X189050000Y-81887500D01*
X189050000Y-81887500D02*
X189050000Y-102667500D01*
X189050000Y-106887500D02*
X162450000Y-106887500D01*
X189050000Y-106887500D02*
X189050000Y-106107500D01*
D13*
X182725000Y-79637500D02*
G75*
G02*
X182525000Y-79637500I-100000J0D01*
G01*
X182525000Y-79637500D02*
G75*
G02*
X182725000Y-79637500I100000J0D01*
G01*
D14*
%TO.C,J5*%
X195270000Y-72170000D02*
X196600000Y-72170000D01*
X195270000Y-73500000D02*
X195270000Y-72170000D01*
X195270000Y-74770000D02*
X195270000Y-84990000D01*
X195270000Y-74770000D02*
X197930000Y-74770000D01*
X195270000Y-84990000D02*
X197930000Y-84990000D01*
X197930000Y-74770000D02*
X197930000Y-84990000D01*
%TO.C,C18*%
X130576248Y-61965000D02*
X131098752Y-61965000D01*
X130576248Y-63435000D02*
X131098752Y-63435000D01*
D12*
%TO.C,J1*%
X145030000Y-95789500D02*
X145030000Y-96489500D01*
X145030000Y-103959500D02*
X145030000Y-106039500D01*
X145030000Y-106039500D02*
X153770000Y-106039500D01*
X146180000Y-95789500D02*
X145030000Y-95789500D01*
X152620000Y-95789500D02*
X153770000Y-95789500D01*
X153770000Y-95789500D02*
X153770000Y-96489500D01*
X153770000Y-106039500D02*
X153770000Y-103959500D01*
D13*
X146700000Y-94189500D02*
G75*
G02*
X146500000Y-94189500I-100000J0D01*
G01*
X146500000Y-94189500D02*
G75*
G02*
X146700000Y-94189500I100000J0D01*
G01*
D14*
%TO.C,R2*%
X139765000Y-100522936D02*
X139765000Y-100977064D01*
X141235000Y-100522936D02*
X141235000Y-100977064D01*
%TO.C,C10*%
X166515000Y-50988748D02*
X166515000Y-51511252D01*
X167985000Y-50988748D02*
X167985000Y-51511252D01*
%TO.C,R20*%
X163135436Y-58215000D02*
X163589564Y-58215000D01*
X163135436Y-59685000D02*
X163589564Y-59685000D01*
%TO.C,Q3*%
X130090000Y-57610000D02*
X130090000Y-56960000D01*
X130090000Y-57610000D02*
X130090000Y-58260000D01*
X133210000Y-57610000D02*
X133210000Y-56960000D01*
X133210000Y-57610000D02*
X133210000Y-58260000D01*
X130140000Y-58772500D02*
X129810000Y-59012500D01*
X129810000Y-58532500D01*
X130140000Y-58772500D01*
G36*
X130140000Y-58772500D02*
G01*
X129810000Y-59012500D01*
X129810000Y-58532500D01*
X130140000Y-58772500D01*
G37*
%TO.C,R25*%
X140127064Y-50415000D02*
X139672936Y-50415000D01*
X140127064Y-51885000D02*
X139672936Y-51885000D01*
%TO.C,R10*%
X139152064Y-89390000D02*
X138697936Y-89390000D01*
X139152064Y-90860000D02*
X138697936Y-90860000D01*
%TO.C,R9*%
X139152064Y-92140000D02*
X138697936Y-92140000D01*
X139152064Y-93610000D02*
X138697936Y-93610000D01*
%TO.C,R26*%
X131064564Y-64165000D02*
X130610436Y-64165000D01*
X131064564Y-65635000D02*
X130610436Y-65635000D01*
%TO.C,R30*%
X134815000Y-72072936D02*
X134815000Y-72527064D01*
X136285000Y-72072936D02*
X136285000Y-72527064D01*
D12*
%TO.C,C11*%
X164065000Y-50650000D02*
X164065000Y-53850000D01*
X165935000Y-50650000D02*
X165935000Y-53850000D01*
D13*
X165100000Y-49450000D02*
G75*
G02*
X164900000Y-49450000I-100000J0D01*
G01*
X164900000Y-49450000D02*
G75*
G02*
X165100000Y-49450000I100000J0D01*
G01*
D14*
%TO.C,R34*%
X160765000Y-51977064D02*
X160765000Y-51522936D01*
X162235000Y-51977064D02*
X162235000Y-51522936D01*
%TO.C,TP4*%
X188200000Y-73700000D02*
G75*
G02*
X186800000Y-73700000I-700000J0D01*
G01*
X186800000Y-73700000D02*
G75*
G02*
X188200000Y-73700000I700000J0D01*
G01*
%TO.C,R6*%
X130440000Y-83647936D02*
X130440000Y-84102064D01*
X131910000Y-83647936D02*
X131910000Y-84102064D01*
%TO.C,R14*%
X153685436Y-83265000D02*
X154139564Y-83265000D01*
X153685436Y-84735000D02*
X154139564Y-84735000D01*
%TO.C,R28*%
X135264564Y-63965000D02*
X134810436Y-63965000D01*
X135264564Y-65435000D02*
X134810436Y-65435000D01*
%TO.C,R21*%
X167061000Y-77173564D02*
X167061000Y-76719436D01*
X168531000Y-77173564D02*
X168531000Y-76719436D01*
%TO.C,C19*%
X132415000Y-72561252D02*
X132415000Y-72038748D01*
X133885000Y-72561252D02*
X133885000Y-72038748D01*
D12*
%TO.C,U2*%
X169500000Y-42900000D02*
X169500000Y-49230000D01*
X169500000Y-62900000D02*
X169500000Y-62770000D01*
X169500000Y-62900000D02*
X187500000Y-62900000D01*
X187500000Y-42900000D02*
X169500000Y-42900000D01*
X187500000Y-49230000D02*
X187500000Y-42900000D01*
X187500000Y-62900000D02*
X187500000Y-62770000D01*
D13*
X168600000Y-49400000D02*
G75*
G02*
X168400000Y-49400000I-100000J0D01*
G01*
X168400000Y-49400000D02*
G75*
G02*
X168600000Y-49400000I100000J0D01*
G01*
D14*
%TO.C,C14*%
X164673248Y-65243000D02*
X165195752Y-65243000D01*
X164673248Y-66713000D02*
X165195752Y-66713000D01*
%TO.C,R19*%
X182015000Y-77027064D02*
X182015000Y-76572936D01*
X183485000Y-77027064D02*
X183485000Y-76572936D01*
%TO.C,TP3*%
X173325000Y-73575000D02*
G75*
G02*
X171925000Y-73575000I-700000J0D01*
G01*
X171925000Y-73575000D02*
G75*
G02*
X173325000Y-73575000I700000J0D01*
G01*
%TO.C,R24*%
X154665000Y-58022936D02*
X154665000Y-58477064D01*
X156135000Y-58022936D02*
X156135000Y-58477064D01*
%TO.C,R33*%
X142335000Y-63177064D02*
X142335000Y-62722936D01*
X140865000Y-63177064D02*
X140865000Y-62722936D01*
D12*
%TO.C,J2*%
X110957500Y-79125000D02*
X111637500Y-79125000D01*
X110957500Y-87075000D02*
X110957500Y-79125000D01*
X111637500Y-87075000D02*
X110957500Y-87075000D01*
X115957500Y-79125000D02*
X115277500Y-79125000D01*
X115957500Y-79125000D02*
X115957500Y-81280000D01*
X115957500Y-84920000D02*
X115957500Y-87075000D01*
X115957500Y-87075000D02*
X115277500Y-87075000D01*
D13*
X119217500Y-84100000D02*
G75*
G02*
X119017500Y-84100000I-100000J0D01*
G01*
X119017500Y-84100000D02*
G75*
G02*
X119217500Y-84100000I100000J0D01*
G01*
D14*
%TO.C,C15*%
X147065000Y-52911252D02*
X147065000Y-52388748D01*
X148535000Y-52911252D02*
X148535000Y-52388748D01*
%TO.C,C20*%
X138015000Y-70561252D02*
X138015000Y-70038748D01*
X139485000Y-70561252D02*
X139485000Y-70038748D01*
%TO.C,C16*%
X147065000Y-56538748D02*
X147065000Y-57061252D01*
X148535000Y-56538748D02*
X148535000Y-57061252D01*
%TO.C,C7*%
X151715000Y-77776248D02*
X151715000Y-78298752D01*
X153185000Y-77776248D02*
X153185000Y-78298752D01*
%TO.C,C22*%
X133865000Y-57286248D02*
X133865000Y-57808752D01*
X135335000Y-57286248D02*
X135335000Y-57808752D01*
D15*
%TO.C,U7*%
X134710000Y-69669200D02*
X136070000Y-69669200D01*
X136070000Y-67230800D02*
X134710000Y-67230800D01*
X133346200Y-67210800D02*
G75*
G02*
X133346200Y-67464800I0J-127000D01*
G01*
X133346200Y-67464800D02*
G75*
G02*
X133346200Y-67210800I0J127000D01*
G01*
D14*
%TO.C,U1*%
X125615000Y-88415000D02*
X126340000Y-88415000D01*
X125615000Y-89140000D02*
X125615000Y-88415000D01*
X125615000Y-91910000D02*
X125615000Y-92335000D01*
X126340000Y-92635000D02*
X125855000Y-92635000D01*
X129835000Y-88415000D02*
X129110000Y-88415000D01*
X129835000Y-89140000D02*
X129835000Y-88415000D01*
X129835000Y-91910000D02*
X129835000Y-92635000D01*
X129835000Y-92635000D02*
X129110000Y-92635000D01*
X125615000Y-92635000D02*
X125285000Y-92875000D01*
X125285000Y-92395000D01*
X125615000Y-92635000D01*
G36*
X125615000Y-92635000D02*
G01*
X125285000Y-92875000D01*
X125285000Y-92395000D01*
X125615000Y-92635000D01*
G37*
%TO.C,C17*%
X131098752Y-68365000D02*
X130576248Y-68365000D01*
X131098752Y-69835000D02*
X130576248Y-69835000D01*
D13*
%TO.C,U5*%
X155525000Y-65350000D02*
X160475000Y-65350000D01*
X155525000Y-70650000D02*
X155525000Y-65350000D01*
X160475000Y-65350000D02*
X160475000Y-70650000D01*
X160475000Y-70650000D02*
X155525000Y-70650000D01*
D12*
X154500000Y-65400000D02*
G75*
G02*
X154300000Y-65400000I-100000J0D01*
G01*
X154300000Y-65400000D02*
G75*
G02*
X154500000Y-65400000I100000J0D01*
G01*
X154623606Y-65400000D02*
G75*
G02*
X154176394Y-65400000I-223606J0D01*
G01*
X154176394Y-65400000D02*
G75*
G02*
X154623606Y-65400000I223606J0D01*
G01*
X154600000Y-65400000D02*
G75*
G02*
X154400000Y-65400000I-100000J0D01*
G01*
X154400000Y-65400000D02*
G75*
G02*
X154600000Y-65400000I100000J0D01*
G01*
X156300000Y-66100000D02*
G75*
G02*
X156100000Y-66100000I-100000J0D01*
G01*
X156100000Y-66100000D02*
G75*
G02*
X156300000Y-66100000I100000J0D01*
G01*
X156341419Y-66100000D02*
G75*
G02*
X156058581Y-66100000I-141419J0D01*
G01*
X156058581Y-66100000D02*
G75*
G02*
X156341419Y-66100000I141419J0D01*
G01*
X156423606Y-66100000D02*
G75*
G02*
X155976394Y-66100000I-223606J0D01*
G01*
X155976394Y-66100000D02*
G75*
G02*
X156423606Y-66100000I223606J0D01*
G01*
X156516225Y-66100000D02*
G75*
G02*
X155883775Y-66100000I-316225J0D01*
G01*
X155883775Y-66100000D02*
G75*
G02*
X156516225Y-66100000I316225J0D01*
G01*
X156300000Y-66200000D02*
G75*
G02*
X156100000Y-66200000I-100000J0D01*
G01*
X156100000Y-66200000D02*
G75*
G02*
X156300000Y-66200000I100000J0D01*
G01*
D14*
%TO.C,C1*%
X151894748Y-92874500D02*
X152417252Y-92874500D01*
X151894748Y-94344500D02*
X152417252Y-94344500D01*
%TO.C,Q2*%
X120817500Y-57610000D02*
X120817500Y-56960000D01*
X120817500Y-57610000D02*
X120817500Y-58260000D01*
X123937500Y-57610000D02*
X123937500Y-56960000D01*
X123937500Y-57610000D02*
X123937500Y-58260000D01*
X120867500Y-58772500D02*
X120537500Y-59012500D01*
X120537500Y-58532500D01*
X120867500Y-58772500D01*
G36*
X120867500Y-58772500D02*
G01*
X120537500Y-59012500D01*
X120537500Y-58532500D01*
X120867500Y-58772500D01*
G37*
%TO.C,R11*%
X139152064Y-94890000D02*
X138697936Y-94890000D01*
X139152064Y-96360000D02*
X138697936Y-96360000D01*
%TO.C,C12*%
X175918748Y-77996500D02*
X176441252Y-77996500D01*
X175918748Y-79466500D02*
X176441252Y-79466500D01*
%TO.C,TP1*%
X179700000Y-71700000D02*
G75*
G02*
X178300000Y-71700000I-700000J0D01*
G01*
X178300000Y-71700000D02*
G75*
G02*
X179700000Y-71700000I700000J0D01*
G01*
%TO.C,C4*%
X125390000Y-86136252D02*
X125390000Y-85613748D01*
X126860000Y-86136252D02*
X126860000Y-85613748D01*
%TO.C,R5*%
X127940000Y-83647936D02*
X127940000Y-84102064D01*
X129410000Y-83647936D02*
X129410000Y-84102064D01*
D12*
%TO.C,C5*%
X142715000Y-87850000D02*
X142715000Y-84650000D01*
X144585000Y-87850000D02*
X144585000Y-84650000D01*
D13*
X143750000Y-89050000D02*
G75*
G02*
X143550000Y-89050000I-100000J0D01*
G01*
X143550000Y-89050000D02*
G75*
G02*
X143750000Y-89050000I100000J0D01*
G01*
D14*
%TO.C,R7*%
X131640000Y-97639564D02*
X131640000Y-97185436D01*
X133110000Y-97639564D02*
X133110000Y-97185436D01*
%TO.C,R3*%
X129339564Y-96827500D02*
X128885436Y-96827500D01*
X129339564Y-98297500D02*
X128885436Y-98297500D01*
%TO.C,R29*%
X134810436Y-61965000D02*
X135264564Y-61965000D01*
X134810436Y-63435000D02*
X135264564Y-63435000D01*
%TO.C,R17*%
X139422936Y-74902500D02*
X139877064Y-74902500D01*
X139422936Y-76372500D02*
X139877064Y-76372500D01*
%TO.C,R4*%
X125639564Y-96827500D02*
X125185436Y-96827500D01*
X125639564Y-98297500D02*
X125185436Y-98297500D01*
%TO.C,C9*%
X154173752Y-87265000D02*
X153651248Y-87265000D01*
X154173752Y-88735000D02*
X153651248Y-88735000D01*
%TO.C,R32*%
X144360000Y-63177064D02*
X144360000Y-62722936D01*
X142890000Y-63177064D02*
X142890000Y-62722936D01*
%TO.C,R31*%
X140815000Y-70527064D02*
X140815000Y-70072936D01*
X142285000Y-70527064D02*
X142285000Y-70072936D01*
%TO.C,R23*%
X150990000Y-65897936D02*
X150990000Y-66352064D01*
X152460000Y-65897936D02*
X152460000Y-66352064D01*
%TO.C,R15*%
X154139564Y-85265000D02*
X153685436Y-85265000D01*
X154139564Y-86735000D02*
X153685436Y-86735000D01*
D12*
%TO.C,C13*%
X175080000Y-75546500D02*
X178280000Y-75546500D01*
X175080000Y-77416500D02*
X178280000Y-77416500D01*
D13*
X173980000Y-76481500D02*
G75*
G02*
X173780000Y-76481500I-100000J0D01*
G01*
X173780000Y-76481500D02*
G75*
G02*
X173980000Y-76481500I100000J0D01*
G01*
D14*
%TO.C,R16*%
X139422936Y-76902500D02*
X139877064Y-76902500D01*
X139422936Y-78372500D02*
X139877064Y-78372500D01*
%TO.C,C23*%
X118565000Y-58413748D02*
X118565000Y-58936252D01*
X120035000Y-58413748D02*
X120035000Y-58936252D01*
%TO.C,TP2*%
X168475000Y-73075000D02*
G75*
G02*
X167075000Y-73075000I-700000J0D01*
G01*
X167075000Y-73075000D02*
G75*
G02*
X168475000Y-73075000I700000J0D01*
G01*
%TO.C,R8*%
X132902064Y-86677500D02*
X132447936Y-86677500D01*
X132902064Y-88147500D02*
X132447936Y-88147500D01*
%TO.C,U4*%
X147840000Y-82700000D02*
X147840000Y-81900000D01*
X147840000Y-82700000D02*
X147840000Y-83500000D01*
X150960000Y-82700000D02*
X150960000Y-81900000D01*
X150960000Y-82700000D02*
X150960000Y-83500000D01*
X147890000Y-84000000D02*
X147560000Y-84240000D01*
X147560000Y-83760000D01*
X147890000Y-84000000D01*
G36*
X147890000Y-84000000D02*
G01*
X147560000Y-84240000D01*
X147560000Y-83760000D01*
X147890000Y-84000000D01*
G37*
D12*
%TO.C,C25*%
X153715000Y-77237500D02*
X153715000Y-80437500D01*
X155585000Y-77237500D02*
X155585000Y-80437500D01*
D13*
X154750000Y-76037500D02*
G75*
G02*
X154550000Y-76037500I-100000J0D01*
G01*
X154550000Y-76037500D02*
G75*
G02*
X154750000Y-76037500I100000J0D01*
G01*
D14*
%TO.C,R1*%
X157265000Y-100272936D02*
X157265000Y-100727064D01*
X158735000Y-100272936D02*
X158735000Y-100727064D01*
D16*
%TO.C,U6*%
X149215000Y-53925000D02*
X149215000Y-54075000D01*
X149225000Y-53925000D02*
X149375000Y-53925000D01*
X149225000Y-56625000D02*
X149225000Y-56475000D01*
X149225000Y-56625000D02*
X149375000Y-56625000D01*
X151925000Y-56475000D02*
X151925000Y-56625000D01*
X151925000Y-56625000D02*
X151775000Y-56625000D01*
D14*
X152285000Y-53925000D02*
X151925000Y-53925000D01*
X151925000Y-53565000D01*
X152285000Y-53925000D01*
G36*
X152285000Y-53925000D02*
G01*
X151925000Y-53925000D01*
X151925000Y-53565000D01*
X152285000Y-53925000D01*
G37*
D12*
%TO.C,C6*%
X142400000Y-80115000D02*
X145600000Y-80115000D01*
X142400000Y-81985000D02*
X145600000Y-81985000D01*
D13*
X141300000Y-81050000D02*
G75*
G02*
X141100000Y-81050000I-100000J0D01*
G01*
X141100000Y-81050000D02*
G75*
G02*
X141300000Y-81050000I100000J0D01*
G01*
D14*
%TO.C,R13*%
X154477064Y-73902500D02*
X154022936Y-73902500D01*
X154477064Y-75372500D02*
X154022936Y-75372500D01*
%TO.C,R12*%
X158765000Y-95106564D02*
X158765000Y-94652436D01*
X160235000Y-95106564D02*
X160235000Y-94652436D01*
%TO.C,R18*%
X161922936Y-61765000D02*
X162377064Y-61765000D01*
X161922936Y-63235000D02*
X162377064Y-63235000D01*
%TO.C,J4*%
X195270000Y-59734000D02*
X196600000Y-59734000D01*
X195270000Y-61064000D02*
X195270000Y-59734000D01*
X195270000Y-62334000D02*
X195270000Y-70014000D01*
X195270000Y-62334000D02*
X197930000Y-62334000D01*
X195270000Y-70014000D02*
X197930000Y-70014000D01*
X197930000Y-62334000D02*
X197930000Y-70014000D01*
%TO.C,R27*%
X130610436Y-66165000D02*
X131064564Y-66165000D01*
X130610436Y-67635000D02*
X131064564Y-67635000D01*
%TO.C,TP5*%
X184125000Y-64475000D02*
G75*
G02*
X182725000Y-64475000I-700000J0D01*
G01*
X182725000Y-64475000D02*
G75*
G02*
X184125000Y-64475000I700000J0D01*
G01*
%TO.C,U3*%
X147240000Y-74440000D02*
X147740000Y-74440000D01*
X147240000Y-74940000D02*
X147240000Y-74440000D01*
X147240000Y-77260000D02*
X147240000Y-77460000D01*
X147740000Y-77760000D02*
X147490000Y-77760000D01*
X150560000Y-74440000D02*
X150060000Y-74440000D01*
X150560000Y-74940000D02*
X150560000Y-74440000D01*
X150560000Y-77260000D02*
X150560000Y-77760000D01*
X150560000Y-77760000D02*
X150060000Y-77760000D01*
X147240000Y-77760000D02*
X146910000Y-78000000D01*
X146910000Y-77520000D01*
X147240000Y-77760000D01*
G36*
X147240000Y-77760000D02*
G01*
X146910000Y-78000000D01*
X146910000Y-77520000D01*
X147240000Y-77760000D01*
G37*
D12*
%TO.C,C24*%
X122240000Y-89462500D02*
X122240000Y-86262500D01*
X124110000Y-89462500D02*
X124110000Y-86262500D01*
D13*
X123275000Y-90662500D02*
G75*
G02*
X123075000Y-90662500I-100000J0D01*
G01*
X123075000Y-90662500D02*
G75*
G02*
X123275000Y-90662500I100000J0D01*
G01*
%TD*%
M02*
